<svg width="95" height="109" viewBox="0 0 95 109" fill="none" xmlns="http://www.w3.org/2000/svg">
<g clip-path="url(#clip0_240_645)">
<path d="M54.3774 81.5537C10.5705 43.4513 -0.403148 18.5245 -17.2531 -42.3887" stroke="#DBB550" stroke-width="4.16169" stroke-linecap="round"/>
<path d="M64.249 101.046C55.37 94.3949 51.5475 79.5129 51.5475 79.5129C51.5475 79.5129 66.3714 80.2644 75.2505 86.9153C84.1295 93.5662 89.0186 107.581 89.0186 107.581C89.0186 107.581 73.1281 107.697 64.249 101.046Z" fill="#DBB550"/>
<path d="M49.675 67.5956C41.9389 67.7983 33.2243 63.1867 33.2243 63.1867C33.2243 63.1867 41.6853 58.1249 49.4215 57.9221C57.1576 57.7193 65.8722 62.3309 65.8722 62.3309C65.8722 62.3309 57.4111 67.3928 49.675 67.5956Z" fill="#DBB550"/>
<path d="M29.1835 79.1008C29.14 71.3621 33.9301 62.7443 33.9301 62.7443C33.9301 62.7443 38.8167 71.3078 38.8601 79.0464C38.9036 86.7851 34.1135 95.4029 34.1135 95.4029C34.1135 95.4029 29.227 86.8394 29.1835 79.1008Z" fill="#DBB550"/>
<path d="M31.914 46.098C24.1779 46.3008 15.4633 41.6892 15.4633 41.6892C15.4633 41.6892 23.9243 36.6273 31.6605 36.4245C39.3966 36.2218 48.1112 40.8334 48.1112 40.8334C48.1112 40.8334 39.6502 45.8952 31.914 46.098Z" fill="#DBB550"/>
<path d="M7.71449 56.1049C9.53267 48.5827 16.254 41.3692 16.254 41.3692C16.254 41.3692 18.9386 50.8562 17.1204 58.3784C15.3022 65.9006 8.5809 73.1141 8.5809 73.1141C8.5809 73.1141 5.8963 63.6271 7.71449 56.1049Z" fill="#DBB550"/>
<path d="M18.7519 23.4605C11.0202 23.1296 2.64416 17.9282 2.64416 17.9282C2.64416 17.9282 11.434 13.4616 19.1657 13.7926C26.8974 14.1235 35.2734 19.3248 35.2734 19.3248C35.2734 19.3248 26.4836 23.7914 18.7519 23.4605Z" fill="#DBB550"/>
<path d="M-6.91965 32.8401C-4.88436 25.3738 2.04306 18.3579 2.04306 18.3579C2.04306 18.3579 4.45175 27.9188 2.41646 35.3851C0.381172 42.8515 -6.54624 49.8673 -6.54624 49.8673C-6.54624 49.8673 -8.95494 40.3065 -6.91965 32.8401Z" fill="#DBB550"/>
<path d="M65.385 38.8535C79.4789 18.0887 81.309 6.45927 81.6166 -20.8577" stroke="#DB6F4F" stroke-width="1.7989" stroke-linecap="round"/>
<path d="M63.4147 48.0901C66.3899 44.3293 66.3421 37.6879 66.3421 37.6879C66.3421 37.6879 60.2305 39.6406 57.2554 43.4014C54.2803 47.1622 53.7865 53.5591 53.7865 53.5591C53.7865 53.5591 60.4396 51.8509 63.4147 48.0901Z" fill="#DB6F4F"/>
<path d="M65.8071 32.5007C69.0622 31.7303 72.1941 28.8398 72.1941 28.8398C72.1941 28.8398 68.0988 27.6599 64.8437 28.4304C61.5885 29.2008 58.4566 32.0913 58.4566 32.0913C58.4566 32.0913 62.5519 33.2712 65.8071 32.5007Z" fill="#DB6F4F"/>
<path d="M75.6418 35.0433C74.8045 31.8046 71.8502 28.733 71.8502 28.733C71.8502 28.733 70.7548 32.8516 71.5921 36.0903C72.4295 39.3289 75.3838 42.4006 75.3838 42.4006C75.3838 42.4006 76.4791 38.2819 75.6418 35.0433Z" fill="#DB6F4F"/>
<path d="M70.8525 21.554C74.1076 20.7835 77.2395 17.893 77.2395 17.893C77.2395 17.893 73.1443 16.7131 69.8891 17.4836C66.6339 18.2541 63.5021 21.1445 63.5021 21.1445C63.5021 21.1445 67.5973 22.3244 70.8525 21.554Z" fill="#DB6F4F"/>
<path d="M82.0712 23.0607C80.4799 20.1183 76.8738 17.847 76.8738 17.847C76.8738 17.847 76.8007 22.1082 78.392 25.0505C79.9833 27.9929 83.5894 30.2643 83.5894 30.2643C83.5894 30.2643 83.6625 26.0031 82.0712 23.0607Z" fill="#DB6F4F"/>
<path d="M73.8502 10.6397C77.0446 9.64674 79.9697 6.5473 79.9697 6.5473C79.9697 6.5473 75.8029 5.65248 72.6086 6.64547C69.4143 7.63846 66.4891 10.7379 66.4891 10.7379C66.4891 10.7379 70.6559 11.6327 73.8502 10.6397Z" fill="#DB6F4F"/>
<path d="M85.6146 11.7206C83.9387 8.82557 80.2684 6.65959 80.2684 6.65959C80.2684 6.65959 80.3187 10.9211 81.9946 13.8162C83.6705 16.7112 87.3408 18.8772 87.3408 18.8772C87.3408 18.8772 87.2905 14.6156 85.6146 11.7206Z" fill="#DB6F4F"/>
<path d="M76.006 -1.83401C79.1056 -3.0919 81.7599 -6.42619 81.7599 -6.42619C81.7599 -6.42619 77.5327 -6.96771 74.4331 -5.70982C71.3335 -4.45193 68.6791 -1.11765 68.6791 -1.11765C68.6791 -1.11765 72.9064 -0.576119 76.006 -1.83401Z" fill="#DB6F4F"/>
<path d="M86.8639 -1.77061C85.188 -4.66564 81.5176 -6.83162 81.5176 -6.83162C81.5176 -6.83162 81.568 -2.57009 83.2439 0.324944C84.9197 3.21998 88.5901 5.38595 88.5901 5.38595C88.5901 5.38595 88.5398 1.12442 86.8639 -1.77061Z" fill="#DB6F4F"/>
</g>
<defs>
<clipPath id="clip0_240_645">
<rect width="94.1975" height="109" fill="white"/>
</clipPath>
</defs>
</svg>
