<svg width="102" height="115" viewBox="0 0 102 115" fill="none" xmlns="http://www.w3.org/2000/svg">
<g clip-path="url(#clip0_240_668)">
<path d="M57.2095 23.0356C25.1731 60.0826 18.9835 82.2086 12.181 135.088" stroke="#DB6F4F" stroke-width="3.51074" stroke-linecap="round"/>
<path d="M60.4695 8.82002C58.1404 11.1465 56.4553 14.2489 55.2494 17.2935C53.1651 22.5556 58.1027 27.108 63.2294 24.7096C66.1174 23.3585 69.0656 21.5825 71.3431 19.3076C73.5449 17.1083 75.2811 14.2816 76.6178 11.4881C79.1008 6.29894 74.4154 1.32055 69.0862 3.48662C65.9686 4.75379 62.8047 6.48751 60.4695 8.82002Z" fill="#DB6F4F"/>
<path d="M52.3478 34.9577C50.0273 35.2274 47.6759 36.0269 45.6127 36.9425C42.6231 38.2692 43.0654 42.0739 46.2796 42.6794C48.4978 43.0973 50.97 43.336 53.2904 43.0663C55.6108 42.7965 57.9623 41.997 60.0255 41.0814C63.0151 39.7548 62.5728 35.9501 59.3586 35.3446C57.1404 34.9267 54.6682 34.6879 52.3478 34.9577Z" fill="#DB6F4F"/>
<path d="M38.1526 31.4584C38.4701 33.7728 39.3178 36.1073 40.2757 38.1512C41.6637 41.1128 45.4584 40.5923 45.9976 37.3663C46.3697 35.14 46.5575 32.6634 46.2401 30.349C45.9226 28.0346 45.0749 25.7001 44.117 23.6562C42.7291 20.6946 38.9343 21.2151 38.3951 24.4411C38.023 26.6674 37.8352 29.144 38.1526 31.4584Z" fill="#DB6F4F"/>
<path d="M40.4779 53.2585C38.1575 53.5282 35.806 54.3277 33.7428 55.2433C30.7532 56.57 31.1955 60.3746 34.4097 60.9802C36.6279 61.398 39.1001 61.6368 41.4205 61.367C43.7409 61.0973 46.0924 60.2978 48.1556 59.3822C51.1452 58.0555 50.7029 54.2509 47.4887 53.6454C45.2705 53.2275 42.7983 52.9887 40.4779 53.2585Z" fill="#DB6F4F"/>
<path d="M24.5324 52.2647C25.3969 54.4349 26.781 56.4972 28.2021 58.2509C30.2613 60.792 33.8197 59.3744 33.5676 56.1135C33.3936 53.863 32.9805 51.4139 32.116 49.2437C31.2514 47.0735 29.8673 45.0112 28.4462 43.2575C26.387 40.7164 22.8286 42.1339 23.0808 45.3949C23.2548 47.6454 23.6678 50.0945 24.5324 52.2647Z" fill="#DB6F4F"/>
<path d="M30.053 73.3499C27.7567 73.7789 25.4659 74.7386 23.4707 75.7942C20.5797 77.3238 21.2832 81.0889 24.5314 81.4715C26.7732 81.7355 29.256 81.8032 31.5523 81.3742C33.8486 80.9452 36.1394 79.9855 38.1346 78.9299C41.0256 77.4003 40.3221 73.6351 37.0738 73.2526C34.8321 72.9886 32.3493 72.9208 30.053 73.3499Z" fill="#DB6F4F"/>
<path d="M15.7476 73.5318C16.9148 75.5554 18.5808 77.3975 20.239 78.9289C22.6418 81.1479 25.9597 79.2341 25.2419 76.0432C24.7465 73.8409 23.9859 71.4766 22.8187 69.453C21.6515 67.4295 19.9855 65.5874 18.3273 64.0559C15.9245 61.8369 12.6066 63.7508 13.3244 66.9417C13.8198 69.1439 14.5804 71.5083 15.7476 73.5318Z" fill="#DB6F4F"/>
<path d="M24.5308 94.7361C22.2787 95.3566 20.0766 96.5054 18.1772 97.7249C15.4249 99.492 16.4423 103.185 19.7112 103.293C21.9672 103.368 24.4469 103.227 26.699 102.606C28.9512 101.986 31.1532 100.837 33.0527 99.6173C35.8049 97.8502 34.7875 94.1575 31.5186 94.0493C29.2626 93.9746 26.783 94.1156 24.5308 94.7361Z" fill="#DB6F4F"/>
<path d="M8.39735 97.2813C9.79563 99.1527 11.6677 100.785 13.4953 102.11C16.1436 104.029 19.212 101.736 18.1219 98.6526C17.3696 96.5244 16.3349 94.2665 14.9367 92.3951C13.5384 90.5238 11.6663 88.8915 9.83865 87.5669C7.19036 85.6475 4.12202 87.9402 5.21207 91.0239C5.96435 93.1521 6.99906 95.41 8.39735 97.2813Z" fill="#DB6F4F"/>
<path d="M62.2314 78.2124C75.9275 98.391 77.706 109.692 78.0048 136.238" stroke="#DBB550" stroke-width="1.74812" stroke-linecap="round"/>
<path d="M60.3167 69.2367C63.2079 72.8913 63.1614 79.3453 63.1614 79.3453C63.1614 79.3453 57.2224 77.4476 54.3312 73.793C51.4401 70.1384 50.9602 63.9221 50.9602 63.9221C50.9602 63.9221 57.4256 65.5821 60.3167 69.2367Z" fill="#DBB550"/>
<path d="M62.6416 84.386C65.8049 85.1347 68.8483 87.9435 68.8483 87.9435C68.8483 87.9435 64.8687 89.0901 61.7054 88.3414C58.5421 87.5927 55.4987 84.7839 55.4987 84.7839C55.4987 84.7839 59.4783 83.6373 62.6416 84.386Z" fill="#DBB550"/>
<path d="M72.1986 81.9153C71.3849 85.0625 68.514 88.0474 68.514 88.0474C68.514 88.0474 67.4496 84.045 68.2633 80.8978C69.077 77.7506 71.9479 74.7657 71.9479 74.7657C71.9479 74.7657 73.0123 78.7681 72.1986 81.9153Z" fill="#DBB550"/>
<path d="M67.5447 95.0237C70.7079 95.7724 73.7514 98.5812 73.7514 98.5812C73.7514 98.5812 69.7717 99.7278 66.6085 98.9791C63.4452 98.2304 60.4017 95.4216 60.4017 95.4216C60.4017 95.4216 64.3814 94.275 67.5447 95.0237Z" fill="#DBB550"/>
<path d="M78.4466 93.5594C76.9002 96.4187 73.3959 98.6259 73.3959 98.6259C73.3959 98.6259 73.3249 94.485 74.8713 91.6257C76.4177 88.7664 79.922 86.5592 79.922 86.5592C79.922 86.5592 79.993 90.7001 78.4466 93.5594Z" fill="#DBB550"/>
<path d="M70.4578 105.63C73.5619 106.595 76.4045 109.607 76.4045 109.607C76.4045 109.607 72.3553 110.476 69.2511 109.511C66.147 108.546 63.3044 105.534 63.3044 105.534C63.3044 105.534 67.3536 104.665 70.4578 105.63Z" fill="#DBB550"/>
<path d="M81.89 104.579C80.2615 107.393 76.6947 109.497 76.6947 109.497C76.6947 109.497 76.7436 105.356 78.3722 102.543C80.0008 99.7296 83.5675 97.6247 83.5675 97.6247C83.5675 97.6247 83.5186 101.766 81.89 104.579Z" fill="#DBB550"/>
<path d="M83.1039 117.69C81.4753 120.503 77.9086 122.608 77.9086 122.608C77.9086 122.608 77.9575 118.467 79.5861 115.654C81.2146 112.84 84.7814 110.736 84.7814 110.736C84.7814 110.736 84.7325 114.877 83.1039 117.69Z" fill="#DBB550"/>
</g>
<defs>
<clipPath id="clip0_240_668">
<rect width="102" height="114.423" fill="white" transform="translate(0 0.577148)"/>
</clipPath>
</defs>
</svg>
