<svg width="219" height="298" viewBox="0 0 219 298" fill="none" xmlns="http://www.w3.org/2000/svg">
<path fill-rule="evenodd" clip-rule="evenodd" d="M0 0.000152588H17.48V0.000621032L0 0.000621796V0.000152588ZM17.48 17.4806L0 0.000621796V297.16V297.16H17.48V297.16H0L17.48 279.68V17.4806Z" fill="#DBB550"/>
<path fill-rule="evenodd" clip-rule="evenodd" d="M218.5 0.000152588H201.02V0.000621032L218.5 0.000621796V0.000152588ZM201.02 17.4806L218.5 0.000621796V297.16V297.16H201.02V297.16H218.5L201.02 279.68V17.4806Z" fill="#DBB550"/>
<path fill-rule="evenodd" clip-rule="evenodd" d="M218.5 0.000152588H0V0.000309602L17.4798 17.4802H201.02L218.5 0.000309602V0.000152588Z" fill="#DBB550"/>
<path fill-rule="evenodd" clip-rule="evenodd" d="M218.5 0.000152588H0V0.000309602L17.4798 17.4802H201.02L218.5 0.000309602V0.000152588Z" fill="white" fill-opacity="0.5"/>
<path fill-rule="evenodd" clip-rule="evenodd" d="M218.5 297.16L201.02 279.68L17.48 279.68L0 297.16H218.5Z" fill="#DBB550"/>
<path fill-rule="evenodd" clip-rule="evenodd" d="M218.5 297.16L201.02 279.68L17.48 279.68L0 297.16H218.5Z" fill="black" fill-opacity="0.25"/>
<rect width="184" height="263" transform="translate(17 17.1602)" fill="white"/>
</svg>
