<svg width="175" height="187" viewBox="0 0 175 187" fill="none" xmlns="http://www.w3.org/2000/svg">
<path d="M52.7819 117.881C52.1851 133.737 52.6966 149.678 52.151 165.5C70.8373 166.779 89.5577 167.751 108.261 167.904C108.227 149.218 109.062 130.583 109.182 111.948C105.601 111.76 102.004 111.573 98.4235 111.436C83.3517 110.857 68.0924 112.391 52.9524 112.971C52.9012 114.607 52.833 116.244 52.7819 117.881ZM61.0168 123.03C61.0168 121.615 62.6706 121.734 63.6424 121.785C65.0234 121.871 66.3874 121.905 67.7514 122.058C68.996 122.194 68.996 123.865 67.7514 124.002C66.4726 124.138 65.1769 124.189 63.8811 124.275C62.8752 124.326 61.0168 124.547 61.0168 123.03Z" fill="white"/>
<path d="M-19.5935 109.117C-21.4348 125.911 -20.1561 142.944 -20.0368 159.806C2.91191 161.562 25.9288 163.659 48.9627 165.279C46.8145 150.838 48.8093 135.237 49.4742 120.796C49.5935 118.222 49.6958 115.647 49.7981 113.073C48.6388 113.107 47.4623 113.141 46.303 113.158C27.8383 113.465 9.23729 112.613 -8.85228 108.759C-9.60246 108.606 -10.0969 107.839 -10.114 107.123C-11.154 60.3897 41.478 63.8338 74.6393 68.0962C100.521 71.4208 157.619 64.8056 157.585 103.559C158.199 104.105 158.523 104.974 157.978 105.759C157.807 105.98 157.619 106.185 157.449 106.389C157.364 106.594 157.227 106.748 157.074 106.85C152.027 112.237 141.832 112.05 135.182 112.357C127.749 112.698 120.298 112.459 112.847 112.118C112.881 130.736 111.569 149.44 111.364 167.904C129.795 167.989 148.242 167.307 166.639 165.398C166.724 165.381 166.792 165.398 166.86 165.398C169.674 157.436 171.208 148.86 171.6 140.13C168.633 140.744 163.433 134.061 162.564 132.714C157.79 125.366 162.922 119.466 170.049 117.199C168.19 106.969 164.848 97.0974 160.143 88.368C145.259 60.7478 111.313 56.1615 82.9936 54.7975C69.7973 54.1667 56.5327 54.3372 43.3193 54.5247C29.3557 54.7123 14.9318 55.8546 2.55386 62.8619C-13.4557 71.9494 -17.7692 92.2895 -19.5935 109.117ZM120.605 122.876C119.872 122.467 119.872 121.325 120.605 120.916C121.935 120.2 123.333 120.438 124.833 120.421C126.947 120.387 129.027 120.097 131.073 119.569C132.642 119.16 133.222 121.41 131.738 121.956C129.948 122.604 128.158 122.928 126.282 123.149C124.475 123.354 122.259 123.763 120.605 122.876Z" fill="white"/>
<path d="M-2.21999 165.262C-4.09544 165.108 -5.97088 164.955 -7.86338 164.801C-7.67583 170.308 -7.60764 174.997 -3.83969 179.566C-0.804869 183.232 3.90081 185.295 8.52123 185.909C20.3366 187.477 26.7472 178.441 25.5367 167.546L16.8925 166.83C17.6257 172.559 14.4204 178.39 8.14614 179.089C0.149904 179.992 -2.90197 171.894 -2.21999 165.262Z" fill="#3C3C3B"/>
<path d="M115.78 172.013C115.984 172.286 116.155 172.61 116.155 173.053C116.462 183.828 124.049 191.006 134.858 190.307C145.804 189.608 149.879 180.333 148.43 170.888C148.14 170.922 147.833 170.939 147.543 170.956C147.424 171.314 147.236 171.621 146.861 171.808C146.605 171.928 146.35 171.894 146.094 171.825C145.838 172.013 145.582 172.2 145.344 172.405C144.798 172.814 144.133 171.928 144.628 171.501L145.037 171.143C143.86 171.212 142.684 171.263 141.49 171.314C140.74 175.968 138.285 180.077 133.119 180.708C127.783 181.356 123.929 176.429 122.224 171.962C120.093 171.962 117.945 172.013 115.797 172.013H115.78Z" fill="#3C3C3B"/>
<path d="M80.6067 51.0461C81.4081 51.0802 82.2094 51.1143 82.9937 51.1484C92.064 51.5235 101.458 52.2907 110.614 53.9616C113.563 50.0572 112.097 48.608 107.869 47.4828C104.391 46.5621 100.742 46.2893 97.1618 46.0165C91.706 45.5732 86.2331 45.5391 80.7772 45.147C80.9477 47.0565 81.1694 49.3582 80.6067 51.0461Z" fill="#DF5E5E"/>
<path d="M170.56 120.37C165.343 122.28 161.882 125.502 165.087 131.248C165.428 131.879 170.458 137.573 171.651 138.426C171.822 132.407 171.464 126.337 170.56 120.37Z" fill="#DBB550"/>
<path d="M-3.32826 61.9926C-31.3066 83.9694 -24.2651 130.685 -24.0776 161.681C-24.0605 162.841 -23.1569 163.625 -22.0487 163.71C-18.4853 163.966 -14.9219 164.239 -11.3586 164.529C-14.3764 177.299 -2.91905 189.336 9.61237 189.728C22.7576 190.137 30.498 180.316 28.2134 167.768C56.4133 170.053 84.6303 172.013 112.864 172.03C112.677 172.303 112.54 172.627 112.54 173.053C112.898 186.096 122.685 195.354 135.898 193.854C148.021 192.473 154.346 181.714 151.857 170.649C156.784 170.274 161.711 169.882 166.639 169.336C167.951 169.183 168.582 168.024 168.514 167.001C168.651 166.881 168.787 166.728 168.872 166.523C178.965 141.375 176.493 107.924 162.172 84.7707C151.107 66.8687 132.915 58.4803 113.359 54.4907C115.132 53.0245 115.626 50.5864 115.882 48.0119C115.95 47.2958 115.354 46.7843 114.757 46.5456C113.904 46.1876 113.035 45.8978 112.165 45.6079C114.177 39.8452 115.081 33.23 111.245 28.0128C108.449 24.1937 103.248 22.5058 98.6451 22.8127C90.018 23.4094 77.4184 32.0877 81.9536 42.1128C81.0158 42.0616 80.0611 41.9763 79.1233 41.9082C78.2538 41.8229 77.5548 42.6754 77.5548 43.4767C77.5377 45.4374 76.924 48.6939 77.5889 50.9274C63.2502 50.3818 48.707 50.0749 34.4365 50.9615C21.4618 51.7458 7.2254 53.7065 -3.32826 61.9926ZM-20.0368 159.806C-20.1561 142.944 -21.4349 125.911 -19.5935 109.117C-17.7692 92.2896 -13.4557 71.9495 2.55385 62.8621C14.9318 55.8547 29.3557 54.7124 43.3193 54.5249C56.5327 54.3373 69.7972 54.1668 82.9936 54.7977C111.313 56.1616 145.259 60.7479 160.143 88.3682C164.848 97.0975 168.19 106.969 170.049 117.199C162.922 119.467 157.79 125.366 162.564 132.714C163.433 134.061 168.633 140.744 171.6 140.131C171.208 148.86 169.673 157.436 166.86 165.398C166.792 165.398 166.724 165.381 166.639 165.398C148.242 167.308 129.795 167.99 111.364 167.904C111.569 149.44 112.881 130.736 112.847 112.118C120.298 112.459 127.749 112.698 135.182 112.357C141.832 112.05 152.027 112.238 157.074 106.85C157.227 106.748 157.364 106.594 157.449 106.39C157.619 106.185 157.807 105.98 157.977 105.759C158.523 104.974 158.199 104.105 157.585 103.559C157.619 64.8057 100.521 71.4209 74.6393 68.0963C41.478 63.8339 -11.154 60.3899 -10.114 107.123C-10.0969 107.839 -9.60248 108.606 -8.85229 108.759C9.23727 112.613 27.8383 113.465 46.303 113.158C47.4623 113.158 48.6388 113.107 49.7981 113.073C49.6958 115.647 49.5935 118.222 49.4742 120.796C48.8092 135.237 46.8145 150.838 48.9627 165.279C25.9288 163.659 2.9119 161.562 -20.0368 159.806ZM-7.86342 164.801C-5.97092 164.955 -4.09547 165.108 -2.22003 165.262C-2.90201 171.894 0.149872 179.992 8.1461 179.089C14.4203 178.39 17.6256 172.559 16.8925 166.83L25.5366 167.546C26.7471 178.441 20.3365 187.477 8.52119 185.909C3.90077 185.295 -0.804901 183.232 -3.83972 179.566C-7.60767 174.997 -7.67587 170.308 -7.86342 164.801ZM-2.561 106.475C-8.52835 105.435 -7.18146 100.576 -5.98799 95.4608C-5.13551 91.8122 -3.99319 88.1806 -1.87904 85.0435C1.95711 79.4342 7.51526 75.3594 13.9259 73.1259C25.3832 69.1534 37.386 68.5225 49.4742 69.0681C49.423 69.2216 49.3889 69.4091 49.406 69.6137C50.4801 82.8271 50.3949 96.0234 49.9345 109.237C32.3735 109.714 14.6761 109.493 -2.561 106.475ZM7.71986 175.781C2.02531 175.884 0.917084 170.172 1.27513 165.551C5.69096 165.91 10.1068 166.285 14.5226 166.643C14.5397 170.888 12.6983 175.713 7.71986 175.781ZM51.9975 69.6137C51.9805 69.4432 51.9123 69.3068 51.8611 69.1874C64.8529 69.9376 77.9469 71.9154 90.5636 72.478C95.6785 72.6997 101.646 72.8872 107.835 73.3475C108.875 84.9242 109.216 96.5008 109.199 108.06C95.0988 107.685 81.2034 108.06 67.0011 108.64C62.3807 108.828 57.7432 108.998 53.0716 109.152C53.4808 95.9552 53.6002 82.7248 51.9975 69.6137ZM52.151 165.5C52.6966 149.678 52.1851 133.737 52.7818 117.881C52.8329 116.244 52.9012 114.607 52.9523 112.971C68.0923 112.391 83.3516 110.857 98.4234 111.436C102.004 111.573 105.601 111.76 109.182 111.948C109.062 130.583 108.227 149.218 108.261 167.904C89.5577 167.751 70.8373 166.779 52.151 165.5ZM82.9936 51.149C82.2093 51.1149 81.408 51.0808 80.6067 51.0467C81.1693 49.3588 80.9476 47.0572 80.7771 45.1476C86.233 45.5397 91.7059 45.5738 97.1618 46.0171C100.742 46.2899 104.391 46.5627 107.869 47.4834C112.097 48.6087 113.563 50.0578 110.614 53.9622C101.458 52.2913 92.0639 51.5241 82.9936 51.149ZM85.0907 42.3003C85.2953 37.9186 84.511 34.1847 88.0232 30.7407C90.8193 27.9957 94.6896 26.2056 98.6451 26.0692C110.119 25.66 112.336 35.5828 109.983 44.943C101.936 42.7436 93.462 42.7095 85.0907 42.3003ZM112.813 108.18C112.66 96.552 111.893 84.9753 109.898 73.518C130.886 75.3253 153.783 80.9346 155.181 103.525C155.181 103.542 155.147 103.542 155.13 103.576C151.413 108.163 142.377 108.146 137.092 108.384C129.812 108.708 122.514 108.572 115.234 108.265C114.433 108.231 113.632 108.214 112.813 108.18ZM116.155 173.053C116.155 172.61 115.984 172.286 115.78 172.013C117.928 172.013 120.076 171.979 122.208 171.962C123.912 176.429 127.766 181.356 133.102 180.709C138.268 180.078 140.723 175.969 141.474 171.314C142.667 171.263 143.843 171.212 145.02 171.127L144.611 171.502C144.116 171.928 144.781 172.815 145.327 172.405C145.565 172.201 145.821 172.013 146.077 171.826C146.333 171.894 146.588 171.928 146.844 171.809C147.219 171.621 147.407 171.314 147.526 170.956C147.816 170.939 148.123 170.922 148.413 170.888C149.862 180.333 145.787 189.608 134.841 190.307C124.032 191.006 116.445 183.829 116.138 173.053H116.155ZM132.54 177.588C129.096 177.435 126.862 174.826 125.549 171.894C129.999 171.792 134.432 171.655 138.882 171.451C137.978 174.537 136.086 177.742 132.54 177.588ZM165.087 131.248C161.882 125.502 165.343 122.28 170.56 120.37C171.464 126.338 171.822 132.407 171.651 138.426C170.458 137.573 165.428 131.879 165.087 131.248Z" fill="#3C3C3B"/>
<path d="M-5.98806 95.4605C-7.18152 100.575 -8.52842 105.435 -2.56108 106.475C14.676 109.492 32.3734 109.714 49.9345 109.237C50.3948 96.0232 50.48 82.8268 49.4059 69.6134C49.4059 69.4088 49.423 69.2213 49.4741 69.0678C37.386 68.5223 25.3831 69.1531 13.9258 73.1256C7.5152 75.3591 1.95704 79.434 -1.8791 85.0433C-3.99325 88.1804 -5.13558 91.8119 -5.98806 95.4605Z" fill="#DBB550"/>
<path d="M48.2636 28.8648C48.042 29.3592 47.8544 29.8195 48.059 30.3481C48.417 31.2347 48.9797 31.6439 49.9174 31.7632C53.9752 32.2406 58.0671 32.4793 62.1249 32.9226C63.881 33.1271 65.6371 33.417 67.3932 33.4682C67.7342 33.4682 68.2457 33.3829 68.5867 33.1783C68.5867 33.1613 68.6719 33.1442 68.8935 33.1612C70.07 33.2294 70.3257 31.354 69.1663 31.0812C69.064 31.0642 68.9958 31.0471 68.9447 31.0471L68.8424 30.9448C68.4673 30.5697 67.8535 30.3481 67.3421 30.2458C65.5007 29.9218 63.6423 29.649 61.801 29.3762C57.9648 28.8136 53.8047 27.7906 49.9174 27.91C49.3036 27.927 48.5364 28.251 48.2636 28.8648Z" fill="#3C3C3B"/>
<path d="M51.8613 69.187C51.9124 69.3064 51.9806 69.4428 51.9977 69.6133C53.6003 82.7244 53.4809 95.9548 53.0718 109.151C57.7433 108.998 62.3808 108.827 67.0012 108.64C81.2035 108.06 95.0989 107.685 109.199 108.06C109.216 96.5004 108.875 84.9237 107.835 73.3471C101.646 72.8868 95.6786 72.6993 90.5637 72.4776C77.9471 71.915 64.853 69.9372 51.8613 69.187Z" fill="#DBB550"/>
<path d="M63.199 13.5036C61.9374 13.5888 61.0508 15.1744 62.1079 16.1463C63.7617 17.6807 66.626 18.3286 68.6379 19.4198C70.7861 20.5962 72.9002 21.8238 74.9803 23.1366C76.5829 24.1425 77.964 21.6703 76.4466 20.6132C74.2131 19.0788 71.9455 17.5955 69.5926 16.2656C67.8195 15.2597 65.3132 13.3672 63.199 13.5036Z" fill="#3C3C3B"/>
<path d="M63.6423 121.785C62.6705 121.734 61.0167 121.615 61.0167 123.03C61.0167 124.547 62.8751 124.326 63.881 124.275C65.1767 124.189 66.4725 124.138 67.7512 124.002C68.9958 123.865 68.9958 122.195 67.7512 122.058C66.3873 121.905 65.0233 121.871 63.6423 121.785Z" fill="#3C3C3B"/>
<path d="M74.7757 2.76163C74.0256 3.35837 74.4347 4.79053 75.3554 4.94397C77.5037 5.33611 79.3109 7.65487 80.4873 9.30868C81.2716 10.3998 82.0047 11.5081 82.6526 12.6845C82.8913 13.1448 83.1812 13.554 83.5051 13.9632C83.6074 14.0996 83.6756 14.1507 83.7097 14.1678V14.2189C84.0677 15.4806 85.8238 15.1396 85.9261 13.9121C86.1137 11.491 83.9143 8.30273 82.3287 6.22269C80.6749 4.0574 77.7253 0.408796 74.7757 2.76163Z" fill="#3C3C3B"/>
<path d="M88.0231 30.74C84.5109 34.184 85.2952 37.9178 85.0906 42.2995C93.4619 42.7087 101.936 42.7429 109.983 44.9423C112.336 35.5821 110.119 25.6592 98.645 26.0684C94.6895 26.2048 90.8193 27.995 88.0231 30.74Z" fill="#A83737"/>
<path d="M99.3101 1.02297C98.6281 2.76203 99.1396 5.2683 99.3442 7.09261C99.5659 9.1556 99.8557 11.1845 100.589 13.1281C101.169 14.6967 103.521 14.1 103.112 12.4291C102.635 10.4343 102.379 8.40542 102.345 6.34242C102.311 4.67157 102.737 2.60858 102.106 1.02297C101.578 -0.340991 99.8557 -0.340991 99.3101 1.02297Z" fill="#3C3C3B"/>
<path d="M109.898 73.5181C111.893 84.9754 112.66 96.552 112.813 108.18C113.632 108.214 114.433 108.231 115.234 108.265C122.514 108.572 129.812 108.708 137.092 108.384C142.377 108.146 151.413 108.163 155.13 103.576C155.147 103.542 155.164 103.542 155.181 103.525C153.783 80.9346 130.886 75.3253 109.898 73.5181Z" fill="#DBB550"/>
<path d="M115.132 14.8669C113.529 15.5148 114.126 18.0552 115.848 17.5096C118.15 16.7935 120.247 15.4977 122.02 13.8439C123.213 12.7186 125.413 10.8943 124.714 9.0189C124.458 8.31987 123.844 7.91066 123.094 8.09821C121.508 8.4733 120.775 10.4511 119.701 11.5422C118.388 12.8891 116.888 14.1338 115.132 14.8669Z" fill="#3C3C3B"/>
<path d="M120.605 120.915C119.872 121.325 119.872 122.467 120.605 122.876C122.259 123.763 124.475 123.353 126.282 123.149C128.158 122.927 129.948 122.603 131.738 121.955C133.222 121.41 132.642 119.159 131.073 119.568C129.027 120.097 126.947 120.387 124.833 120.421C123.333 120.438 121.935 120.199 120.605 120.915Z" fill="#3C3C3B"/>
<path d="M123.026 36.5708C121.406 35.7013 120.093 38.003 121.594 39.0089C124.901 41.1912 137.126 48.1645 136.427 38.9236C136.307 37.2187 133.579 36.5878 133.256 38.4974C132.88 40.6627 131.551 40.3728 129.726 39.725C127.391 38.9066 125.208 37.7302 123.026 36.5708Z" fill="#3C3C3B"/>
<path d="M124.578 27.2961C123.009 27.1085 122.702 29.683 124.22 30.041C127.561 30.8424 131.312 31.1493 134.671 30.2627C136.461 29.7853 139.223 28.4384 138.302 26.0856C137.893 25.0114 136.666 24.875 135.984 25.7787C135.268 26.7505 132.932 27.1256 131.841 27.2961C129.437 27.6541 126.982 27.603 124.578 27.2961Z" fill="#3C3C3B"/>
</svg>
