<svg width="234" height="251" viewBox="0 0 234 251" fill="none" xmlns="http://www.w3.org/2000/svg">
<g clip-path="url(#clip0_267_310)">
<path d="M79.5371 29.4938C76.76 33.2512 76.488 33.4849 74.853 32.5727C72.4589 31.2722 70.8841 31.916 70.0313 34.4457C69.1589 36.8976 64.1652 41.3773 61.5984 42.0223C59.576 42.5304 58.9764 45.4099 59.9536 49.299C60.5204 51.5547 60.2292 52.0413 56.77 54.7297C54.6906 56.3272 52.9423 58.255 52.9044 59.0914C52.8665 59.9279 53.5693 62.0667 54.5441 63.9718C55.8699 66.6156 56.1635 68.113 55.875 70.9143C54.9342 81.3219 61.964 87.9076 71.2392 85.329L75.3421 84.2155L76.2607 87.8712C77.1011 91.2159 77.8218 92.1097 82.4556 95.7416C87.2062 99.5096 88.1403 99.9364 93.0035 100.203C95.9604 100.452 99.0142 100.429 99.7143 100.253C100.881 99.9602 101.154 100.718 102.466 107.583C103.288 111.842 104.406 120.244 104.919 126.234C106.495 143.038 107.045 147.531 110.569 166.823C112.293 176.643 113.625 184.909 113.528 185.181C113.159 185.687 113.51 186.095 108.815 180.577C103.79 174.728 96.529 169.854 88.2782 166.966C84.6197 165.569 81.1171 164.465 80.6113 164.427C79.8526 164.369 79.6373 163.183 79.7889 159.837C79.9222 157.405 79.5677 153.691 79.04 151.591C78.1801 148.168 77.9463 147.896 76.3129 148.307C73.2794 149.069 69.4345 154.5 68.487 159.286C67.5974 163.645 66.7043 165.027 66.1571 162.849C66.0007 162.226 64.3829 159.408 62.6483 156.453L59.3548 151.244L61.7226 146.846C64.6338 141.318 64.862 136.961 62.4601 129.047L60.6242 122.727L62.7009 118.815C67.0289 110.699 64.7232 101.851 57.444 98.2222C53.2985 96.2041 52.1904 96.7306 51.4368 100.972C50.8959 104.085 50.6434 104.396 49.9418 103.25C46.1027 97.1853 44.2339 96.0009 38.0868 95.5609C35.8108 95.3885 31.9005 94.9652 29.4103 94.5986C25.3832 94.0392 24.5859 94.1569 21.8451 95.7552C17.1801 98.5811 14.7736 103.155 15.8485 107.433C16.2003 108.833 15.7344 109.612 14.0044 110.625C12.7216 111.444 11.3813 113.021 11.1104 114.247C10.317 117.671 13.107 124.826 18.485 132.736C25.3049 142.765 25.2462 142.532 23.2618 142.203C21.0827 141.759 12.8761 143.324 10.6016 144.475C7.97738 145.878 9.03078 148.425 12.4548 148.888C13.9334 149.178 15.8404 149.857 16.6386 150.4C18.6633 151.876 22.0486 152.514 26.1136 152.237C27.9808 152.099 31.5994 152.678 34.1682 153.686C45.2993 157.836 50.6874 157.888 56.1094 153.796C57.9946 152.413 58.6946 152.237 59.1039 152.879C59.7664 153.87 69.3177 170.82 70.9554 174.047C72.0666 176.166 72.0666 176.166 67.5896 173.487C64.3583 171.487 61.926 170.693 58.6775 170.599C54.1646 170.41 49.2443 171.233 49.4593 172.088C49.5179 172.322 50.687 174.013 52.1481 175.878C54.1157 178.444 55.9262 179.725 59.7598 181.16C64.3134 182.827 65.2472 182.924 69.5835 181.751L74.406 180.54L79.1027 188.042C85.8068 198.927 94.0119 212.494 95.2791 214.905C96.2735 216.888 96.1762 216.83 92.4778 214.617C90.3366 213.335 86.9115 211.88 84.888 211.397C80.0627 210.294 72.7504 211.469 71.0411 213.553C69.8564 215.091 69.8564 215.091 72.7199 218.589C78.8366 226.148 89.4225 229.773 97.6084 227.137L101.439 225.927L105.552 233.41C108.476 238.795 109.373 241.05 108.81 241.44C104.436 244.11 101.131 245.106 98.6985 244.311C92.2383 242.296 86.0947 244.832 83.1644 250.613C82.1552 252.52 79.98 255.382 78.3091 256.959C75.7638 259.336 75.2591 260.289 75.6117 262.351C76.4154 267.524 82.6446 271.582 87.856 270.272C90.0339 269.725 91.1045 270.366 98.0944 276.135L105.941 282.68L106.962 290.693C107.492 295.108 108.123 301.565 108.438 305.124L108.971 311.523L111.91 313.017C113.525 313.852 115.374 314.628 115.957 314.646C116.716 314.704 117.769 316.92 119.35 321.567C120.873 326.311 122.569 329.772 124.927 332.901C128.161 337.215 128.395 337.818 130.098 346.9C131.84 355.806 132.074 356.409 134.215 358.021C136.065 359.458 137.018 359.632 139.896 358.909C146.274 357.306 149.401 352.634 147.915 346.723C147.212 343.923 147.611 336.297 148.389 336.102C148.7 336.024 152.693 340.726 157.291 346.517C161.868 352.23 168.355 359.945 171.646 363.501C178.56 370.942 180.138 372.944 185.711 381.301C197.247 398.58 204.1 403.804 242.892 424.902C254.862 431.404 265.84 437.576 267.358 438.683C274.211 443.577 284.781 450.1 285.053 449.536C285.693 448.465 261.809 433.71 240.944 422.414C204.643 402.675 198.199 397.762 187.657 381.805C185.143 378.054 176.144 366.919 167.787 357.028C159.353 347.157 152.574 338.937 152.691 338.742C152.807 338.547 155.864 340.839 159.485 343.733C166.767 349.676 175.428 354.198 183.464 356.231C190.352 357.974 189.864 356.691 182.762 354.754C171.827 351.713 157.071 341.693 147.819 330.87C146.26 328.946 141.175 322.203 136.499 315.77C122.88 296.782 115.85 289.204 96.9046 273.374C86.2347 264.478 82.6688 259.172 83.5181 253.666C84.3288 248.335 90.1788 244.302 96.1317 244.956C99.8864 245.419 105.006 248.68 113.807 256.062C144.221 281.993 161.407 291.484 172.841 288.611C176.886 287.595 181.143 284.789 180.771 283.311C180.673 282.922 179.527 283.624 178.283 284.929C176.476 286.623 174.999 287.325 172.14 287.795C165.294 288.854 159.029 286.955 148.927 280.976C143.846 277.87 139.778 275.171 139.952 274.879C140.554 273.983 148.649 276.25 152.503 278.424C155.5 280.151 156.065 280.754 155.678 282.174C154.981 284.995 156.36 283.904 157.951 280.362C159.27 277.385 158.996 275.965 157.482 278.496C157.075 279.177 155.946 278.964 153.591 277.489C151.761 276.46 148.258 275.025 145.69 274.347C139.347 272.798 136.758 271.051 137.338 268.755C138.094 265.836 137.295 264.631 136.481 267.316C135.26 271.014 134.326 271.248 131.055 268.432C128.621 266.314 128.173 265.517 128.697 264.311C128.988 263.493 129.743 260.905 130.266 258.707C131.137 255.263 131.739 254.367 134.033 253.295C136.405 252.203 137.163 252.26 139.772 253.755C141.426 254.745 146.817 256.781 151.759 258.351C156.702 259.92 162.695 262.053 165.089 263.023C169.409 264.749 169.429 264.826 168.653 267.006C167.393 270.878 168.715 269.885 170.849 265.544C171.916 263.209 172.537 261.399 172.148 261.497C171.837 261.575 171.234 262.14 170.885 262.724C170.419 263.503 168.571 263.057 164.425 261.37C161.195 260.032 155.493 258.074 151.757 257.028C148.099 255.962 143.371 254.256 141.385 253.267L137.61 251.404L139.629 248.581C140.736 247.063 141.881 244.708 142.191 243.307C142.946 240.388 142.828 239.921 141.817 240.175C141.428 240.273 141.176 240.915 141.333 241.538C142.075 244.493 134.792 253.352 132.65 252.071C132.358 251.896 133.306 247.11 134.797 241.526L137.488 231.175L141.864 230.489C150.285 229.117 159.333 231.888 183.135 243.025C206.665 254.065 210.792 256.666 213.853 262.595C214.36 263.626 216.389 269.07 218.302 274.708C230.482 310.679 234.658 321.703 239.259 330.139C247.037 344.31 254.536 353.093 266.587 362.221C269.819 364.551 283.425 373.288 296.818 381.5C310.288 389.693 322.765 397.556 324.576 398.837C326.328 400.216 327.944 401.051 328.118 400.759C328.779 399.766 316.378 391.553 294.869 378.682C260.533 358.202 250.758 349.246 239.821 328.427C237.657 324.422 234.556 317.346 232.916 312.796C231.257 308.169 229.365 302.938 228.643 301.053C227.921 299.167 224.642 289.737 221.324 280.151C218.064 270.468 214.669 261.563 213.928 260.261C211.608 256.296 206.644 252.995 193.624 246.591C166.726 233.338 152.229 228.298 143.127 228.931C140.462 229.187 138.361 229.053 138.439 228.703C139.832 223.061 143.844 210.724 144.311 210.606C144.622 210.528 145.439 210.819 146.062 211.324C146.763 211.809 149.156 212.118 151.373 212.057C159.815 211.755 168.817 208.418 175.366 203.217C179.155 200.198 184.07 194.415 183.777 193.248C183.698 192.937 182.609 192.549 181.325 192.376C172.609 191.258 156.158 195.226 150.367 199.823C148.501 201.284 146.81 202.453 146.616 202.337C146.324 202.162 153.555 181.905 156.523 174.626C157.279 172.7 157.958 171.123 157.938 171.046C157.977 170.871 159.553 171.219 161.479 171.644C168.075 173.212 181.878 167.263 186.772 160.741C188.443 158.502 188.442 158.172 187.157 157.337C185.503 156.347 178.598 156.51 174.087 157.644C171.442 158.308 165.046 161.487 161.956 163.669C161.12 164.292 161.895 161.121 164.163 154.68C166.101 149.231 167.866 144.405 168.099 144.016C168.312 143.549 170.024 143.78 171.931 144.458C176.31 146.087 182.338 144.738 189.141 140.548C191.804 138.969 194.506 137.546 195.206 137.37C195.984 137.175 198.648 136.588 201.312 136.001C204.054 135.395 206.679 134.322 207.709 133.484C208.564 132.608 210.507 131.458 211.907 130.776C218.109 128.142 211.219 124.416 202.642 125.827C200.328 126.16 198.363 126.24 198.285 125.929C198.207 125.618 198.692 124.586 199.411 123.496C201.702 120.109 206.665 106.623 206.992 102.985C207.53 97.5579 206.613 95.2249 203.558 93.9252C201.359 93.072 200.949 92.4306 200.986 90.6021C201.022 87.7816 198.76 83.719 196.094 81.991C191.83 79.1756 189.846 79.1779 180.105 82.2044L171.063 85.0551L168.501 89.3374C167.084 91.5954 165.841 93.5615 165.685 93.6006C165.53 93.6397 165.022 92.2787 164.593 90.5674C163.576 86.5228 162.117 86.3105 157.861 89.4473C153.411 92.7982 152.19 97.1567 153.91 104.002C154.848 107.735 155.745 109.66 157.381 111.233L159.679 113.468L158.869 119.129C158.483 122.203 158.411 126.852 158.803 129.399C159.489 133.444 160.015 134.552 163.307 138.439L167.164 142.927L164.139 151.295C162.491 155.927 158.788 165.54 156.034 172.682L150.856 185.643L148.708 179.071C146.6 172.654 144.807 169.466 138.125 160.643C134.52 155.843 133.605 155.163 132.07 156.293C130.029 157.716 130.23 162.792 132.692 172.593C134.842 181.149 135.291 182.276 138.037 185.308C139.654 187.134 142.71 189.426 144.754 190.318L148.568 192.006L147.288 195.47C146.63 197.455 143.839 206.094 141.184 214.617L136.437 230.281L129.691 233.051C125.938 234.573 122.38 235.88 121.661 235.978C120.513 236.019 120.16 233.627 118.232 215.092C116.342 196.051 114.027 179.598 110.776 161.065L109.621 154.161L112.906 152.756C118.156 150.611 125.519 143.716 129.247 137.487C133.964 129.604 135.433 121.958 133.732 114.529C132.501 109.298 132.345 109.007 130.575 109.203C123.806 109.912 115.399 122.857 110.421 140.233L108.387 147.276L107.759 142.473C107.425 139.828 106.775 133.293 106.341 127.944C105.907 122.596 104.73 113.961 103.751 108.749L101.892 99.3755L106.13 97.153C109.784 95.2424 110.619 94.2883 112.113 90.688L113.956 86.5038L120.995 84.5698C129.103 82.2844 130.638 80.8237 130.126 75.4946C129.87 72.4994 129.928 72.4021 133.525 71.2502L137.122 70.0983L136.302 66.8314C135.852 65.0424 135.518 62.0668 135.496 60.3356C135.356 56.4844 134.966 55.9208 130.217 53.8062C126.578 52.1572 126.461 52.0212 124.84 46.5573C123.805 43.0961 123.217 39.44 123.331 36.9306C123.578 32.3203 122.857 31.0958 118.848 29.2916C116.707 28.341 115.404 28.4203 111.01 29.6899C105.993 31.1158 105.409 31.097 99.9802 29.2361C96.8083 28.1312 93.7146 27.3373 93.0923 27.4936C92.4701 27.65 89.8048 27.2447 87.1781 26.6642L82.4111 25.4639L79.5371 29.4938ZM85.0589 27.4448C85.7597 27.9303 88.4641 28.4912 91.0708 28.6631L95.7588 28.891L90.3727 30.4924C85.7644 31.8983 84.7536 32.4831 83.3363 34.7411C81.9773 36.9018 80.9083 37.5839 77.8748 38.3461C75.7747 38.8738 74.2964 38.9144 74.5294 38.5251C75.8106 36.384 82.9185 26.8249 83.2878 26.6494C83.599 26.5713 84.358 26.9594 85.0589 27.4448ZM73.7117 37.9037C70.7818 44.0149 70.2381 44.813 67.7107 45.9442C65.2612 47.0558 64.7961 48.4958 65.0165 53.9808C65.135 55.4395 64.9403 55.3231 63.6934 53.6517C61.7258 51.0865 60.3769 45.3888 61.2505 43.9289C61.6582 43.2476 62.5716 42.6047 63.3494 42.4092C65.5273 41.862 69.6658 37.9279 71.1018 35.0863C72.3245 32.7118 72.5383 32.5754 73.9786 33.3712C75.3412 34.1865 75.2833 34.6145 73.7117 37.9037ZM101.616 31.1404C105.294 31.953 107.319 34.0903 109.251 39.1453C110.734 43.0728 110.078 48.0336 108.056 48.5417C107.045 48.7958 103.874 48.3522 102.745 47.8089C102.55 47.6924 102.724 46.4084 103.072 44.8324C103.885 41.4858 102.891 39.8337 98.3163 36.7658C94.0531 33.9504 90.7647 33.0401 87.4979 33.8609C85.8645 34.2713 85.164 34.1165 85.4161 33.4743C85.8422 31.8788 97.6667 30.2309 101.616 31.1404ZM91.5062 35.0038C93.0627 35.2742 95.2617 36.1275 96.3518 36.8459L98.4347 38.2245L95.1679 39.0453C93.3789 39.4948 91.4152 40.2363 90.7933 40.7233C90.0354 41.3272 89.0434 41.3284 88.0506 40.6682C87.0969 40.1636 85.1707 39.7379 83.7702 39.759L81.1639 39.9178L83.4564 37.5225C86.2151 34.6794 87.6734 34.2303 91.5062 35.0038ZM79.8799 39.7442C79.9777 40.1331 79.3562 40.9508 78.5401 41.6521C76.1304 43.5806 76.3954 53.8506 79.0088 59.644C81.5635 65.2041 81.7394 65.9041 80.4566 66.7226C78.7074 67.989 74.114 65.5047 70.783 61.4627C65.7572 55.2832 64.5619 47.8931 68.451 46.9159C69.1511 46.74 71.0749 45.1816 72.6094 43.3903C75.2513 40.4111 79.5282 38.3442 79.8799 39.7442ZM119.336 30.9054C122.041 32.1277 122.217 32.497 122.125 37.0682L122.051 40.3945L120.007 38.8408C118.975 38.0251 117.222 36.3154 116.248 35.0717C114.417 32.7202 112.997 32.6636 110.704 34.7281C109.15 36.111 109.15 36.111 107.844 33.8756C106.889 32.379 107.025 32.2622 111.848 31.0505C115.737 30.0733 117.39 30.0713 119.336 30.9054ZM86.9046 42.0311C87.197 42.5365 86.9253 43.101 86.3031 43.2573C84.5141 43.7068 82.2252 49.0781 82.8115 51.4116C83.1046 52.5783 84.1967 54.9501 85.3076 56.7383C87.9971 61.1895 90.5726 67.8193 89.717 68.0343C89.3281 68.132 87.4793 67.3562 85.5718 66.347C82.516 64.7167 81.9121 63.9588 80.2533 59.3313C78.2825 54.1207 77.5535 46.2827 78.6397 43.6943C79.3382 42.1958 86.1057 40.8261 86.9046 42.0311ZM117.789 38.2405C120.029 40.572 122.093 43.1954 122.308 44.051C122.523 44.9067 123.225 46.3841 123.966 47.3558C125.018 48.9107 124.824 49.7862 122.729 54.2819C121.371 57.104 119.254 60.1993 118.03 61.2511C115.698 63.1601 110.507 64.878 107.103 64.8237L105.196 64.8065L106.438 62.1791C107.078 60.7778 108.145 57.781 108.803 55.4655C109.888 51.8852 110.316 51.2817 112.066 51.338C113.545 51.2973 113.953 50.9467 114.029 49.6045C114.028 48.6125 113.501 47.5044 112.82 47.0967C112.041 46.6308 111.319 44.7449 110.751 41.4972C110.007 37.5494 110.142 36.4405 111.386 35.4665C112.124 34.7848 112.96 34.1614 113.193 34.1028C113.427 34.0441 115.471 35.9285 117.789 38.2405ZM98.262 40.1698C100.305 41.0622 100.384 41.3733 99.861 43.5719L99.2998 45.9457L97.8188 43.6716C97.0003 42.3888 95.5982 41.0872 94.5863 40.6799C92.9126 39.9428 92.9126 39.9427 94.4682 39.5519C95.3238 39.3369 97.0554 39.6461 98.262 40.1698ZM89.9428 45.2371C88.0979 47.7679 84.7736 49.3474 84.4218 47.9473C84.0896 46.625 87.043 43.8983 89.4542 43.2925L91.8072 42.7839L89.9428 45.2371ZM96.4605 46.4936C99.4569 47.2292 97.7852 48.1455 93.6224 48.0337C89.8099 47.9993 89.4789 47.669 91.1299 45.683C92.0038 44.5538 92.3928 44.4561 93.23 45.1554C93.8335 45.5826 95.2347 46.2228 96.4605 46.4936ZM96.6528 44.6261C96.9452 45.1315 96.6927 45.443 95.8367 45.3273C95.078 45.2698 94.3772 44.7844 94.2795 44.3955C94.0254 43.3843 95.9707 43.5571 96.6528 44.6261ZM62.7221 54.7227C63.5793 55.8304 66.2087 58.7255 68.643 61.1735L73.161 65.6614L72.6416 70.5054C71.8333 77.8201 72.0491 79.3371 74.3263 80.5014C77.3821 82.1317 77.0522 82.7934 72.3852 83.9661C65.5404 85.6859 61.4343 84.1541 58.16 78.6922C56.6591 76.0096 56.4441 75.1541 56.9659 72.2941C57.4299 69.8621 57.1547 67.4505 55.9442 63.62L54.3623 58.3116L57.4326 55.721C61.3189 52.4291 61.0078 52.5072 62.7221 54.7227ZM102.099 44.5807C102.042 45.3394 101.634 46.0207 101.245 46.1184C100.778 46.2357 100.68 45.5161 100.912 44.4655C101.455 42.3446 102.388 42.4407 102.099 44.5807ZM92.7485 49.1629C105.781 49.0307 106.462 49.4384 100.612 53.1411C98.8233 54.2519 95.6167 56.6288 93.4012 58.3432C90.5639 60.5445 89.242 61.2074 88.8328 60.566C87.0399 57.7088 83.6284 51.3717 83.4525 50.6717C83.1593 49.5049 84.5012 49.2505 92.7485 49.1629ZM112.803 49.0029C112.9 49.3919 112.065 50.0153 110.976 50.2889C109.731 50.6016 108.468 51.8285 107.537 53.7164C104.879 59.2632 98.4446 62.9472 93.6581 61.669L91.4594 61.1465L93.2085 59.88C96.7846 57.3277 106.308 50.8002 107.299 50.1377C109.146 48.9295 112.607 48.2251 112.803 49.0029ZM127.339 53.868C128.098 54.2561 129.946 55.032 131.348 55.6722L133.956 56.8362L134.488 62.9044C134.883 68.0975 134.709 69.0508 133.368 69.6359C132.104 70.2015 124.713 70.4048 120.161 70.0601C119.733 70.0022 120.393 69.0094 121.675 67.8602L123.968 65.7957L121.419 64.5344L118.869 63.2731L121.547 58.4654C124.556 53.3266 125.1 52.8592 127.339 53.868ZM81.1191 67.7138C82.597 67.3425 84.7756 67.4566 85.9822 67.9804C87.8506 68.834 88.0065 69.1256 87.7372 71.6741C87.3714 74.8256 88.2481 76.0111 92.043 77.6211C94.2616 78.5521 94.495 78.4935 98.4603 76.174C103.436 73.2699 104.856 73.3266 105.638 76.4379C106.674 80.5603 105.898 82.0785 102.436 82.4521C100.763 82.707 98.0022 83.5661 96.2332 84.4241C91.3927 86.8807 85.634 86.0122 78.5875 81.6634L73.0008 78.1883L73.4433 74.0252C73.713 71.8074 74.0601 69.2394 74.098 68.403C74.2324 66.9634 74.4658 66.9048 76.295 67.6029C77.4043 68.0684 79.5634 68.1047 81.1191 67.7138ZM98.7159 62.0521C101.049 61.4657 103.771 60.451 104.782 59.8663C106.356 58.8919 106.337 59.1448 104.376 62.201C102.008 65.9385 98.5478 67.9655 94.0743 68.2626C91.468 68.4213 91.1565 68.1688 90.5116 65.6019C89.8471 62.9573 89.9054 62.86 92.1618 62.9546C93.4263 63.0504 96.3824 62.6384 98.7159 62.0521ZM112.316 65.1676C116.711 64.2287 120.815 64.4378 121.148 65.7601C121.226 66.0713 119.653 68.0377 117.671 70.0241C114.698 73.0037 113.493 73.8026 111.062 74C109.428 74.0798 107.269 73.7128 106.12 73.0917C104.388 72.1212 103.669 72.2192 100.791 73.6037C92.8987 77.4061 93.132 77.3474 90.7571 75.7941C88.8688 74.532 88.5765 74.0267 88.8661 72.2174C89.2526 70.1356 89.5442 69.9796 94.9116 68.9618C98.0815 68.4134 101.368 67.3397 102.359 66.6772C103.564 65.8782 104.731 65.5851 105.878 65.8755C106.851 66.1272 109.749 65.8125 112.316 65.1676ZM126.037 71.3952C128.935 71.4112 129.032 71.4695 128.88 74.1539C128.46 80.7095 128.227 81.0989 122.977 82.9141C117.416 84.8074 113.953 84.5198 112.453 82.168C111.927 81.3905 110.583 80.3223 109.338 79.9736C108.054 79.4694 106.963 78.4203 106.69 77.3314C106.162 75.2313 106.22 75.1339 110.558 75.2844C112.97 75.3399 114.039 74.9885 115.536 73.7029C117.343 72.0085 120.162 71.3827 126.037 71.3952ZM32.6022 96.112C43.263 97.4026 43.8857 97.5769 46.1258 100.239C47.3918 101.658 49.5353 104.923 50.9389 107.547C53.7266 112.718 57.6099 123.236 56.7543 123.451C56.4431 123.53 54.1839 121.12 51.6906 118.108C47.5806 113.27 47.0932 112.317 47.1287 109.497C47.1264 107.513 46.6769 105.724 45.8197 104.616C44.748 102.983 43.8724 102.79 38.6407 103.36C29.3635 104.285 25.3794 107.188 22.7629 115.205L21.4254 119.097L20.4111 116.706C15.8864 106.597 15.8434 103.134 19.7481 98.9282C22.5456 95.9099 25.6959 95.2838 32.6022 96.112ZM81.4897 84.9862C86.9392 87.5862 91.0046 87.6397 98.646 85.1409C102.243 83.989 105.976 82.3896 106.792 81.6883C108.23 80.5001 108.658 80.558 110.391 81.8591C113 84.0152 113.137 84.8903 111.256 89.5803C109.879 92.9859 108.985 94.0374 105.661 95.9475C103.406 97.1757 101.171 98.4816 100.685 98.8517C100.18 99.1441 97.3011 99.2058 94.2859 99.0538C89.5005 98.7677 88.2162 98.2635 83.3686 94.768C77.9176 90.8453 76.4366 88.5713 76.8603 84.9917C77.0526 83.1241 77.5583 83.1624 81.4897 84.9862ZM58.2047 99.933C60.3654 101.292 61.2616 102.555 62.4132 105.822C64.2674 111.227 63.8637 115.215 61.1257 119.128L58.9509 122.321L55.6352 114.719C52.339 107.195 51.8887 104.745 52.8952 100.523C53.5729 97.9544 54.8565 97.7973 58.2047 99.933ZM43.4655 104.133C45.2553 104.344 46.3693 108.778 45.5176 112.3L44.8789 115.024L40.6548 112.364C35.146 108.869 30.6717 108.505 27.485 111.29C24.9006 113.511 24.1419 113.453 25.637 111.176C28.2972 107.282 30.6103 105.957 36.3862 104.919C39.4783 104.39 42.6095 104.017 43.4655 104.133ZM17.7231 113.578C18.3083 114.919 19.6939 118.788 20.8649 122.132L22.9729 128.218L20.4037 126.879C17.1533 125.132 13.3353 120.468 12.5731 117.435C11.3418 112.535 15.734 109.281 17.7231 113.578ZM35.6541 110.891C37.95 111.472 43.4398 115.22 43.7329 116.387C43.8111 116.698 42.1569 116.038 40.1522 114.971C36.532 113.069 36.2013 113.069 31.9237 114.475C29.4933 115.334 26.9268 116.309 26.2659 116.641C24.1857 117.577 24.4175 116.196 26.7682 113.703C29.2548 111.094 32.2297 110.098 35.6541 110.891ZM37.8183 115.226C38.2663 115.693 38.7924 116.47 38.9292 117.015C39.1246 117.793 38.7162 117.812 37.1789 117.289C34.0652 116.087 32.5878 116.789 30.0053 120.663C28.0831 123.544 27.5194 123.933 26.8764 123.02C25.7269 121.407 25.3743 119.345 26.015 118.275C26.8885 116.815 36.8447 114.313 37.8183 115.226ZM25.1269 123.956C26.1252 129.245 25.0379 130.842 23.7871 125.864C23.1421 123.297 23.2543 119.465 24.0321 119.269C24.1099 119.25 24.5598 121.369 25.1269 123.956ZM50.7971 119.16C55.0438 124.543 55.1795 124.095 48.5887 126.826L44.9724 128.231L44.6765 124.75C44.322 121.035 45.3843 114.731 46.3955 114.477C46.7262 114.477 48.6543 116.556 50.7971 119.16ZM36.6356 118.418C37.4724 118.786 37.5119 119.273 36.541 120.674C35.3954 122.368 35.162 122.427 33.7995 121.611C31.0743 119.981 33.4832 117.391 36.6356 118.418ZM42.3727 117.555C42.9958 118.06 43.5222 119.168 43.4261 120.102C43.3694 121.522 42.864 121.815 40.744 121.934C37.243 122.152 37.1457 122.094 38.7764 119.369C40.4653 116.546 40.7569 116.39 42.3727 117.555ZM27.4694 130.975C31.0889 132.216 34.7857 133.106 35.5635 132.91C38.597 132.148 37.1985 133.823 33.1354 135.753C30.7832 136.923 28.0616 138.268 26.9731 138.873C24.8346 139.906 24.1725 139.246 18.7942 131.005C14.7409 124.746 14.604 124.202 17.9526 126.668C19.4711 127.775 23.7527 129.676 27.4694 130.975ZM193.312 81.7803C196.854 83.3711 199.386 86.5387 199.701 89.7672C199.958 92.7624 198.18 102.801 197.402 102.997C197.091 103.075 196.331 101.695 195.57 99.9841C193.951 96.1735 190.641 92.8707 187.255 91.5715C185.873 91.009 181.807 90.6248 178.228 90.8625C171.829 91.0646 171.829 91.0646 170.859 93.1276C170.335 94.3342 170.221 96.5129 170.631 98.1463C171.276 100.713 170.85 101.978 167.647 107.662C164.755 112.936 163.939 113.968 163.529 112.665C162.494 108.874 167.104 92.6652 170.678 87.7981C172.386 85.3841 172.989 85.15 181.623 82.9807C189.79 80.9286 191.074 80.7715 193.312 81.7803ZM163.074 89.7912C164.867 92.3178 165.008 96.169 163.615 102.473C162.782 106.072 162.029 109.983 161.991 111.15L161.993 113.134L159.463 111.289C154.284 107.463 152.873 98.8871 156.484 92.8529C158.581 89.3492 161.769 87.8865 163.074 89.7912ZM33.4903 123.343C33.8421 124.743 32.2278 124.9 31.6231 123.481C31.1944 122.762 31.4078 122.295 32.1664 122.352C32.7695 122.449 33.373 122.876 33.4903 123.343ZM31.1197 125.427C31.3933 126.516 30.5576 127.139 29.4871 126.499C28.6111 125.975 29.1142 123.698 30.0288 124.047C30.4763 124.183 30.9634 124.805 31.1197 125.427ZM28.067 126.442C28.1648 126.831 28.6131 127.628 29.0223 128.269C29.5484 129.047 29.4128 129.494 28.5572 129.709C27.7794 129.905 27.1368 129.322 26.8241 128.077C26.5505 126.988 26.7244 126.035 27.1133 125.937C27.58 125.82 27.9693 126.053 28.067 126.442ZM43.5493 125.529C44.1356 127.862 43.903 128.582 41.9792 130.141C39.9193 131.816 39.4526 131.933 34.8615 131.433C32.1379 131.125 29.9589 130.68 30.0753 130.486C32.075 127.254 35.2039 124.897 38.8401 123.901L42.8652 122.807L43.5493 125.529ZM179.163 91.9507C181.536 91.8506 184.668 92.1387 186.011 92.5456C188.677 93.2816 193.213 97.1859 192.631 98.1592C192.456 98.4512 191.97 98.16 191.483 97.5381C190.45 96.061 186.306 95.035 183.817 95.6604C182.805 95.9144 180.104 97.6682 177.947 99.6159L177.946 99.617C175.77 101.486 173.866 103.122 173.788 103.142C173.03 103.415 171.526 98.0869 171.699 95.8109C171.947 92.5233 172.531 92.2114 179.163 91.9507ZM56.0566 125.611C55.7462 126.351 53.9389 127.715 52.0338 128.689C50.1483 129.742 47.5447 132.215 45.8941 134.532C43.0072 138.475 42.8457 138.523 35.7391 140.637C35.7226 140.642 35.706 140.647 35.6894 140.652C24.3922 144.069 22.5227 142.224 32.301 137.369C35.3919 135.848 39.0852 133.762 40.4845 132.749C41.8838 131.736 45.966 129.552 49.5623 127.739C53.1782 126.004 56.2692 124.483 56.4248 124.444C56.5608 124.327 56.3669 124.872 56.0566 125.611ZM60.9408 127.278C62.5207 130.933 63.306 137.021 62.6107 141.165C61.9927 144.958 60.7295 145.855 60.7838 142.451C60.858 139.455 59.6674 136.033 58.3436 135.043C56.5331 133.761 54.0245 134.309 49.0288 137.135C46.4241 138.616 44.2079 139.669 44.0328 139.631C43.1569 139.106 49.8586 131.551 52.7354 129.836C54.6014 128.706 56.6808 127.108 57.38 126.271C59.2058 123.993 59.556 124.071 60.9408 127.278ZM132.605 115.309C134.053 122.718 133.067 127.679 128.273 136.243C125.827 140.662 123.186 143.972 120.329 146.426C115.685 150.322 110.008 153.071 109.637 151.593C109.266 150.115 111.917 138.947 114.031 133.206C117.094 124.664 121.986 116.488 125.794 113.216C131.177 108.638 131.352 108.677 132.605 115.309ZM190.492 98.5313C193.821 100.92 195.185 103.058 192.324 101.544C191.35 100.962 189.969 100.73 189.269 100.906C188.569 101.082 186.624 100.909 184.892 100.6C182.188 100.039 181.488 100.215 179.525 101.618C175.113 104.793 174.432 104.716 177.657 101.425C182.398 96.5957 186.384 95.6768 190.492 98.5313ZM204.455 95.8499C207.473 98.6473 206.021 104.387 200.737 110.015C199.746 111.008 198.541 111.807 198.113 111.749C197.004 111.614 200.388 94.8043 201.633 94.4916C202.255 94.3353 203.481 94.9368 204.455 95.8499ZM174.73 109.521C175.472 112.476 175.826 115.199 175.593 115.588C175.36 115.978 172.948 115.922 170.302 115.264L165.418 114.258L168.427 108.789C170.309 105.422 171.863 103.377 172.427 103.649C172.992 103.921 173.987 106.565 174.73 109.521ZM186.703 101.881C189.446 102.267 192.072 102.848 192.54 103.061C193.026 103.352 193.184 104.966 192.933 106.601L192.45 109.616L190.619 107.595C187.133 103.593 185.011 102.72 182.115 104.026L179.451 105.275L180.499 103.192C181.14 102.121 181.644 101.168 181.644 101.168C181.722 101.148 183.96 101.496 186.703 101.881ZM24.2167 143.7C28.5361 144.765 43.9765 141.381 49.322 138.302L53.2095 136.002L50.5497 140.226L47.8899 144.45L36.6509 147.77C24.2843 151.539 21.678 151.697 16.6566 149.155C15.0411 148.321 12.8034 147.643 11.7918 147.566C9.94383 147.452 9.92428 147.374 11.1285 145.913C12.7018 143.947 20.0723 142.674 24.2167 143.7ZM59.1253 138.154C60.2197 142.51 59.7406 148.501 58.1478 150.39C55.3895 153.564 50.8015 155.709 46.9112 155.694C43.6627 155.601 32.1239 152.132 31.7921 151.141C31.538 150.13 36.4766 148.393 41.2608 147.687C46.9202 146.844 50.3993 144.564 52.456 140.243C54.9591 135.066 58.109 134.109 59.1253 138.154ZM179.043 105.294C179.16 105.761 179.978 106.713 180.952 107.296C183.034 108.674 182.627 109.356 179.437 109.495C175.586 109.636 174.239 105.592 177.875 104.596C178.342 104.478 178.906 104.75 179.043 105.294ZM186.299 106.2C186.553 107.211 186.087 107.99 185.038 108.419C184.066 108.829 183.229 108.791 183.131 108.402C183.014 107.935 182.546 107.06 182.137 106.419C181.416 105.525 181.747 105.194 183.594 104.978C185.267 104.723 186.006 105.033 186.299 106.2ZM196.416 107.627C196.614 110.72 196.014 113.599 195.314 113.114C194.535 112.648 194.798 104.478 195.537 104.789C195.985 104.924 196.375 106.149 196.416 107.627ZM187.841 110.03C187.531 111.1 187.239 111.256 186.596 110.674C186.148 110.207 186.128 109.468 186.653 108.923C187.838 107.715 188.364 108.162 187.841 110.03ZM170.268 119.738C171.124 119.523 178.932 126.574 178.583 127.158C178.486 127.431 175.898 126.675 172.998 125.667C170.001 124.601 166.85 123.904 165.916 124.139C163.583 124.725 162.263 127.703 162.715 131.476C163.285 136.377 161.904 135.815 160.594 130.603C159.402 125.858 159.375 119.167 160.422 116.754C161.043 115.606 161.744 115.76 165.286 117.682C167.583 118.924 169.801 119.855 170.268 119.738ZM183.076 110.814C184.204 111.027 186.345 112.308 187.923 113.648L190.688 116.096L189.171 116.973C185.828 118.805 182.133 119.237 179.428 118.015C177.17 116.929 176.78 116.365 176.719 114.148C176.58 111.95 176.949 111.444 178.816 110.975C180.061 110.662 181.947 110.601 183.076 110.814ZM170.089 116.392C172.813 117.031 176.763 118.271 178.729 119.183C180.792 120.153 184.878 121.607 187.836 122.518C193.926 124.378 196.515 125.464 196.769 126.475C197.042 127.564 194.689 127.742 187.997 127.108C180.566 126.495 178.814 125.777 175.795 122.318C174.627 120.958 172.582 119.404 171.22 118.92C167.367 117.407 163.864 115.641 164.466 115.407C164.778 115.329 167.287 115.773 170.089 116.392ZM190.391 111.953C189.42 113.685 188.836 113.005 189.105 110.457C189.26 109.425 189.629 109.25 190.31 109.658C191.089 110.124 191.09 110.785 190.391 111.953ZM193.562 112.396C193.448 114.906 193.39 115.003 192.145 114.654C191.425 114.422 191.424 113.761 192.103 112.515C193.326 110.14 193.734 110.12 193.562 112.396ZM201.289 116.492C199.33 120.87 197.506 124.471 197.233 124.374C196.883 124.297 193.828 123.328 190.306 122.145L183.982 120.013L188.142 118.472C193.431 116.481 199.631 112.856 202.196 110.227C203.303 109.039 204.333 108.202 204.528 108.318C204.722 108.435 203.248 112.113 201.289 116.492ZM167.825 126.471C168.448 126.976 170.123 128.705 171.525 130.337C174.525 133.718 178.592 135.425 183.124 135.031C186.586 134.657 192.442 135.584 192.657 136.439C192.794 136.984 186.865 140.706 182.802 142.637C178.603 144.684 174.402 144.417 169.575 141.991L165.195 139.701L164.314 134.878C163.139 127.566 164.593 124.14 167.825 126.471ZM78.304 154.256C79.128 160.169 78.53 164.371 76.8375 164.217C75.8842 164.043 75.6903 164.588 76.1594 166.455C76.7261 168.71 76.5319 168.925 74.1206 169.531C70.2315 170.508 69.0046 169.245 68.9791 164.207C68.9959 161.97 69.5365 158.527 70.3706 156.58C71.6894 153.272 75.5746 148.988 76.9367 149.473C77.2869 149.55 77.9119 151.709 78.304 154.256ZM177.358 128.21C183.079 129.584 194.516 129.357 200.388 127.716C203.635 126.817 206.709 126.541 209.101 126.85C213.07 127.506 214.434 129.314 211.4 130.076C210.389 130.33 208.426 131.402 207.104 132.396C203.062 135.396 198.375 136.16 192.558 134.728C189.756 134.109 185.573 133.588 183.356 133.649C177.696 133.831 175.497 132.978 171.991 128.897L169.069 125.497L171.19 126.37C172.377 126.816 175.16 127.688 177.358 128.21ZM60.6049 172.017C63.9706 172.577 72.282 177.352 72.6924 178.986C73.0051 180.23 66.0821 181.639 63.0079 180.923C57.9298 179.801 52.0117 175.664 51.269 172.709C50.9954 171.62 55.8578 171.225 60.6049 172.017ZM93.1062 170.383C102.662 174.846 110.198 181.801 112.851 188.411L114.236 191.949L109.55 192.713C100.682 194.28 91.4771 190.887 86.2172 184.105C83.7625 180.918 79.0635 171.431 78.1059 167.62L77.5196 165.286L82.6368 166.564C85.4581 167.261 90.1868 168.967 93.1062 170.383ZM79.2222 174.037C80.1197 176.293 82.303 180.375 84.0764 183.154C87.1162 187.683 87.3699 188.363 86.8864 190.717C86.5768 192.118 86.2485 194.103 86.2301 195.017C86.0957 196.457 85.8037 196.282 84.128 193.891C81.0687 189.285 71.1868 172.335 71.3224 171.888C71.4193 171.615 72.8581 171.088 74.5693 170.658L77.6611 169.799L79.2222 174.037ZM139.16 164.104C145.121 172.033 148.358 178.662 148.85 183.914C149.382 189.321 148.858 190.197 145.959 189.519C141.094 188.261 135.172 180.818 133.374 173.662C131.694 166.973 131.644 157.558 133.199 157.167C133.588 157.07 136.198 160.218 139.16 164.104ZM183.871 157.749C185.31 157.884 186.575 158.31 186.692 158.777C186.79 159.166 184.808 161.152 182.282 163.275C178.493 166.295 176.452 167.386 171.066 168.988C161.46 171.897 156.849 170.658 160.87 166.257C164.833 161.954 177.607 157.173 183.871 157.749ZM99.1635 193.504C100.798 193.755 102.16 194.239 102.258 194.628C102.766 196.651 92.7916 200.397 89.2699 199.545C87.7717 199.178 87.4598 198.595 87.3402 196.144C87.1631 194.452 87.4328 192.234 87.801 191.066L88.5182 188.984L92.4109 190.983C94.513 192.109 97.5293 193.253 99.1635 193.504ZM111.36 193.664C113.382 193.156 114.316 193.252 114.531 194.108C114.804 195.197 119.347 236.973 119.192 237.343C119.212 237.421 117.267 238.24 115.012 239.137L110.851 240.679L108.707 236.422C107.517 233.992 102.625 225.381 97.8882 217.061C93.0934 208.839 89.1753 201.802 89.0972 201.491C89.019 201.18 91.3134 200.438 94.2304 199.87C98.3142 199.01 100.103 198.229 101.929 196.613C103.406 195.249 105.097 194.411 106.342 194.429C107.49 194.389 109.726 194.075 111.36 193.664ZM83.1189 212.255C88.9749 213.181 100.986 221.492 100.172 224.177C99.7655 225.52 91.8509 227.261 88.602 226.837C87.0456 226.566 84.4186 225.655 82.628 224.782C79.0469 223.035 71.0439 215.867 71.4121 214.7C71.7803 213.532 79.9478 211.811 83.1189 212.255ZM177.26 193.314C179.478 193.253 181.521 193.484 181.852 193.814C182.923 194.786 174.899 202.673 169.961 205.402C166.482 207.351 163.273 208.405 156.992 209.736C149.7 211.32 148.397 211.399 146.547 210.293C144.484 208.992 144.465 208.914 145.474 207.007C147.084 203.873 150.796 200.542 154.781 198.301C158.863 196.117 170.375 193.556 177.26 193.314ZM135.526 233.239C135.488 234.075 134.172 239.037 132.758 244.271L130.124 253.864L126.546 254.763L122.89 255.681L121.83 247.182C121.221 242.456 120.808 238.508 120.866 238.411C121.041 238.119 133.055 232.619 134.747 232.112C135.35 231.877 135.7 232.285 135.526 233.239ZM120.625 247.981C122.136 259.592 120.911 259.982 115.53 249.757C113.464 245.811 111.923 242.312 112.098 242.02C112.447 241.436 118.552 238.744 119.116 239.016C119.291 239.055 119.977 243.1 120.625 247.981ZM113.993 249.234C115.962 252.791 117.463 255.804 117.405 255.902C117.114 256.388 114.194 254.641 111.468 252.349C109.794 250.951 107.068 248.989 105.472 247.902L102.513 245.999L104.651 244.966C105.818 244.342 107.14 243.679 107.49 243.426C109.628 242.061 110.679 242.955 113.993 249.234ZM82.7458 258.491C83.0976 259.891 84.7154 262.709 86.3711 264.692C88.0464 266.751 89.4101 268.559 89.4687 268.792C89.6642 269.57 84.7623 269.479 82.5051 268.723C79.7029 267.773 76.372 263.731 76.4861 261.552C76.5619 259.879 79.3398 256.783 81.187 256.236C81.7315 256.1 82.3745 257.013 82.7458 258.491ZM129.815 255.926C129.526 258.397 127.258 264.507 126.558 264.683C124.535 265.191 122.426 257.782 124.311 256.73C127.208 255.093 129.93 254.739 129.815 255.926ZM122.681 259.455C122.837 260.077 122.663 260.7 122.196 260.817C121.807 260.915 121.281 260.468 121.125 259.846C120.969 259.224 121.221 258.581 121.61 258.484C122.076 258.366 122.524 258.833 122.681 259.455ZM113.555 289.615C126.252 302.302 127.694 304.751 125.074 309.462C123.735 312.031 117.843 313.925 115.002 312.819C113.523 312.198 113.406 311.732 113.539 309.3C113.904 305.487 111.95 298.04 110.159 296.505C109.068 295.456 108.639 294.076 108.206 289.719C107.949 286.724 107.83 284.273 107.907 284.254C107.985 284.234 110.575 286.643 113.555 289.615ZM111.136 300.394C112.306 303.077 112.841 311.129 111.752 311.403C110.585 311.696 109.747 309.674 109.762 306.445C109.643 304.656 109.407 302.069 109.055 300.669C108.215 297.325 109.576 297.148 111.136 300.394ZM135.587 317.074C141.823 326.753 143.287 331.264 141.268 334.418C138.181 339.246 131.005 340.966 131.039 336.823C130.998 334.683 125.991 328.251 123.851 327.631C123.053 327.418 121.883 325.065 120.517 320.943L118.447 314.682L120.781 314.096C123.659 313.373 126.865 310.665 127.116 308.701C127.424 305.977 130.053 308.541 135.587 317.074ZM127.922 332.975C130.571 335.948 130.766 336.395 129.755 336.649C129.366 336.747 128.432 335.989 127.73 334.843C127.048 333.773 126.035 332.374 125.528 331.675C123.794 329.381 125.585 330.255 127.922 332.975ZM146.109 332.953C146.598 334.898 146.854 337.893 146.623 339.605C146.411 341.395 146.473 344.604 146.768 346.763C147.062 348.922 146.929 351.684 146.541 352.774C145.65 355.479 140.771 358.441 137.717 358.133C135.694 357.98 135.44 357.63 134.755 353.916C134.266 351.641 133.154 348.53 132.238 346.858C130.405 343.515 129.992 339.236 131.646 340.226C133.301 341.216 137.112 339.928 140.357 337.376C142.417 335.7 143.232 334.338 143.482 332.042C143.847 328.229 145.015 328.598 146.109 332.953ZM133.703 352.692C133.957 353.703 133.861 354.637 133.395 354.754C133.006 354.852 132.343 353.86 132.011 352.538C131.679 351.216 131.775 350.282 132.32 350.476C132.845 350.592 133.43 351.603 133.703 352.692Z" fill="black"/>
<path d="M132.605 115.309C134.053 122.718 133.067 127.679 128.273 136.243C125.827 140.662 123.186 143.972 120.329 146.426C115.685 150.322 110.008 153.071 109.637 151.593C109.266 150.115 111.917 138.947 114.031 133.206C117.094 124.664 121.986 116.488 125.794 113.216C131.177 108.638 131.352 108.677 132.605 115.309Z" fill="#699472"/>
<path d="M93.1062 170.383C102.662 174.846 110.198 181.801 112.851 188.411L114.236 191.949L109.55 192.713C100.682 194.28 91.4771 190.887 86.2172 184.105C83.7625 180.918 79.0635 171.431 78.1059 167.62L77.5196 165.286L82.6368 166.564C85.4581 167.261 90.1868 168.967 93.1062 170.383Z" fill="#699472"/>
<path d="M139.16 164.104C145.121 172.033 148.358 178.662 148.85 183.914C149.382 189.321 148.858 190.197 145.959 189.519C141.094 188.261 135.172 180.818 133.374 173.662C131.694 166.973 131.644 157.558 133.199 157.167C133.588 157.07 136.198 160.218 139.16 164.104Z" fill="#699472"/>
<path d="M177.26 193.314C179.478 193.253 181.521 193.484 181.852 193.814C182.923 194.786 174.899 202.673 169.961 205.402C166.482 207.351 163.273 208.405 156.992 209.736C149.7 211.32 148.397 211.399 146.547 210.293C144.484 208.992 144.465 208.914 145.474 207.007C147.084 203.873 150.796 200.542 154.781 198.301C158.863 196.117 170.375 193.556 177.26 193.314Z" fill="#699472"/>
<path d="M183.871 157.749C185.31 157.884 186.575 158.31 186.692 158.777C186.79 159.166 184.808 161.152 182.282 163.275C178.493 166.295 176.452 167.386 171.066 168.988C161.46 171.897 156.849 170.658 160.87 166.257C164.833 161.954 177.607 157.173 183.871 157.749Z" fill="#699472"/>
<path d="M81.4897 84.9862C86.9392 87.5862 91.0046 87.6397 98.646 85.1409C102.243 83.989 105.976 82.3896 106.792 81.6883C108.23 80.5001 108.658 80.558 110.391 81.8591C113 84.0152 113.137 84.8903 111.256 89.5803C109.879 92.9859 108.985 94.0374 105.661 95.9475C103.406 97.1757 101.171 98.4816 100.685 98.8517C100.18 99.1441 97.3011 99.2058 94.2859 99.0538C89.5005 98.7677 88.2162 98.2635 83.3686 94.768C77.9176 90.8453 76.4366 88.5713 76.8603 84.9917C77.0526 83.1241 77.5583 83.1624 81.4897 84.9862Z" fill="#C93636"/>
<path d="M62.7221 54.7227C63.5793 55.8304 66.2087 58.7255 68.643 61.1735L73.161 65.6614L72.6416 70.5054C71.8333 77.8201 72.0491 79.3371 74.3263 80.5014C77.3821 82.1317 77.0522 82.7934 72.3852 83.9661C65.5404 85.6859 61.4343 84.1541 58.16 78.6922C56.6591 76.0096 56.4441 75.1541 56.9659 72.2941C57.4299 69.8621 57.1547 67.4505 55.9442 63.62L54.3623 58.3116L57.4326 55.721C61.3189 52.4291 61.0078 52.5072 62.7221 54.7227Z" fill="#3C3838"/>
<path d="M81.1191 67.7138C82.597 67.3425 84.7756 67.4566 85.9822 67.9804C87.8506 68.834 88.0065 69.1256 87.7372 71.6741C87.3714 74.8256 88.2481 76.0111 92.043 77.6211C94.2616 78.5521 94.495 78.4935 98.4603 76.174C103.436 73.2699 104.856 73.3266 105.638 76.4379C106.674 80.5603 105.898 82.0785 102.436 82.4521C100.763 82.707 98.0022 83.5661 96.2332 84.4241C91.3927 86.8807 85.634 86.0122 78.5875 81.6634L73.0008 78.1883L73.4433 74.0252C73.713 71.8074 74.0601 69.2394 74.098 68.403C74.2324 66.9634 74.4658 66.9048 76.295 67.6029C77.4043 68.0684 79.5634 68.1047 81.1191 67.7138Z" fill="#AF3A3A"/>
<path d="M126.037 71.3952C128.935 71.4112 129.032 71.4695 128.88 74.1539C128.46 80.7095 128.227 81.0989 122.977 82.9141C117.416 84.8074 113.953 84.5198 112.453 82.168C111.927 81.3905 110.583 80.3223 109.338 79.9736C108.054 79.4694 106.963 78.4203 106.69 77.3314C106.162 75.2313 106.22 75.1339 110.558 75.2844C112.97 75.3399 114.039 74.9885 115.536 73.7029C117.343 72.0085 120.162 71.3827 126.037 71.3952Z" fill="#9D1313"/>
<path d="M112.316 65.1676C116.711 64.2287 120.815 64.4378 121.148 65.7601C121.226 66.0713 119.653 68.0377 117.671 70.0241C114.698 73.0037 113.493 73.8026 111.062 74C109.428 74.0798 107.269 73.7128 106.12 73.0917C104.388 72.1212 103.669 72.2192 100.791 73.6037C92.8987 77.4061 93.132 77.3474 90.7571 75.7941C88.8688 74.532 88.5765 74.0267 88.8661 72.2174C89.2526 70.1356 89.5442 69.9796 94.9116 68.9618C98.0815 68.4134 101.368 67.3397 102.359 66.6772C103.564 65.8782 104.731 65.5851 105.878 65.8755C106.851 66.1272 109.749 65.8125 112.316 65.1676Z" fill="#BD4545"/>
<path d="M127.339 53.868C128.098 54.2561 129.946 55.032 131.348 55.6722L133.956 56.8362L134.488 62.9044C134.883 68.0975 134.709 69.0508 133.368 69.6359C132.104 70.2015 124.713 70.4048 120.161 70.0601C119.733 70.0022 120.393 69.0094 121.675 67.8602L123.968 65.7957L121.419 64.5344L118.869 63.2731L121.547 58.4654C124.556 53.3266 125.1 52.8592 127.339 53.868Z" fill="#B74242"/>
<path d="M117.789 38.2405C120.029 40.572 122.093 43.1954 122.308 44.051C122.523 44.9067 123.225 46.3841 123.966 47.3558C125.018 48.9107 124.824 49.7862 122.729 54.2819C121.371 57.104 119.254 60.1993 118.03 61.2511C115.698 63.1601 110.507 64.878 107.103 64.8237L105.196 64.8065L106.438 62.1791C107.078 60.7778 108.145 57.781 108.803 55.4655C109.888 51.8852 110.316 51.2817 112.066 51.338C113.545 51.2973 113.953 50.9467 114.029 49.6045C114.028 48.6125 113.501 47.5044 112.82 47.0967C112.041 46.6308 111.319 44.7449 110.751 41.4972C110.007 37.5494 110.142 36.4405 111.386 35.4665C112.124 34.7848 112.96 34.1614 113.193 34.1028C113.427 34.0441 115.471 35.9285 117.789 38.2405Z" fill="#DF5E5E"/>
<path d="M98.7159 62.0521C101.049 61.4657 103.771 60.451 104.782 59.8663C106.356 58.8919 106.337 59.1448 104.376 62.201C102.008 65.9385 98.5478 67.9655 94.0743 68.2626C91.468 68.4213 91.1565 68.1688 90.5116 65.6019C89.8471 62.9573 89.9054 62.86 92.1618 62.9546C93.4263 63.0504 96.3824 62.6384 98.7159 62.0521Z" fill="#A43D3D"/>
<path d="M79.8799 39.7442C79.9777 40.1331 79.3562 40.9508 78.5401 41.6521C76.1304 43.5806 76.3954 53.8506 79.0088 59.644C81.5635 65.2041 81.7394 65.9041 80.4566 66.7226C78.7074 67.989 74.114 65.5047 70.783 61.4627C65.7572 55.2832 64.5619 47.8931 68.451 46.9159C69.1511 46.74 71.0749 45.1816 72.6094 43.3903C75.2513 40.4111 79.5282 38.3442 79.8799 39.7442Z" fill="#2E2B2B"/>
<path d="M73.7117 37.9037C70.7818 44.0149 70.2381 44.813 67.7107 45.9442C65.2612 47.0558 64.7961 48.4958 65.0165 53.9808C65.135 55.4395 64.9403 55.3231 63.6934 53.6517C61.7258 51.0865 60.3769 45.3888 61.2505 43.9289C61.6582 43.2476 62.5716 42.6047 63.3494 42.4092C65.5273 41.862 69.6658 37.9279 71.1018 35.0863C72.3245 32.7118 72.5383 32.5754 73.9786 33.3712C75.3412 34.1865 75.2833 34.6145 73.7117 37.9037Z" fill="#2D2B2B"/>
<path d="M86.9046 42.0311C87.197 42.5365 86.9253 43.101 86.3031 43.2573C84.5141 43.7068 82.2252 49.0781 82.8115 51.4116C83.1046 52.5783 84.1967 54.9501 85.3076 56.7383C87.9971 61.1895 90.5726 67.8193 89.717 68.0343C89.3281 68.132 87.4793 67.3562 85.5718 66.347C82.516 64.7167 81.9121 63.9588 80.2533 59.3313C78.2825 54.1207 77.5535 46.2827 78.6397 43.6943C79.3382 42.1958 86.1057 40.8261 86.9046 42.0311Z" fill="#2E2B2B"/>
<path d="M112.803 49.0029C112.9 49.3919 112.065 50.0153 110.976 50.2889C109.731 50.6016 108.468 51.8285 107.537 53.7164C104.879 59.2632 98.4446 62.9472 93.6581 61.669L91.4594 61.1465L93.2085 59.88C96.7846 57.3277 106.308 50.8002 107.299 50.1377C109.146 48.9295 112.607 48.2251 112.803 49.0029Z" fill="#AE4E4E"/>
<path d="M92.7485 49.1629C105.781 49.0307 106.462 49.4384 100.612 53.1411C98.8233 54.2519 95.6167 56.6288 93.4012 58.3432C90.5639 60.5445 89.242 61.2074 88.8328 60.566C87.0399 57.7088 83.6284 51.3717 83.4525 50.6717C83.1593 49.5049 84.5012 49.2505 92.7485 49.1629Z" fill="#D85F5F"/>
<path d="M101.616 31.1404C105.294 31.953 107.319 34.0903 109.251 39.1453C110.734 43.0728 110.078 48.0336 108.056 48.5417C107.045 48.7958 103.874 48.3522 102.745 47.8089C102.55 47.6924 102.724 46.4084 103.072 44.8324C103.885 41.4858 102.891 39.8337 98.3163 36.7658C94.0531 33.9504 90.7647 33.0401 87.4979 33.8609C85.8645 34.2713 85.164 34.1165 85.4161 33.4743C85.8422 31.8788 97.6667 30.2309 101.616 31.1404Z" fill="#2F2E2E"/>
<path d="M91.5062 35.0038C93.0627 35.2742 95.2617 36.1275 96.3518 36.8459L98.4347 38.2245L95.1679 39.0453C93.3789 39.4948 91.4152 40.2363 90.7933 40.7233C90.0354 41.3272 89.0434 41.3284 88.0506 40.6682C87.0969 40.1636 85.1707 39.7379 83.7702 39.759L81.1639 39.9178L83.4564 37.5225C86.2151 34.6794 87.6734 34.2303 91.5062 35.0038Z" fill="#282626"/>
<path d="M85.0589 27.4448C85.7597 27.9303 88.4641 28.4912 91.0708 28.6631L95.7588 28.891L90.3727 30.4924C85.7644 31.8983 84.7536 32.4831 83.3363 34.7411C81.9773 36.9018 80.9083 37.5839 77.8748 38.3461C75.7747 38.8738 74.2964 38.9144 74.5294 38.5251C75.8106 36.384 82.9185 26.8249 83.2878 26.6494C83.599 26.5713 84.358 26.9594 85.0589 27.4448Z" fill="#393838"/>
<path d="M119.336 30.9054C122.041 32.1277 122.217 32.497 122.125 37.0682L122.051 40.3945L120.007 38.8408C118.975 38.0251 117.222 36.3154 116.248 35.0717C114.417 32.7202 112.997 32.6636 110.704 34.7281C109.15 36.111 109.15 36.111 107.844 33.8756C106.889 32.379 107.025 32.2622 111.848 31.0505C115.737 30.0733 117.39 30.0713 119.336 30.9054Z" fill="#9F1717"/>
<path d="M89.9428 45.2371C88.0979 47.7679 84.7736 49.3474 84.4218 47.9473C84.0896 46.625 87.043 43.8983 89.4542 43.2925L91.8072 42.7839L89.9428 45.2371Z" fill="#B96666"/>
<path d="M96.4605 46.4936C99.4569 47.2292 97.7852 48.1455 93.6224 48.0337C89.8099 47.9993 89.4789 47.669 91.1299 45.683C92.0038 44.5538 92.3928 44.4561 93.23 45.1554C93.8335 45.5826 95.2347 46.2228 96.4605 46.4936Z" fill="#BF3939"/>
<path d="M98.262 40.1698C100.305 41.0622 100.384 41.3733 99.861 43.5719L99.2998 45.9457L97.8188 43.6716C97.0003 42.3888 95.5982 41.0872 94.5863 40.6799C92.9126 39.9428 92.9126 39.9427 94.4682 39.5519C95.3238 39.3369 97.0554 39.6461 98.262 40.1698Z" fill="#B42222"/>
<path d="M102.099 44.5807C102.042 45.3394 101.634 46.0207 101.245 46.1184C100.778 46.2357 100.68 45.5161 100.912 44.4655C101.455 42.3446 102.388 42.4407 102.099 44.5807Z" fill="#B12B2B"/>
<path d="M96.6528 44.6261C96.9452 45.1315 96.6927 45.443 95.8367 45.3273C95.078 45.2698 94.3772 44.7844 94.2795 44.3955C94.0254 43.3843 95.9707 43.5571 96.6528 44.6261Z" fill="#C57070"/>
<path d="M59.1253 138.154C60.2197 142.51 59.7406 148.501 58.1478 150.39C55.3895 153.564 50.8015 155.709 46.9112 155.694C43.6627 155.601 32.1239 152.132 31.7921 151.141C31.538 150.13 36.4766 148.393 41.2608 147.687C46.9202 146.844 50.3993 144.564 52.456 140.243C54.9591 135.066 58.109 134.109 59.1253 138.154Z" fill="#272727"/>
<path d="M24.2167 143.7C28.5361 144.765 43.9765 141.381 49.322 138.302L53.2095 136.002L50.5497 140.226L47.8899 144.45L36.6509 147.77C24.2843 151.539 21.678 151.697 16.6566 149.155C15.0411 148.321 12.8034 147.643 11.7918 147.566C9.94383 147.452 9.92428 147.374 11.1285 145.913C12.7018 143.947 20.0723 142.674 24.2167 143.7Z" fill="#3F3F3F"/>
<path d="M60.9408 127.278C62.5207 130.933 63.306 137.021 62.6107 141.165C61.9927 144.958 60.7295 145.855 60.7838 142.451C60.858 139.455 59.6674 136.033 58.3436 135.043C56.5331 133.761 54.0245 134.309 49.0288 137.135C46.4241 138.616 44.2079 139.669 44.0328 139.631C43.1569 139.106 49.8586 131.551 52.7354 129.836C54.6014 128.706 56.6808 127.108 57.38 126.271C59.2058 123.993 59.556 124.071 60.9408 127.278Z" fill="#2D2D2D"/>
<path d="M56.0566 125.611C55.7462 126.351 53.9389 127.715 52.0338 128.689C50.1483 129.742 47.5447 132.215 45.8941 134.532C43.0072 138.475 42.8457 138.523 35.7391 140.637L35.6894 140.652C24.3922 144.069 22.5227 142.224 32.301 137.369C35.3919 135.848 39.0852 133.762 40.4845 132.749C41.8838 131.736 45.966 129.552 49.5623 127.739C53.1782 126.004 56.2692 124.483 56.4248 124.444C56.5608 124.327 56.3669 124.872 56.0566 125.611Z" fill="#2F2F2F"/>
<path d="M27.4694 130.975C31.0889 132.216 34.7857 133.106 35.5635 132.91C38.597 132.148 37.1985 133.823 33.1354 135.753C30.7832 136.923 28.0616 138.268 26.9731 138.873C24.8346 139.906 24.1725 139.246 18.7942 131.005C14.7409 124.746 14.604 124.202 17.9526 126.668C19.4711 127.775 23.7527 129.676 27.4694 130.975Z" fill="#505050"/>
<path d="M50.7971 119.16C55.0438 124.543 55.1795 124.095 48.5887 126.826L44.9724 128.231L44.6765 124.75C44.322 121.035 45.3843 114.731 46.3955 114.477C46.7262 114.477 48.6543 116.556 50.7971 119.16Z" fill="#2C2C2C"/>
<path d="M58.2047 99.933C60.3654 101.292 61.2616 102.555 62.4132 105.822C64.2674 111.227 63.8637 115.215 61.1257 119.128L58.9509 122.321L55.6352 114.719C52.339 107.195 51.8887 104.745 52.8952 100.523C53.5729 97.9544 54.8565 97.7973 58.2047 99.933Z" fill="#282828"/>
<path d="M32.6022 96.112C43.263 97.4026 43.8857 97.5769 46.1258 100.239C47.3918 101.658 49.5353 104.923 50.9389 107.547C53.7266 112.718 57.6099 123.236 56.7543 123.451C56.4431 123.53 54.1839 121.12 51.6906 118.108C47.5806 113.27 47.0932 112.317 47.1287 109.497C47.1264 107.513 46.6769 105.724 45.8197 104.616C44.748 102.983 43.8724 102.79 38.6407 103.36C29.3635 104.285 25.3794 107.188 22.7629 115.205L21.4254 119.097L20.4111 116.706C15.8864 106.597 15.8434 103.134 19.7481 98.9282C22.5456 95.9099 25.6959 95.2838 32.6022 96.112Z" fill="#353535"/>
<path d="M17.7231 113.578C18.3083 114.919 19.6939 118.788 20.8649 122.132L22.9729 128.218L20.4037 126.879C17.1533 125.132 13.3353 120.468 12.5731 117.435C11.3418 112.535 15.734 109.281 17.7231 113.578Z" fill="#343434"/>
<path d="M43.4655 104.133C45.2553 104.344 46.3693 108.778 45.5176 112.3L44.8789 115.024L40.6548 112.364C35.146 108.869 30.6717 108.505 27.485 111.29C24.9006 113.511 24.1419 113.453 25.637 111.176C28.2972 107.282 30.6103 105.957 36.3862 104.919C39.4783 104.39 42.6095 104.017 43.4655 104.133Z" fill="#3C3838"/>
<path d="M43.5493 125.529C44.1356 127.862 43.903 128.582 41.9792 130.141C39.9193 131.816 39.4526 131.933 34.8615 131.433C32.1379 131.125 29.9589 130.68 30.0753 130.486C32.075 127.254 35.2039 124.897 38.8401 123.901L42.8652 122.807L43.5493 125.529Z" fill="#2C2A2A"/>
<path d="M42.3727 117.555C42.9958 118.06 43.5222 119.168 43.4261 120.102C43.3694 121.522 42.864 121.815 40.744 121.934C37.243 122.152 37.1457 122.094 38.7764 119.369C40.4653 116.546 40.7569 116.39 42.3727 117.555Z" fill="#353030"/>
<path d="M37.8183 115.226C38.2663 115.693 38.7924 116.47 38.9292 117.015C39.1246 117.793 38.7162 117.812 37.1789 117.289C34.0652 116.087 32.5878 116.789 30.0053 120.663C28.0831 123.544 27.5194 123.933 26.8764 123.02C25.7269 121.407 25.3743 119.345 26.015 118.275C26.8885 116.815 36.8447 114.313 37.8183 115.226Z" fill="#262424"/>
<path d="M35.6541 110.891C37.95 111.472 43.4398 115.22 43.7329 116.387C43.8111 116.698 42.1569 116.038 40.1522 114.971C36.532 113.069 36.2013 113.069 31.9237 114.475C29.4933 115.334 26.9268 116.309 26.2659 116.641C24.1857 117.577 24.4175 116.196 26.7682 113.703C29.2548 111.094 32.2297 110.098 35.6541 110.891Z" fill="#564F4F"/>
<path d="M25.1269 123.956C26.1252 129.245 25.0379 130.842 23.7871 125.864C23.1421 123.297 23.2543 119.465 24.0321 119.269C24.1099 119.25 24.5598 121.369 25.1269 123.956Z" fill="#343131"/>
<path d="M28.067 126.442C28.1648 126.831 28.6131 127.628 29.0223 128.269C29.5484 129.047 29.4128 129.494 28.5572 129.709C27.7794 129.905 27.1368 129.322 26.8241 128.077C26.5505 126.988 26.7244 126.035 27.1133 125.937C27.58 125.82 27.9693 126.053 28.067 126.442Z" fill="#403939"/>
<path d="M36.6356 118.418C37.4724 118.786 37.5119 119.273 36.541 120.674C35.3954 122.368 35.162 122.427 33.7995 121.611C31.0743 119.981 33.4832 117.391 36.6356 118.418Z" fill="#353131"/>
<path d="M33.4903 123.343C33.8421 124.743 32.2278 124.9 31.6231 123.481C31.1944 122.762 31.4078 122.295 32.1664 122.352C32.7695 122.449 33.373 122.876 33.4903 123.343Z" fill="#4B4B4B"/>
<path d="M31.1197 125.427C31.3933 126.516 30.5576 127.139 29.4871 126.499C28.6111 125.975 29.1142 123.698 30.0288 124.047C30.4763 124.183 30.9634 124.805 31.1197 125.427Z" fill="#353131"/>
<path d="M167.825 126.471C168.448 126.976 170.123 128.705 171.525 130.337C174.525 133.718 178.592 135.425 183.124 135.031C186.586 134.657 192.442 135.584 192.657 136.439C192.794 136.984 186.865 140.706 182.802 142.637C178.603 144.684 174.402 144.417 169.575 141.991L165.195 139.701L164.314 134.878C163.139 127.566 164.593 124.14 167.825 126.471Z" fill="#A43333"/>
<path d="M177.358 128.21C183.079 129.584 194.516 129.357 200.388 127.716C203.635 126.817 206.709 126.541 209.101 126.85C213.07 127.506 214.434 129.314 211.4 130.076C210.389 130.33 208.426 131.402 207.104 132.396C203.062 135.396 198.375 136.16 192.558 134.728C189.756 134.109 185.573 133.588 183.356 133.649C177.696 133.831 175.497 132.978 171.991 128.897L169.069 125.497L171.19 126.37C172.377 126.816 175.16 127.688 177.358 128.21Z" fill="#A83737"/>
<path d="M170.268 119.738C171.124 119.523 178.932 126.574 178.583 127.158C178.486 127.431 175.898 126.675 172.998 125.667C170.001 124.601 166.85 123.904 165.916 124.139C163.583 124.725 162.263 127.703 162.715 131.476C163.285 136.377 161.904 135.815 160.594 130.603C159.402 125.858 159.375 119.167 160.422 116.754C161.043 115.606 161.744 115.76 165.286 117.682C167.583 118.924 169.801 119.855 170.268 119.738Z" fill="#AF4646"/>
<path d="M163.074 89.7912C164.867 92.3178 165.008 96.169 163.615 102.473C162.782 106.072 162.029 109.983 161.991 111.15L161.993 113.134L159.463 111.289C154.284 107.463 152.873 98.8871 156.484 92.8529C158.581 89.3492 161.769 87.8865 163.074 89.7912Z" fill="#C15151"/>
<path d="M170.089 116.392C172.813 117.031 176.763 118.271 178.729 119.183C180.792 120.153 184.878 121.607 187.836 122.518C193.926 124.378 196.515 125.464 196.769 126.475C197.042 127.564 194.689 127.742 187.997 127.108C180.566 126.495 178.814 125.777 175.795 122.318C174.627 120.958 172.582 119.404 171.22 118.92C167.367 117.407 163.864 115.641 164.466 115.407C164.778 115.329 167.287 115.773 170.089 116.392Z" fill="#8D2626"/>
<path d="M201.289 116.492C199.33 120.87 197.506 124.471 197.233 124.374C196.883 124.297 193.828 123.328 190.306 122.145L183.982 120.013L188.142 118.472C193.431 116.481 199.631 112.856 202.196 110.227C203.303 109.039 204.333 108.202 204.528 108.318C204.722 108.435 203.248 112.113 201.289 116.492Z" fill="#B63131"/>
<path d="M204.455 95.8499C207.473 98.6473 206.021 104.387 200.737 110.015C199.746 111.008 198.541 111.807 198.113 111.749C197.004 111.614 200.388 94.8043 201.633 94.4916C202.255 94.3353 203.481 94.9368 204.455 95.8499Z" fill="#B43131"/>
<path d="M193.312 81.7803C196.854 83.3711 199.386 86.5387 199.701 89.7672C199.958 92.7624 198.18 102.801 197.402 102.997C197.091 103.075 196.331 101.695 195.57 99.9841C193.951 96.1735 190.641 92.8707 187.255 91.5715C185.873 91.009 181.807 90.6248 178.228 90.8625C171.829 91.0646 171.829 91.0646 170.859 93.1276C170.335 94.3342 170.221 96.5129 170.631 98.1463C171.276 100.713 170.85 101.978 167.647 107.662C164.755 112.936 163.939 113.968 163.529 112.665C162.494 108.874 167.104 92.6652 170.678 87.7981C172.386 85.3841 172.989 85.15 181.623 82.9807C189.79 80.9286 191.074 80.7715 193.312 81.7803Z" fill="#AF4545"/>
<path d="M179.163 91.9507C181.536 91.8506 184.668 92.1387 186.011 92.5456C188.677 93.2816 193.213 97.1859 192.631 98.1592C192.456 98.4512 191.97 98.16 191.483 97.5381C190.45 96.061 186.306 95.035 183.817 95.6604C182.805 95.9144 180.104 97.6682 177.947 99.6159L177.946 99.617C175.77 101.486 173.866 103.122 173.788 103.142C173.03 103.415 171.526 98.0869 171.699 95.8109C171.947 92.5233 172.531 92.2114 179.163 91.9507Z" fill="#8C3F3F"/>
<path d="M174.73 109.521C175.472 112.476 175.826 115.199 175.593 115.588C175.36 115.978 172.948 115.922 170.302 115.264L165.418 114.258L168.427 108.789C170.309 105.422 171.863 103.377 172.427 103.649C172.992 103.921 173.987 106.565 174.73 109.521Z" fill="#B02B2B"/>
<path d="M183.076 110.814C184.204 111.027 186.345 112.308 187.923 113.648L190.688 116.096L189.171 116.973C185.828 118.805 182.133 119.237 179.428 118.015C177.17 116.929 176.78 116.365 176.719 114.148C176.58 111.95 176.949 111.444 178.816 110.975C180.061 110.662 181.947 110.601 183.076 110.814Z" fill="#B64646"/>
<path d="M190.492 98.5313C193.821 100.92 195.185 103.058 192.324 101.544C191.35 100.962 189.969 100.73 189.269 100.906C188.569 101.082 186.624 100.909 184.892 100.6C182.188 100.039 181.488 100.215 179.525 101.618C175.113 104.793 174.432 104.716 177.657 101.425C182.398 96.5957 186.384 95.6768 190.492 98.5313Z" fill="#A02E2E"/>
<path d="M186.703 101.881C189.446 102.267 192.072 102.848 192.54 103.061C193.026 103.352 193.184 104.966 192.933 106.601L192.45 109.616L190.619 107.595C187.133 103.593 185.011 102.72 182.115 104.026L179.451 105.275L180.499 103.192C181.14 102.121 181.644 101.168 181.644 101.168C181.722 101.148 183.96 101.496 186.703 101.881Z" fill="#692A2A"/>
<path d="M179.043 105.294C179.16 105.761 179.978 106.713 180.952 107.296C183.034 108.674 182.627 109.356 179.437 109.495C175.586 109.636 174.239 105.592 177.875 104.596C178.342 104.478 178.906 104.75 179.043 105.294Z" fill="#9D4343"/>
<path d="M196.416 107.627C196.614 110.72 196.014 113.599 195.314 113.114C194.535 112.648 194.798 104.478 195.537 104.789C195.985 104.924 196.375 106.149 196.416 107.627Z" fill="#882B2B"/>
<path d="M193.562 112.396C193.448 114.906 193.39 115.003 192.145 114.654C191.425 114.422 191.424 113.761 192.103 112.515C193.326 110.14 193.734 110.12 193.562 112.396Z" fill="#9D3030"/>
<path d="M190.391 111.953C189.42 113.685 188.836 113.005 189.105 110.457C189.26 109.425 189.629 109.25 190.31 109.658C191.089 110.124 191.09 110.785 190.391 111.953Z" fill="#9D3535"/>
<path d="M187.841 110.03C187.531 111.1 187.239 111.256 186.596 110.674C186.148 110.207 186.128 109.468 186.653 108.923C187.838 107.715 188.364 108.162 187.841 110.03Z" fill="#AF5252"/>
<path d="M186.299 106.2C186.553 107.211 186.087 107.99 185.038 108.419C184.066 108.829 183.229 108.791 183.131 108.402C183.014 107.935 182.546 107.06 182.137 106.419C181.416 105.525 181.747 105.194 183.594 104.978C185.267 104.723 186.006 105.033 186.299 106.2Z" fill="#952323"/>
<path d="M83.1189 212.255C88.9749 213.181 100.986 221.492 100.172 224.177C99.7655 225.52 91.8509 227.261 88.602 226.837C87.0456 226.566 84.4186 225.655 82.628 224.782C79.0469 223.035 71.0439 215.867 71.4121 214.7C71.7803 213.532 79.9478 211.811 83.1189 212.255Z" fill="#699472"/>
<path d="M60.6049 172.017C63.9706 172.577 72.282 177.352 72.6924 178.986C73.0051 180.23 66.0821 181.639 63.0079 180.923C57.9298 179.801 52.0117 175.664 51.269 172.709C50.9954 171.62 55.8578 171.225 60.6049 172.017Z" fill="#699472"/>
<path d="M78.304 154.256C79.128 160.169 78.53 164.371 76.8375 164.217C75.8842 164.043 75.6903 164.588 76.1594 166.455C76.7261 168.71 76.5319 168.925 74.1206 169.531C70.2315 170.508 69.0046 169.245 68.9791 164.207C68.9959 161.97 69.5365 158.527 70.3706 156.58C71.6894 153.272 75.5746 148.988 76.9367 149.473C77.2869 149.55 77.9119 151.709 78.304 154.256Z" fill="#699472"/>
<path d="M99.1635 193.504C100.798 193.755 102.16 194.239 102.258 194.628C102.766 196.651 92.7916 200.397 89.2699 199.545C87.7717 199.178 87.4598 198.595 87.3402 196.144C87.1631 194.452 87.4328 192.234 87.801 191.066L88.5182 188.984L92.4109 190.983C94.513 192.109 97.5293 193.253 99.1635 193.504Z" fill="#699472"/>
</g>
<defs>
<clipPath id="clip0_267_310">
<rect width="204" height="207" fill="white" transform="translate(-15.1466 49.9761) rotate(-14.1042)"/>
</clipPath>
</defs>
</svg>
