<svg width="224" height="231" viewBox="0 0 224 231" fill="none" xmlns="http://www.w3.org/2000/svg">
<g clip-path="url(#clip0_267_308)">
<path d="M121.214 15.3335C117.267 17.8338 116.928 17.9535 115.733 16.5121C113.971 14.4346 112.27 14.4659 110.561 16.5166C108.861 18.4877 102.587 20.8606 99.9601 20.5346C97.8908 20.2778 96.2913 22.7462 95.7974 26.7256C95.5109 29.0337 95.0636 29.3823 90.8668 30.6393C88.3507 31.3776 86.024 32.5435 85.6864 33.3098C85.3489 34.076 85.2314 36.3243 85.4521 38.4529C85.7332 41.3971 85.4659 42.8994 84.1849 45.4073C79.5475 54.772 83.723 63.4526 93.3034 64.3993L97.5315 64.8433L97.0672 68.584C96.6424 72.0063 96.9915 73.1002 100 78.1609C103.068 83.3907 103.785 84.1262 108.224 86.1318C110.891 87.4326 113.747 88.5145 114.463 88.6034C115.657 88.7516 115.638 89.5573 114.38 96.4322C113.608 100.7 111.616 108.939 109.93 114.71C105.328 130.948 104.218 135.336 100.534 154.598C98.5926 164.378 96.8489 172.566 96.6601 172.785C96.1332 173.124 96.3127 173.631 93.9293 166.789C91.3565 159.52 86.3467 152.352 79.6968 146.678C76.7898 144.054 73.9229 141.759 73.4651 141.54C72.7784 141.212 73.0062 140.029 74.3564 136.964C75.3592 134.744 76.3707 131.152 76.6375 129.003C77.0721 125.501 76.9525 125.163 75.2811 124.956C72.1771 124.571 66.6295 128.246 64.0169 132.367C61.6128 136.109 60.2807 137.075 60.5573 134.847C60.6363 134.21 60.1461 130.997 59.5961 127.616L58.407 121.568L62.2042 118.322C66.9158 114.22 68.7029 110.239 69.3225 101.992L69.8938 95.4362L73.2436 92.5385C80.2116 86.5341 81.2582 77.451 75.7818 71.4375C72.6454 68.058 71.4219 68.1486 69.1869 71.8312C67.5579 74.5383 67.2099 74.7376 66.97 73.4148C65.5812 66.3731 64.2665 64.5936 58.6936 61.9623C56.6336 60.9793 53.1404 59.1718 50.9509 57.9303C47.3979 55.9538 46.6119 55.7754 43.4788 56.2755C38.1079 57.2252 34.2114 60.6207 33.6681 64.9981C33.4903 66.4307 32.7745 66.9884 30.7953 67.3085C29.3034 67.6082 27.4838 68.5946 26.7884 69.6397C24.8113 72.5461 24.828 80.2256 26.9847 89.5446C29.7206 101.36 29.7502 101.121 28.0185 100.098C26.1473 98.8961 17.9293 97.3911 15.3928 97.642C12.4387 98.0027 12.5008 100.758 15.5263 102.427C16.8003 103.231 18.3334 104.553 18.8812 105.348C20.2359 107.456 23.162 109.274 27.0526 110.484C28.8436 111.03 32.0086 112.877 34.0395 114.746C42.9196 122.636 47.9249 124.631 54.4589 122.776C56.7165 122.167 57.4328 122.256 57.5826 123.002C57.8423 124.165 60.6244 143.421 60.9856 147.022C61.2563 149.399 61.2563 149.399 58.0496 145.284C55.759 142.252 53.778 140.632 50.7827 139.371C46.643 137.564 41.7578 136.554 41.6492 137.429C41.6195 137.668 42.0987 139.667 42.7871 141.935C43.695 145.038 44.9202 146.887 47.9764 149.61C51.62 152.81 52.456 153.237 56.9229 153.71L61.8574 154.323L63.5262 163.016C65.8449 175.587 68.5941 191.203 68.9048 193.908C69.1156 196.116 69.0459 196.027 66.3969 192.627C64.8632 190.659 62.195 188.065 60.483 186.883C56.3822 184.111 49.139 182.565 46.7925 183.89C45.1322 184.896 45.1322 184.896 46.5385 189.193C49.5109 198.451 58.0721 205.656 66.6573 206.156L70.6664 206.411L71.7978 214.875C72.579 220.952 72.601 223.38 71.9346 223.539C66.892 224.449 63.4499 224.183 61.4689 222.564C56.1731 218.35 49.5283 218.496 44.7075 222.827C43.0773 224.241 40.0151 226.124 37.887 226.991C34.6552 228.287 33.8401 228.994 33.4241 231.043C32.3044 236.157 36.6468 242.192 41.9793 242.854C44.2078 243.13 44.9746 244.114 49.4081 252.019L54.3598 260.958L52.4169 268.798C51.3164 273.106 49.5711 279.355 48.5793 282.788L46.7642 288.947L48.9648 291.402C50.1696 292.764 51.6132 294.155 52.1506 294.383C52.8373 294.711 53.0184 297.158 52.8138 302.062C52.5197 307.036 52.8513 310.876 53.9189 314.645C55.3758 319.836 55.3763 320.483 53.6832 329.567C52.0893 338.501 52.0899 339.148 53.5044 341.424C54.7098 343.433 55.5359 343.939 58.4807 344.305C65.007 345.115 69.61 341.888 70.3608 335.839C70.7164 332.974 73.8438 326.008 74.6397 326.107C74.9581 326.146 76.9825 331.974 79.1771 339.035C81.3816 346.016 84.6427 355.553 86.4272 360.057C90.1856 369.494 90.9338 371.931 93.1109 381.737C97.6248 402.017 102.127 409.364 130.676 443.052C139.489 453.439 147.495 463.161 148.511 464.742C153.133 471.781 160.632 481.682 161.089 481.254C162.074 480.487 145.133 458.1 129.759 440.028C103.042 408.508 98.8082 401.598 94.7433 382.91C93.7547 378.504 89.3858 364.87 85.1674 352.628C80.8693 340.376 77.5182 330.262 77.6971 330.123C77.8761 329.983 79.8982 333.225 82.2294 337.231C86.8721 345.404 93.3146 352.75 100.073 357.549C105.866 361.662 105.875 360.289 99.9523 355.918C90.8544 349.131 80.715 334.457 75.9981 321.022C75.2401 318.665 72.9351 310.54 70.8992 302.852C65.0602 280.227 61.242 270.621 49.2961 249.015C42.561 236.865 41.153 230.629 43.9341 225.802C46.6159 221.124 53.5281 219.477 58.8425 222.238C62.1765 224.025 65.7718 228.916 71.3114 238.979C90.3019 274.147 102.899 289.206 114.598 290.659C118.737 291.172 123.72 290.094 123.907 288.581C123.957 288.183 122.634 288.423 121.003 289.191C118.706 290.118 117.075 290.239 114.239 289.644C107.474 288.158 102.317 284.124 95.0575 274.899C91.4425 270.167 88.6238 266.18 88.8922 265.971C89.777 265.354 96.506 270.391 99.3142 273.811C101.485 276.505 101.794 277.27 100.92 278.455C99.2506 280.834 100.931 280.315 103.694 277.587C106 275.287 106.258 273.864 103.931 275.677C103.305 276.165 102.33 275.559 100.667 273.332C99.3322 271.712 96.5844 269.108 94.4344 267.548C89.0794 263.812 87.2965 261.247 88.6676 259.316C90.4262 256.868 90.1166 255.455 88.3877 257.665C85.9133 260.672 84.9582 260.553 82.9256 256.745C81.4211 253.891 81.291 252.986 82.2153 252.05C82.7817 251.393 84.4212 249.253 85.7029 247.392C87.7595 244.495 88.6443 243.878 91.1708 243.706C93.777 243.545 94.4636 243.873 96.3557 246.209C97.5408 247.73 101.832 251.576 105.873 254.825C109.915 258.074 114.733 262.228 116.614 263.997C120.019 267.168 120.009 267.247 118.499 268.999C115.925 272.155 117.516 271.706 121.075 268.43C122.914 266.638 124.146 265.175 123.748 265.125C123.43 265.086 122.664 265.395 122.127 265.813C121.411 266.371 119.849 265.288 116.593 262.217C114.064 259.802 109.455 255.916 106.349 253.591C103.323 251.276 99.5305 247.977 98.0369 246.337L95.1892 243.235L98.0923 241.333C99.6731 240.317 101.591 238.535 102.386 237.34C104.145 234.892 104.204 234.414 103.169 234.286C102.771 234.236 102.304 234.744 102.225 235.381C101.85 238.405 91.8575 244.034 90.3239 242.066C90.1147 241.797 92.7274 237.677 96.1354 233.008L102.385 224.329L106.713 225.27C115.06 227.033 122.496 232.886 140.667 251.87C158.619 270.666 161.527 274.582 162.239 281.217C162.34 282.361 162.265 288.17 162.011 294.119C160.373 332.061 160.284 343.849 161.526 353.377C163.658 369.401 167.478 380.3 175.417 393.166C177.589 396.506 187.12 409.569 196.641 422.065C206.241 434.57 215.035 446.41 216.26 448.26C217.396 450.179 218.6 451.54 218.869 451.331C219.843 450.644 211.248 438.505 195.842 418.733C171.224 387.23 165.345 375.348 162.668 351.984C162.098 347.468 161.763 339.749 161.878 334.914C162.003 330 162.127 324.439 162.135 322.42C162.144 320.4 162.493 310.423 162.862 300.286C163.321 290.079 163.372 280.549 163.152 279.067C162.422 274.532 158.986 269.661 149.159 258.985C128.866 236.909 117.169 226.972 108.453 224.274C105.876 223.55 103.965 222.666 104.164 222.368C107.502 217.61 115.7 207.556 116.178 207.615C116.496 207.654 117.153 208.221 117.552 208.917C118.03 209.623 120.149 210.775 122.239 211.519C130.219 214.287 139.819 214.428 147.805 211.944C152.429 210.498 159.101 206.881 159.249 205.687C159.289 205.369 158.412 204.614 157.278 203.988C149.555 199.797 132.781 197.553 125.72 199.748C123.453 200.436 121.454 200.915 121.315 200.737C121.105 200.468 135.167 184.192 140.564 178.477C141.965 176.954 143.168 175.729 143.178 175.65C143.277 175.5 144.621 176.394 146.263 177.487C151.847 181.332 166.867 180.772 173.787 176.459C176.153 174.975 176.272 174.666 175.376 173.423C174.191 171.902 167.693 169.56 163.077 168.987C160.371 168.652 153.259 169.304 149.589 170.223C148.585 170.502 150.452 167.825 154.894 162.638C158.671 158.258 162.059 154.395 162.417 154.116C162.785 153.758 164.298 154.592 165.831 155.914C169.325 159.015 175.434 159.934 183.291 158.485C186.345 157.975 189.378 157.624 190.095 157.713C190.891 157.812 193.587 158.228 196.283 158.643C199.059 159.068 201.894 159.016 203.157 158.607C204.27 158.099 206.498 157.729 208.05 157.598C214.784 157.384 209.706 151.419 201.199 149.636C198.921 149.111 197.06 148.476 197.099 148.158C197.139 147.839 197.964 147.053 199.028 146.296C202.388 143.965 211.888 133.184 213.507 129.909C215.97 125.043 215.958 122.536 213.578 120.22C211.836 118.63 211.686 117.884 212.381 116.193C213.433 113.576 212.793 108.97 210.93 106.396C207.972 102.23 206.121 101.515 195.944 100.818L186.484 100.209L182.547 103.277C180.41 104.87 178.541 106.255 178.382 106.235C178.222 106.215 178.241 104.763 178.458 103.012C178.972 98.873 177.688 98.148 172.586 99.5351C167.226 101.052 164.513 104.675 163.644 111.679C163.17 115.499 163.311 117.618 164.268 119.676L165.603 122.59L162.802 127.576C161.332 130.303 159.585 134.612 159.03 137.129C158.208 141.148 158.299 142.372 159.964 147.185L161.939 152.764L156.095 159.474C152.886 163.197 145.959 170.823 140.811 176.487L131.3 186.702L131.672 179.798C132.024 173.053 131.504 169.433 128.46 158.791C126.834 153.013 126.226 152.049 124.386 152.548C121.97 153.137 120.323 157.943 119.078 167.971C117.991 176.726 118.002 177.94 119.468 181.758C120.315 184.045 122.337 187.287 123.92 188.857L126.868 191.809L124.423 194.576C123.091 196.189 117.368 203.237 111.813 210.225L101.727 223.116L94.4358 223.261C90.3872 223.324 86.5971 223.258 85.8907 223.09C84.8061 222.713 85.3412 220.355 90.2397 202.375C95.3567 183.938 99.1427 167.76 102.807 149.304L104.224 142.449L107.795 142.326C113.465 142.222 122.822 138.453 128.548 133.992C135.795 128.345 139.928 121.747 141.025 114.205C141.767 108.883 141.727 108.554 140.005 108.098C133.438 106.313 120.922 115.347 110.002 129.75L105.561 135.584L106.711 130.877C107.355 128.29 109.11 121.962 110.638 116.818C112.165 111.674 114.187 103.197 115.157 97.9833L116.811 88.5715L121.565 88.0302C125.663 87.569 126.787 86.9812 129.48 84.1637L132.71 80.9279L139.973 81.6677C148.359 82.4662 150.318 81.6587 151.766 76.5046C152.609 73.6191 152.698 73.5494 156.469 73.7749L160.239 74.0004L160.654 70.6576C160.881 68.8271 161.645 65.9317 162.25 64.3097C163.51 60.6678 163.35 60.0014 159.687 56.3141C156.889 53.4615 156.829 53.2925 157.292 47.612C157.577 44.0108 158.35 40.3892 159.362 38.0904C161.259 33.8809 161.029 32.4785 157.942 29.3477C156.29 27.6879 155.046 27.2911 150.489 26.8872C145.296 26.4042 144.759 26.1759 140.369 22.4792C137.81 20.3029 135.213 18.4449 134.576 18.3659C133.939 18.2869 131.6 16.946 129.361 15.4558L125.349 12.6142L121.214 15.3335ZM127.103 15.418C127.581 16.1238 129.9 17.6239 132.268 18.726L136.557 20.6323L130.956 20.1795C126.151 19.8255 124.998 20.0056 122.86 21.5991C120.812 23.1228 119.569 23.3726 116.465 22.9873C114.316 22.7206 112.923 22.2244 113.281 21.9456C115.249 20.412 125.331 14.0666 125.739 14.0364C126.057 14.0759 126.625 14.7121 127.103 15.418ZM112.743 21.0707C107.803 25.7105 107.008 26.2583 104.243 26.4C101.557 26.5515 100.603 27.7262 98.8268 32.9204C98.4103 34.3233 98.2708 34.1444 97.712 32.1355C96.8041 29.0326 97.6048 23.2325 98.9469 22.1868C99.5731 21.6988 100.657 21.4293 101.453 21.5281C103.682 21.8047 108.962 19.6316 111.328 17.5007C113.325 15.7283 113.574 15.6783 114.63 16.9408C115.606 18.1933 115.397 18.5715 112.743 21.0707ZM141.206 24.846C144.342 26.9323 145.458 29.6569 145.433 35.0685C145.397 39.2664 142.993 43.6553 140.924 43.3985C139.889 43.27 137.093 41.7107 136.237 40.7963C136.097 40.6173 136.723 39.4827 137.617 38.139C139.584 35.3122 139.254 33.4126 136.097 28.8991C133.139 24.7336 130.402 22.6967 127.059 22.2818C125.387 22.0744 124.79 21.677 125.257 21.1693C126.231 19.8354 137.852 22.5709 141.206 24.846ZM130.383 24.7957C131.737 25.6102 133.479 27.2003 134.236 28.2641L135.68 30.302L132.338 29.8871C130.507 29.6599 128.408 29.6419 127.652 29.8713C126.727 30.1606 125.802 29.8033 125.115 28.829C124.408 28.0139 122.765 26.9211 121.452 26.4348L118.964 25.6412L121.967 24.236C125.567 22.5815 127.089 22.6896 130.383 24.7957ZM117.83 25.0155C117.78 25.4134 116.906 25.9513 115.891 26.3103C112.947 27.238 109.484 36.9101 109.828 43.2563C110.201 49.3638 110.112 50.0801 108.62 50.3799C106.532 50.9288 103.146 46.9527 101.501 41.9803C99.047 34.4024 100.602 27.0796 104.582 27.5735C105.298 27.6624 107.655 26.9044 109.733 25.7884C113.273 23.965 118.008 23.5829 117.83 25.0155ZM157.814 31.0289C159.895 33.146 159.925 33.5538 158.188 37.783L156.918 40.8579L155.573 38.6706C154.905 37.5372 153.889 35.3098 153.43 33.7982C152.572 30.944 151.268 30.3781 148.384 31.4748C146.435 32.2027 146.435 32.2026 146.025 29.6465C145.676 27.9059 145.845 27.8461 150.779 28.4586C154.759 28.9525 156.301 29.5481 157.814 31.0289ZM123.554 29.6858C123.644 30.2627 123.187 30.6909 122.55 30.6118C120.719 30.3846 116.644 34.5662 116.348 36.9539C116.2 38.1477 116.361 40.7538 116.751 42.8226C117.651 47.9448 117.657 55.0573 116.781 54.9486C116.383 54.8993 114.94 53.5079 113.526 51.8777C111.266 49.2535 110.976 48.3286 111.101 43.4144C111.146 37.8437 113.298 30.2717 115.246 28.2507C116.439 27.1057 123.244 28.2736 123.554 29.6858ZM153.721 37.3094C154.967 40.2926 155.945 43.4849 155.836 44.3604C155.728 45.2359 155.849 46.8672 156.188 48.0407C156.607 49.8707 156.11 50.6172 152.532 54.0522C150.246 56.1929 147.154 58.3145 145.633 58.853C142.769 59.7905 137.307 59.5167 134.153 58.2362L132.381 57.5314L134.489 55.5302C135.592 54.4549 137.669 52.0458 139.12 50.1246C141.425 47.1781 142.041 46.7697 143.653 47.4547C145.046 47.9509 145.554 47.7714 146.11 46.5474C146.467 45.6219 146.376 44.3985 145.888 43.7722C145.331 43.0565 145.339 41.0371 145.983 37.8035C146.715 33.8537 147.242 32.8685 148.753 32.4096C149.688 32.0407 150.693 31.7613 150.931 31.7909C151.17 31.8206 152.396 34.3164 153.721 37.3094ZM134.816 32.0536C136.399 33.6239 136.36 33.9423 135.078 35.8036L133.697 37.8142L133.138 35.1587C132.838 33.6668 132.001 31.9466 131.205 31.2012C129.91 29.9092 129.91 29.9091 131.502 30.1067C132.378 30.2154 133.881 31.1293 134.816 32.0536ZM125.228 33.7729C122.594 35.4663 118.923 35.738 119.101 34.3054C119.269 32.9524 123.008 31.4769 125.475 31.7831L127.853 32.1591L125.228 33.7729ZM130.852 37.2994C133.38 39.0678 131.49 39.3182 127.649 37.71C124.107 36.3005 123.917 35.873 126.174 34.6176C127.397 33.8804 127.795 33.9298 128.323 34.8843C128.732 35.5007 129.807 36.6039 130.852 37.2994ZM131.706 35.6275C131.796 36.2044 131.448 36.4036 130.692 35.9864C130.005 35.6588 129.527 34.9529 129.576 34.555C129.705 33.5203 131.456 34.3842 131.706 35.6275ZM96.4194 32.7832C96.8185 34.1258 98.2242 37.7753 99.6097 40.9374L102.201 46.7545L99.9667 51.0837C96.5702 57.6122 96.2234 59.1047 97.9261 61.0131C100.186 63.6374 99.6398 64.1352 94.8644 63.5425C87.8605 62.6731 84.5853 59.7613 83.5055 53.4854C83.0751 50.4418 83.1838 49.5663 84.7036 47.088C86.0149 44.988 86.6296 42.6398 86.8847 38.6307L87.3276 33.1094L91.1264 31.803C95.9396 30.1375 95.6213 30.098 96.4194 32.7832ZM136.801 37.5529C136.473 38.2395 135.847 38.7275 135.449 38.6781C134.971 38.6189 135.14 37.9125 135.736 37.0167C137.008 35.2349 137.844 35.6619 136.801 37.5529ZM126.426 38.4472C138.626 43.0324 139.114 43.6587 132.321 44.9975C130.252 45.3873 126.403 46.4451 123.718 47.2432C120.277 48.2708 118.805 48.4113 118.655 47.6654C118.016 44.3534 117.124 37.2118 117.213 36.4955C117.361 35.3017 118.704 35.5492 126.426 38.4472ZM145.184 45.5435C145.134 45.9414 144.13 46.2208 143.015 46.0825C141.742 45.9244 140.121 46.6122 138.571 48.0361C134.088 52.2478 126.757 53.3584 122.756 50.4372L120.895 49.1556L122.983 48.6067C127.24 47.5187 138.478 44.8729 139.642 44.6132C141.8 44.1538 145.282 44.7476 145.184 45.5435ZM156.98 55.3316C157.548 55.9678 158.991 57.3592 160.066 58.4624L162.078 60.49L160.382 66.3407C158.874 71.3257 158.367 72.1518 156.905 72.2128C155.522 72.2836 148.557 69.8027 144.437 67.8367C144.059 67.6281 145.033 66.9408 146.644 66.3326L149.528 65.2359L147.606 63.1387L145.684 61.0414L149.919 57.5262C154.581 53.8216 155.258 53.5823 156.98 55.3316ZM108.88 51.5435C110.392 51.7312 112.383 52.6247 113.318 53.549C114.752 55.02 114.792 55.3483 113.62 57.6273C112.141 60.4338 112.53 61.8559 115.487 64.7282C117.219 66.3979 117.458 66.4276 121.993 65.6975C127.683 64.7873 128.986 65.3532 128.591 68.5368C128.067 72.755 126.795 73.8901 123.432 72.9878C121.78 72.6212 118.896 72.4247 116.936 72.5856C111.535 73.1275 106.479 70.2371 101.48 63.6362L97.5259 58.3774L99.4425 54.6553C100.495 52.6848 101.747 50.4157 102.084 49.6494C102.73 48.3556 102.968 48.3853 104.422 49.6971C105.288 50.532 107.288 51.3459 108.88 51.5435ZM127.334 52.6217C129.721 52.9181 132.626 52.9553 133.78 52.7753C135.6 52.4355 135.491 52.6644 132.558 54.8057C128.999 57.4349 125.041 58.075 120.762 56.7358C118.274 55.9421 118.075 55.5941 118.401 52.9677C118.737 50.2616 118.827 50.1919 120.896 51.0954C122.041 51.6415 124.946 52.3253 127.334 52.6217ZM138.89 60.4405C143.327 61.1528 147.079 62.8307 146.911 64.1838C146.871 64.5021 144.694 65.7673 142.128 66.9036C138.28 68.608 136.868 68.9176 134.529 68.2233C132.977 67.7073 131.096 66.5849 130.25 65.5909C128.985 64.06 128.279 63.8915 125.096 64.143C116.362 64.8369 116.601 64.8665 114.948 62.5601C113.643 60.7011 113.553 60.1242 114.477 58.5417C115.589 56.7403 115.918 56.7002 121.29 57.6903C124.444 58.3242 127.896 58.5102 129.06 58.2506C130.472 57.941 131.666 58.0891 132.631 58.7747C133.447 59.3609 136.263 60.1145 138.89 60.4405ZM149.434 71.2045C152.13 72.2666 152.2 72.356 151.088 74.8041C148.328 80.7651 147.97 81.044 142.419 80.8399C136.55 80.5963 133.425 79.077 132.875 76.3419C132.666 75.4269 131.799 73.9455 130.764 73.1704C129.748 72.2362 129.11 70.8641 129.249 69.7498C129.515 67.6009 129.605 67.5312 133.595 69.2387C135.824 70.1619 136.948 70.2206 138.808 69.5625C141.105 68.6353 143.961 69.0706 149.434 71.2045ZM53.3803 60.4947C62.8548 65.5498 63.3724 65.9373 64.4993 69.229C65.1674 71.009 65.9864 74.8282 66.3471 77.7823C67.0783 83.6109 66.899 94.8221 66.0235 94.7134C65.7052 94.6739 64.469 91.6111 63.2323 87.9017C61.148 81.9051 61.0377 80.8408 62.0899 78.2237C62.8045 76.3728 63.0317 74.5423 62.6326 73.1997C62.2231 71.2901 61.4766 70.7934 56.3922 69.435C47.4074 66.9459 42.6436 68.2134 37.3074 74.7436L34.6541 77.8893L34.5723 75.2931C34.0057 64.2319 35.2165 60.9879 40.3771 58.4766C44.076 56.6729 47.2398 57.2272 53.3803 60.4947ZM102.985 67.783C107.127 72.1763 110.899 73.695 118.927 74.1257C122.697 74.3513 126.756 74.2085 127.77 73.8495C129.54 73.261 129.918 73.4696 131.064 75.3089C132.718 78.2619 132.53 79.1275 129.081 82.8211C126.566 85.4991 125.353 86.1567 121.564 86.737C119.018 87.0675 116.461 87.4775 115.875 87.6471C115.298 87.7372 112.591 86.7547 109.835 85.5236C105.476 83.5279 104.46 82.5937 101.203 77.583C97.5377 71.9558 96.9783 69.3003 98.6666 66.1156C99.5206 64.4437 99.9784 64.6621 102.985 67.783ZM75.873 73.3076C77.3967 75.3555 77.776 76.8572 77.6696 80.319C77.4458 86.0291 75.6285 89.6019 71.6617 92.2614L68.4803 94.4526L68.135 86.1665C67.7797 77.9601 68.2451 75.5126 70.709 71.9393C72.2689 69.7892 73.5226 70.1065 75.873 73.3076ZM60.6122 71.8983C62.2045 72.7425 61.6414 77.279 59.5749 80.2552L57.9952 82.5644L55.0174 78.5581C51.1433 73.3091 47.1029 71.3529 43.1251 72.7988C39.913 73.9356 39.2263 73.6079 41.4433 72.0243C45.3305 69.355 47.9662 68.9548 53.7268 70.0739C56.8012 70.6979 59.8558 71.4811 60.6122 71.8983ZM33.1962 71.4048C33.2571 72.867 33.1513 76.9755 33.035 80.5169L32.8018 86.9532L30.89 84.7763C28.4902 81.9732 26.6151 76.245 27.0003 73.141C27.6227 68.1269 32.8937 66.6799 33.1962 71.4048ZM50.8864 75.3784C52.8175 76.7495 56.5824 82.2274 56.4342 83.4212C56.3947 83.7396 55.0905 82.5271 53.6068 80.8074C50.9183 77.726 50.6098 77.6069 46.1133 77.3721C43.5368 77.2947 40.7913 77.2772 40.0552 77.3475C37.7773 77.4688 38.4925 76.2646 41.5849 74.7896C44.8464 73.2549 47.98 73.4014 50.8864 75.3784ZM51.3382 80.2026C51.5875 80.7992 51.7971 81.7142 51.728 82.2714C51.6292 83.0673 51.2411 82.9383 49.9968 81.8949C47.5278 79.6488 45.8965 79.7696 42.0889 82.4488C39.2556 84.4408 38.5893 84.6005 38.3197 83.5165C37.8306 81.597 38.2467 79.5475 39.2308 78.7806C40.5728 77.735 50.7602 78.9994 51.3382 80.2026ZM36.3503 83.757C35.3701 89.0499 33.7794 90.1455 34.4117 85.0518C34.7377 82.4254 36.2267 78.8927 37.0226 78.9915C37.1022 79.0014 36.7559 81.1404 36.3503 83.757ZM62.0193 88.5593C64.0344 95.113 64.3225 94.7447 57.1902 94.91L53.3107 94.9134L54.2926 91.5602C55.3041 87.9682 58.5721 82.4743 59.6068 82.6028C59.9153 82.7219 60.962 85.357 62.0193 88.5593ZM49.0824 82.7511C49.7295 83.3972 49.5907 83.8648 48.1789 84.821C46.4988 85.9864 46.26 85.9567 45.2841 84.7041C43.3322 82.199 46.5141 80.6544 49.0824 82.7511ZM54.7436 84.0195C55.1421 84.7155 55.2327 85.939 54.8057 86.7749C54.2398 88.0786 53.6629 88.1686 51.643 87.5138C48.2997 86.4523 48.23 86.3629 50.7351 84.411C53.3297 82.3894 53.6579 82.3493 54.7436 84.0195ZM35.9986 91.1483C38.9253 93.6128 42.0508 95.7786 42.8467 95.8774C45.9506 96.2627 44.0416 97.3188 39.5555 97.651C36.9395 97.892 33.9157 98.1632 32.6823 98.3334C30.315 98.5244 29.9362 97.6692 27.8986 88.0418C26.3802 80.7416 26.4494 80.1844 28.6807 83.6939C29.6967 85.2747 33.0022 88.5944 35.9986 91.1483ZM208.412 105.194C211.14 107.957 212.357 111.826 211.485 114.95C210.642 117.836 205.357 126.554 204.561 126.455C204.243 126.416 204.033 124.854 203.941 122.984C203.809 118.846 201.915 114.57 199.227 112.135C198.142 111.112 194.489 109.285 191.066 108.213C185.026 106.09 185.026 106.09 183.376 107.663C182.452 108.599 181.559 110.589 181.351 112.26C181.025 114.887 180.171 115.912 175.131 120.055C170.528 123.928 169.395 124.596 169.483 123.233C169.888 119.323 180.042 105.875 185.133 102.628C187.598 100.994 188.245 100.994 197.079 102.09C205.436 103.128 206.69 103.445 208.412 105.194ZM177.323 101.739C178.082 104.743 176.822 108.385 173.245 113.76C171.169 116.815 169.053 120.189 168.596 121.264L167.882 123.115L166.188 120.48C162.742 115.042 164.525 106.535 170.072 102.213C173.293 99.7036 176.794 99.4917 177.323 101.739ZM44.3702 86.207C44.1924 87.6396 42.6302 87.2033 42.5792 85.6615C42.4392 84.836 42.8069 84.4775 43.4936 84.8052C44.0211 85.1131 44.4295 85.7295 44.3702 86.207ZM41.4068 87.2939C41.2685 88.4082 40.264 88.6875 39.4972 87.7034C38.8698 86.8982 40.1613 84.9573 40.888 85.6132C41.2563 85.9014 41.4858 86.6572 41.4068 87.2939ZM38.1936 87.1375C38.1442 87.5355 38.2743 88.4406 38.4241 89.1866C38.6338 90.1015 38.3457 90.4698 37.4702 90.3612C36.6743 90.2624 36.2857 89.4868 36.4437 88.2134C36.582 87.0991 37.0886 86.2731 37.4866 86.3225C37.9641 86.3817 38.2429 86.7396 38.1936 87.1375ZM52.9599 91.8797C52.6635 94.2674 52.1865 94.8547 49.8296 95.6127C47.3036 96.4306 46.8261 96.3714 42.7259 94.2461C40.2976 92.9749 38.4264 91.7729 38.6053 91.6335C41.6373 89.3429 45.4065 88.2752 49.1571 88.6599L53.3056 89.0941L52.9599 91.8797ZM191.545 109.566C193.794 110.33 196.61 111.73 197.715 112.594C199.935 114.244 202.755 119.524 201.86 120.221C201.592 120.43 201.243 119.982 201.014 119.227C200.584 117.476 197.091 115.022 194.544 114.706C193.509 114.578 190.356 115.237 187.642 116.274L187.64 116.274C184.936 117.231 182.57 118.069 182.49 118.059C181.684 118.04 182.207 112.528 183.19 110.468C184.61 107.493 185.266 107.413 191.545 109.566ZM64.5926 96.4753C64.036 97.0527 61.858 97.6714 59.7295 97.8921C57.591 98.1924 54.2697 99.5581 51.8936 101.122C47.7772 103.755 47.6092 103.742 40.2188 103.146C40.2016 103.144 40.1844 103.143 40.1671 103.141C28.3983 102.246 27.3219 99.85 38.1938 98.8558C41.6254 98.5544 45.8228 97.9439 47.4936 97.5048C49.1644 97.0656 53.7597 96.5046 57.7682 96.1132C61.7669 95.8013 65.1986 95.4999 65.3577 95.5197C65.5268 95.4598 65.1492 95.8979 64.5926 96.4753ZM68.5447 99.7944C68.6973 103.773 67.2303 109.733 65.0847 113.346C63.1378 116.66 61.6361 117.04 62.9166 113.885C64.0681 111.119 64.1943 107.498 63.3177 106.096C62.0925 104.247 59.5556 103.851 53.8762 104.681C50.9122 105.122 48.4653 105.303 48.316 105.204C47.6886 104.398 56.6672 99.7748 59.9693 99.2149C62.1177 98.835 64.6338 98.0968 65.5883 97.5687C68.1137 96.1042 68.4123 96.3029 68.5447 99.7944ZM139.693 114.525C138.366 121.957 135.654 126.227 128.089 132.48C124.213 135.717 120.554 137.849 117.004 139.105C111.266 141.06 104.979 141.573 105.167 140.06C105.354 138.548 111.862 129.092 115.907 124.503C121.849 117.644 129.365 111.788 134.098 110.113C140.771 107.789 140.92 107.889 139.693 114.525ZM199.731 119.795C201.972 123.225 202.472 125.711 200.351 123.266C199.654 122.371 198.449 121.656 197.733 121.567C197.017 121.478 195.265 120.614 193.762 119.7C191.443 118.2 190.727 118.111 188.39 118.71C183.129 120.078 182.522 119.76 186.718 117.856C192.883 115.066 196.932 115.649 199.731 119.795ZM213.719 122.339C215.523 126.038 212.095 130.866 205.135 134.204C203.852 134.772 202.44 135.082 202.062 134.873C201.076 134.347 210.305 119.895 211.579 120.053C212.215 120.132 213.141 121.136 213.719 122.339ZM181.063 124.347C180.688 127.371 180.034 130.038 179.676 130.317C179.318 130.596 177.089 129.672 174.859 128.103L170.669 125.4L175.45 121.387C178.422 118.928 180.61 117.583 181.038 118.04C181.466 118.497 181.439 121.323 181.063 124.347ZM194.987 121.55C197.406 122.9 199.645 124.391 200.004 124.758C200.352 125.206 199.916 126.768 199.092 128.201L197.552 130.838L196.575 128.293C194.77 123.301 193.107 121.72 189.934 121.892L187 122.094L188.729 120.53C189.714 119.764 190.529 119.057 190.529 119.057C190.608 119.066 192.569 120.199 194.987 121.55ZM28.3681 101.839C32.0112 104.392 47.631 106.816 53.728 105.875L58.1839 105.135L54.1776 108.113L50.1713 111.091L38.492 110.126C25.5991 109.172 23.1115 108.379 19.3477 104.194C18.1429 102.832 16.3013 101.391 15.3858 100.955C13.704 100.18 13.7138 100.101 15.3643 99.174C17.5418 97.9087 24.8744 99.3846 28.3681 101.839ZM62.9226 109.279C62.3693 113.736 59.7578 119.15 57.5903 120.336C53.8716 122.299 48.8185 122.641 45.1963 121.222C42.201 119.961 32.6947 112.558 32.7435 111.514C32.8719 110.479 38.1045 110.644 42.8206 111.714C48.4023 112.973 52.4701 112.104 55.9489 108.818C60.1533 104.895 63.4362 105.141 62.9226 109.279ZM186.612 121.965C186.553 122.442 186.971 123.626 187.669 124.52C189.113 126.558 188.486 127.046 185.461 126.024C181.82 124.764 182.025 120.506 185.775 120.891C186.253 120.95 186.681 121.408 186.612 121.965ZM193.051 125.431C192.923 126.465 192.207 127.023 191.073 127.044C190.018 127.075 189.252 126.737 189.302 126.339C189.361 125.862 189.241 124.877 189.091 124.131C188.742 123.037 189.169 122.848 190.97 123.314C192.622 123.68 193.199 124.237 193.051 125.431ZM201.968 130.417C201.036 133.372 199.436 135.84 198.958 135.135C198.401 134.419 201.597 126.896 202.175 127.452C202.543 127.74 202.464 129.024 201.968 130.417ZM193.104 129.559C192.429 130.445 192.1 130.485 191.712 129.709C191.463 129.113 191.711 128.416 192.397 128.097C193.938 127.4 194.267 128.006 193.104 129.559ZM173.211 132.262C174.087 132.371 178.82 141.767 178.283 142.185C178.095 142.404 175.954 140.765 173.615 138.777C171.206 136.7 168.518 134.912 167.563 134.794C165.176 134.497 162.87 136.797 161.928 140.479C160.689 145.255 159.604 144.231 160.265 138.898C160.868 134.043 163.26 127.794 165.109 125.923C166.103 125.076 166.7 125.474 169.309 128.545C171.002 130.533 172.734 132.203 173.211 132.262ZM188.378 128.568C189.354 129.174 190.887 131.143 191.874 132.962L193.568 136.243L191.837 136.513C188.057 137.014 184.456 136.082 182.375 133.965C180.662 132.136 180.502 131.47 181.247 129.38C181.911 127.281 182.438 126.942 184.348 127.179C185.622 127.337 187.403 127.962 188.378 128.568ZM174.253 129.078C176.562 130.658 179.798 133.241 181.301 134.802C182.874 136.452 186.159 139.284 188.588 141.202C193.595 145.137 195.616 147.085 195.488 148.119C195.35 149.233 193.091 148.549 187.08 145.54C180.372 142.283 178.999 140.981 177.433 136.665C176.835 134.975 175.49 132.787 174.395 131.843C171.348 129.041 168.72 126.128 169.366 126.128C169.685 126.167 171.864 127.488 174.253 129.078ZM194.788 132.273C193.257 133.538 192.958 132.693 194.13 130.414C194.646 129.508 195.054 129.478 195.542 130.104C196.1 130.82 195.861 131.437 194.788 132.273ZM197.584 133.833C196.572 136.131 196.482 136.201 195.447 135.426C194.86 134.949 195.098 134.332 196.181 133.416C198.179 131.644 198.567 131.773 197.584 133.833ZM203.31 140.443C199.901 143.818 196.899 146.516 196.68 146.328C196.381 146.129 193.883 144.122 191.026 141.747L185.899 137.474L190.336 137.539C195.986 137.594 203.078 136.454 206.419 134.929C207.88 134.222 209.143 133.813 209.283 133.992C209.422 134.171 206.719 137.068 203.31 140.443ZM168.501 137.658C168.899 138.354 169.837 140.571 170.554 142.6C172.13 146.836 175.306 149.897 179.674 151.167C183.037 152.069 188.163 155.049 188.054 155.925C187.985 156.482 181.112 157.811 176.626 158.143C171.971 158.535 168.149 156.767 164.525 152.762L161.269 149.044L162.19 144.229C163.736 136.986 166.33 134.317 168.501 137.658ZM74.9881 131.223C73.6204 137.034 71.5445 140.736 70.0219 139.981C69.1958 139.475 68.8182 139.913 68.5811 141.823C68.2946 144.131 68.0361 144.261 65.5688 143.954C61.5894 143.46 60.9016 141.84 62.698 137.133C63.5219 135.053 65.27 132.037 66.7509 130.524C69.1758 127.916 74.3463 125.325 75.4414 126.269C75.74 126.468 75.543 128.706 74.9881 131.223ZM176.762 142.724C181.599 146.072 192.346 149.992 198.415 150.584C201.767 150.919 204.732 151.772 206.852 152.924C210.316 154.97 210.934 157.148 207.83 156.763C206.796 156.634 204.578 156.925 202.986 157.374C198.133 158.711 193.487 157.73 188.58 154.293C186.191 152.703 182.479 150.707 180.389 149.963C175.046 148.087 173.303 146.497 171.508 141.425L170.013 137.199L171.675 138.779C172.621 139.624 174.901 141.442 176.762 142.724ZM52.0677 141.39C55.0038 143.128 61.0285 150.583 60.8211 152.255C60.663 153.528 53.6987 152.34 51.0909 150.562C46.7612 147.681 42.7371 141.686 43.1125 138.662C43.2508 137.547 47.9274 138.936 52.0677 141.39ZM82.9638 151.609C90.262 159.222 94.7763 168.43 94.862 175.552L94.8752 179.352L90.2289 178.371C81.3939 176.628 74.037 170.139 71.5828 161.914C70.4454 158.056 69.4913 147.512 69.9753 143.612L70.2717 141.225L74.5816 144.265C76.9605 145.934 80.7534 149.233 82.9638 151.609ZM68.6976 150C68.7196 152.427 69.2806 157.022 69.93 160.255C71.1284 165.576 71.119 166.302 69.8177 168.322C69.0229 169.517 67.9998 171.248 67.6524 172.094C67.0069 173.388 66.7978 173.12 66.099 170.285C64.9105 164.885 61.8199 145.509 62.1081 145.141C62.2969 144.922 63.8289 144.951 65.5798 145.168L68.7733 145.483L68.6976 150ZM128.175 162.393C130.869 171.94 131.492 179.291 130.054 184.365C128.596 189.599 127.791 190.226 125.333 188.547C121.252 185.616 118.419 176.537 119.328 169.214C120.177 162.37 123.532 153.573 125.124 153.771C125.522 153.82 126.818 157.698 128.175 162.393ZM172.162 172.62C173.456 173.266 174.481 174.12 174.422 174.598C174.373 174.996 171.807 176.132 168.684 177.199C164.06 178.646 161.762 178.926 156.162 178.473C146.154 177.716 142.301 174.894 147.641 172.244C152.891 169.663 166.529 169.82 172.162 172.62ZM80.2588 175.356C81.6919 176.18 82.787 177.125 82.7376 177.522C82.4808 179.592 71.8268 179.482 68.8507 177.415C67.5866 176.531 67.5064 175.874 68.2803 173.546C68.7265 171.904 69.7793 169.934 70.5444 168.978L71.9654 167.296L74.873 170.566C76.4264 172.375 78.8256 174.532 80.2588 175.356ZM91.5731 179.912C93.6425 180.169 94.4784 180.596 94.3698 181.472C94.2315 182.586 83.374 223.181 83.0958 223.47C83.0859 223.55 80.977 223.611 78.5498 223.633L74.1132 223.567L73.6515 218.823C73.4203 216.127 71.9694 206.33 70.5586 196.861C69.0583 187.462 67.9472 179.485 67.9868 179.167C68.0263 178.848 70.4337 178.986 73.3587 179.51C77.4776 180.183 79.4273 180.102 81.7145 179.254C83.584 178.516 85.464 178.346 86.6183 178.812C87.7029 179.189 89.9018 179.705 91.5731 179.912ZM58.5235 187.043C63.6491 190.023 71.8464 202.112 70.1174 204.322C69.253 205.427 61.2441 204.191 58.3679 202.621C57.0143 201.807 54.8939 200.008 53.5398 198.547C50.8315 195.625 45.9588 186.05 46.724 185.094C47.4891 184.138 55.7269 185.484 58.5235 187.043ZM153.149 203.395C155.239 204.139 157.06 205.092 157.249 205.52C157.897 206.813 147.565 211.268 141.976 212.029C138.027 212.59 134.654 212.413 128.317 211.384C120.945 210.227 119.701 209.83 118.376 208.13C116.922 206.172 116.932 206.092 118.563 204.678C121.197 202.338 125.86 200.573 130.386 199.923C134.981 199.362 146.641 201.132 153.149 203.395ZM99.8095 225.545C99.4719 226.311 96.4515 230.462 93.2422 234.831L87.3204 242.824L83.6593 242.37L79.9185 241.906L82.0003 233.598C83.1403 228.971 84.1815 225.14 84.271 225.071C84.5394 224.861 97.7292 224.074 99.49 224.212C100.137 224.211 100.316 224.718 99.8095 225.545ZM80.5881 233.907C77.8026 245.28 76.5193 245.201 75.1963 233.723C74.6951 229.297 74.5227 225.477 74.7911 225.268C75.3279 224.85 81.9925 224.545 82.4206 225.003C82.5699 225.102 81.7478 229.121 80.5881 233.907ZM73.952 232.679C74.5026 236.708 74.8138 240.06 74.7244 240.13C74.277 240.478 72.1857 237.794 70.472 234.672C69.4159 232.763 67.5831 229.949 66.4875 228.359L64.416 225.516L66.7833 225.325C68.0963 225.164 69.5684 225.024 69.9861 224.914C72.4726 224.414 73.1301 225.627 73.952 232.679ZM41.4708 230.022C41.293 231.454 41.7832 234.667 42.611 237.113C43.4288 239.639 44.0475 241.817 44.0178 242.056C43.9191 242.852 39.3814 240.996 37.5497 239.475C35.28 237.577 33.6343 232.605 34.5279 230.615C35.203 229.082 38.9118 227.199 40.8318 227.356C41.3889 227.426 41.6585 228.51 41.4708 230.022ZM86.2874 244.636C85.1254 246.835 80.8024 251.713 80.0861 251.624C78.0168 251.368 78.7264 243.697 80.8649 243.397C84.1571 242.917 86.8236 243.571 86.2874 244.636ZM78.3598 245.349C78.2807 245.986 77.8932 246.503 77.4157 246.444C77.0178 246.395 76.689 245.788 76.768 245.151C76.847 244.515 77.3141 244.007 77.7121 244.056C78.1896 244.116 78.4388 244.712 78.3598 245.349ZM58.9536 270.175C66.2097 286.592 66.6697 289.397 62.5246 292.842C60.3477 294.754 54.17 294.392 51.92 292.334C50.7651 291.221 50.8244 290.744 51.8272 288.525C53.5452 285.101 54.4139 277.451 53.298 275.373C52.6601 274 52.7584 272.558 53.9285 268.339C54.7716 265.454 55.5455 263.125 55.6251 263.135C55.7046 263.145 57.2493 266.327 58.9536 270.175ZM52.804 279.352C52.926 282.276 50.5154 289.978 49.4011 289.84C48.2073 289.692 48.1556 287.503 49.3368 284.498C49.8725 282.786 50.5865 280.289 50.7644 278.856C51.1891 275.434 52.5224 275.761 52.804 279.352ZM69.5769 303.739C71.8945 315.017 71.6301 319.753 68.6079 321.964C63.9852 325.35 56.6729 324.361 58.2015 320.51C58.9358 318.5 56.5914 310.694 54.8195 309.342C54.1526 308.855 53.9116 306.239 54.1267 301.902L54.4592 295.316L56.8469 295.613C59.7917 295.978 63.7596 294.612 64.7031 292.87C65.9743 290.442 67.4992 293.783 69.5769 303.739ZM56.6853 315.797C58.0812 319.526 58.1016 320.013 57.0669 319.885C56.669 319.835 56.0712 318.791 55.8313 317.469C55.5815 316.225 55.1424 314.554 54.9228 313.719C54.1346 310.954 55.4887 312.415 56.6853 315.797ZM73.6517 322.347C73.4047 324.337 72.5617 327.223 71.7274 328.735C70.8832 330.328 69.7816 333.343 69.2761 335.462C68.7706 337.581 67.6488 340.109 66.8935 340.985C65.085 343.185 59.4654 344.185 56.7286 342.794C54.8975 341.921 54.7877 341.503 55.4908 337.792C55.8569 335.494 55.9435 332.191 55.6932 330.301C55.1926 326.521 56.3528 322.382 57.5379 323.903C58.723 325.424 62.742 325.6 66.6901 324.393C69.2161 323.575 70.4687 322.599 71.5313 320.549C73.2492 317.125 74.2049 317.89 73.6517 322.347ZM54.9523 336.27C54.8239 337.305 54.3969 338.141 53.9193 338.082C53.5214 338.032 53.2617 336.869 53.4297 335.516C53.5976 334.163 54.0246 333.327 54.4627 333.704C54.9106 334.002 55.0906 335.156 54.9523 336.27Z" fill="black"/>
<path d="M139.693 114.525C138.366 121.957 135.654 126.227 128.089 132.48C124.213 135.717 120.554 137.849 117.004 139.105C111.266 141.06 104.979 141.573 105.167 140.06C105.354 138.548 111.862 129.092 115.907 124.503C121.849 117.644 129.365 111.788 134.098 110.113C140.771 107.789 140.92 107.889 139.693 114.525Z" fill="#699472"/>
<path d="M82.9638 151.609C90.262 159.222 94.7763 168.43 94.862 175.552L94.8752 179.352L90.2289 178.371C81.3939 176.628 74.037 170.139 71.5828 161.914C70.4454 158.056 69.4913 147.512 69.9753 143.612L70.2717 141.225L74.5816 144.265C76.9605 145.934 80.7534 149.233 82.9638 151.609Z" fill="#699472"/>
<path d="M128.175 162.393C130.869 171.94 131.492 179.291 130.054 184.365C128.596 189.599 127.791 190.226 125.333 188.547C121.252 185.616 118.419 176.537 119.328 169.214C120.177 162.37 123.532 153.573 125.124 153.771C125.522 153.82 126.818 157.698 128.175 162.393Z" fill="#699472"/>
<path d="M153.149 203.395C155.239 204.139 157.06 205.092 157.249 205.52C157.897 206.813 147.565 211.268 141.976 212.029C138.027 212.59 134.654 212.413 128.317 211.384C120.945 210.227 119.701 209.83 118.376 208.13C116.922 206.172 116.932 206.092 118.563 204.678C121.197 202.338 125.86 200.573 130.386 199.923C134.981 199.362 146.641 201.132 153.149 203.395Z" fill="#699472"/>
<path d="M172.162 172.62C173.456 173.266 174.481 174.12 174.422 174.598C174.373 174.996 171.807 176.132 168.684 177.199C164.06 178.646 161.762 178.926 156.162 178.473C146.154 177.716 142.301 174.894 147.641 172.244C152.891 169.663 166.529 169.82 172.162 172.62Z" fill="#699472"/>
<path d="M102.985 67.783C107.127 72.1763 110.899 73.695 118.927 74.1257C122.697 74.3513 126.756 74.2085 127.77 73.8495C129.54 73.261 129.918 73.4696 131.064 75.3089C132.718 78.2619 132.53 79.1275 129.081 82.8211C126.566 85.4991 125.353 86.1567 121.564 86.737C119.018 87.0675 116.461 87.4775 115.875 87.6471C115.298 87.7372 112.591 86.7547 109.835 85.5236C105.476 83.5279 104.46 82.5937 101.203 77.583C97.5377 71.9558 96.9783 69.3003 98.6666 66.1156C99.5206 64.4437 99.9784 64.6621 102.985 67.783Z" fill="#C93636"/>
<path d="M96.4194 32.7832C96.8185 34.1258 98.2242 37.7753 99.6097 40.9374L102.201 46.7545L99.9667 51.0837C96.5702 57.6122 96.2234 59.1047 97.9261 61.0131C100.186 63.6374 99.6398 64.1352 94.8644 63.5425C87.8605 62.6731 84.5853 59.7613 83.5055 53.4854C83.0751 50.4418 83.1838 49.5663 84.7036 47.088C86.0149 44.988 86.6296 42.6398 86.8847 38.6307L87.3276 33.1094L91.1264 31.803C95.9396 30.1375 95.6213 30.098 96.4194 32.7832Z" fill="#DB6868"/>
<path d="M108.88 51.5435C110.392 51.7312 112.383 52.6247 113.318 53.549C114.752 55.02 114.792 55.3483 113.62 57.6273C112.141 60.4338 112.53 61.8559 115.487 64.7282C117.219 66.3979 117.458 66.4276 121.993 65.6975C127.683 64.7873 128.986 65.3532 128.591 68.5368C128.067 72.755 126.795 73.8901 123.432 72.9878C121.78 72.6212 118.896 72.4247 116.936 72.5856C111.535 73.1275 106.479 70.2371 101.48 63.6362L97.5259 58.3774L99.4425 54.6553C100.495 52.6848 101.747 50.4157 102.084 49.6494C102.73 48.3556 102.968 48.3853 104.422 49.6971C105.288 50.532 107.288 51.3459 108.88 51.5435Z" fill="#AF3A3A"/>
<path d="M149.434 71.2045C152.13 72.2666 152.2 72.356 151.088 74.8041C148.328 80.7651 147.97 81.044 142.419 80.8399C136.55 80.5963 133.425 79.077 132.875 76.3419C132.666 75.4269 131.799 73.9455 130.764 73.1704C129.748 72.2362 129.11 70.8641 129.249 69.7498C129.515 67.6009 129.605 67.5312 133.595 69.2387C135.824 70.1619 136.948 70.2206 138.808 69.5625C141.105 68.6353 143.961 69.0706 149.434 71.2045Z" fill="#333030"/>
<path d="M138.89 60.4405C143.327 61.1528 147.079 62.8307 146.911 64.1838C146.871 64.5021 144.694 65.7673 142.128 66.9036C138.28 68.608 136.868 68.9176 134.529 68.2233C132.977 67.7073 131.096 66.5849 130.25 65.5909C128.985 64.06 128.279 63.8915 125.096 64.143C116.362 64.8369 116.601 64.8665 114.948 62.5601C113.643 60.7011 113.553 60.1242 114.477 58.5417C115.589 56.7403 115.918 56.7002 121.29 57.6903C124.444 58.3242 127.896 58.5102 129.06 58.2506C130.472 57.941 131.666 58.0891 132.631 58.7747C133.447 59.3609 136.263 60.1145 138.89 60.4405Z" fill="#BD4545"/>
<path d="M156.98 55.3316C157.548 55.9678 158.991 57.3592 160.066 58.4624L162.078 60.49L160.382 66.3407C158.874 71.3257 158.367 72.1518 156.905 72.2128C155.522 72.2836 148.557 69.8027 144.437 67.8367C144.059 67.6281 145.033 66.9408 146.644 66.3326L149.528 65.2359L147.606 63.1387L145.684 61.0414L149.919 57.5262C154.581 53.8216 155.258 53.5823 156.98 55.3316Z" fill="#3E3C3C"/>
<path d="M153.721 37.3094C154.967 40.2926 155.945 43.4849 155.836 44.3604C155.728 45.2359 155.849 46.8672 156.188 48.0407C156.607 49.8707 156.11 50.6172 152.532 54.0522C150.246 56.1929 147.154 58.3145 145.633 58.853C142.769 59.7905 137.307 59.5167 134.153 58.2362L132.381 57.5314L134.489 55.5302C135.592 54.4549 137.669 52.0458 139.12 50.1246C141.425 47.1781 142.041 46.7697 143.653 47.4547C145.046 47.9509 145.554 47.7714 146.11 46.5474C146.467 45.6219 146.376 44.3985 145.888 43.7722C145.331 43.0565 145.339 41.0371 145.983 37.8035C146.715 33.8537 147.242 32.8685 148.753 32.4096C149.688 32.0407 150.693 31.7613 150.931 31.7909C151.17 31.8206 152.396 34.3164 153.721 37.3094Z" fill="#292727"/>
<path d="M127.334 52.6217C129.721 52.9181 132.626 52.9553 133.78 52.7753C135.6 52.4355 135.491 52.6644 132.558 54.8057C128.999 57.4349 125.041 58.075 120.762 56.7358C118.274 55.9421 118.075 55.5941 118.401 52.9677C118.737 50.2616 118.827 50.1919 120.896 51.0954C122.041 51.6415 124.946 52.3253 127.334 52.6217Z" fill="#A43D3D"/>
<path d="M117.83 25.0155C117.78 25.4134 116.906 25.9513 115.891 26.3103C112.947 27.238 109.484 36.9101 109.828 43.2563C110.201 49.3638 110.112 50.0801 108.62 50.3799C106.532 50.9288 103.146 46.9527 101.501 41.9803C99.047 34.4024 100.602 27.0796 104.582 27.5735C105.298 27.6624 107.655 26.9044 109.733 25.7884C113.273 23.965 118.008 23.5829 117.83 25.0155Z" fill="#B32D2D"/>
<path d="M112.743 21.0707C107.803 25.7105 107.008 26.2583 104.243 26.4C101.557 26.5515 100.603 27.7262 98.8268 32.9204C98.4103 34.3233 98.2708 34.1444 97.712 32.1355C96.8041 29.0326 97.6048 23.2325 98.9469 22.1868C99.5731 21.6988 100.657 21.4293 101.453 21.5281C103.682 21.8047 108.962 19.6316 111.328 17.5007C113.325 15.7283 113.574 15.6783 114.63 16.9408C115.606 18.1933 115.397 18.5715 112.743 21.0707Z" fill="#C64040"/>
<path d="M123.554 29.6858C123.644 30.2627 123.187 30.6909 122.55 30.6118C120.719 30.3846 116.644 34.5662 116.348 36.9539C116.2 38.1477 116.361 40.7538 116.751 42.8226C117.651 47.9448 117.657 55.0573 116.781 54.9486C116.383 54.8993 114.94 53.5079 113.526 51.8777C111.266 49.2535 110.976 48.3286 111.101 43.4144C111.146 37.8437 113.298 30.2717 115.246 28.2507C116.439 27.1057 123.244 28.2736 123.554 29.6858Z" fill="#955050"/>
<path d="M145.184 45.5435C145.134 45.9414 144.13 46.2208 143.015 46.0825C141.742 45.9244 140.121 46.6122 138.571 48.0361C134.088 52.2478 126.757 53.3584 122.756 50.4372L120.895 49.1556L122.983 48.6067C127.24 47.5187 138.478 44.8729 139.642 44.6132C141.8 44.1538 145.282 44.7476 145.184 45.5435Z" fill="#AE4E4E"/>
<path d="M126.426 38.4472C138.626 43.0324 139.114 43.6587 132.321 44.9975C130.252 45.3873 126.403 46.4451 123.718 47.2432C120.277 48.2708 118.805 48.4113 118.655 47.6654C118.016 44.3534 117.124 37.2118 117.213 36.4955C117.361 35.3017 118.704 35.5492 126.426 38.4472Z" fill="#D85F5F"/>
<path d="M141.206 24.846C144.342 26.9323 145.458 29.6569 145.433 35.0685C145.397 39.2664 142.993 43.6553 140.924 43.3985C139.889 43.27 137.093 41.7107 136.237 40.7963C136.097 40.6173 136.723 39.4827 137.617 38.139C139.584 35.3122 139.254 33.4126 136.097 28.8991C133.139 24.7336 130.402 22.6967 127.059 22.2818C125.387 22.0744 124.79 21.677 125.257 21.1693C126.231 19.8354 137.852 22.5709 141.206 24.846Z" fill="#312E2E"/>
<path d="M130.383 24.7957C131.737 25.6102 133.479 27.2003 134.236 28.2641L135.68 30.302L132.338 29.8871C130.507 29.6599 128.408 29.6419 127.652 29.8713C126.727 30.1606 125.802 29.8033 125.115 28.829C124.408 28.0139 122.765 26.9211 121.452 26.4348L118.964 25.6412L121.967 24.236C125.567 22.5815 127.089 22.6896 130.383 24.7957Z" fill="#DD6464"/>
<path d="M127.103 15.418C127.581 16.1238 129.9 17.6239 132.268 18.726L136.557 20.6323L130.956 20.1795C126.151 19.8255 124.998 20.0056 122.86 21.5991C120.812 23.1228 119.569 23.3726 116.465 22.9873C114.316 22.7206 112.923 22.2244 113.281 21.9456C115.249 20.412 125.331 14.0666 125.739 14.0364C126.057 14.0759 126.625 14.7121 127.103 15.418Z" fill="#BF1818"/>
<path d="M157.814 31.0289C159.895 33.146 159.925 33.5538 158.188 37.783L156.918 40.8579L155.573 38.6706C154.905 37.5372 153.889 35.3098 153.43 33.7982C152.572 30.944 151.268 30.3781 148.384 31.4748C146.435 32.2027 146.435 32.2026 146.025 29.6465C145.676 27.9059 145.845 27.8461 150.779 28.4586C154.759 28.9525 156.301 29.5481 157.814 31.0289Z" fill="#3F3C3C"/>
<path d="M125.228 33.7729C122.594 35.4663 118.923 35.738 119.101 34.3054C119.269 32.9524 123.008 31.4769 125.475 31.7831L127.853 32.1591L125.228 33.7729Z" fill="#B96666"/>
<path d="M130.852 37.2994C133.38 39.0678 131.49 39.3182 127.649 37.71C124.107 36.3005 123.917 35.873 126.174 34.6176C127.397 33.8804 127.795 33.9298 128.323 34.8843C128.732 35.5007 129.807 36.6039 130.852 37.2994Z" fill="#BF3939"/>
<path d="M134.816 32.0536C136.399 33.6239 136.36 33.9423 135.078 35.8036L133.697 37.8142L133.138 35.1587C132.838 33.6668 132.001 31.9466 131.205 31.2012C129.91 29.9092 129.91 29.9091 131.502 30.1067C132.378 30.2154 133.881 31.1293 134.816 32.0536Z" fill="#B42222"/>
<path d="M136.801 37.5529C136.473 38.2395 135.847 38.7275 135.449 38.6781C134.971 38.6189 135.14 37.9125 135.736 37.0167C137.008 35.2349 137.844 35.6619 136.801 37.5529Z" fill="#B12B2B"/>
<path d="M131.706 35.6275C131.796 36.2044 131.448 36.4036 130.692 35.9864C130.005 35.6588 129.527 34.9529 129.576 34.555C129.705 33.5203 131.456 34.3842 131.706 35.6275Z" fill="#C57070"/>
<path d="M62.9226 109.279C62.3693 113.736 59.7578 119.15 57.5903 120.336C53.8716 122.299 48.8185 122.641 45.1963 121.222C42.201 119.961 32.6947 112.558 32.7435 111.514C32.8719 110.479 38.1045 110.644 42.8206 111.714C48.4023 112.973 52.4701 112.104 55.9489 108.818C60.1533 104.895 63.4362 105.141 62.9226 109.279Z" fill="#C93636"/>
<path d="M28.3681 101.839C32.0112 104.392 47.631 106.816 53.728 105.875L58.1839 105.135L54.1776 108.113L50.1713 111.091L38.492 110.126C25.5991 109.172 23.1115 108.379 19.3477 104.194C18.1429 102.832 16.3013 101.391 15.3858 100.955C13.704 100.18 13.7138 100.101 15.3643 99.174C17.5418 97.9087 24.8744 99.3846 28.3681 101.839Z" fill="#913333"/>
<path d="M68.5447 99.7944C68.6973 103.773 67.2303 109.733 65.0847 113.346C63.1378 116.66 61.6361 117.04 62.9166 113.885C64.0681 111.119 64.1943 107.498 63.3177 106.096C62.0925 104.247 59.5556 103.851 53.8762 104.681C50.9122 105.122 48.4653 105.303 48.316 105.204C47.6886 104.398 56.6672 99.7748 59.9693 99.2149C62.1177 98.835 64.6338 98.0968 65.5883 97.5687C68.1137 96.1042 68.4123 96.3029 68.5447 99.7944Z" fill="#A84848"/>
<path d="M64.5926 96.4753C64.036 97.0527 61.858 97.6714 59.7295 97.8921C57.591 98.1924 54.2697 99.5581 51.8936 101.122C47.7772 103.755 47.6092 103.742 40.2188 103.146L40.1671 103.141C28.3983 102.246 27.3219 99.85 38.1938 98.8558C41.6254 98.5544 45.8228 97.9439 47.4936 97.5048C49.1644 97.0656 53.7597 96.5046 57.7682 96.1132C61.7669 95.8013 65.1986 95.4999 65.3577 95.5197C65.5268 95.4598 65.1492 95.8979 64.5926 96.4753Z" fill="#A95757"/>
<path d="M35.9986 91.1483C38.9253 93.6128 42.0508 95.7786 42.8467 95.8774C45.9506 96.2627 44.0416 97.3188 39.5555 97.651C36.9395 97.892 33.9157 98.1632 32.6823 98.3334C30.315 98.5244 29.9362 97.6692 27.8986 88.0418C26.3802 80.7416 26.4494 80.1844 28.6807 83.6939C29.6967 85.2747 33.0022 88.5944 35.9986 91.1483Z" fill="#D16060"/>
<path d="M62.0193 88.5593C64.0344 95.113 64.3225 94.7447 57.1902 94.91L53.3107 94.9134L54.2926 91.5602C55.3041 87.9682 58.5721 82.4743 59.6068 82.6028C59.9153 82.7219 60.962 85.357 62.0193 88.5593Z" fill="#BF5454"/>
<path d="M75.873 73.3076C77.3967 75.3555 77.776 76.8572 77.6696 80.319C77.4458 86.0291 75.6285 89.6019 71.6617 92.2614L68.4803 94.4526L68.135 86.1665C67.7797 77.9601 68.2451 75.5126 70.709 71.9393C72.2689 69.7892 73.5226 70.1065 75.873 73.3076Z" fill="#BF5C5C"/>
<path d="M53.3803 60.4947C62.8548 65.5498 63.3724 65.9373 64.4993 69.229C65.1674 71.009 65.9864 74.8282 66.3471 77.7823C67.0783 83.6109 66.899 94.8221 66.0235 94.7134C65.7052 94.6739 64.469 91.6111 63.2323 87.9017C61.148 81.9051 61.0377 80.8408 62.0899 78.2237C62.8045 76.3728 63.0317 74.5423 62.6326 73.1997C62.2231 71.2901 61.4766 70.7934 56.3922 69.435C47.4074 66.9459 42.6436 68.2134 37.3074 74.7436L34.6541 77.8893L34.5723 75.2931C34.0057 64.2319 35.2165 60.9879 40.3771 58.4766C44.076 56.6729 47.2398 57.2272 53.3803 60.4947Z" fill="#BC6161"/>
<path d="M33.1962 71.4048C33.2571 72.867 33.1513 76.9755 33.035 80.5169L32.8018 86.9532L30.89 84.7763C28.4902 81.9732 26.6151 76.245 27.0003 73.141C27.6227 68.1269 32.8937 66.6799 33.1962 71.4048Z" fill="#D16E6E"/>
<path d="M60.6122 71.8983C62.2045 72.7425 61.6414 77.279 59.5749 80.2552L57.9952 82.5644L55.0174 78.5581C51.1433 73.3091 47.1029 71.3529 43.1251 72.7988C39.913 73.9356 39.2263 73.6079 41.4433 72.0243C45.3305 69.355 47.9662 68.9548 53.7268 70.0739C56.8012 70.6979 59.8558 71.4811 60.6122 71.8983Z" fill="#CA5E5E"/>
<path d="M52.9599 91.8797C52.6635 94.2674 52.1865 94.8547 49.8296 95.6127C47.3036 96.4306 46.8261 96.3714 42.7259 94.2461C40.2976 92.9749 38.4264 91.7729 38.6053 91.6335C41.6373 89.3429 45.4065 88.2752 49.1571 88.6599L53.3056 89.0941L52.9599 91.8797Z" fill="#9F3D3D"/>
<path d="M54.7436 84.0195C55.1421 84.7155 55.2327 85.939 54.8057 86.7749C54.2398 88.0786 53.6629 88.1686 51.643 87.5138C48.2997 86.4523 48.23 86.3629 50.7351 84.411C53.3297 82.3894 53.6579 82.3493 54.7436 84.0195Z" fill="#8F3030"/>
<path d="M51.3382 80.2026C51.5875 80.7992 51.7971 81.7142 51.728 82.2714C51.6292 83.0673 51.2411 82.9383 49.9968 81.8949C47.5278 79.6488 45.8965 79.7696 42.0889 82.4488C39.2556 84.4408 38.5893 84.6005 38.3197 83.5165C37.8306 81.597 38.2467 79.5475 39.2308 78.7806C40.5728 77.735 50.7602 78.9994 51.3382 80.2026Z" fill="#BE3939"/>
<path d="M50.8864 75.3784C52.8175 76.7495 56.5824 82.2274 56.4342 83.4212C56.3947 83.7396 55.0905 82.5271 53.6068 80.8074C50.9183 77.726 50.6098 77.6069 46.1133 77.3721C43.5368 77.2947 40.7913 77.2772 40.0552 77.3475C37.7773 77.4688 38.4925 76.2646 41.5849 74.7896C44.8464 73.2549 47.98 73.4014 50.8864 75.3784Z" fill="#BF4545"/>
<path d="M36.3503 83.757C35.3701 89.0499 33.7794 90.1455 34.4117 85.0518C34.7377 82.4254 36.2267 78.8927 37.0226 78.9915C37.1022 79.0014 36.7559 81.1404 36.3503 83.757Z" fill="#BC5656"/>
<path d="M38.1936 87.1375C38.1442 87.5355 38.2743 88.4406 38.4241 89.1866C38.6338 90.1015 38.3457 90.4698 37.4702 90.3612C36.6743 90.2624 36.2857 89.4868 36.4437 88.2134C36.582 87.0991 37.0886 86.2731 37.4866 86.3225C37.9641 86.3817 38.2429 86.7396 38.1936 87.1375Z" fill="#9B5454"/>
<path d="M49.0824 82.7511C49.7295 83.3972 49.5907 83.8648 48.1789 84.821C46.4988 85.9864 46.26 85.9567 45.2841 84.7041C43.3322 82.199 46.5141 80.6544 49.0824 82.7511Z" fill="#C23636"/>
<path d="M44.3702 86.207C44.1924 87.6396 42.6302 87.2033 42.5792 85.6615C42.4392 84.836 42.8069 84.4775 43.4936 84.8052C44.0211 85.1131 44.4295 85.7295 44.3702 86.207Z" fill="#A63737"/>
<path d="M41.4068 87.2939C41.2685 88.4082 40.264 88.6875 39.4972 87.7034C38.8698 86.8982 40.1613 84.9573 40.888 85.6132C41.2563 85.9014 41.4858 86.6572 41.4068 87.2939Z" fill="#AF5353"/>
<path d="M168.501 137.658C168.899 138.354 169.837 140.571 170.554 142.6C172.13 146.836 175.306 149.897 179.674 151.167C183.037 152.069 188.163 155.049 188.054 155.925C187.985 156.482 181.112 157.811 176.626 158.143C171.971 158.535 168.149 156.767 164.525 152.762L161.269 149.044L162.19 144.229C163.736 136.986 166.33 134.317 168.501 137.658Z" fill="#363636"/>
<path d="M176.762 142.724C181.599 146.072 192.346 149.992 198.415 150.584C201.767 150.919 204.732 151.772 206.852 152.924C210.316 154.97 210.934 157.148 207.83 156.763C206.796 156.634 204.578 156.925 202.986 157.374C198.133 158.711 193.487 157.73 188.58 154.293C186.191 152.703 182.479 150.707 180.389 149.963C175.046 148.087 173.303 146.497 171.508 141.425L170.013 137.199L171.675 138.779C172.621 139.624 174.901 141.442 176.762 142.724Z" fill="#241E1E"/>
<path d="M173.211 132.262C174.087 132.371 178.82 141.767 178.283 142.185C178.095 142.404 175.954 140.765 173.615 138.777C171.206 136.7 168.518 134.912 167.563 134.794C165.176 134.497 162.87 136.797 161.928 140.479C160.689 145.255 159.604 144.231 160.265 138.898C160.868 134.043 163.26 127.794 165.109 125.923C166.103 125.076 166.7 125.474 169.309 128.545C171.002 130.533 172.734 132.203 173.211 132.262Z" fill="#262626"/>
<path d="M177.323 101.739C178.082 104.743 176.822 108.385 173.245 113.76C171.169 116.815 169.053 120.189 168.596 121.264L167.882 123.115L166.188 120.48C162.742 115.042 164.525 106.535 170.072 102.213C173.293 99.7036 176.794 99.4917 177.323 101.739Z" fill="#2C2C2C"/>
<path d="M174.253 129.078C176.562 130.658 179.798 133.241 181.301 134.802C182.874 136.452 186.159 139.284 188.588 141.202C193.595 145.137 195.616 147.085 195.488 148.119C195.35 149.233 193.091 148.549 187.08 145.54C180.372 142.283 178.999 140.981 177.433 136.665C176.835 134.975 175.49 132.787 174.395 131.843C171.348 129.041 168.72 126.128 169.366 126.128C169.685 126.167 171.864 127.488 174.253 129.078Z" fill="#3C3C3C"/>
<path d="M203.31 140.443C199.901 143.818 196.899 146.516 196.68 146.328C196.381 146.129 193.883 144.122 191.026 141.747L185.899 137.474L190.336 137.539C195.986 137.594 203.078 136.454 206.419 134.929C207.88 134.222 209.143 133.813 209.283 133.992C209.422 134.171 206.719 137.068 203.31 140.443Z" fill="#2B2B2B"/>
<path d="M213.719 122.339C215.523 126.038 212.095 130.866 205.135 134.204C203.852 134.772 202.44 135.082 202.062 134.873C201.076 134.347 210.305 119.895 211.579 120.053C212.215 120.132 213.141 121.136 213.719 122.339Z" fill="#383838"/>
<path d="M208.412 105.194C211.14 107.957 212.357 111.826 211.485 114.95C210.642 117.836 205.357 126.554 204.561 126.455C204.243 126.416 204.033 124.854 203.941 122.984C203.809 118.846 201.915 114.57 199.227 112.135C198.142 111.112 194.489 109.285 191.066 108.213C185.026 106.09 185.026 106.09 183.376 107.663C182.452 108.599 181.559 110.589 181.351 112.26C181.025 114.887 180.171 115.912 175.131 120.055C170.528 123.928 169.395 124.596 169.483 123.233C169.888 119.323 180.042 105.875 185.133 102.628C187.598 100.994 188.245 100.994 197.079 102.09C205.436 103.128 206.69 103.445 208.412 105.194Z" fill="#202020"/>
<path d="M191.545 109.566C193.794 110.33 196.61 111.73 197.715 112.594C199.935 114.244 202.755 119.524 201.86 120.221C201.592 120.43 201.243 119.982 201.014 119.227C200.584 117.476 197.091 115.022 194.544 114.706C193.509 114.578 190.356 115.237 187.642 116.274L187.64 116.274C184.936 117.231 182.57 118.069 182.49 118.059C181.684 118.04 182.207 112.528 183.19 110.468C184.61 107.493 185.266 107.413 191.545 109.566Z" fill="#232323"/>
<path d="M181.063 124.347C180.688 127.371 180.034 130.038 179.676 130.317C179.318 130.596 177.089 129.672 174.859 128.103L170.669 125.4L175.45 121.387C178.422 118.928 180.61 117.583 181.038 118.04C181.466 118.497 181.439 121.323 181.063 124.347Z" fill="#2D2D2D"/>
<path d="M188.378 128.568C189.354 129.174 190.887 131.143 191.874 132.962L193.568 136.243L191.837 136.513C188.057 137.014 184.456 136.082 182.375 133.965C180.662 132.136 180.502 131.47 181.247 129.38C181.911 127.281 182.438 126.942 184.348 127.179C185.622 127.337 187.403 127.962 188.378 128.568Z" fill="#383838"/>
<path d="M199.731 119.795C201.972 123.225 202.472 125.711 200.351 123.266C199.654 122.371 198.449 121.656 197.733 121.567C197.017 121.478 195.265 120.614 193.762 119.7C191.443 118.2 190.727 118.111 188.39 118.71C183.129 120.078 182.522 119.76 186.718 117.856C192.883 115.066 196.932 115.649 199.731 119.795Z" fill="#292929"/>
<path d="M194.987 121.55C197.406 122.9 199.645 124.391 200.004 124.758C200.352 125.206 199.916 126.768 199.092 128.201L197.552 130.838L196.575 128.293C194.77 123.301 193.107 121.72 189.934 121.892L187 122.094L188.729 120.53C189.714 119.764 190.529 119.057 190.529 119.057C190.608 119.066 192.569 120.199 194.987 121.55Z" fill="#242424"/>
<path d="M186.612 121.965C186.553 122.442 186.971 123.626 187.669 124.52C189.113 126.558 188.486 127.046 185.461 126.024C181.82 124.764 182.025 120.506 185.775 120.891C186.253 120.95 186.681 121.408 186.612 121.965Z" fill="#404040"/>
<path d="M201.968 130.417C201.036 133.372 199.436 135.84 198.958 135.135C198.401 134.419 201.597 126.896 202.175 127.452C202.543 127.74 202.464 129.024 201.968 130.417Z" fill="#292929"/>
<path d="M197.584 133.833C196.572 136.131 196.482 136.201 195.447 135.426C194.86 134.949 195.098 134.332 196.181 133.416C198.179 131.644 198.567 131.773 197.584 133.833Z" fill="#2E2E2E"/>
<path d="M194.788 132.273C193.257 133.538 192.958 132.693 194.13 130.414C194.646 129.508 195.054 129.478 195.542 130.104C196.1 130.82 195.861 131.437 194.788 132.273Z" fill="#545454"/>
<path d="M193.104 129.559C192.429 130.445 192.1 130.485 191.712 129.709C191.463 129.113 191.711 128.416 192.397 128.097C193.938 127.4 194.267 128.006 193.104 129.559Z" fill="#3C3B3B"/>
<path d="M193.051 125.431C192.923 126.465 192.207 127.023 191.073 127.044C190.018 127.075 189.252 126.737 189.302 126.339C189.361 125.862 189.241 124.877 189.091 124.131C188.742 123.037 189.169 122.848 190.97 123.314C192.622 123.68 193.199 124.237 193.051 125.431Z" fill="#242424"/>
<path d="M58.5235 187.043C63.6491 190.023 71.8464 202.112 70.1174 204.322C69.253 205.427 61.2441 204.191 58.3679 202.621C57.0143 201.807 54.8939 200.008 53.5398 198.547C50.8315 195.625 45.9588 186.05 46.724 185.094C47.4891 184.138 55.7269 185.484 58.5235 187.043Z" fill="#699472"/>
<path d="M52.0677 141.39C55.0038 143.128 61.0285 150.583 60.8211 152.255C60.663 153.528 53.6987 152.34 51.0909 150.562C46.7612 147.681 42.7371 141.686 43.1125 138.662C43.2508 137.547 47.9274 138.936 52.0677 141.39Z" fill="#699472"/>
<path d="M74.9881 131.223C73.6204 137.034 71.5445 140.736 70.0219 139.981C69.1958 139.475 68.8182 139.913 68.5811 141.823C68.2946 144.131 68.0361 144.261 65.5688 143.954C61.5894 143.46 60.9016 141.84 62.698 137.133C63.5219 135.053 65.27 132.037 66.7509 130.524C69.1758 127.916 74.3463 125.325 75.4414 126.269C75.74 126.468 75.543 128.706 74.9881 131.223Z" fill="#699472"/>
<path d="M80.2588 175.356C81.6919 176.18 82.787 177.125 82.7376 177.522C82.4808 179.592 71.8268 179.482 68.8507 177.415C67.5866 176.531 67.5064 175.874 68.2803 173.546C68.7265 171.904 69.7793 169.934 70.5444 168.978L71.9654 167.296L74.873 170.566C76.4264 172.375 78.8256 174.532 80.2588 175.356Z" fill="#699472"/>
</g>
<defs>
<clipPath id="clip0_267_308">
<rect width="204" height="207" fill="white" transform="translate(25.5253 0.224121) rotate(7.07536)"/>
</clipPath>
</defs>
</svg>
