<svg width="388" height="178" viewBox="0 0 388 178" fill="none" xmlns="http://www.w3.org/2000/svg">
<g clip-path="url(#clip0_297_1909)">
<path d="M207.402 168.323C208.433 167.574 208.636 166.543 208.839 165.403C210.307 157.065 212.181 148.805 214.788 140.747C215.631 138.155 216.818 135.672 217.942 133.19C218.895 131.097 219.988 129.067 221.019 127.006C222.158 124.758 223.907 123.009 225.844 121.478C227.327 120.307 228.889 119.245 230.481 118.23C231.215 117.762 232.105 117.528 232.948 117.231C233.495 117.044 233.917 116.825 233.932 116.169C233.963 114.171 234.057 112.188 234.01 110.189C234.01 109.892 233.464 109.439 233.089 109.33C232.293 109.096 231.434 109.002 230.606 108.924C226.593 108.549 222.986 107.05 219.52 105.083C218.614 104.567 217.615 104.177 216.756 103.584C215.834 102.928 214.773 102.241 214.21 101.304C212.462 98.3839 210.806 95.3858 210.026 92.0286C209.823 91.1698 209.713 90.2641 209.651 89.3897C209.37 85.0799 209.229 80.7702 209.869 76.4917C209.932 76.1013 209.901 75.6797 209.901 75.1176C206.637 75.7578 204.201 74.3212 202.093 72.2288C200.797 70.9484 199.97 69.3088 200.001 67.435C200.063 64.7492 200.969 62.3601 203.061 60.5957C205.076 58.878 207.418 58.0973 210.26 58.8624C210.088 58.4408 210.072 58.2534 209.979 58.1909C206.7 55.6926 204.935 52.1948 203.702 48.416C202.265 43.9657 201.781 39.3593 202.203 34.7216C202.499 31.4893 202.983 28.2727 204.311 25.2434C205.341 22.8855 207.73 22.417 209.104 24.244C210.275 25.7743 211.743 27.0703 213.086 28.4756C213.289 28.6943 213.555 28.8504 214.007 29.1939C214.132 28.5225 214.304 28.0384 214.32 27.5544C214.382 23.8536 215.772 20.4652 216.927 17.0455C218.348 12.8763 220.972 9.39416 223.564 5.88079C224.829 4.16314 226.031 2.4455 227.795 1.28999C229.919 -0.115358 231.2 -0.505732 233.151 0.79031C234.01 1.36806 234.791 2.35181 235.15 3.31993C235.915 5.42796 236.384 7.64528 236.977 9.81576C237.149 10.4404 237.289 11.0806 237.508 11.9394C237.93 11.5646 238.179 11.4085 238.367 11.1899C240.412 8.53534 242.364 5.7871 244.55 3.24186C245.394 2.25812 246.752 1.68036 247.908 0.993304C248.595 0.587314 249.313 0.805925 249.734 1.41491C250.297 2.21127 250.843 3.08571 251.14 4.00699C251.499 5.14689 251.593 6.38047 251.764 7.56721C252.046 9.50346 253.576 10.8776 255.528 10.8932C257.48 10.8932 259.431 10.7995 261.368 10.9088C264.99 11.1274 267.754 12.7982 269.363 16.1554C271.049 19.6688 272.001 23.3383 271.767 27.2733C271.752 27.5231 271.798 27.7886 271.83 28.2414C272.345 28.2883 272.845 28.3976 273.329 28.382C277.279 28.1946 279.996 30.2558 282.214 33.1914C283.588 35.0183 284.462 37.0483 284.618 39.4217C284.806 42.2949 285.321 45.1524 285.508 48.0256C285.665 50.4459 285.165 52.8194 284.384 55.1929C284.884 55.7706 285.399 56.3484 285.899 56.9417C287.913 59.2684 288.569 61.9229 288.147 64.9678C287.741 67.8722 286.071 69.6992 283.65 71.0108C282.182 71.8228 280.527 71.8072 278.903 71.9009C278.404 71.9321 277.904 71.9477 277.279 71.979C277.451 73.1813 277.545 74.2275 277.779 75.2269C278.825 79.9114 279.403 84.6427 279.309 89.4521C279.2 94.8705 277.435 99.6955 273.469 103.459C271.377 105.442 268.754 106.769 266.068 107.878C263.757 108.83 261.383 109.455 258.916 109.72C257.87 109.83 256.855 110.064 255.762 110.251C255.715 112.125 255.684 113.936 255.637 115.779C259.057 116.81 261.758 118.855 264.522 120.713C265.927 121.65 267.02 123.102 268.082 124.445C269.191 125.835 270.128 127.365 271.065 128.896C272.439 131.128 273.766 133.377 275.046 135.672C275.468 136.438 275.702 137.328 275.999 138.155C277.092 141.216 278.294 144.245 279.247 147.368C280.168 150.382 280.777 153.489 281.605 156.534C282.385 159.423 283.229 162.296 284.119 165.153C285.212 168.714 286.367 172.258 287.507 175.818C288.022 177.411 288.569 178.988 289.084 180.581C289.178 180.878 289.225 181.19 289.287 181.502C289.693 183.392 289.178 184.173 287.304 184.11C285.446 184.063 283.713 184.672 282.12 185.328C278.575 186.796 274.843 187.374 271.158 188.186C264.725 189.607 258.167 190.169 251.64 190.887C247.502 191.34 243.348 191.277 239.194 191.012C233.526 190.637 227.858 190.325 222.221 189.716C217.88 189.247 213.633 188.217 209.729 186.078C208.23 185.25 207.527 184.141 207.355 182.471C206.934 178.457 207.48 174.491 207.98 170.541C208.121 169.463 208.121 169.463 207.371 168.417L207.402 168.323ZM212.29 72.2913C212.259 73.6342 212.259 75.0863 212.196 76.5385C212.102 78.6309 211.853 80.739 211.868 82.8314C211.868 85.3454 211.946 87.875 212.227 90.3734C212.632 93.7805 214.385 96.6761 216.127 99.5543C216.134 99.5649 216.14 99.5756 216.147 99.5862C216.912 100.851 218.021 101.882 219.363 102.522C221.393 103.49 223.455 104.411 225.547 105.223C229.404 106.722 233.464 107.284 237.555 107.581C240.069 107.753 242.614 107.675 245.112 107.925C251.921 108.596 258.495 107.893 264.944 105.473C268.301 104.208 271.127 102.288 273.282 99.5238C275.187 97.0878 276.077 94.1366 276.389 91.0448C276.655 88.4059 276.42 85.7982 275.999 83.2061C275.546 80.3642 275.171 77.4911 274.734 74.6491C274.547 73.4624 274.234 72.2913 274.063 71.1045C273.828 69.4962 274.515 68.9809 276.139 69.1683C277.482 69.3244 278.872 69.2932 280.215 69.1683C281.074 69.0902 281.979 68.8091 282.713 68.3563C285.415 66.6543 286.773 62.0791 284.009 58.6282C283.322 57.7693 282.51 57.3634 281.449 57.379C279.262 57.4102 277.357 58.0192 275.749 59.6119C274.64 60.7206 274.297 60.6581 273.032 59.7993C272.782 59.6275 272.501 59.4558 272.22 59.3621C271.377 59.0966 270.83 58.5345 270.315 57.8162C268.129 54.8025 266.958 51.2891 265.474 47.9319C264.584 45.9332 264.116 43.7627 263.444 41.6703C263.257 41.0925 262.992 40.5304 262.695 39.7809C262.055 40.1869 261.586 40.4992 261.118 40.7959C258.9 42.2793 256.777 43.9345 254.45 45.2305C251.015 47.1355 247.392 48.6502 243.801 50.2273C240.241 51.7888 236.712 53.3815 233.136 54.9118C230.872 55.8799 228.592 56.8793 226.234 57.5663C223.782 58.2846 221.222 58.6438 218.692 59.1591C216.849 59.5338 215.007 59.9086 213.164 60.2834L212.868 60.6737C213.149 60.8143 213.555 60.8767 213.68 61.1109C213.867 61.4232 214.007 62.0947 213.867 62.204C213.555 62.4382 213.008 62.5475 212.633 62.4538C212.149 62.3289 211.759 61.8605 211.29 61.6575C210.541 61.3452 209.745 60.9236 208.964 60.9079C206.512 60.8611 203.592 62.7974 202.749 65.8111C201.797 69.1839 204.404 72.7285 207.746 72.4943C208.402 72.4474 209.073 72.1976 209.682 71.9009C210.525 71.4793 211.275 71.4324 212.321 72.3069L212.29 72.2913ZM215.022 31.1927C214.741 31.6299 215.288 32.5199 214.429 32.598C213.961 32.6449 213.32 32.4575 213.024 32.1296C211.806 30.771 210.681 29.3345 209.526 27.9291C208.792 27.0391 207.886 26.3676 206.793 25.8055C206.606 26.149 206.465 26.352 206.387 26.5862C206.138 27.3358 205.888 28.0853 205.7 28.8504C203.764 36.4861 203.998 43.9813 207.48 51.1486C208.667 53.6001 209.994 56.1454 212.992 57.0354C213.133 57.0823 213.242 57.2228 213.352 57.3321C213.914 57.863 214.585 57.8943 215.272 57.7225C218.598 56.9574 221.956 56.2703 225.235 55.3646C231.59 53.6001 237.367 50.3991 243.457 47.9475C245.924 46.9482 248.235 45.5272 250.703 44.5122C252.951 43.5753 255.044 42.3886 257.027 41.0301C258.791 39.8121 260.634 38.7035 261.914 36.8765C262.773 35.6429 264.288 36.0021 264.772 37.423C265.053 38.2194 265.287 39.0314 265.459 39.8434C266.521 45.0275 268.597 49.8369 270.846 54.5683C271.439 55.8019 272.173 57.0354 273.36 57.9099C273.641 57.6757 273.844 57.5351 274.031 57.3477C275.64 55.755 277.592 54.9743 279.825 54.8181C280.246 54.7869 280.699 54.8181 281.074 54.6776C281.417 54.537 281.855 54.2404 281.948 53.9124C282.276 52.8194 282.604 51.6795 282.713 50.5552C283.057 46.386 282.401 42.2949 281.589 38.2038C281.089 35.7054 279.668 33.9565 277.904 32.3326C276.046 30.5993 274.016 29.881 271.595 31.0834C271.314 31.2239 271.002 31.3332 270.705 31.3644C270.253 31.4269 269.769 31.4893 269.331 31.4113C268.098 31.1927 267.879 30.6774 268.316 29.5375C268.566 28.9129 268.8 28.257 268.863 27.5856C269.238 23.4789 268.145 19.6532 266.255 16.0618C265.365 14.3753 263.897 13.2979 261.805 13.2979C259.712 13.2979 257.604 13.1261 255.512 13.1417C251.843 13.1886 249.079 10.0812 249.016 6.94261C248.985 5.83394 248.626 4.72528 248.438 3.69469C248.095 3.69469 247.97 3.64785 247.908 3.69469C247.611 3.89769 247.299 4.1163 247.049 4.38175C243.895 7.62967 240.975 11.0493 238.991 15.1873C238.71 15.7963 238.367 16.499 237.524 16.4053C236.758 16.3272 236.228 15.89 235.884 15.1092C235.119 13.3604 234.619 11.5803 234.291 9.69084C233.963 7.78582 233.433 5.8964 232.792 4.06945C232.105 2.14881 230.872 1.89897 229.248 3.14817C228.951 3.36678 228.654 3.601 228.42 3.88207C227.374 5.11566 226.281 6.33362 225.313 7.64528C223.252 10.4247 221.081 13.173 219.801 16.4365C219.004 18.4352 218.536 20.5589 217.755 22.5576C216.927 24.6656 216.803 26.8673 216.631 29.0534C216.49 30.7398 216.6 30.7398 215.069 31.1927H215.022ZM218.551 160.157C218.538 160.17 218.525 160.183 218.512 160.197C217.341 161.365 216.293 162.308 215.382 163.358C214.117 164.826 212.93 166.356 211.775 167.902C211.384 168.433 211.025 169.073 210.9 169.729C210.244 173.086 209.776 176.474 209.932 179.91C210.026 182.189 210.947 184.266 213.414 184.953C214.273 185.187 215.085 185.593 215.944 185.843C220.941 187.389 226.093 188.076 231.293 188.389C233.651 188.529 236.009 188.654 238.351 188.732C240.772 188.81 243.192 188.998 245.597 188.841C249.313 188.607 253.014 188.154 256.714 187.717C263.554 186.905 270.377 186.062 277.061 184.344C280.121 183.564 282.963 182.252 285.883 180.737C285.649 179.91 285.446 179.176 285.227 178.426C283.869 173.679 282.401 168.964 281.167 164.201C280.496 161.609 278.997 159.844 276.842 158.486C276.327 158.158 275.765 157.908 275.171 157.596C274.906 158.049 274.672 158.33 274.547 158.658C273.298 161.952 271.674 165.044 269.893 168.089C268.957 169.697 268.535 170.041 266.458 168.932C266.224 168.807 266.021 168.636 265.834 168.448C264.163 166.793 262.508 165.107 260.821 163.467C260.103 162.78 259.353 162.109 258.541 161.546C257.292 160.672 256.933 160.734 256.183 162.031C254.856 164.342 253.545 166.684 252.311 169.042C250.984 171.571 250.297 171.774 248.111 169.791C245.581 167.496 243.145 165.107 240.693 162.733C239.273 161.359 239.007 161.375 237.664 162.78C236.618 163.889 235.494 164.919 234.447 166.012C232.995 167.527 231.543 169.042 230.153 170.603C229.232 171.649 227.717 171.712 226.812 170.588C225.047 168.386 223.314 166.153 221.549 163.936C220.666 162.816 219.768 161.724 218.699 160.424C218.637 160.349 218.575 160.273 218.512 160.197C218.509 160.194 218.507 160.191 218.505 160.188L218.551 160.157ZM256.152 118.605C256.148 118.615 256.143 118.625 256.139 118.634C256.047 118.82 255.934 118.94 255.934 119.074C255.934 121.338 255.699 123.555 255.278 125.788C254.622 129.27 252.795 131.753 249.594 133.174C246.877 134.376 244.082 133.892 241.443 132.94C240.006 132.409 238.539 131.55 237.492 130.457C235.447 128.302 234.088 125.679 233.901 122.587C233.838 121.619 233.698 120.651 233.573 119.433C232.902 119.776 232.418 119.948 232.012 120.229C230.513 121.275 228.951 122.259 227.561 123.446C226.296 124.523 225.016 125.694 224.11 127.069C222.455 129.614 220.831 132.175 219.847 135.11C218.645 138.639 217.193 142.075 215.975 145.588C215.413 147.196 215.147 148.898 214.71 150.725C215.085 150.522 215.335 150.46 215.507 150.288C216.709 149.117 217.864 147.899 219.098 146.759C219.988 145.947 220.909 145.151 221.909 144.479C223.033 143.73 224.251 144.245 224.329 145.541C224.438 147.368 225.172 148.914 226.156 150.35C227.03 151.615 227.733 153.036 229.123 154.051C229.607 153.38 230.028 152.786 230.466 152.209C230.856 151.709 231.231 151.209 231.668 150.772C233.885 148.617 236.134 146.494 238.351 144.354C239.366 143.386 240.615 143.246 241.755 144.105C242.286 144.51 242.817 144.995 243.176 145.541C244.379 147.384 245.503 149.289 246.69 151.147C247.002 151.647 247.439 152.053 247.83 152.521C248.126 152.271 248.282 152.193 248.345 152.068C249.922 148.976 251.764 146.056 253.966 143.371C254.966 142.153 256.043 141.84 257.417 142.605C257.87 142.855 258.307 143.183 258.666 143.558C260.306 145.244 261.93 146.962 263.554 148.68C264.178 149.351 264.647 150.21 265.709 150.491C265.912 149.991 266.161 149.585 266.24 149.133C266.599 146.915 266.973 144.682 267.239 142.449C267.395 141.075 267.52 140.779 268.894 140.669C269.441 140.622 270.081 140.7 270.549 140.95C271.564 141.497 272.501 142.184 273.454 142.824C273.938 143.152 274.359 143.652 275.265 143.605C274.328 141.153 273.485 138.858 272.548 136.594C272.141 135.615 271.604 134.694 271.076 133.789C271.057 133.756 271.037 133.723 271.018 133.689C269.815 131.659 268.535 129.676 267.333 127.646C264.803 123.352 261.009 120.573 256.543 118.621C256.468 118.591 256.352 118.618 256.139 118.634C256.128 118.635 256.117 118.636 256.105 118.636L256.152 118.605ZM252.67 110.501C247.236 110.626 242.005 109.299 236.556 110.095C236.509 110.673 236.446 111.235 236.431 111.797C236.384 114.374 236.462 116.95 236.274 119.511C236.118 121.697 236.306 123.789 237.133 125.819C238.96 130.254 243.301 132.409 247.923 131.113C249.984 130.535 251.405 129.161 252.108 127.178C252.951 124.789 253.326 122.275 253.263 119.745C253.201 117.278 253.092 114.811 252.951 112.359C252.92 111.75 252.764 111.157 252.655 110.501H252.67ZM257.636 146.072C256.48 144.698 256.121 144.729 255.434 146.166C256.152 146.79 256.839 146.54 257.636 146.072ZM231.684 164.716L231.933 164.841L232.777 164.17C232.73 163.077 232.683 162.218 232.652 161.375L232.402 161.343C232.168 162.468 231.933 163.592 231.699 164.716H231.684Z" fill="#1D262D"/>
<path d="M215.022 31.1927C214.741 31.6299 215.288 32.5199 214.429 32.598C213.961 32.6449 213.32 32.4575 213.024 32.1296C211.806 30.771 210.681 29.3345 209.526 27.9291C208.792 27.0391 207.886 26.3676 206.793 25.8055C206.606 26.149 206.465 26.352 206.387 26.5862C206.138 27.3358 205.888 28.0853 205.7 28.8504C203.764 36.4861 203.998 43.9813 207.48 51.1486C208.667 53.6001 209.994 56.1454 212.992 57.0354C213.133 57.0823 213.242 57.2228 213.352 57.3321C213.914 57.863 214.585 57.8943 215.272 57.7225C218.598 56.9574 221.956 56.2703 225.235 55.3646C231.59 53.6001 237.367 50.3991 243.457 47.9475C245.924 46.9482 248.235 45.5272 250.703 44.5122C252.951 43.5753 255.044 42.3886 257.027 41.0301C258.791 39.8121 260.634 38.7035 261.914 36.8765C262.773 35.6429 264.288 36.0021 264.772 37.423C265.053 38.2194 265.287 39.0314 265.459 39.8434C266.521 45.0275 268.597 49.8369 270.846 54.5683C271.439 55.8019 272.173 57.0354 273.36 57.9099C273.641 57.6757 273.844 57.5351 274.031 57.3477C275.64 55.755 277.592 54.9743 279.825 54.8181C280.246 54.7869 280.699 54.8181 281.074 54.6776C281.417 54.537 281.855 54.2404 281.948 53.9124C282.276 52.8194 282.604 51.6795 282.713 50.5552C283.057 46.386 282.401 42.2949 281.589 38.2038C281.089 35.7054 279.668 33.9565 277.904 32.3326C276.046 30.5993 274.016 29.881 271.595 31.0834C271.314 31.2239 271.002 31.3332 270.705 31.3644C270.253 31.4269 269.769 31.4893 269.331 31.4113C268.098 31.1927 267.879 30.6774 268.316 29.5375C268.566 28.9129 268.8 28.257 268.863 27.5856C269.238 23.4789 268.145 19.6532 266.255 16.0618C265.365 14.3753 263.897 13.2979 261.805 13.2979C259.712 13.2979 257.604 13.1261 255.512 13.1417C251.843 13.1886 249.079 10.0812 249.016 6.94261C248.985 5.83394 248.626 4.72528 248.438 3.69469C248.095 3.69469 247.97 3.64785 247.908 3.69469C247.611 3.89769 247.299 4.1163 247.049 4.38175C243.895 7.62967 240.975 11.0493 238.991 15.1873C238.71 15.7963 238.367 16.499 237.524 16.4053C236.758 16.3272 236.228 15.89 235.884 15.1092C235.119 13.3604 234.619 11.5803 234.291 9.69084C233.963 7.78582 233.433 5.8964 232.792 4.06945C232.105 2.14881 230.872 1.89897 229.248 3.14817C228.951 3.36678 228.654 3.601 228.42 3.88207C227.374 5.11566 226.281 6.33362 225.313 7.64528C223.252 10.4247 221.081 13.173 219.801 16.4365C219.004 18.4352 218.536 20.5589 217.755 22.5576C216.927 24.6656 216.803 26.8673 216.631 29.0534C216.49 30.7398 216.6 30.7398 215.069 31.1927H215.022Z" fill="#282828"/>
<path d="M256.139 118.634C256.047 118.82 255.934 118.94 255.934 119.074C255.934 121.338 255.699 123.555 255.278 125.788C254.622 129.27 252.795 131.753 249.594 133.174C246.877 134.376 244.082 133.892 241.443 132.94C240.006 132.409 238.539 131.55 237.492 130.457C235.447 128.302 234.088 125.679 233.901 122.587C233.838 121.619 233.698 120.651 233.573 119.433C232.902 119.776 232.418 119.948 232.012 120.229C230.513 121.275 228.951 122.259 227.561 123.446C226.296 124.523 225.016 125.694 224.11 127.069C222.455 129.614 220.831 132.175 219.847 135.11C218.645 138.639 217.193 142.075 215.975 145.588C215.413 147.196 215.147 148.898 214.71 150.725C215.085 150.522 215.335 150.46 215.507 150.288C216.709 149.117 217.864 147.899 219.098 146.759C219.988 145.947 220.909 145.151 221.909 144.479C223.033 143.73 224.251 144.245 224.329 145.541C224.438 147.368 225.172 148.914 226.156 150.35C227.03 151.615 227.733 153.036 229.123 154.051C229.607 153.38 230.028 152.786 230.466 152.209C230.856 151.709 231.231 151.209 231.668 150.772C233.885 148.617 236.134 146.494 238.351 144.354C239.366 143.386 240.615 143.246 241.755 144.105C242.286 144.51 242.817 144.995 243.176 145.541C244.379 147.384 245.503 149.289 246.69 151.147C247.002 151.647 247.439 152.053 247.83 152.521C248.126 152.271 248.282 152.193 248.345 152.068C249.922 148.976 251.764 146.056 253.966 143.371C254.966 142.153 256.043 141.84 257.417 142.605C257.87 142.855 258.307 143.183 258.666 143.558C260.306 145.244 261.93 146.962 263.554 148.68C264.178 149.351 264.647 150.21 265.709 150.491C265.912 149.991 266.161 149.585 266.24 149.133C266.599 146.915 266.973 144.682 267.239 142.449C267.395 141.075 267.52 140.779 268.894 140.669C269.441 140.622 270.081 140.7 270.549 140.95C271.564 141.497 272.501 142.184 273.454 142.824C273.938 143.152 274.359 143.652 275.265 143.605C274.328 141.153 273.485 138.858 272.548 136.594C272.141 135.615 271.604 134.694 271.076 133.789L271.018 133.689C269.815 131.659 268.535 129.676 267.333 127.646C264.803 123.352 261.009 120.573 256.543 118.621C256.468 118.591 256.352 118.618 256.139 118.634Z" fill="#DB6F4F"/>
<path d="M218.512 160.197C217.341 161.365 216.293 162.308 215.382 163.358C214.117 164.826 212.93 166.356 211.775 167.902C211.384 168.433 211.025 169.073 210.9 169.729C210.244 173.086 209.776 176.474 209.932 179.91C210.026 182.189 210.947 184.266 213.414 184.953C214.273 185.187 215.085 185.593 215.944 185.843C220.941 187.389 226.093 188.076 231.293 188.389C233.651 188.529 236.009 188.654 238.351 188.732C240.772 188.81 243.192 188.998 245.597 188.841C249.313 188.607 253.014 188.154 256.714 187.717C263.554 186.905 270.377 186.062 277.061 184.344C280.121 183.564 282.963 182.252 285.883 180.737C285.649 179.91 285.446 179.176 285.227 178.426C283.869 173.679 282.401 168.964 281.167 164.201C280.496 161.609 278.997 159.844 276.842 158.486C276.327 158.158 275.765 157.908 275.171 157.596C274.906 158.049 274.672 158.33 274.547 158.658C273.298 161.952 271.674 165.044 269.893 168.089C268.957 169.697 268.535 170.041 266.458 168.932C266.224 168.807 266.021 168.636 265.834 168.448C264.163 166.793 262.508 165.107 260.821 163.467C260.103 162.78 259.353 162.109 258.541 161.546C257.292 160.672 256.933 160.734 256.183 162.031C254.856 164.342 253.545 166.684 252.311 169.042C250.984 171.571 250.297 171.774 248.111 169.791C245.581 167.496 243.145 165.107 240.693 162.733C239.273 161.359 239.007 161.375 237.664 162.78C236.618 163.889 235.494 164.919 234.447 166.012C232.995 167.527 231.543 169.042 230.153 170.603C229.232 171.649 227.717 171.712 226.812 170.588C225.047 168.386 223.314 166.153 221.549 163.936C220.666 162.816 219.768 161.724 218.699 160.424L218.512 160.197Z" fill="#DB6F4F"/>
<path d="M212.29 72.2913C212.259 73.6342 212.259 75.0863 212.196 76.5385C212.102 78.6309 211.853 80.739 211.868 82.8314C211.868 85.3454 211.946 87.875 212.227 90.3734C212.632 93.7805 214.385 96.6761 216.127 99.5543L216.147 99.5862C216.912 100.851 218.021 101.882 219.363 102.522C221.393 103.49 223.455 104.411 225.547 105.223C229.404 106.722 233.464 107.284 237.555 107.581C240.069 107.753 242.614 107.675 245.112 107.925C251.921 108.596 258.495 107.893 264.944 105.473C268.301 104.208 271.127 102.288 273.282 99.5238C275.187 97.0878 276.077 94.1366 276.389 91.0448C276.655 88.4059 276.42 85.7982 275.999 83.2061C275.546 80.3642 275.171 77.4911 274.734 74.6491C274.547 73.4624 274.234 72.2913 274.063 71.1045C273.828 69.4962 274.515 68.9809 276.139 69.1683C277.482 69.3244 278.872 69.2932 280.215 69.1683C281.074 69.0902 281.979 68.8091 282.713 68.3563C285.415 66.6543 286.773 62.0791 284.009 58.6282C283.322 57.7693 282.51 57.3634 281.449 57.379C279.262 57.4102 277.357 58.0192 275.749 59.6119C274.64 60.7206 274.297 60.6581 273.032 59.7993C272.782 59.6275 272.501 59.4558 272.22 59.3621C271.377 59.0966 270.83 58.5345 270.315 57.8162C268.129 54.8025 266.958 51.2891 265.474 47.9319C264.584 45.9332 264.116 43.7627 263.444 41.6703C263.257 41.0925 262.992 40.5304 262.695 39.7809C262.055 40.1869 261.586 40.4992 261.118 40.7959C258.9 42.2793 256.777 43.9345 254.45 45.2305C251.015 47.1355 247.392 48.6502 243.801 50.2273C240.241 51.7888 236.712 53.3815 233.136 54.9118C230.872 55.8799 228.592 56.8793 226.234 57.5663C223.782 58.2846 221.222 58.6438 218.692 59.1591L213.164 60.2834L212.868 60.6737C213.149 60.8143 213.555 60.8767 213.68 61.1109C213.867 61.4232 214.007 62.0947 213.867 62.204C213.555 62.4382 213.008 62.5475 212.633 62.4538C212.149 62.3289 211.759 61.8605 211.29 61.6575C210.541 61.3452 209.745 60.9236 208.964 60.9079C206.512 60.8611 203.592 62.7974 202.749 65.8111C201.797 69.1839 204.404 72.7285 207.746 72.4943C208.402 72.4474 209.073 72.1976 209.682 71.9009C210.525 71.4793 211.275 71.4324 212.321 72.3069L212.29 72.2913Z" fill="#FFE7D9"/>
<path d="M252.655 110.501C247.226 110.623 242 109.299 236.556 110.095C236.509 110.673 236.446 111.235 236.431 111.797C236.384 114.374 236.462 116.95 236.274 119.511C236.118 121.697 236.306 123.789 237.133 125.819C238.96 130.254 243.301 132.409 247.923 131.113C249.984 130.535 251.405 129.161 252.108 127.178C252.951 124.789 253.326 122.275 253.263 119.745C253.201 117.278 253.092 114.811 252.951 112.359C252.92 111.75 252.764 111.157 252.655 110.501Z" fill="#FFE7D9"/>
<path d="M254.825 84.9554C255.996 84.7836 256.652 85.2052 257.167 86.1889C257.698 87.1883 258.307 88.2189 259.744 88.1877C259.994 88.1877 260.275 88.7966 260.774 89.4212C259.634 89.5774 258.869 89.796 258.135 89.7492C257.417 89.7023 257.042 89.999 256.761 90.5299C255.372 93.2469 252.982 94.9333 250.344 96.1044C247.83 97.2287 245.081 98.1344 242.255 97.8065C237.867 97.2912 234.104 95.4955 231.574 91.6854C231.2 91.1076 230.825 90.9047 230.185 90.9359C229.669 90.9515 229.123 90.9827 228.639 90.8266C228.311 90.7173 227.827 90.2332 227.858 90.0146C227.92 89.6398 228.342 89.0933 228.654 89.0621C230.185 88.8747 231.231 87.9222 232.277 86.9853C232.699 86.6105 233.058 86.1421 233.37 85.658C233.776 85.0334 234.26 84.9866 234.853 85.2676C235.447 85.5487 235.587 86.0328 235.306 86.5793C234.932 87.2664 234.526 87.9378 234.026 88.5312C233.151 89.5774 233.136 89.6398 233.901 90.8266C235.025 92.5755 236.696 93.606 238.554 94.3868C242.864 96.2137 246.908 95.3705 250.671 92.9346C251.999 92.0758 253.061 90.7485 254.169 89.5618C254.887 88.7966 255.153 87.8441 254.684 86.7979C254.419 86.2046 254.247 85.5956 254.809 84.971L254.825 84.9554Z" fill="#1D262D"/>
<path d="M255.481 66.5137C255.387 68.4031 255.137 70.2613 254.388 72.0258C253.919 73.1345 253.045 73.5717 251.936 73.681C250.843 73.7903 250.109 73.1969 249.656 72.3069C247.798 68.6061 247.455 64.7804 249.048 60.9235C249.61 59.565 251.077 59.3933 252.358 59.2527C253.56 59.1278 254.154 59.9554 254.497 60.9704C255.122 62.7661 255.543 64.5931 255.465 66.5137H255.481Z" fill="#1D262D"/>
<path d="M236.712 68.8713C236.571 69.6677 236.462 70.8232 236.181 71.9319C235.837 73.306 234.744 73.9618 233.433 74.196C232.168 74.4303 230.825 73.6651 230.481 72.3847C229.935 70.3235 229.201 68.2467 229.56 66.0606C229.857 64.1868 230.918 62.5941 231.855 61.017C232.449 60.0176 234.323 60.2831 235.072 61.4854C235.681 62.438 235.993 63.5622 236.431 64.6241C236.493 64.7646 236.462 64.9364 236.462 65.0925C236.54 66.248 236.618 67.3879 236.727 68.8869L236.712 68.8713Z" fill="#1D262D"/>
<path d="M242.442 83.8305C240.615 83.8461 238.804 82.6125 238.211 80.7699C238.055 80.2859 237.789 79.63 238.445 79.4114C238.913 79.2553 239.522 79.4114 240.038 79.5676C240.287 79.6456 240.444 80.0204 240.647 80.2702C241.74 81.5819 242.958 81.7693 244.332 80.7855C244.8 80.4576 245.175 80.0048 245.597 79.63C245.862 79.3958 246.143 79.0367 246.455 79.0054C246.986 78.943 247.642 78.9274 248.032 79.2084C248.235 79.3646 248.142 80.2078 247.939 80.6294C246.893 82.8467 245.066 83.8617 242.442 83.8305Z" fill="#1D262D"/>
<path d="M207.277 67.9035C207.793 66.8885 208.308 65.8111 208.901 64.7961C209.167 64.3277 209.667 64.3277 210.151 64.5931C210.822 64.9523 211.275 65.7174 210.916 66.2639C210.291 67.2008 209.557 68.0753 208.761 68.8872C208.573 69.0902 207.965 68.9965 207.621 68.8872C207.449 68.8248 207.418 68.3719 207.277 67.9347V67.9035Z" fill="#1D262D"/>
<path d="M280.371 65.3115C280.199 65.577 280.028 66.0142 279.715 66.186C279.497 66.2953 279.013 66.1079 278.763 65.9205C278.045 65.4052 277.357 64.8431 276.702 64.2497C276.249 63.8437 275.874 63.2347 276.358 62.7507C276.686 62.4072 277.498 62.1417 277.873 62.3291C278.919 62.8131 279.809 63.5783 280.246 64.7182C280.309 64.8587 280.309 65.0149 280.371 65.3115Z" fill="#1D262D"/>
<path d="M219.801 77.4282C220.659 77.4751 221.3 78.1153 221.284 78.9117C221.268 79.4738 220.503 80.0672 219.816 80.0515C219.129 80.0359 218.286 79.1459 218.333 78.4901C218.38 77.8186 218.989 77.3814 219.801 77.4282Z" fill="#1D262D"/>
<path d="M263.335 72.2909C262.633 72.2909 262.117 71.76 262.148 71.1197C262.195 70.4639 262.929 69.8081 263.663 69.7612C264.288 69.73 265.006 70.4483 264.959 71.0573C264.912 71.6507 264.069 72.2909 263.335 72.2909Z" fill="#1D262D"/>
<path d="M267.411 73.79C268.207 73.79 268.863 74.3209 268.847 74.9299C268.847 75.6951 268.332 76.1947 267.536 76.1947C266.739 76.1947 266.037 75.617 266.005 74.9143C265.974 74.2273 266.536 73.7744 267.395 73.7744L267.411 73.79Z" fill="#1D262D"/>
<path d="M227.171 76.0075C227.983 76.0388 228.607 76.5228 228.623 77.1162C228.639 77.8189 228.17 78.2717 227.452 78.2405C226.609 78.2093 225.875 77.6471 225.875 77.0225C225.875 76.3823 226.39 75.9763 227.171 76.0075Z" fill="#1D262D"/>
<path d="M223.517 71.9946C224.516 71.9946 225.36 72.7285 225.36 73.3063C225.36 73.884 224.782 74.3056 224.001 74.2744C223.314 74.2432 222.361 73.4312 222.596 72.9471C222.799 72.5099 223.314 72.1976 223.517 71.9946Z" fill="#1D262D"/>
<path d="M260.29 76.4443C259.619 76.4443 259.104 75.929 259.119 75.2732C259.119 74.7423 259.775 74.0864 260.322 74.0552C260.993 74.0084 261.649 74.633 261.633 75.2888C261.633 76.0227 261.118 76.4599 260.29 76.4599V76.4443Z" fill="#1D262D"/>
<path d="M255.996 33.9874C256.871 33.1911 257.729 33.1286 258.541 33.1755C260.025 33.2535 261.477 33.3316 262.851 32.6446C262.992 32.5821 263.226 32.7226 263.523 32.7851C263.366 34.5652 261.836 34.6745 260.774 34.8619C259.228 35.1429 257.48 35.5489 255.996 33.9874Z" fill="#1D262D"/>
<path d="M266.646 29.2253C266.474 29.5845 266.333 30.0529 266.052 30.4277C265.709 30.8961 265.131 30.7868 264.975 30.2403C264.725 29.3971 264.491 28.5539 264.256 27.6951C264.178 27.3984 263.975 27.0392 264.069 26.7894C264.21 26.3834 264.475 25.915 264.819 25.7432C265.006 25.6495 265.662 26.0086 265.787 26.3053C266.146 27.211 266.364 28.1791 266.661 29.2253H266.646Z" fill="#1D262D"/>
<path d="M264.147 30.8176C263.929 30.9737 263.507 31.4578 263.241 31.3797C262.289 31.1299 261.368 30.677 260.868 29.7401C260.524 29.0999 260.774 28.6002 261.446 28.4285C262.273 28.2255 264.163 29.7089 264.131 30.8019L264.147 30.8176Z" fill="#1D262D"/>
<path d="M272.314 35.6429C271.596 36.7203 270.705 36.2675 269.972 36.0957C269.363 35.9396 268.816 35.4711 268.301 35.0807C268.191 35.0027 268.223 34.4718 268.348 34.4093C268.676 34.2063 269.128 33.9408 269.441 34.0345C270.471 34.3156 271.533 34.6591 272.298 35.6585L272.314 35.6429Z" fill="#1D262D"/>
<path d="M268.441 39.4843C267.27 38.8754 266.864 37.876 266.552 36.8298C266.489 36.6268 266.755 36.2833 266.942 36.0803C267.02 36.0022 267.442 36.049 267.489 36.1583C267.957 37.064 268.832 37.7823 268.754 38.9378C268.754 39.0783 268.613 39.2033 268.426 39.5L268.441 39.4843Z" fill="#1D262D"/>
<path d="M100.063 110.147C96.8837 111.036 93.7587 111.453 91.5362 108.544C89.5292 105.904 89.4888 102.873 91.415 100.179C93.5162 97.2562 96.493 96.5962 99.8874 98.0375C100.467 95.9362 100.978 93.9696 101.558 92.03C102.851 87.7062 105.181 83.9481 107.888 80.3921C109.869 77.779 112.172 75.4756 114.704 73.4282C115.916 72.4449 117.439 71.8523 118.839 71.1249C123.473 68.7408 128.443 67.3803 133.508 66.3431C133.589 66.3297 133.656 66.2488 133.831 66.1276C133.75 65.8448 133.683 65.4945 133.548 65.1847C133.346 64.7268 133.077 64.3092 132.875 63.8512C132.552 63.1239 132.673 62.5312 133.158 62.2887C133.643 62.0463 134.276 62.2483 134.666 62.8545C135.003 63.3798 135.259 63.9725 135.542 64.5382C135.73 64.9423 135.892 65.3598 136.135 65.939C137.603 65.7101 139.057 65.4945 140.607 65.2521C140.687 63.8647 140.351 62.6389 140.162 61.4132C140.122 61.1034 139.987 60.8071 139.933 60.4838C139.798 59.5813 140.054 59.1233 140.714 59.0156C141.374 58.9078 141.98 59.3658 142.102 60.174C142.263 61.2516 142.344 62.3426 142.452 63.4202C142.506 63.9455 142.56 64.4708 142.614 65.1174C144.001 65.05 145.254 64.9827 146.506 64.9153C147.059 64.8884 147.328 64.5517 147.341 64.0263C147.382 63.07 147.422 62.1271 147.409 61.1707C147.395 59.6217 147.759 58.9752 148.661 59.0425C149.429 59.1099 149.672 59.7699 149.537 61.292C149.443 62.3696 149.375 63.4471 149.281 64.7268C149.901 64.7672 150.52 64.8076 151.126 64.8615C153.201 65.05 155.289 65.1578 157.349 65.4541C159.41 65.737 161.417 66.3027 163.343 67.1648C165.647 68.202 168.018 69.1314 170.334 70.1416C174.577 72.0004 177.81 74.9503 180.033 79.0721C181.474 81.7525 182.834 84.4734 183.75 87.356C184.828 90.7369 185.245 94.2525 184.531 97.8085C184.505 97.9297 184.558 98.0644 184.585 98.3069C184.895 98.2934 185.191 98.3069 185.474 98.253C189.192 97.4583 192.91 99.7616 193.583 104.112C193.691 104.84 193.624 105.702 193.341 106.375C192.815 107.668 192.209 108.961 191.401 110.079C190.485 111.346 189.044 111.844 187.454 111.898C186.148 111.938 184.841 112.019 183.602 112.073C183.036 113.635 182.605 115.171 181.959 116.599C180.652 119.441 179.063 122.135 176.854 124.411C176.786 124.479 176.705 124.533 176.665 124.6C175.291 126.742 173.069 127.711 170.954 128.829C168.678 130.042 166.415 131.348 163.882 131.954C161.821 132.453 159.72 132.87 157.619 133.153C155.464 133.449 153.295 133.544 151.126 133.705C150.251 133.773 149.766 134.15 149.497 135.025C148.89 136.979 148.904 138.932 149.173 140.777C150.965 141.329 152.595 141.841 154.238 142.353C156.447 143.04 158.036 144.549 159.41 146.34C160.043 147.162 160.676 147.983 161.363 148.765C163.438 151.149 164.879 153.897 166.091 156.806C167.91 161.184 168.974 165.75 169.998 170.357C170.994 174.882 171.277 179.408 171.156 184.002C171.062 187.719 170.846 191.423 170.711 195.128C170.658 196.528 170.59 197.943 170.698 199.344C170.779 200.381 170.415 201.041 169.472 201.337C168.354 201.701 167.223 202.064 166.064 202.253C162.077 202.886 158.09 203.425 154.09 204.031C153.282 204.152 152.5 204.476 151.706 204.516C149.268 204.664 146.83 204.718 144.378 204.799C142.519 204.853 140.66 204.866 138.802 204.893C137.94 204.893 137.077 204.866 136.215 204.866C133.952 204.866 131.69 204.96 129.427 204.826C125.44 204.597 121.493 203.95 117.668 202.738C116.118 202.253 114.516 201.876 112.953 201.445C112.428 201.297 111.916 201.135 111.404 200.933C110.151 200.448 109.384 199.613 108.98 198.253C107.565 193.552 107.053 188.783 107.444 183.894C107.686 180.957 107.619 177.994 107.996 175.085C108.387 172.04 109.006 169.01 109.747 166.019C110.596 162.638 111.579 159.271 113.182 156.16C114.758 153.102 116.442 150.085 118.88 147.606C121.682 144.764 124.847 142.488 128.834 141.585C129.225 141.491 129.602 141.289 130.006 141.222C131.056 141.073 131.487 140.413 131.514 139.444C131.555 137.814 131.582 136.184 131.514 134.554C131.461 133.342 131.312 133.194 130.167 133.086C124.86 132.614 120.146 130.378 115.405 128.183C112.28 126.728 109.572 124.681 107.053 122.418C104.602 120.209 102.622 117.542 101.571 114.295C101.127 112.922 100.561 111.602 99.9952 110.093L100.063 110.147ZM136.835 67.9864C136.754 68.2558 136.727 68.431 136.66 68.5926C136.525 68.9024 136.431 69.3469 136.188 69.4547C135.69 69.6836 135.501 69.2257 135.326 68.835C135.057 68.2289 134.545 68.1211 133.966 68.2424C133.037 68.4309 132.08 68.5656 131.178 68.862C127.783 69.9934 124.362 71.0576 121.048 72.3911C118.328 73.4956 115.741 74.9503 113.734 77.2132C113.101 77.9271 112.455 78.641 111.714 79.2337C110.367 80.2978 109.451 81.6852 108.562 83.0995C107.794 84.3253 107.107 85.6049 106.313 86.8037C104.858 88.9858 104.063 91.4373 103.282 93.8888C102.716 95.6533 102.366 97.4852 101.921 99.2767C101.733 100.058 101.356 100.745 100.521 100.974C99.7931 101.176 99.3756 100.664 98.958 100.152C98.4192 99.5057 97.6514 98.9669 96.8298 99.142C95.2134 99.4922 93.6644 100.179 92.9236 101.796C91.9537 103.883 92.048 105.944 93.5836 107.776C93.853 108.099 94.2705 108.45 94.6746 108.517C96.3449 108.786 98.0151 108.867 99.4968 107.763C100.507 107.008 100.494 107.062 101.517 107.628C102.339 108.072 102.393 108.8 102.514 109.568C102.635 110.376 102.73 111.184 102.985 111.952C103.336 113.029 103.78 114.08 104.252 115.104C104.992 116.72 105.976 118.161 107.161 119.508C109.128 121.758 111.471 123.522 114.004 125.044C116.253 126.391 118.462 127.819 121.062 128.466C121.547 128.587 121.978 128.856 122.449 129.004C124.133 129.53 125.803 130.136 127.514 130.5C129.198 130.863 130.935 130.917 132.632 131.187C136.081 131.739 139.556 131.941 143.058 131.847C148.177 131.712 153.282 131.375 158.373 130.782C160.676 130.513 162.939 130.082 165.041 128.991C166.011 128.493 167.007 128.062 167.991 127.604C170.388 126.499 172.705 125.246 174.537 123.307C175.493 122.297 176.248 121.098 177.069 119.966C178.712 117.717 179.925 115.252 180.639 112.544C180.854 111.763 181.191 111.022 181.514 110.281C181.757 109.729 182.349 109.554 182.767 109.81C183.642 110.308 184.531 110.133 185.407 110.106C187.751 110.039 189.623 109.123 190.606 106.86C191.347 105.176 191.63 103.506 190.472 101.836C189.098 99.8694 186.714 99.5461 184.976 101.176C184.747 101.391 184.545 101.634 184.329 101.876C183.858 102.402 183.319 102.388 182.726 102.078C182.134 101.769 182.013 101.324 182.174 100.704C182.242 100.462 182.336 100.071 182.215 99.9637C181.514 99.3306 181.703 98.711 182.066 98.0105C182.201 97.7546 182.147 97.4044 182.161 97.1081C182.188 96.6097 182.134 96.0978 182.201 95.6129C182.605 92.9998 182.228 90.4271 181.366 87.989C180.154 84.5273 178.632 81.2003 176.679 78.0618C175.237 75.745 173.23 74.0882 170.967 72.7413C168.839 71.4616 166.549 70.4514 164.152 69.7106C163.236 69.4277 162.36 69.0775 161.471 68.7273C158.791 67.6766 156.016 67.057 153.133 66.9897C151.328 66.9493 149.537 66.828 147.719 67.1378C146.223 67.3938 144.647 67.2321 143.112 67.2995C142.398 67.3264 141.671 67.4477 140.957 67.515C139.569 67.6632 138.182 67.7979 136.795 67.946L136.835 67.9864ZM127.581 144.549C127.029 144.616 126.827 144.589 126.679 144.67C124.429 145.936 122.315 147.296 120.55 149.303C118.664 151.459 117.317 153.87 115.93 156.294C113.909 159.823 112.791 163.743 111.835 167.649C111.094 170.72 110.731 173.886 110.38 177.038C110.097 179.597 110.111 182.197 109.949 184.769C109.653 189.214 110.098 193.538 111.673 197.741C111.943 198.468 112.307 198.886 113.02 199.101C114.502 199.532 115.97 199.99 117.439 200.448C118.179 200.677 118.88 201.027 119.634 201.189C123.082 201.916 126.531 202.684 130.1 202.603C132.767 202.536 135.448 202.671 138.128 202.684C139.354 202.684 139.475 202.576 139.448 201.364C139.421 200.515 139.219 199.667 139.165 198.818C139.031 196.596 138.963 194.387 138.842 192.164C138.815 191.504 138.734 190.831 138.667 189.982C137.077 190.022 135.582 190.103 134.101 190.063C132.794 190.036 131.487 189.901 130.194 189.74C129.831 189.699 129.319 189.457 129.198 189.16C128.861 188.406 128.659 187.584 128.497 186.776C128.47 186.615 128.794 186.359 128.996 186.184C129.332 185.887 129.777 185.685 130.046 185.335C131.245 183.799 132.417 182.25 133.562 180.674C134.357 179.57 135.084 178.425 135.852 177.307C136.539 176.31 137.293 175.34 137.94 174.317C138.829 172.889 139.084 172.741 140.674 173.158C143.098 173.778 145.523 174.276 148.055 173.791C149.389 173.536 150.089 174.209 150.17 175.61C150.264 177.24 150.332 178.87 150.372 180.499C150.48 184.486 150.493 188.487 150.695 192.474C150.817 194.777 151.207 197.054 151.504 199.344C151.625 200.219 151.84 201.081 152.015 201.903C155.262 201.472 158.319 201.108 161.363 200.664C163.061 200.408 164.758 200.084 166.428 199.694C167.896 199.344 168.004 199.182 168.058 197.633C168.22 192.663 168.691 187.706 168.691 182.708C168.691 177.913 168.273 173.226 167.223 168.552C166.213 164.026 164.987 159.581 163.007 155.378C162.293 153.87 161.377 152.455 160.407 151.095C159.303 149.546 158.023 148.145 156.865 146.636C155.113 144.387 152.648 143.767 149.739 143.336C150.87 144.656 151.786 145.761 152.716 146.852C154.251 148.657 154.898 150.825 154.507 153.061C154.036 155.755 152.231 157.735 150.116 159.392C148.688 160.51 147.005 161.049 145.281 161.494C142.977 162.086 140.647 162.154 138.263 161.965C135.677 161.763 133.292 161.036 130.989 159.945C129.13 159.056 127.878 157.52 126.827 155.782C125.736 153.991 125.453 152.078 125.736 150.031C125.992 148.185 126.356 146.38 127.581 144.549ZM133.831 133.894C133.845 134.581 133.885 135.295 133.872 136.009L133.872 136.01C133.831 137.72 133.791 139.431 133.697 141.141C133.656 141.882 133.306 142.447 132.686 142.959C131.595 143.848 130.625 144.858 129.642 145.869C129.305 146.219 129.023 146.663 128.861 147.121C128.268 148.845 127.81 150.583 128.053 152.442C128.376 154.947 129.75 156.779 131.797 158.099C132.619 158.624 133.589 158.988 134.545 159.204C138.128 160.039 141.725 160.227 145.267 159.002C148.001 158.059 150.291 156.577 151.49 153.762C152.339 151.755 152.056 149.963 150.857 148.253C150.345 147.512 149.699 146.865 149.092 146.192C147.853 144.831 146.708 143.431 146.641 141.477C146.601 140.575 146.533 139.673 146.574 138.784C146.641 137.221 146.789 135.672 146.897 134.136C142.654 134.056 138.357 133.975 133.831 133.894Z" fill="#1D262D"/>
<path d="M127.581 144.549C127.029 144.616 126.827 144.589 126.679 144.67C124.429 145.936 122.315 147.296 120.55 149.303C118.664 151.459 117.317 153.87 115.93 156.294C113.909 159.823 112.791 163.743 111.835 167.649C111.094 170.72 110.731 173.886 110.38 177.038C110.097 179.597 110.111 182.197 109.949 184.769C109.653 189.214 110.098 193.538 111.673 197.741C111.943 198.468 112.307 198.886 113.02 199.101C114.502 199.532 115.97 199.99 117.439 200.448C118.179 200.677 118.88 201.027 119.634 201.189C123.082 201.916 126.531 202.684 130.1 202.603C132.767 202.536 135.448 202.671 138.128 202.684C139.354 202.684 139.475 202.576 139.448 201.364C139.421 200.515 139.219 199.667 139.165 198.818C139.031 196.596 138.963 194.387 138.842 192.164C138.815 191.504 138.734 190.831 138.667 189.982C137.077 190.022 135.582 190.103 134.101 190.063C132.794 190.036 131.487 189.901 130.194 189.74C129.831 189.699 129.319 189.457 129.198 189.16C128.861 188.406 128.659 187.584 128.497 186.776C128.47 186.615 128.794 186.359 128.996 186.184C129.332 185.887 129.777 185.685 130.046 185.335C131.245 183.799 132.417 182.25 133.562 180.674C134.357 179.57 135.084 178.425 135.852 177.307C136.539 176.31 137.293 175.34 137.94 174.317C138.829 172.889 139.084 172.741 140.674 173.158C143.098 173.778 145.523 174.276 148.055 173.791C149.389 173.536 150.089 174.209 150.17 175.61C150.264 177.24 150.332 178.87 150.372 180.499C150.48 184.486 150.493 188.487 150.695 192.474C150.817 194.777 151.207 197.054 151.504 199.344C151.625 200.219 151.84 201.081 152.015 201.903C155.262 201.472 158.319 201.108 161.363 200.664C163.061 200.408 164.758 200.084 166.428 199.694C167.896 199.344 168.004 199.182 168.058 197.633C168.22 192.663 168.691 187.706 168.691 182.708C168.691 177.913 168.273 173.226 167.223 168.552C166.213 164.026 164.987 159.581 163.007 155.378C162.293 153.87 161.377 152.455 160.407 151.095C159.303 149.546 158.023 148.145 156.865 146.636C155.113 144.387 152.648 143.767 149.739 143.336C150.87 144.656 151.786 145.761 152.716 146.852C154.251 148.657 154.898 150.825 154.507 153.061C154.036 155.755 152.231 157.735 150.116 159.392C148.688 160.51 147.005 161.049 145.281 161.494C142.977 162.086 140.647 162.154 138.263 161.965C135.677 161.763 133.292 161.036 130.989 159.945C129.13 159.056 127.878 157.52 126.827 155.782C125.736 153.991 125.453 152.078 125.736 150.031C125.992 148.185 126.356 146.38 127.581 144.549Z" fill="#DBB550"/>
<path d="M136.835 67.9864C136.754 68.2558 136.727 68.431 136.66 68.5926C136.525 68.9024 136.431 69.3469 136.188 69.4547C135.69 69.6836 135.501 69.2257 135.326 68.835C135.057 68.2289 134.545 68.1211 133.966 68.2424C133.037 68.4309 132.08 68.5656 131.178 68.862C127.783 69.9934 124.362 71.0576 121.048 72.3911C118.328 73.4956 115.741 74.9503 113.734 77.2132C113.101 77.9271 112.455 78.641 111.714 79.2337C110.367 80.2978 109.451 81.6852 108.562 83.0995C107.794 84.3253 107.107 85.6049 106.313 86.8037C104.858 88.9858 104.063 91.4373 103.282 93.8888C102.716 95.6533 102.366 97.4852 101.921 99.2767C101.733 100.058 101.356 100.745 100.521 100.974C99.7931 101.176 99.3756 100.664 98.958 100.152C98.4192 99.5057 97.6514 98.9669 96.8298 99.142C95.2134 99.4922 93.6644 100.179 92.9236 101.796C91.9537 103.883 92.048 105.944 93.5836 107.776C93.853 108.099 94.2705 108.45 94.6746 108.517C96.3449 108.786 98.0151 108.867 99.4968 107.763C100.507 107.008 100.494 107.062 101.517 107.628C102.339 108.072 102.393 108.8 102.514 109.568C102.635 110.376 102.73 111.184 102.985 111.952C103.336 113.029 103.78 114.08 104.252 115.104C104.992 116.72 105.976 118.161 107.161 119.508C109.128 121.758 111.471 123.522 114.004 125.044C116.253 126.391 118.462 127.819 121.062 128.466C121.547 128.587 121.978 128.856 122.449 129.004C124.133 129.53 125.803 130.136 127.514 130.5C129.198 130.863 130.935 130.917 132.632 131.187C136.081 131.739 139.556 131.941 143.058 131.847C148.177 131.712 153.282 131.375 158.373 130.782C160.676 130.513 162.939 130.082 165.041 128.991C166.011 128.493 167.007 128.062 167.991 127.604C170.388 126.499 172.705 125.246 174.537 123.307C175.493 122.297 176.248 121.098 177.069 119.966C178.712 117.717 179.925 115.252 180.639 112.544C180.854 111.763 181.191 111.022 181.514 110.281C181.757 109.729 182.349 109.554 182.767 109.81C183.642 110.308 184.531 110.133 185.407 110.106C187.751 110.039 189.623 109.123 190.606 106.86C191.347 105.176 191.63 103.506 190.472 101.836C189.098 99.8694 186.714 99.5461 184.976 101.176C184.747 101.391 184.545 101.634 184.329 101.876C183.858 102.402 183.319 102.388 182.726 102.078C182.134 101.769 182.013 101.324 182.174 100.704C182.242 100.462 182.336 100.071 182.215 99.9637C181.514 99.3306 181.703 98.711 182.066 98.0105C182.201 97.7546 182.147 97.4044 182.161 97.1081C182.188 96.6097 182.134 96.0978 182.201 95.6129C182.605 92.9998 182.228 90.4271 181.366 87.989C180.154 84.5273 178.632 81.2003 176.679 78.0618C175.237 75.745 173.23 74.0882 170.967 72.7413C168.839 71.4616 166.549 70.4514 164.152 69.7106C163.236 69.4277 162.36 69.0775 161.471 68.7273C158.791 67.6766 156.016 67.057 153.133 66.9897C151.328 66.9493 149.537 66.828 147.719 67.1378C146.223 67.3938 144.647 67.2321 143.112 67.2995C142.398 67.3264 141.671 67.4477 140.957 67.515C139.569 67.6632 138.182 67.7979 136.795 67.946L136.835 67.9864Z" fill="#FFE7D9"/>
<path d="M133.831 133.894C133.845 134.581 133.885 135.295 133.872 136.009L133.872 136.01C133.831 137.72 133.791 139.431 133.697 141.141C133.656 141.882 133.306 142.447 132.686 142.959C131.595 143.848 130.625 144.858 129.642 145.869C129.305 146.219 129.023 146.663 128.861 147.121C128.268 148.845 127.81 150.583 128.053 152.442C128.376 154.947 129.75 156.779 131.797 158.099C132.619 158.624 133.589 158.988 134.545 159.204C138.128 160.039 141.725 160.227 145.267 159.002C148.001 158.059 150.291 156.577 151.49 153.762C152.339 151.755 152.056 149.963 150.857 148.253C150.345 147.512 149.699 146.865 149.092 146.192C147.853 144.831 146.708 143.431 146.641 141.477C146.601 140.575 146.533 139.673 146.574 138.784C146.641 137.221 146.789 135.672 146.897 134.136C142.654 134.056 138.357 133.975 133.831 133.894Z" fill="#FFE7D9"/>
<path d="M124.214 109.932C125.547 110.363 125.776 110.942 125.009 112.074C124.685 112.558 124.281 113.003 123.85 113.542C124.093 113.771 124.295 114.013 124.537 114.161C127.231 115.778 130.194 116.815 133.158 117.785C134.195 118.121 135.232 118.418 136.283 118.728C143.031 120.708 149.254 119.644 154.952 115.535C156.784 114.215 158.629 112.909 160.299 111.185C160.084 110.754 159.895 110.296 159.639 109.891C159.383 109.487 159.383 109.137 159.666 108.76C159.989 108.342 160.407 108.235 160.879 108.437C161.202 108.585 161.539 108.773 161.767 109.029C162.549 109.959 163.303 110.929 164.057 111.885C164.461 112.397 164.084 112.801 163.801 113.326C162.589 112.787 161.794 113.542 160.919 114.215C159.168 115.576 157.471 117.03 155.598 118.189C153.066 119.765 150.412 121.166 147.382 121.624C144.163 122.109 140.93 122.135 137.805 121.314C134.478 120.425 131.205 119.334 127.958 118.189C126.787 117.771 125.736 116.977 124.631 116.357C124.2 116.114 123.742 115.899 123.365 115.576C122.651 114.983 122.005 114.875 121.17 115.441C120.779 115.71 120.132 115.683 119.594 115.657C119.338 115.657 118.934 115.36 118.893 115.158C118.839 114.862 118.961 114.404 119.176 114.215C120.227 113.286 121.331 112.424 122.409 111.521C122.988 111.036 123.54 110.498 124.187 109.905L124.214 109.932Z" fill="#1D262D"/>
<path d="M134.41 96.6905C134.06 97.5257 133.804 98.4551 133.306 99.2363C132.821 99.9906 131.972 100.354 131.043 100.098C129.898 99.7886 128.928 99.1016 128.511 98.0106C128.093 96.933 127.851 95.7476 127.743 94.5892C127.595 93.0941 128.578 91.599 129.831 91.0736C130.652 90.7369 131.407 90.7773 132.148 91.3161C133.023 91.9492 133.656 92.7574 133.926 93.7945C134.155 94.697 134.262 95.6399 134.437 96.6905H134.41Z" fill="#1D262D"/>
<path d="M154.548 93.8353C154.588 95.4517 154.009 96.6909 153.403 97.9032C152.931 98.8326 151.477 99.5061 150.493 99.2906C149.389 99.0481 148.608 98.3342 148.432 97.2027C148.271 96.2329 148.028 95.1688 148.257 94.2529C148.715 92.4075 149.86 90.9393 151.584 90.0503C152.433 89.6058 153.389 90.0503 153.982 91.0201C154.534 91.9495 154.655 92.9732 154.548 93.8488V93.8353Z" fill="#1D262D"/>
<path d="M141.267 107.925C140.135 107.601 139.219 107.359 138.317 107.076C137.845 106.928 137.495 106.618 137.616 106.066C137.737 105.473 138.195 105.19 138.734 105.379C140.674 106.079 142.479 105.594 144.284 104.907C144.405 104.867 144.553 104.853 144.674 104.84C145.429 104.8 146.17 105.244 146.237 105.85C146.318 106.591 145.752 106.955 145.2 107.103C143.853 107.453 142.479 107.682 141.253 107.925H141.267Z" fill="#1D262D"/>
<path d="M171.304 100.018C171.304 100.018 171.304 99.9235 171.318 99.8831C171.385 99.25 171.371 98.5496 172.207 98.4149C172.745 98.3206 173.352 98.9268 173.405 99.8023C173.459 100.732 173.365 101.675 173.257 102.617C173.203 103.102 172.867 103.533 172.328 103.358C172.018 103.264 171.681 102.873 171.6 102.564C171.398 101.742 171.331 100.88 171.21 100.045H171.304V100.018Z" fill="#1D262D"/>
<path d="M117.344 102.927C117.223 103.506 116.954 103.91 116.388 104.004C115.836 104.085 115.553 103.749 115.458 103.25C115.283 102.334 114.677 101.513 114.933 100.502C115.054 100.017 115.189 99.519 115.701 99.546C116.065 99.5594 116.63 99.8827 116.738 100.193C117.048 101.068 117.156 102.011 117.358 102.927H117.344Z" fill="#1D262D"/>
<path d="M112.818 103.709C112.711 103.843 112.522 104.315 112.239 104.382C111.97 104.45 111.498 104.167 111.283 103.911C110.987 103.534 110.771 103.062 110.636 102.591C110.502 102.133 110.448 101.621 110.502 101.136C110.555 100.516 111.162 99.9238 111.62 99.9372C112.064 99.9372 112.562 100.53 112.63 101.19C112.711 101.944 112.751 102.712 112.832 103.709H112.818Z" fill="#1D262D"/>
<path d="M96.0889 106.281C95.9408 106.146 95.4424 105.89 95.3077 105.513C95.2134 105.217 95.5097 104.678 95.7791 104.409C96.291 103.897 96.8837 103.479 97.4763 103.062C98.0421 102.657 98.729 102.994 98.8772 103.695C99.0523 104.543 97.2878 106.416 96.0755 106.281H96.0889Z" fill="#1D262D"/>
<path d="M169.836 101.19C169.701 101.513 169.634 101.957 169.378 102.227C169.122 102.469 168.664 102.644 168.327 102.617C168.139 102.604 167.91 102.132 167.829 101.836C167.667 101.284 167.613 100.705 167.506 100.125C167.371 99.398 167.708 98.765 168.3 98.6303C168.853 98.4956 169.391 98.8323 169.58 99.5327C169.728 100.045 169.755 100.597 169.836 101.203V101.19Z" fill="#1D262D"/>
<path d="M165.808 100.111C165.768 100.61 165.835 100.92 165.714 101.135C165.526 101.445 165.229 101.862 164.946 101.889C164.637 101.916 164.111 101.607 164.017 101.324C163.774 100.664 163.68 99.9228 163.613 99.2224C163.546 98.5893 163.869 98.1987 164.542 98.1314C165.216 98.064 165.566 98.4681 165.728 99.0069C165.849 99.4245 165.795 99.8959 165.808 100.125V100.111Z" fill="#1D262D"/>
<path d="M120.712 103.277C119.419 103.843 119.163 103.735 118.637 102.536C118.503 102.2 118.314 101.89 118.233 101.54C118.125 101.001 118.328 100.529 118.826 100.287C119.338 100.044 119.715 100.368 119.957 100.758C120.429 101.526 120.779 102.348 120.712 103.264V103.277Z" fill="#1D262D"/>
<path d="M187.023 107.803C186.552 107.682 186.08 107.709 185.825 107.48C185.259 106.982 184.707 106.416 184.343 105.769C184.02 105.19 184.639 104.638 185.313 104.8C186.458 105.069 187.225 106.295 187.01 107.817L187.023 107.803Z" fill="#1D262D"/>
<path d="M172.355 82.8705C171.789 83.086 171.183 83.6921 170.617 82.9243C170.442 82.6819 170.442 82.0488 170.617 81.8872C170.94 81.5908 171.52 81.308 171.883 81.4023C172.557 81.5774 172.597 82.2239 172.355 82.8705Z" fill="#1D262D"/>
<path d="M177.204 83.8945C177.19 84.4603 176.719 84.7701 175.884 84.797C175.372 84.8105 174.914 84.3929 174.914 83.908C174.914 83.3692 175.601 82.8843 176.315 82.9382C176.948 82.9786 177.137 83.3962 177.19 83.908L177.204 83.8945Z" fill="#1D262D"/>
<path d="M114.004 83.1539C114.327 82.9249 114.664 82.5613 115.041 82.4804C115.364 82.4131 115.809 82.5882 116.092 82.8037C116.253 82.925 116.321 83.4503 116.199 83.5984C115.984 83.8813 115.58 84.1776 115.256 84.1776C114.731 84.1776 114.219 83.9217 113.99 83.1539H114.004Z" fill="#1D262D"/>
<path d="M173.069 77.3213C173.675 77.3213 173.836 77.7254 173.85 78.2103C173.85 78.7221 173.203 79.2609 172.624 79.234C172.166 79.2071 171.856 79.005 171.829 78.4932C171.802 77.914 172.436 77.3213 173.069 77.3213Z" fill="#1D262D"/>
<path d="M115.135 79.6512C115.027 79.5704 114.61 79.3953 114.502 79.0989C114.34 78.7083 115.041 78.1426 115.58 78.1426C116.092 78.1426 116.469 78.5332 116.388 79.0046C116.294 79.5434 115.93 79.7455 115.135 79.6512Z" fill="#1D262D"/>
<path d="M112.199 83.8804C112.118 84.6482 111.7 84.9849 111.162 84.8906C110.717 84.8098 110.286 84.527 110.502 84.1094C110.677 83.7592 111.189 83.4898 111.606 83.3551C111.754 83.3012 112.064 83.7457 112.212 83.8804H112.199Z" fill="#1D262D"/>
<path d="M114.017 81.4563C113.492 81.7391 113.182 82.0489 112.859 82.0624C112.455 82.0759 111.956 81.7661 112.131 81.3081C112.253 80.9983 112.751 80.7424 113.128 80.6481C113.303 80.6077 113.573 81.0522 114.004 81.4563H114.017Z" fill="#1D262D"/>
<path d="M0.157036 154.416H104.488" stroke="black" stroke-linecap="round"/>
<path d="M168.948 154.416H204.5" stroke="black" stroke-linecap="round"/>
<path d="M286.237 153.086H388.243" stroke="black" stroke-linecap="round"/>
</g>
<defs>
<clipPath id="clip0_297_1909">
<rect width="388" height="178" fill="white"/>
</clipPath>
</defs>
</svg>
