<svg width="229" height="238" viewBox="0 0 229 238" fill="none" xmlns="http://www.w3.org/2000/svg">
<path d="M58.02 1.8356C56.6004 3.39716 56.4585 3.965 56.8843 7.79785L57.3812 12.0566L54.1871 10.708C52.4837 9.92722 49.2186 9.07547 46.8763 8.86252C43.4693 8.50763 42.4756 8.6496 41.056 9.78525C38.7847 11.6307 39.4235 13.1923 44.3211 18.5867C46.5214 20.929 48.1539 22.9164 48.012 23.0583C47.87 23.2003 46.9473 23.6971 46.0955 24.123C43.8952 25.3297 38.9977 29.7303 38.0749 31.4339C37.0102 33.4213 38.3588 35.1957 42.4756 36.9702C46.1665 38.5317 50.7092 38.6737 53.9742 37.3251C54.826 36.9702 55.1809 37.1831 55.1809 38.1059C55.1809 38.8157 56.5295 40.7321 58.162 42.4356L61.1431 45.4167L59.1557 52.7275C56.5295 62.5226 56.4585 62.6646 55.8906 59.0447C55.3938 55.8506 53.6193 53.7922 51.9158 54.502C50.4253 55.0698 50.7092 59.0447 52.7676 64.723L54.613 69.7625L53.3354 78.5639C52.6256 83.3905 51.7739 87.3653 51.4899 87.3653C51.206 87.3653 50.9221 86.4426 50.9221 85.3069C50.9221 80.3384 47.6571 76.0796 45.5277 78.28C44.2501 79.4866 45.0309 81.8289 48.7218 88.7139L51.277 93.3985L50.9221 106.53C50.7092 113.769 50.3543 119.022 49.9994 118.17C49.1476 115.899 45.4567 112.705 44.2501 113.131C41.6949 114.124 43.5403 118.454 49.7155 126.12C51.277 128.036 52.5546 130.733 53.3354 133.857C55.9616 144.29 61.285 153.873 67.6732 159.764C69.8735 161.68 71.435 163.313 71.2221 163.313C70.9382 163.313 68.4539 162.177 65.6148 160.758C60.0784 157.989 55.8906 154.511 55.8906 152.666C55.8906 148.123 51.4899 141.38 49.0767 142.303C47.87 142.729 47.941 145.284 49.2186 148.762C49.9284 150.75 38.9977 140.032 37.791 137.476C37.1522 136.27 36.7263 133.431 36.7263 130.591C36.7263 126.617 36.5134 125.623 35.4487 125.055C33.7452 124.132 32.5386 124.984 31.8997 127.468C31.3319 129.385 31.2609 129.314 29.3445 125.055L27.3571 120.583L30.1963 118.241C35.7326 113.486 41.056 99.7866 41.269 89.9915C41.34 85.5198 41.198 85.023 39.3525 83.3905C38.2879 82.4677 36.7263 81.687 35.9456 81.687C35.2358 81.687 34.597 81.2611 34.597 80.6933C34.597 77.5702 26.6473 76.0086 23.8081 78.6349C22.6725 79.6286 22.3886 79.6996 21.3239 78.7058C18.2718 76.0796 14.155 76.7184 12.0256 80.1254C11.1029 81.7579 10.6061 82.0419 9.68333 81.474C6.48928 79.4866 1.0239 83.7453 0.243126 88.9268C-0.395684 93.0436 0.101169 95.102 3.22424 100.993C7.62494 109.653 15.2907 116.467 22.7435 118.596C25.6536 119.377 26.0795 119.803 27.1442 122.784C28.7057 126.83 32.3966 133.147 36.0875 137.76C37.5781 139.677 38.8557 141.451 38.8557 141.664C38.8557 141.806 37.791 141.38 36.5844 140.6C33.8162 138.896 32.2546 138.825 31.048 140.245C29.2025 142.445 34.8099 146.278 39.8494 146.278C42.2627 146.278 44.7469 147.768 52.4837 153.873C54.542 155.505 58.162 157.989 60.5043 159.409L64.763 161.964L59.7235 161.467C55.6067 161.112 54.542 161.183 53.5483 162.177C52.0578 163.739 51.9868 165.016 53.5483 166.223C55.1099 167.572 63.4144 167.288 66.9634 165.797C69.7315 164.661 75.2679 164.803 76.1197 166.081C76.2616 166.436 74.4871 167.075 72.0029 167.572C65.5438 168.778 58.4459 171.333 50.9221 174.953L44.3921 178.218L40.3462 175.734C36.0165 173.037 34.1001 172.682 33.3903 174.315C32.7515 176.018 35.2358 178.218 38.2879 178.644C39.7784 178.928 40.9851 179.283 40.9141 179.567C40.9141 179.78 38.5718 181.625 35.8036 183.542L30.6221 187.162L27.2151 185.387C20.6141 181.98 12.3805 182.903 7.90886 187.517C6.13438 189.362 6.0634 189.717 6.84417 191.491C7.55396 193.053 7.55396 193.479 6.63123 193.976C3.79208 195.537 4.99872 203.061 8.26375 204.126C9.32844 204.481 9.54137 205.048 9.25746 207.675C8.90256 210.301 9.1155 211.011 10.748 212.643C12.2386 214.134 13.1613 214.489 14.9358 214.205C16.2844 214.063 17.562 214.276 18.1298 214.844C19.3365 216.05 25.5116 216.121 26.6473 214.985C27.1442 214.489 27.4991 213.495 27.4991 212.714C27.4991 211.437 27.57 211.437 28.9186 212.643C32.0417 215.482 35.3067 212.359 36.4424 205.403C36.9393 202.138 35.0938 193.905 33.1064 190.356C31.7578 188.084 31.7578 187.942 32.9644 187.091C34.1001 186.239 34.2421 186.31 34.455 187.872C34.7389 189.93 36.5844 190.924 37.5071 189.504C37.862 188.936 37.933 187.517 37.791 186.381C37.5781 185.174 37.649 183.897 37.933 183.471C38.5008 182.548 48.7218 176.799 49.7155 176.799C49.9994 176.799 49.2896 178.218 48.083 179.922C45.0309 184.394 45.3148 187.446 48.7218 186.381C50.4253 185.884 53.7613 179.354 53.7613 176.657C53.7613 175.095 54.2581 174.456 56.4585 173.534C60.1494 171.901 68.9508 169.062 69.3057 169.346C69.4476 169.559 68.7378 170.624 67.6732 171.83C65.6148 174.386 65.2599 177.296 66.9634 178.005C68.8088 178.715 70.2284 177.367 72.9256 172.469C74.913 168.778 75.7648 167.855 77.3973 167.713C79.2427 167.501 79.2427 167.572 78.6039 169.346C77.6812 171.688 78.5329 174.953 81.0172 179.212C83.4305 183.329 86.8375 186.239 93.0126 189.291C95.7808 190.711 99.5427 193.053 101.317 194.544C108.415 200.506 120.056 207.888 130.49 213.211C132.264 214.134 138.368 218.038 143.976 221.87C167.966 238.267 192.028 258.567 197.636 267.084C198.629 268.575 199.765 269.781 200.12 269.781C201.965 269.781 193.093 259.347 185.498 252.675C171.231 239.97 141.988 218.18 132.193 212.927C118.636 205.687 111.964 201.499 102.95 194.473C100.536 192.556 95.8518 189.575 92.6578 187.801C87.5473 185.032 82.1529 180.419 82.1529 178.928C82.1529 178.644 83.1466 178.431 84.2822 178.431C85.4889 178.431 86.8375 178.076 87.2634 177.651C88.47 176.444 88.1151 173.534 86.4826 171.191C84.4952 168.423 82.4368 167.784 80.6623 169.417C79.9525 170.056 79.3137 170.269 79.3137 169.914C79.3137 168.139 81.5141 167.359 85.4179 167.784C88.7539 168.139 90.1025 168.778 94.4322 172.043C100.394 176.586 102.666 177.792 109.409 180.064C115.3 182.122 120.482 182.193 124.385 180.419C128.005 178.786 129.212 177.438 131.554 172.185C133.187 168.636 133.542 166.72 133.826 160.261L134.18 152.595L130.632 149.188C128.573 147.201 124.243 144.361 119.772 142.09C115.655 139.961 111.254 137.547 110.048 136.554C108.77 135.631 107.705 135.134 107.705 135.56C107.705 135.915 108.06 136.483 108.415 136.696C109.551 137.405 109.196 140.458 107.634 143.652C106.783 145.284 103.447 149.33 100.253 152.666C96.9875 156.002 93.5805 160.332 92.5868 162.319C90.5284 166.436 89.3927 167.146 86.6245 166.081C85.6308 165.726 83.9273 165.584 82.9336 165.797C80.8043 166.223 78.462 165.087 79.7396 164.165C81.3011 163.171 82.0819 160.616 82.0109 157.209C81.798 150.962 95.071 124.558 100.962 119.377C104.156 116.609 108.415 116.467 114.874 118.88C124.527 122.5 143.763 128.533 145.395 128.462C146.673 128.391 146.46 128.178 144.401 127.681C141.349 126.901 141.207 126.617 138.226 118.596C134.819 109.227 131.341 103.974 123.959 97.2314C120.127 93.7534 116.152 89.2817 114.377 86.5845C112.745 83.9583 110.97 81.616 110.544 81.3321C108.628 80.1254 105.576 74.2342 105.576 71.8209C105.576 68.059 106.428 67.1363 108.131 68.9817C110.048 71.1111 112.461 71.8919 114.164 70.9691C115.442 70.3303 116.294 70.8982 120.836 75.2279C123.747 77.9251 129.709 82.8936 134.109 86.1586C145.324 94.4632 152.422 102.555 165.766 122.145C171.728 130.946 172.864 132.437 173.29 132.011C173.503 131.869 171.019 127.823 167.754 123.139C153.913 102.981 145.324 92.8307 136.949 86.8684C132.193 83.3905 128.999 78.6349 128.999 74.731C128.999 71.8919 129.567 71.6079 131.483 73.5954C133.755 75.8667 137.233 75.9377 137.942 73.7373C138.368 72.3177 139.362 73.0985 147.808 81.687C152.99 86.9394 160.088 93.9663 163.637 97.3023C169.528 102.91 170.167 103.761 172.225 109.298C173.503 112.563 175.277 118.312 176.271 122.074C177.691 127.681 178.826 130.095 182.375 135.489C184.717 139.109 186.847 141.877 187.06 141.735C187.273 141.522 186.066 139.251 184.363 136.767L181.381 132.082L183.227 128.391C184.717 125.41 185.072 123.707 185.072 119.306C185.072 112.421 182.375 102.413 179.394 98.296C176.129 93.6824 174.922 90.3464 175.419 87.0814C175.703 85.5908 176.058 84.1003 176.2 83.8163C176.413 83.4614 177.762 84.5261 179.323 86.0167C180.814 87.5072 182.659 88.7849 183.369 88.7849C184.717 88.8558 194.442 102.555 197.849 109.369C199.907 113.344 200.475 120.512 199.268 127.823C198.842 130.733 197.991 136.199 197.423 139.89C195.009 155.363 196.003 161.041 205.94 189.575C210.696 203.132 212.754 207.959 215.238 211.578C219.426 217.754 239.797 242.312 240.294 241.816C240.507 241.603 240.152 240.822 239.584 240.183C234.332 234.079 219.852 216.192 217.368 212.643C215.593 210.23 213.535 206.752 212.754 204.906C209.986 198.66 199.339 166.862 198.203 161.609C196.713 154.369 196.855 151.672 199.055 137.193C201.398 122.003 201.54 114.621 199.41 110.008C197.849 106.317 184.363 85.9457 181.594 82.8936C177.62 78.5639 174 81.9709 174.567 89.5656C174.78 92.9016 175.419 94.4632 177.549 97.6572C183.582 106.388 186.066 121.79 182.375 127.965C181.736 129.03 181.027 129.953 180.743 129.953C179.749 129.953 178.826 128.036 177.974 124.274C176.626 118.667 173.148 108.162 171.444 104.826C169.102 100.212 167.399 98.296 161.365 93.2565C158.171 90.6303 152.138 84.81 147.879 80.4093C136.452 68.5558 132.832 66.4265 129.709 69.7625C128.147 71.466 127.792 76.0086 128.999 79.1317C129.425 80.3384 129.425 80.9772 128.999 80.9772C128.573 80.9772 124.385 77.1443 119.701 72.4597C115.016 67.7751 110.686 63.9422 110.119 63.9422C107.989 63.9422 106.428 65.3618 105.221 68.3429C103.659 72.2468 104.724 76.2216 108.415 80.4803C109.835 82.1128 112.532 85.7328 114.306 88.5009C116.436 91.766 119.559 95.173 122.966 97.9411C128.502 102.555 131.057 105.749 134.251 111.995C136.523 116.538 139.788 125.126 139.362 125.481C139.078 125.836 124.456 121.151 114.448 117.531C106.144 114.55 103.092 115.26 97.7682 121.222C94.9291 124.416 85.063 143.439 81.3721 152.808C80.5913 154.866 79.2427 157.634 78.462 158.912C77.6102 160.261 77.1843 161.964 77.3973 162.958C77.5392 164.094 77.3973 164.732 76.8294 164.732C75.3389 164.732 67.6732 158.699 64.976 155.434C61.6399 151.317 56.6004 142.09 56.6004 140.032C56.6004 139.109 57.5941 136.199 58.7298 133.502C61.569 127.043 61.498 123.565 58.5878 123.565C57.0973 123.565 55.1809 127.255 55.1809 130.237C55.1809 131.23 54.8969 132.153 54.542 132.366C52.4127 133.715 50.9221 106.601 52.9805 103.052C53.4774 102.129 55.3228 99.6446 57.0263 97.5863C60.0074 93.8953 61.427 89.9205 60.5753 87.7202C60.3623 87.1523 59.8655 86.6555 59.4396 86.6555C58.233 86.6555 55.4648 89.9915 53.8323 93.2565C52.6256 95.8118 52.4127 95.9537 52.4127 94.4632C52.3417 90.4174 54.542 77.9251 55.6067 76.0796C56.2455 75.0149 58.162 73.2405 59.9364 72.1048C63.2725 70.0464 64.905 67.6331 64.1952 65.7877C63.4854 63.9422 61.427 64.5101 58.5169 67.2782C56.4585 69.2656 55.8197 69.6205 56.1036 68.5558C56.3875 67.7751 57.0263 64.8649 57.6651 62.1677C58.3039 59.3996 59.4396 54.9989 60.2204 52.3727C61.427 48.3268 61.8529 47.6171 62.8466 47.972C67.0343 49.7464 69.0927 48.6108 72.2868 42.9324L74.5581 39.0286L76.0487 40.4482C78.32 42.5775 81.1592 43.4293 86.8375 43.5003C94.3612 43.6422 95.0001 42.7195 93.4385 33.7762C93.2256 32.7824 93.5805 32.2856 94.7161 32.1436C96.7036 31.8597 100.607 28.2398 100.607 26.7492C100.607 25.0457 97.4133 22.0646 95.6389 22.0646C94.2903 22.0646 94.4322 21.7807 96.6326 19.6513C99.4008 17.0961 99.6847 15.9604 98.2651 13.973C97.2004 12.4825 89.1088 11.2758 86.6245 12.1985C85.063 12.7664 84.992 12.6244 84.992 9.64331C84.992 6.02338 83.2175 3.61008 80.5913 3.61008C78.6749 3.61008 73.0676 6.09436 71.3641 7.65588C70.6543 8.29471 69.9445 8.6496 69.8735 8.50763C69.7315 8.36569 68.7378 6.73315 67.6732 4.8877C64.763 -0.293762 61.0721 -1.42941 58.02 1.8356ZM63.6983 1.8356C66.6085 3.32617 69.2347 9.21744 69.8025 15.3926C70.1574 18.8706 70.0155 20.5741 69.4476 20.929C69.0218 21.2129 68.4539 20.858 68.241 20.1482C67.4602 17.6639 65.7567 14.115 65.4728 14.3989C65.3308 14.5408 65.6148 15.9604 66.1826 17.451C67.8861 22.2066 67.3892 22.3485 63.9113 18.5157C59.1557 13.3342 58.02 10.9919 58.02 6.66217C58.02 3.68106 58.3039 2.75833 59.5816 1.90659C61.498 0.557983 61.2141 0.557983 63.6983 1.8356ZM83.6434 6.94611C85.063 10.779 83.7854 14.115 78.9588 19.0835C73.9193 24.265 72.2868 24.4069 74.4162 19.5094C75.1969 17.8059 75.7648 15.7475 75.5518 15.1087C75.4099 14.3989 74.984 15.0377 74.4871 16.7412C73.6354 19.7933 71.8609 22.6324 71.2931 22.0646C71.0801 21.8517 70.7962 19.0835 70.7253 15.8895C70.5833 11.7727 70.7962 9.78525 71.506 8.9335C73.1385 7.01709 77.3973 5.10065 80.2364 5.02966C82.5078 5.02966 83.0046 5.31357 83.6434 6.94611ZM53.9742 11.7727C57.0263 13.1923 64.4081 19.6513 64.4081 20.787C64.4081 21.2839 64.1242 21.2839 63.4854 20.787C62.0658 19.5804 55.8906 17.0961 55.8906 17.7349C55.8906 18.0188 57.8071 19.1545 60.1494 20.2901C65.3308 22.7744 65.9697 24.6199 61.427 23.9101C59.7235 23.6262 56.3875 23.2003 53.9032 22.9164C50.0704 22.4195 49.1476 21.9936 46.5924 19.5094C42.9725 15.9604 40.7011 12.4115 41.269 10.9919C41.9078 9.43036 50.2833 9.92722 53.9742 11.7727ZM96.9875 14.6118C98.3361 15.9604 97.3424 18.2318 94.6452 19.9353C92.3029 21.3548 88.328 22.2776 81.0882 23.0583L77.5392 23.4842L80.3784 22.1356C81.9399 21.3548 84.2113 20.716 85.4889 20.716C86.6955 20.645 87.9731 20.2901 88.1861 19.9353C88.8249 18.9415 85.134 19.0835 82.0109 20.2192C80.5203 20.787 79.3137 20.9999 79.3137 20.716C79.3137 20.5031 80.9462 18.5867 82.9336 16.4573L86.6245 12.6954L91.3092 13.1923C93.8644 13.4762 96.4196 14.115 96.9875 14.6118ZM68.6669 23.4842C68.6669 23.8391 69.0218 24.194 69.4476 24.194C69.8025 24.194 69.9445 23.8391 69.7315 23.4842C69.0218 22.3485 71.9319 22.6324 72.9256 23.8391C74.0613 25.2587 73.4934 27.459 72.0029 27.1751C71.3641 27.0331 70.7962 27.3171 70.7962 27.7429C70.7962 28.1688 70.4413 28.3108 70.0864 28.0978C69.6606 27.8139 69.5896 27.3171 69.8025 26.8912C70.0864 26.4653 69.7315 26.3234 68.7378 26.6783C67.1053 27.1751 66.0406 25.6846 66.8214 23.8391C67.2473 22.6324 68.6669 22.3485 68.6669 23.4842ZM96.2777 23.5552C98.9749 24.5489 100.182 26.3943 98.9749 27.8849C96.4906 30.937 92.1609 32.1436 89.2508 30.5821C88.47 30.1562 85.5599 29.5174 82.7917 29.2335C76.0487 28.3817 75.1259 27.2461 81.4431 27.601C84.7791 27.8139 86.4116 27.672 86.4116 27.1041C86.4116 26.6073 84.6371 26.3234 81.656 26.3234C75.6938 26.2524 76.8294 25.4006 84.7081 23.981C91.948 22.6324 93.5095 22.6324 96.2777 23.5552ZM60.8592 24.9748L64.763 25.8975L60.8592 26.4653C58.7298 26.8202 56.6714 27.388 56.2455 27.8139C55.7487 28.3817 56.3165 28.5237 58.233 28.1688C59.7235 27.8849 61.427 27.459 61.9948 27.2461C62.6336 27.0331 61.0011 28.9496 58.3749 31.5048C52.7676 37.1122 50.0704 38.2478 45.5277 36.9702C41.9788 35.9765 38.8557 33.8471 38.8557 32.3566C38.8557 30.937 45.7407 24.9748 48.3669 24.194C50.8511 23.4132 55.1809 23.6971 60.8592 24.9748ZM67.0343 32.8534C66.2536 34.7699 66.1826 35.5506 66.7504 35.3377C67.2473 35.1957 67.8861 33.7762 68.241 32.1436C68.6669 30.5111 69.1637 29.1625 69.4476 29.1625C69.7315 29.1625 70.6543 30.2272 71.435 31.5758C73.4934 34.9118 73.3515 39.2415 71.1511 43.0744C68.5249 47.6171 65.6148 48.8237 63.3434 46.3394C62.7046 45.7006 60.8592 43.7842 59.2976 42.1517C55.4648 38.2478 55.3938 35.7636 58.8718 32.2856C61.9948 29.0915 66.6085 27.388 67.5312 28.9496C67.8861 29.5884 67.6732 31.0789 67.0343 32.8534ZM83.7854 30.5821C88.7539 30.5821 92.5868 33.5632 93.2966 37.9639C93.8644 41.7258 92.7287 42.6485 87.5473 42.6485C85.134 42.6485 82.0819 42.3646 80.8043 41.9387C77.8941 41.087 74.3452 37.8929 74.3452 36.1185C74.3452 35.4087 73.7064 33.4922 72.9256 32.0017C71.3641 28.9496 71.9319 28.3108 74.0613 30.6531C75.5518 32.3566 80.6623 35.1248 81.2301 34.5569C81.4431 34.415 80.5203 33.7052 79.1717 33.0664C76.6875 31.7887 73.6354 29.2335 73.6354 28.4527C73.6354 28.1688 75.3389 28.5237 77.3973 29.2335C79.3847 29.9433 82.2948 30.5111 83.7854 30.5821ZM54.4711 57.2702C55.3228 59.4705 55.3938 65.3618 54.542 65.3618C53.7613 65.3618 51.419 57.0573 51.9868 56.1345C52.7676 54.9279 53.7613 55.3538 54.4711 57.2702ZM113.668 67.3492C116.365 70.4013 112.603 71.466 109.338 68.5558C107.421 66.8524 107.421 66.7104 108.699 65.7167C110.19 64.581 111.538 65.0069 113.668 67.3492ZM62.9885 67.0653C62.9885 68.2719 61.9948 69.4786 59.4396 71.324C55.4648 74.2342 54.826 74.4471 55.8197 72.6017C56.8843 70.6142 61.6399 65.3618 62.3497 65.3618C62.7046 65.3618 62.9885 66.1426 62.9885 67.0653ZM135.671 70.5433C137.162 71.6079 136.949 74.0922 135.387 74.4471C134.038 74.66 131.128 72.1048 131.128 70.6852C131.128 69.3366 133.968 69.2656 135.671 70.5433ZM20.2592 79.2737C23.0984 81.1901 24.163 84.3132 23.7372 89.0688C23.5242 91.4821 23.0274 94.1793 22.6725 95.173C21.8917 97.1604 21.8917 97.1604 20.1172 91.2691C19.0526 87.7912 18.9816 87.7912 19.3365 90.5593C19.4784 92.1209 19.8333 94.1083 20.1172 94.96C20.4012 96.0957 20.2592 96.5925 19.6204 96.5216C18.3428 96.4506 12.5935 84.7391 12.5935 82.2548C12.5935 78.7768 17.0651 77.0023 20.2592 79.2737ZM32.5386 79.6286C33.3193 80.4093 33.8162 81.616 33.6032 82.2548C33.4613 82.8936 33.1064 84.3132 32.8935 85.3779C32.6805 86.4426 31.19 89.6366 29.6284 92.4758L26.7893 97.6572L27.2151 93.8953C27.57 91.3401 27.4281 90.2044 26.8602 90.2044C26.4344 90.2044 26.0795 91.2691 26.0795 92.6177C26.0795 95.2439 25.5116 97.3023 24.7309 97.3023C24.5179 97.3023 24.305 93.2565 24.305 88.359C24.447 78.5639 24.5889 78.138 28.7767 78.138C30.1253 78.138 31.6158 78.7058 32.5386 79.6286ZM49.0057 81.8999C49.7155 83.3195 50.2123 85.3779 50.0704 86.4426C49.8574 88.288 49.7155 88.217 47.87 84.7391C46.8053 82.6807 45.9536 80.4803 45.9536 79.8415C45.9536 77.996 47.6571 79.0607 49.0057 81.8999ZM13.8711 89.2107C15.8585 92.6177 17.562 95.9537 17.562 96.5216C17.491 97.7282 17.0651 97.3023 13.2323 92.2628C12.1676 90.9142 11.1029 90.0625 10.748 90.4174C10.4641 90.7013 11.1029 91.837 12.0966 92.9016C13.1613 94.0373 14.013 95.102 14.013 95.3149C14.013 96.2377 9.32844 93.4695 6.27634 90.7723C4.57284 89.2817 2.86935 88.0751 2.58543 88.0751C1.16585 88.0751 2.08858 85.2359 3.93403 83.9583C8.33473 80.8352 9.1155 81.1901 13.8711 89.2107ZM181.311 83.9583C183.227 86.1586 183.866 87.3653 183.014 87.3653C181.878 87.3653 177.974 83.7453 178.4 83.0356C178.968 82.0419 179.749 82.2548 181.311 83.9583ZM38.7847 84.1003C39.4235 84.81 38.5008 86.1586 34.597 90.1335C31.8288 92.9726 29.6284 95.173 29.6284 94.96C29.6284 94.8181 30.7641 92.5467 32.1127 89.9205C33.4613 87.2943 34.597 84.6681 34.597 84.1003C34.597 82.8226 37.72 82.7516 38.7847 84.1003ZM39.6365 95.8828C38.5008 101.916 37.649 103.265 37.72 98.7219C37.791 95.9537 37.5071 94.8891 36.5844 94.3922C35.4487 93.7534 35.5907 93.3985 37.649 90.4884L39.9204 87.2233L40.2043 89.2107C40.2753 90.3464 40.0623 93.3275 39.6365 95.8828ZM59.1557 91.9079C58.5878 94.1083 52.3417 102.129 52.3417 100.638C52.3417 98.7929 55.8197 91.4821 57.5232 89.6366C58.8718 88.217 59.1557 88.146 59.2976 89.1398C59.4396 89.7786 59.3686 91.0562 59.1557 91.9079ZM8.33473 95.031C7.412 95.3859 4.35991 92.6887 3.22424 90.6303C2.79837 89.7786 3.86305 90.4174 5.85047 91.9789C7.69592 93.5405 8.83158 94.8891 8.33473 95.031ZM8.19277 99.2897C9.25746 102.839 14.226 110.504 17.42 113.486C21.1109 117.034 19.7623 116.893 14.8648 113.273C8.26375 108.446 1.23683 97.7992 1.23683 92.6887V90.4174L4.28893 93.4695C5.99242 95.173 7.7669 97.7282 8.19277 99.2897ZM33.8872 93.2565C32.5386 94.5341 31.9707 94.8891 32.4676 94.1083C34.384 91.4111 35.5197 90.2044 35.9456 90.5593C36.1585 90.7723 35.2358 91.9789 33.8872 93.2565ZM36.3004 99.4317C36.1585 103.407 33.1774 112.279 31.2609 114.337C30.4092 115.26 30.3382 115.189 30.906 113.628C31.9707 110.575 32.6095 105.678 31.7578 106.175C31.4029 106.388 31.048 107.452 31.048 108.446C31.048 111.356 30.4802 110.079 29.6994 105.465C29.3445 103.123 28.8477 100.709 28.6347 100.141C28.1379 98.7929 32.9644 95.102 34.9518 95.3859C36.1585 95.5279 36.3714 96.0247 36.3004 99.4317ZM14.4389 97.3733C16.3554 98.509 16.8522 99.2897 16.8522 101.135C16.8522 102.484 17.8459 105.11 19.4074 107.665C20.827 109.937 22.3176 112.492 22.6725 113.273C23.4533 114.692 23.4533 114.692 21.8917 113.344C21.04 112.563 19.6914 110.859 18.9106 109.582C18.1298 108.304 17.1361 107.239 16.7812 107.239C15.9295 107.239 17.9879 110.575 20.6851 113.415C21.8207 114.692 22.4595 115.757 22.0337 115.757C20.6141 115.757 12.9484 106.814 11.0319 102.839C7.62494 96.1667 8.97354 93.9663 14.4389 97.3733ZM26.0795 99.3607C27.0022 100.071 28.0669 101.419 28.2798 102.342C28.9186 104.542 29.0606 114.55 28.4928 116.041C27.8539 117.673 26.7893 117.389 26.7183 115.544C26.7183 114.692 26.2214 112.847 25.6536 111.498L24.6599 109.014L25.0858 112.137C25.3697 114.337 25.2987 115.047 24.7309 114.763C24.305 114.479 23.9501 113.982 23.9501 113.698C23.9501 113.415 22.5305 110.646 20.7561 107.523C17.1361 101.206 16.9232 99.9286 19.1235 98.438C20.898 97.1604 23.4533 97.5153 26.0795 99.3607ZM47.2312 115.97C48.8637 117.744 50.9221 122.145 50.9221 123.99C50.9221 124.984 50.7802 125.055 49.7155 124.203C47.5151 122.358 44.534 117.673 44.534 115.97C44.534 113.911 45.3148 113.911 47.2312 115.97ZM59.4396 127.114C59.4396 129.456 56.6004 136.412 55.8906 135.986C55.2518 135.56 56.3875 127.397 57.3102 125.623C58.3749 123.777 59.4396 124.558 59.4396 127.114ZM35.5907 126.83C35.8036 127.468 36.0165 129.598 36.0165 131.585L35.9456 135.276L34.597 133.573C32.8935 131.585 32.6095 125.694 34.1711 125.694C34.7389 125.694 35.3777 126.191 35.5907 126.83ZM118.352 142.516C128.36 147.555 131.767 150.537 132.619 155.15C133.755 161.112 131.98 170.056 128.573 175.45C123.959 182.832 111.254 182.051 98.62 173.676C90.9543 168.636 90.9543 168.636 100.607 168.494C110.757 168.423 124.598 166.933 125.237 165.939C125.521 165.513 124.811 165.371 123.25 165.655C113.668 167.359 91.5931 168.21 94.9291 166.791C95.4969 166.507 98.4071 165.442 101.317 164.448C106.783 162.532 114.519 158.486 113.88 157.918C113.668 157.705 111.041 158.77 107.989 160.332C102.737 162.958 92.8707 166.507 92.3029 165.939C91.5931 165.158 96.5616 158.06 100.82 153.731C106.712 147.839 109.835 143.226 109.835 140.387C109.835 139.251 110.048 138.47 110.402 138.612C110.686 138.683 114.306 140.529 118.352 142.516ZM38.0039 142.516C41.198 144.574 41.7658 145.568 39.7074 145.568C38.0039 145.568 32.2546 142.587 31.8997 141.451C31.4029 139.89 34.8809 140.529 38.0039 142.516ZM52.0578 145.213C53.4774 147.343 55.3228 153.376 54.542 153.376C52.8386 153.376 49.5025 147.981 49.5025 145.284C49.5025 142.942 50.5672 142.942 52.0578 145.213ZM80.0235 162.319C77.8941 164.803 77.1134 162.603 79.1717 159.764L80.3784 157.989L80.5913 159.622C80.7333 160.545 80.4494 161.751 80.0235 162.319ZM64.763 163.455L67.6022 164.236L65.4728 165.158C63.0595 166.223 56.0326 166.436 54.542 165.513C53.9742 165.158 53.7613 164.377 53.9742 163.739C54.542 162.39 60.4333 162.177 64.763 163.455ZM71.577 173.037C69.8025 176.586 68.17 178.005 67.1763 177.012C66.0406 175.876 66.8924 173.889 69.8735 170.837C73.0676 167.572 73.8483 168.636 71.577 173.037ZM85.3469 171.617C87.2634 173.747 87.6182 175.308 86.2696 176.657C84.921 178.005 82.9336 177.651 81.0172 175.734C79.3137 174.031 79.3137 173.889 80.3784 171.83C81.727 169.204 83.0046 169.133 85.3469 171.617ZM39.2816 176.231C40.7721 177.083 41.5529 177.934 41.127 178.076C39.9204 178.431 35.5907 176.87 34.597 175.663C33.1774 174.031 36.1585 174.386 39.2816 176.231ZM52.3417 178.005C50.7802 183.258 48.083 187.02 47.0183 185.387C46.5214 184.535 46.6634 184.181 49.7865 179.496C52.2707 175.663 53.2644 175.166 52.3417 178.005ZM16.1424 185.316C14.013 186.097 12.1676 186.736 12.0966 186.736C11.9547 186.736 11.8837 187.304 11.8837 187.942C11.8837 189.22 8.47669 191.349 7.69592 190.569C6.27634 189.149 14.6519 183.826 18.2008 183.968C19.5494 183.968 18.9106 184.394 16.1424 185.316ZM21.4658 186.026C21.2529 186.381 20.5431 186.736 19.9753 186.736C19.4074 186.736 19.1235 187.091 19.3365 187.446C19.6204 187.942 20.1882 187.942 21.1109 187.446C21.8207 187.091 22.8854 186.736 23.3823 186.736C23.8791 186.736 22.2466 187.872 19.6914 189.291L15.1487 191.846L13.8001 190.214C12.6644 188.865 12.6644 188.51 13.5162 187.588C15.1487 186.026 22.3886 184.535 21.4658 186.026ZM36.5134 188.297C36.3004 188.794 36.1585 188.439 36.1585 187.446C36.1585 186.452 36.3004 186.097 36.5134 186.523C36.6553 187.02 36.6553 187.872 36.5134 188.297ZM28.9186 187.942C28.9186 188.226 27.9249 189.504 26.6473 190.782C25.3697 192.059 24.7309 193.124 25.0858 193.124C25.5116 193.124 26.5763 192.343 27.4991 191.349C28.4218 190.356 29.4155 189.575 29.7704 189.575C31.4029 189.575 29.4865 196.673 27.0732 199.299C25.3697 201.216 25.2987 201.287 24.447 199.867C23.9501 199.086 22.1756 197.099 20.4012 195.395L17.2781 192.272L18.9816 190.924C21.9627 188.723 28.9186 186.594 28.9186 187.942ZM13.3033 191.349C14.084 192.272 13.8001 192.414 11.4578 192.414C8.90256 192.343 8.7606 192.272 10.0382 191.349C11.8127 190.001 12.2386 190.001 13.3033 191.349ZM12.0966 195.04C9.47039 196.815 10.2512 197.667 12.8774 196.034C17.491 193.195 17.9879 194.26 14.3679 199.015C10.2512 204.41 6.20536 204.126 6.20536 198.447C6.20536 195.75 7.90886 194.047 10.819 193.692C13.6582 193.337 14.013 193.763 12.0966 195.04ZM33.4613 194.26C33.6742 194.898 33.8872 197.383 33.8872 199.867C33.8872 202.351 33.6742 204.835 33.4613 205.474C32.7515 207.391 30.5511 206.752 28.9896 204.126L27.57 201.641L28.9896 199.157C29.8414 197.809 30.6221 196.673 30.8351 196.673C31.048 196.673 31.048 197.809 30.906 199.157C30.7641 200.506 30.8351 201.641 31.119 201.641C31.8288 201.641 32.7515 195.537 32.1837 194.189C31.9707 193.621 32.1127 193.124 32.3966 193.124C32.7515 193.124 33.2484 193.621 33.4613 194.26ZM17.2071 200.151C14.8648 204.835 15.8585 204.835 18.5557 200.151C21.5368 194.827 22.2466 196.673 19.9753 203.842C18.9816 207.107 17.704 210.514 17.1361 211.366C15.7165 213.566 13.0193 213.424 11.1739 211.082C9.39941 208.81 9.68333 206.61 12.3096 203.416C13.3033 202.209 15.0777 199.938 16.3554 198.234C19.1945 194.402 19.6204 195.395 17.2071 200.151ZM23.1693 204.055C23.0274 205.403 23.1693 206.752 23.4533 207.036C23.7372 207.32 23.9501 206.539 23.9501 205.332C23.9501 204.055 24.234 203.061 24.5889 203.061C25.2987 203.061 26.0795 207.249 26.0795 211.366V214.418H22.6015C20.6141 214.418 18.9106 214.134 18.6977 213.779C18.2008 212.998 22.0337 201.712 22.7435 201.641C23.0984 201.641 23.2403 202.777 23.1693 204.055ZM34.1001 209.307C32.6095 212.359 29.8414 213.566 30.6931 210.727C30.977 209.875 31.9707 208.384 32.8935 207.462C33.8162 206.539 34.6679 205.474 34.6679 204.977C34.7389 204.481 34.8809 204.694 35.0938 205.403C35.2358 206.042 34.8099 207.817 34.1001 209.307ZM29.9833 209.236C29.4865 210.443 29.4155 210.443 28.9186 209.094C28.5637 208.313 28.2798 207.178 28.2798 206.61C28.2088 205.758 28.4218 205.829 29.3445 206.752C30.1253 207.533 30.3382 208.384 29.9833 209.236Z" fill="black"/>
</svg>
