<svg width="158" height="289" viewBox="0 0 158 289" fill="none" xmlns="http://www.w3.org/2000/svg">
<g clip-path="url(#clip0_284_183)">
<path d="M19.7648 1.96057C16.4383 5.61969 7.67859 33.7838 2.91066 56.5146C-0.970219 74.5884 -0.970219 83.3481 2.91066 94.2146C4.57389 98.7607 6.23713 103.75 6.56977 105.192C7.12418 107.964 4.57389 133.023 1.58007 153.537C-0.0831616 164.957 -0.0831617 166.066 1.69095 169.393C3.02154 171.943 3.46507 175.38 3.35419 182.144C3.13242 191.126 3.13242 191.347 9.45271 203.766C16.7709 218.292 19.8756 226.719 23.9783 242.242C27.4156 255.659 31.1856 279.277 31.1856 287.482C31.1856 294.246 29.855 296.353 10.118 321.523C0.803896 333.498 -2.07904 338.045 1.80184 334.829C2.68889 334.053 6.01536 329.95 9.23095 325.515C12.4465 321.191 18.2124 313.651 22.0933 308.772C25.9742 304.004 30.1877 298.016 31.4074 295.466C33.7359 291.031 33.7359 291.031 31.74 274.953C28.4136 247.232 20.0974 219.401 9.45271 199.885C4.46301 190.793 3.68683 186.136 5.68271 179.594L6.45889 176.822L7.90036 180.148C8.67653 182.144 9.45271 182.92 9.78536 182.033C10.118 181.257 8.45477 177.598 6.23712 173.939C2.57801 167.951 2.24537 166.732 2.68889 161.52C4.90654 137.791 5.7936 129.475 6.79154 124.264C7.45683 120.937 7.90036 116.502 7.90036 114.506C7.90036 108.629 9.67447 111.18 11.7812 119.939C13.6662 127.812 15.5512 132.691 15.6621 130.03C15.773 126.37 11.6704 112.288 7.23506 101.311C-0.304926 82.1284 -0.304926 77.6931 6.90242 46.5352C11.1159 28.5723 18.6559 5.84146 21.3171 3.1803C23.313 1.18442 23.7565 1.18442 26.6395 2.62589C33.4033 6.1741 35.0665 17.0406 31.6292 35.3362C28.968 49.5291 29.9659 66.8267 33.8468 77.0279C35.51 81.2414 39.3909 91.9969 42.4956 100.868C45.6003 109.738 49.3703 119.385 50.8118 122.49C53.9165 128.588 63.2306 142.227 69.1073 148.99C82.0806 164.292 109.579 160.633 117.119 142.559C118.117 140.231 120.889 129.032 123.218 117.611C128.318 93.3275 132.199 79.9108 135.415 75.3646C138.63 70.9293 139.407 71.1511 138.963 76.3626C137.854 87.7834 146.392 95.6561 154.043 90.2228L156.483 88.5596V101.755C156.483 118.387 154.487 130.03 148.277 149.434C139.85 175.491 139.628 177.155 139.407 206.76C139.074 242.797 138.409 245.014 116.121 284.932C113.171 290.207 111.047 293.984 108.895 297.624C104.171 305.615 99.3125 312.952 85.2962 334.053C75.6494 348.578 67.7768 360.775 67.7768 360.997C67.7768 361.33 68.2203 361.33 68.8856 360.886C70.4379 359.999 109.801 300.899 111.021 297.684C111.575 296.242 116.343 287.482 121.666 278.168C139.407 247.232 141.403 239.914 141.181 205.651C141.07 179.594 141.735 175.38 149.719 150.543C157.148 127.368 158.146 121.492 158.035 100.313C157.924 83.6808 157.591 80.687 155.595 76.1408C151.382 66.7158 143.177 65.1635 135.858 72.4817C131.312 77.0279 126.988 90.4446 121.555 117.5C119.337 128.145 116.343 139.455 115.013 142.559C109.468 154.645 94.0558 160.3 80.6391 155.2L77.6453 154.091L81.0826 149.101C86.2941 141.561 87.292 138.013 85.0744 134.687C82.1914 130.362 77.4235 130.917 71.4359 136.461C68.7747 138.9 66.1135 140.785 65.5591 140.563C65.0047 140.342 62.1218 136.793 59.0171 132.469C52.5859 123.709 52.3641 125.594 62.1218 112.178C71.9903 98.6499 73.3209 96.0996 73.3209 91.7752C73.3209 87.6725 70.4379 83.1264 67.6659 83.1264C65.4482 83.1264 61.6782 85.6767 53.4729 92.7731C48.9268 96.5431 44.935 99.7587 44.4915 99.7587C44.1588 99.7587 42.9391 97.0975 41.9412 93.7711L40.0562 87.7834L45.7112 78.0258C48.9268 72.5925 53.3621 66.1614 55.6906 63.6111C60.5694 58.6214 62.5653 53.1882 61.5674 48.1985C60.6803 43.5414 58.13 39.8823 55.8015 39.8823C53.6947 39.8823 42.6065 46.6461 35.2883 52.412L30.9639 55.7385L31.74 48.0876C32.1836 43.8741 33.1815 36.2232 34.0686 31.0117C34.9556 25.8002 35.6209 20.0344 35.6209 18.2603C35.6209 5.95233 25.5306 -4.47061 19.7648 1.96057ZM58.9062 44.4285C60.3477 47.0897 60.3477 53.8535 58.7953 56.8473C58.13 58.1779 56.0232 60.95 54.0274 62.9458C52.1424 64.9417 48.3724 70.4858 45.6003 75.1429C42.8283 79.7999 40.0562 83.6808 39.5018 83.6808C37.7277 83.6808 32.4053 68.379 32.2944 63.0567C32.2944 57.1799 34.7339 54.4079 47.1527 46.2026C54.8035 41.102 57.0212 40.7694 58.9062 44.4285ZM149.94 70.9294C154.819 73.5905 157.148 84.457 153.6 88.0052C150.938 90.7773 145.949 90.2228 143.288 86.8964C140.959 83.9026 140.072 75.5864 141.624 71.5946C142.4 69.5988 146.725 69.2661 149.94 70.9294ZM71.4359 89.0031C72.8773 93.4384 71.7685 96.654 66.2244 103.418C63.5632 106.744 59.4606 112.288 57.1321 115.726C54.9144 119.163 52.5859 121.603 52.0315 121.048C51.588 120.605 49.703 116.169 47.9288 111.29L44.7133 102.42L54.8035 93.882C66.0026 84.2352 69.5509 83.2372 71.4359 89.0031ZM83.6329 135.352C85.0744 137.57 84.0764 141.561 80.8609 146.329C76.4256 152.76 74.8732 152.982 70.4379 148.214C68.3312 145.886 66.6679 143.557 66.8897 143.114C67.1115 142.559 69.6618 140.12 72.6556 137.57C78.1997 132.691 81.5262 132.025 83.6329 135.352Z" fill="black"/>
<path d="M71.4359 89.0031C72.8773 93.4384 71.7685 96.654 66.2244 103.418C63.5632 106.744 59.4606 112.288 57.1321 115.726C54.9144 119.163 52.5859 121.603 52.0315 121.048C51.588 120.605 49.703 116.169 47.9288 111.29L44.7133 102.42L54.8035 93.882C66.0026 84.2352 69.5509 83.2372 71.4359 89.0031Z" fill="#DEC5B6"/>
<path d="M58.9062 44.4285C60.3477 47.0897 60.3477 53.8535 58.7953 56.8473C58.13 58.1779 56.0232 60.95 54.0274 62.9458C52.1424 64.9417 48.3724 70.4858 45.6003 75.1429C42.8283 79.7999 40.0562 83.6808 39.5018 83.6808C37.7277 83.6808 32.4053 68.379 32.2944 63.0567C32.2944 57.1799 34.7339 54.4079 47.1527 46.2026C54.8035 41.102 57.0212 40.7694 58.9062 44.4285Z" fill="#DEC5B6"/>
<path d="M83.6329 135.352C85.0744 137.57 84.0764 141.561 80.8609 146.329C76.4256 152.76 74.8732 152.982 70.4379 148.214C68.3312 145.886 66.6679 143.557 66.8897 143.114C67.1115 142.559 69.6618 140.12 72.6556 137.57C78.1997 132.691 81.5262 132.025 83.6329 135.352Z" fill="#DEC5B6"/>
<path d="M31.4074 295.466C33.7359 291.031 33.7359 291.031 31.74 274.953C28.4136 247.232 20.0974 219.401 9.45271 199.885C4.46301 190.793 3.68683 186.136 5.68271 179.594L6.45889 176.822L7.90036 180.148C8.67653 182.144 9.45271 182.92 9.78536 182.033C10.118 181.257 8.45477 177.598 6.23712 173.939C2.57801 167.951 2.24537 166.732 2.68889 161.52C4.90654 137.791 5.7936 129.475 6.79154 124.264C7.45683 120.937 7.90036 116.502 7.90036 114.506C7.90036 108.629 9.67447 111.18 11.7812 119.939C13.6662 127.812 15.5512 132.691 15.6621 130.03C15.773 126.37 11.6704 112.288 7.23506 101.311C-0.304926 82.1284 -0.304926 77.6931 6.90242 46.5352C11.1159 28.5723 18.6559 5.84146 21.3171 3.1803C23.313 1.18442 23.7565 1.18442 26.6395 2.62589C33.4033 6.1741 35.0665 17.0406 31.6292 35.3362C28.968 49.5291 29.9659 66.8267 33.8468 77.0279C35.51 81.2414 39.3909 91.9969 42.4956 100.868C45.6003 109.738 49.3703 119.385 50.8118 122.49C53.9165 128.588 63.2306 142.227 69.1073 148.99C82.0806 164.292 109.579 160.633 117.119 142.559C118.117 140.231 120.889 129.032 123.218 117.611C128.318 93.3275 132.199 79.9108 135.415 75.3646C138.63 70.9293 139.407 71.1511 138.963 76.3626C137.854 87.7834 146.392 95.6561 154.043 90.2228L156.483 88.5596V101.755C156.483 118.387 154.487 130.03 148.277 149.434C139.85 175.491 139.628 177.155 139.407 206.76C139.074 242.797 138.409 245.014 116.121 284.932C113.171 290.207 111.047 293.984 108.895 297.624L31.4074 295.466Z" fill="#FFE7D9"/>
</g>
<defs>
<clipPath id="clip0_284_183">
<rect width="158" height="289" fill="white"/>
</clipPath>
</defs>
</svg>
