<svg width="305" height="174" viewBox="0 0 305 174" fill="none" xmlns="http://www.w3.org/2000/svg">
<g clip-path="url(#clip0_240_3568)">
<g filter="url(#filter0_d_240_3568)">
<rect x="3" width="301.793" height="190.076" fill="white"/>
<path d="M119.367 47.5089H116.718C116.142 47.5089 115.697 47.623 115.385 47.8512C115.085 48.0674 114.905 48.3677 114.845 48.7521C115.109 48.6079 115.421 48.5359 115.782 48.5359C116.31 48.5359 116.754 48.698 117.115 49.0223C117.475 49.3466 117.655 49.7911 117.655 50.3556C117.655 50.9322 117.469 51.3946 117.097 51.743C116.724 52.0793 116.232 52.2475 115.619 52.2475C114.815 52.2475 114.172 52.0072 113.692 51.5268C113.223 51.0463 112.989 50.3196 112.989 49.3466C112.989 48.2776 113.295 47.4788 113.908 46.9503C114.52 46.4098 115.349 46.1395 116.394 46.1395H119.367V45.8152C119.367 45.1065 119.175 44.566 118.79 44.1936C118.418 43.8213 117.818 43.6351 116.989 43.6351C116.604 43.6351 116.256 43.6831 115.944 43.7792C115.643 43.8753 115.367 44.0014 115.115 44.1576C114.875 44.3138 114.658 44.4999 114.466 44.7161C114.286 44.9203 114.124 45.1305 113.98 45.3468L112.502 44.0675C112.719 43.7432 112.965 43.4489 113.241 43.1847C113.529 42.9084 113.86 42.6742 114.232 42.482C114.616 42.2898 115.049 42.1396 115.529 42.0315C116.022 41.9234 116.574 41.8694 117.187 41.8694C118.028 41.8694 118.772 41.9895 119.421 42.2297V40.8424H121.727V41.6532C121.727 42.3859 121.463 42.9384 120.935 43.3108C121.427 43.9474 121.673 44.7582 121.673 45.7431V52.0312H119.367V47.5089ZM115.655 51.2385C115.896 51.2385 116.088 51.1664 116.232 51.0223C116.376 50.8661 116.448 50.6559 116.448 50.3917C116.448 50.1274 116.376 49.9232 116.232 49.7791C116.088 49.6229 115.896 49.5448 115.655 49.5448C115.415 49.5448 115.223 49.6229 115.079 49.7791C114.935 49.9232 114.863 50.1274 114.863 50.3917C114.863 50.6559 114.935 50.8661 115.079 51.0223C115.223 51.1664 115.415 51.2385 115.655 51.2385ZM126.407 52.2475C125.747 52.2475 125.206 52.0613 124.786 51.6889C124.377 51.3166 124.173 50.8061 124.173 50.1574C124.173 49.5088 124.377 48.9983 124.786 48.6259C125.206 48.2536 125.747 48.0674 126.407 48.0674H126.515C126.479 47.9713 126.455 47.8752 126.443 47.7791C126.431 47.671 126.425 47.5509 126.425 47.4188V45.9413C125.789 45.9293 125.266 45.7431 124.858 45.3828C124.461 45.0224 124.263 44.53 124.263 43.9054C124.263 43.2687 124.473 42.7703 124.894 42.4099C125.314 42.0496 125.849 41.8694 126.497 41.8694C127.146 41.8694 127.68 42.0496 128.101 42.4099C128.521 42.7703 128.731 43.2687 128.731 43.9054V48.8061L131.65 50.2115H131.74V42.0856H134.047V52.0312H131.867L128.623 50.4457C128.563 51.0103 128.329 51.4547 127.921 51.779C127.524 52.0913 127.02 52.2475 126.407 52.2475ZM126.407 51.1124C126.695 51.1124 126.918 51.0403 127.074 50.8961C127.242 50.74 127.326 50.5418 127.326 50.3016V50.0133C127.326 49.7731 127.242 49.5809 127.074 49.4367C126.918 49.2806 126.695 49.2025 126.407 49.2025C126.119 49.2025 125.891 49.2806 125.723 49.4367C125.566 49.5809 125.488 49.7731 125.488 50.0133V50.3016C125.488 50.5418 125.566 50.74 125.723 50.8961C125.891 51.0403 126.119 51.1124 126.407 51.1124ZM126.443 44.8062C126.695 44.8062 126.9 44.7282 127.056 44.572C127.212 44.4038 127.29 44.1816 127.29 43.9054C127.29 43.6291 127.212 43.4129 127.056 43.2567C126.9 43.0886 126.695 43.0045 126.443 43.0045C126.191 43.0045 125.987 43.0886 125.831 43.2567C125.675 43.4129 125.596 43.6291 125.596 43.9054C125.596 44.1816 125.675 44.4038 125.831 44.572C125.987 44.7282 126.191 44.8062 126.443 44.8062ZM132.191 57.2023C131.674 57.1783 131.254 57.0161 130.93 56.7158C130.605 56.4155 130.443 56.0131 130.443 55.5086C130.443 54.9801 130.617 54.5657 130.966 54.2654C131.314 53.9651 131.758 53.815 132.299 53.815C132.839 53.815 133.284 53.9651 133.632 54.2654C133.981 54.5657 134.155 54.9801 134.155 55.5086V58.7518H132.191V57.2023ZM132.245 56.1753C132.665 56.1753 132.875 55.9531 132.875 55.5086C132.875 55.0642 132.665 54.842 132.245 54.842C131.824 54.842 131.614 55.0642 131.614 55.5086C131.614 55.9531 131.824 56.1753 132.245 56.1753ZM137.426 46.0494C137.426 45.4248 137.54 44.8543 137.769 44.3378C137.997 43.8213 138.327 43.3828 138.759 43.0225C139.192 42.6501 139.714 42.3679 140.327 42.1757C140.952 41.9715 141.648 41.8694 142.417 41.8694C143.186 41.8694 143.876 41.9715 144.489 42.1757C145.114 42.3679 145.642 42.6501 146.075 43.0225C146.507 43.3828 146.837 43.8213 147.066 44.3378C147.294 44.8543 147.408 45.4248 147.408 46.0494V52.0312H145.102V46.2296C145.102 45.4008 144.867 44.7642 144.399 44.3198C143.931 43.8633 143.27 43.6351 142.417 43.6351C141.564 43.6351 140.904 43.8633 140.435 44.3198C139.967 44.7642 139.732 45.4008 139.732 46.2296V50.6079H140.363L141.192 49.6529L141.696 49.2025C141.312 49.0824 141.006 48.8722 140.777 48.5719C140.561 48.2716 140.453 47.8992 140.453 47.4548C140.453 46.8903 140.633 46.4458 140.994 46.1215C141.366 45.7852 141.84 45.617 142.417 45.617C142.994 45.617 143.462 45.7852 143.822 46.1215C144.195 46.4458 144.381 46.8903 144.381 47.4548C144.381 47.7431 144.321 48.0494 144.201 48.3737C144.081 48.686 143.882 48.9983 143.606 49.3106L141.21 52.0312H137.426V46.0494ZM142.417 48.2836C142.657 48.2836 142.843 48.2115 142.976 48.0674C143.12 47.9112 143.192 47.707 143.192 47.4548C143.192 47.2026 143.12 47.0044 142.976 46.8602C142.843 46.7041 142.657 46.626 142.417 46.626C142.177 46.626 141.985 46.7041 141.84 46.8602C141.708 47.0044 141.642 47.2026 141.642 47.4548C141.642 47.707 141.708 47.9112 141.84 48.0674C141.985 48.2115 142.177 48.2836 142.417 48.2836ZM152.842 52.2475C152.193 52.2475 151.659 52.0673 151.238 51.7069C150.818 51.3466 150.608 50.8481 150.608 50.2115V42.0856H152.914V48.1755C153.55 48.1995 154.067 48.3917 154.463 48.7521C154.872 49.1124 155.076 49.5989 155.076 50.2115C155.076 50.8481 154.866 51.3466 154.445 51.7069C154.025 52.0673 153.49 52.2475 152.842 52.2475ZM152.896 51.1124C153.148 51.1124 153.352 51.0343 153.508 50.8781C153.665 50.71 153.743 50.4878 153.743 50.2115C153.743 49.9352 153.665 49.719 153.508 49.5629C153.352 49.3947 153.148 49.3106 152.896 49.3106C152.644 49.3106 152.439 49.3947 152.283 49.5629C152.127 49.719 152.049 49.9352 152.049 50.2115C152.049 50.4878 152.127 50.71 152.283 50.8781C152.439 51.0343 152.644 51.1124 152.896 51.1124ZM158.379 50.3736V45.9413C157.742 45.9293 157.219 45.7431 156.811 45.3828C156.415 45.0224 156.216 44.53 156.216 43.9054C156.216 43.2687 156.427 42.7703 156.847 42.4099C157.267 42.0496 157.802 41.8694 158.451 41.8694C159.099 41.8694 159.634 42.0496 160.054 42.4099C160.475 42.7703 160.685 43.2687 160.685 43.9054V50.3736H162.739C163.279 50.3736 163.7 50.2355 164 49.9592C164.312 49.683 164.468 49.2926 164.468 48.7881V42.0856H166.775V48.734C166.775 49.7911 166.438 50.6079 165.766 51.1844C165.105 51.749 164.174 52.0312 162.973 52.0312H156.937V50.3736H158.379ZM158.397 44.8062C158.649 44.8062 158.853 44.7282 159.009 44.572C159.165 44.4038 159.243 44.1816 159.243 43.9054C159.243 43.6291 159.165 43.4129 159.009 43.2567C158.853 43.0886 158.649 43.0045 158.397 43.0045C158.144 43.0045 157.94 43.0886 157.784 43.2567C157.628 43.4129 157.55 43.6291 157.55 43.9054C157.55 44.1816 157.628 44.4038 157.784 44.572C157.94 44.7282 158.144 44.8062 158.397 44.8062ZM173.966 52.0312V45.3468C173.966 44.8062 173.822 44.3858 173.534 44.0855C173.257 43.7852 172.819 43.6351 172.218 43.6351C171.678 43.6351 171.239 43.7552 170.903 43.9954C170.567 44.2357 170.284 44.53 170.056 44.8783L168.687 43.6891C169.035 43.1366 169.498 42.6982 170.074 42.3739C170.663 42.0375 171.444 41.8694 172.416 41.8694C173.678 41.8694 174.633 42.1637 175.281 42.7522C175.942 43.3288 176.272 44.1636 176.272 45.2567V52.0312H173.966ZM182.145 52.2475C181.496 52.2475 180.962 52.0673 180.541 51.7069C180.121 51.3466 179.91 50.8481 179.91 50.2115V42.8243C179.91 42.5961 179.91 42.3979 179.91 42.2297C179.922 42.0616 179.947 41.9054 179.983 41.7613C180.031 41.6171 180.097 41.485 180.181 41.3649C180.265 41.2448 180.391 41.1186 180.559 40.9865L181.244 40.482C181.592 40.2178 181.838 39.9655 181.982 39.7253C182.139 39.4851 182.217 39.1968 182.217 38.8605C182.217 38.44 182.061 38.1157 181.748 37.8875C181.448 37.6473 181.058 37.5272 180.577 37.5272C180.085 37.5272 179.688 37.6773 179.388 37.9776C179.088 38.2659 178.853 38.6863 178.685 39.2388L176.992 38.3199C177.112 37.9716 177.274 37.6413 177.478 37.329C177.682 37.0167 177.935 36.7464 178.235 36.5182C178.535 36.2779 178.889 36.0918 179.298 35.9596C179.706 35.8155 180.175 35.7434 180.703 35.7434C181.244 35.7434 181.742 35.8095 182.199 35.9416C182.655 36.0737 183.046 36.2599 183.37 36.5002C183.706 36.7404 183.964 37.0347 184.145 37.383C184.325 37.7314 184.415 38.1217 184.415 38.5542C184.415 39.1307 184.289 39.6352 184.036 40.0676C183.784 40.488 183.406 40.8964 182.901 41.2928L182.217 41.8333V48.1755C182.853 48.1995 183.37 48.3917 183.766 48.7521C184.175 49.1124 184.379 49.5989 184.379 50.2115C184.379 50.8481 184.169 51.3466 183.748 51.7069C183.328 52.0673 182.793 52.2475 182.145 52.2475ZM182.199 51.1124C182.451 51.1124 182.655 51.0343 182.811 50.8781C182.967 50.71 183.046 50.4878 183.046 50.2115C183.046 49.9352 182.967 49.719 182.811 49.5629C182.655 49.3947 182.451 49.3106 182.199 49.3106C181.946 49.3106 181.742 49.3947 181.586 49.5629C181.43 49.719 181.352 49.9352 181.352 50.2115C181.352 50.4878 181.43 50.71 181.586 50.8781C181.742 51.0343 181.946 51.1124 182.199 51.1124ZM191.53 52.2475C190.654 52.2475 189.939 52.0373 189.386 51.6168C188.846 51.1844 188.576 50.6019 188.576 49.8691V49.3286H188.504C187.843 49.3286 187.296 49.1484 186.864 48.7881C186.444 48.4277 186.233 47.9293 186.233 47.2926C186.233 46.656 186.444 46.1575 186.864 45.7972C187.296 45.4368 187.843 45.2567 188.504 45.2567C189.164 45.2567 189.705 45.4368 190.125 45.7972C190.558 46.1575 190.774 46.656 190.774 47.2926V49.8151C190.774 50.0673 190.84 50.2595 190.972 50.3917C191.104 50.5238 191.272 50.5898 191.476 50.5898C191.681 50.5898 191.849 50.5238 191.981 50.3917C192.113 50.2595 192.179 50.0673 192.179 49.8151V45.8873C192.179 45.1546 191.945 44.596 191.476 44.2117C191.02 43.8273 190.389 43.6351 189.585 43.6351C188.864 43.6351 188.245 43.7792 187.729 44.0675C187.212 44.3438 186.792 44.7101 186.468 45.1666L185.044 43.8873C185.513 43.2747 186.125 42.7883 186.882 42.4279C187.639 42.0556 188.618 41.8694 189.819 41.8694C191.356 41.8694 192.515 42.2117 193.296 42.8964C194.089 43.569 194.485 44.4879 194.485 45.6531V49.8691C194.485 50.6019 194.209 51.1844 193.657 51.6168C193.116 52.0373 192.407 52.2475 191.53 52.2475ZM188.431 48.1935C188.684 48.1935 188.888 48.1154 189.044 47.9593C189.212 47.7911 189.296 47.5689 189.296 47.2926C189.296 47.0164 189.212 46.8002 189.044 46.644C188.888 46.4759 188.684 46.3918 188.431 46.3918C188.179 46.3918 187.969 46.4759 187.801 46.644C187.645 46.8002 187.567 47.0164 187.567 47.2926C187.567 47.5689 187.645 47.7911 187.801 47.9593C187.969 48.1154 188.179 48.1935 188.431 48.1935Z" fill="black"/>
<g clip-path="url(#clip1_240_3568)">
<path d="M35.4513 91.3549V90.3749H42.5213V91.3549H35.4513ZM43.3673 91.3549V90.3749H50.4373V91.3549H43.3673ZM51.2833 91.3549V90.3749H58.3533V91.3549H51.2833ZM59.1993 91.3549V90.3749H66.2693V91.3549H59.1993ZM67.1153 91.3549V90.3749H74.1853V91.3549H67.1153ZM75.0313 91.3549V90.3749H82.1013V91.3549H75.0313ZM82.9473 91.3549V90.3749H90.0173V91.3549H82.9473ZM90.8634 91.3549V90.3749H97.9334V91.3549H90.8634ZM98.7794 91.3549V90.3749H105.849V91.3549H98.7794ZM106.695 91.3549V90.3749H113.765V91.3549H106.695ZM114.611 91.3549V90.3749H121.681V91.3549H114.611ZM122.527 91.3549V90.3749H129.597V91.3549H122.527ZM130.443 91.3549V90.3749H137.513V91.3549H130.443ZM138.359 91.3549V90.3749H145.429V91.3549H138.359ZM146.275 91.3549V90.3749H153.345V91.3549H146.275ZM154.191 91.3549V90.3749H161.261V91.3549H154.191ZM162.108 91.3549V90.3749H169.178V91.3549H162.108ZM170.024 91.3549V90.3749H177.094V91.3549H170.024ZM177.94 91.3549V90.3749H185.01V91.3549H177.94ZM185.856 91.3549V90.3749H192.926V91.3549H185.856ZM193.772 91.3549V90.3749H200.842V91.3549H193.772ZM201.688 91.3549V90.3749H208.758V91.3549H201.688ZM209.604 91.3549V90.3749H216.674V91.3549H209.604ZM217.52 91.3549V90.3749H224.59V91.3549H217.52ZM225.436 91.3549V90.3749H232.506V91.3549H225.436ZM233.352 91.3549V90.3749H240.422V91.3549H233.352ZM241.268 91.3549V90.3749H248.338V91.3549H241.268ZM249.184 91.3549V90.3749H256.254V91.3549H249.184ZM257.1 91.3549V90.3749H264.17V91.3549H257.1ZM265.016 91.3549V90.3749H272.086V91.3549H265.016ZM35.4513 114.355V113.375H42.5213V114.355H35.4513ZM43.3673 114.355V113.375H50.4373V114.355H43.3673ZM51.2833 114.355V113.375H58.3533V114.355H51.2833ZM59.1993 114.355V113.375H66.2693V114.355H59.1993ZM67.1153 114.355V113.375H74.1853V114.355H67.1153ZM75.0313 114.355V113.375H82.1013V114.355H75.0313ZM82.9473 114.355V113.375H90.0173V114.355H82.9473ZM90.8634 114.355V113.375H97.9334V114.355H90.8634ZM98.7794 114.355V113.375H105.849V114.355H98.7794ZM106.695 114.355V113.375H113.765V114.355H106.695ZM114.611 114.355V113.375H121.681V114.355H114.611ZM122.527 114.355V113.375H129.597V114.355H122.527ZM130.443 114.355V113.375H137.513V114.355H130.443ZM138.359 114.355V113.375H145.429V114.355H138.359ZM146.275 114.355V113.375H153.345V114.355H146.275ZM154.191 114.355V113.375H161.261V114.355H154.191ZM162.108 114.355V113.375H169.178V114.355H162.108ZM170.024 114.355V113.375H177.094V114.355H170.024ZM177.94 114.355V113.375H185.01V114.355H177.94ZM185.856 114.355V113.375H192.926V114.355H185.856ZM193.772 114.355V113.375H200.842V114.355H193.772ZM201.688 114.355V113.375H208.758V114.355H201.688ZM209.604 114.355V113.375H216.674V114.355H209.604ZM217.52 114.355V113.375H224.59V114.355H217.52ZM225.436 114.355V113.375H232.506V114.355H225.436ZM233.352 114.355V113.375H240.422V114.355H233.352ZM241.268 114.355V113.375H248.338V114.355H241.268ZM249.184 114.355V113.375H256.254V114.355H249.184ZM257.1 114.355V113.375H264.17V114.355H257.1ZM265.016 114.355V113.375H272.086V114.355H265.016ZM35.4513 137.355V136.375H42.5213V137.355H35.4513ZM43.3673 137.355V136.375H50.4373V137.355H43.3673ZM51.2833 137.355V136.375H58.3533V137.355H51.2833ZM59.1993 137.355V136.375H66.2693V137.355H59.1993ZM67.1153 137.355V136.375H74.1853V137.355H67.1153ZM75.0313 137.355V136.375H82.1013V137.355H75.0313ZM82.9473 137.355V136.375H90.0173V137.355H82.9473ZM90.8634 137.355V136.375H97.9334V137.355H90.8634ZM98.7794 137.355V136.375H105.849V137.355H98.7794ZM106.695 137.355V136.375H113.765V137.355H106.695ZM114.611 137.355V136.375H121.681V137.355H114.611ZM122.527 137.355V136.375H129.597V137.355H122.527ZM130.443 137.355V136.375H137.513V137.355H130.443ZM138.359 137.355V136.375H145.429V137.355H138.359ZM146.275 137.355V136.375H153.345V137.355H146.275ZM154.191 137.355V136.375H161.261V137.355H154.191ZM162.108 137.355V136.375H169.178V137.355H162.108ZM170.024 137.355V136.375H177.094V137.355H170.024ZM177.94 137.355V136.375H185.01V137.355H177.94ZM185.856 137.355V136.375H192.926V137.355H185.856ZM193.772 137.355V136.375H200.842V137.355H193.772ZM201.688 137.355V136.375H208.758V137.355H201.688ZM209.604 137.355V136.375H216.674V137.355H209.604ZM217.52 137.355V136.375H224.59V137.355H217.52ZM225.436 137.355V136.375H232.506V137.355H225.436ZM233.352 137.355V136.375H240.422V137.355H233.352ZM241.268 137.355V136.375H248.338V137.355H241.268ZM249.184 137.355V136.375H256.254V137.355H249.184ZM257.1 137.355V136.375H264.17V137.355H257.1ZM265.016 137.355V136.375H272.086V137.355H265.016ZM35.4513 155.355V154.375H42.5213V155.355H35.4513ZM43.3673 155.355V154.375H50.4373V155.355H43.3673ZM51.2833 155.355V154.375H58.3533V155.355H51.2833ZM59.1993 155.355V154.375H66.2693V155.355H59.1993ZM67.1153 155.355V154.375H74.1853V155.355H67.1153ZM75.0313 155.355V154.375H82.1013V155.355H75.0313ZM82.9473 155.355V154.375H90.0173V155.355H82.9473ZM90.8634 155.355V154.375H97.9334V155.355H90.8634ZM98.7794 155.355V154.375H105.849V155.355H98.7794ZM106.695 155.355V154.375H113.765V155.355H106.695ZM114.611 155.355V154.375H121.681V155.355H114.611ZM122.527 155.355V154.375H129.597V155.355H122.527ZM130.443 155.355V154.375H137.513V155.355H130.443ZM138.359 155.355V154.375H145.429V155.355H138.359ZM146.275 155.355V154.375H153.345V155.355H146.275ZM154.191 155.355V154.375H161.261V155.355H154.191ZM162.108 155.355V154.375H169.178V155.355H162.108ZM170.024 155.355V154.375H177.094V155.355H170.024ZM177.94 155.355V154.375H185.01V155.355H177.94ZM185.856 155.355V154.375H192.926V155.355H185.856ZM193.772 155.355V154.375H200.842V155.355H193.772ZM201.688 155.355V154.375H208.758V155.355H201.688ZM209.604 155.355V154.375H216.674V155.355H209.604ZM217.52 155.355V154.375H224.59V155.355H217.52ZM225.436 155.355V154.375H232.506V155.355H225.436ZM233.352 155.355V154.375H240.422V155.355H233.352ZM241.268 155.355V154.375H248.338V155.355H241.268ZM249.184 155.355V154.375H256.254V155.355H249.184ZM257.1 155.355V154.375H264.17V155.355H257.1ZM265.016 155.355V154.375H272.086V155.355H265.016Z" fill="#212121"/>
</g>
<rect x="3.75073" y="0.750729" width="300.292" height="188.574" stroke="black" stroke-width="1.50146"/>
</g>
</g>
<defs>
<filter id="filter0_d_240_3568" x="-0.00291705" y="0" width="304.796" height="193.079" filterUnits="userSpaceOnUse" color-interpolation-filters="sRGB">
<feFlood flood-opacity="0" result="BackgroundImageFix"/>
<feColorMatrix in="SourceAlpha" type="matrix" values="0 0 0 0 0 0 0 0 0 0 0 0 0 0 0 0 0 0 127 0" result="hardAlpha"/>
<feOffset dx="-3.00292" dy="3.00292"/>
<feColorMatrix type="matrix" values="0 0 0 0 0 0 0 0 0 0 0 0 0 0 0 0 0 0 1 0"/>
<feBlend mode="normal" in2="BackgroundImageFix" result="effect1_dropShadow_240_3568"/>
<feBlend mode="normal" in="SourceGraphic" in2="effect1_dropShadow_240_3568" result="shape"/>
</filter>
<clipPath id="clip0_240_3568">
<rect width="305" height="192" fill="white"/>
</clipPath>
<clipPath id="clip1_240_3568">
<rect width="237.731" height="82" fill="white" transform="translate(35.0312 76.0449)"/>
</clipPath>
</defs>
</svg>
