<svg width="305" height="229" viewBox="0 0 305 229" fill="none" xmlns="http://www.w3.org/2000/svg">
<g clip-path="url(#clip0_292_358)">
<g filter="url(#filter0_d_292_358)">
<rect x="3" width="301.793" height="293" fill="white"/>
<path d="M91.0032 47.5089H88.3546C87.7781 47.5089 87.3336 47.623 87.0213 47.8512C86.7211 48.0674 86.5409 48.3677 86.4808 48.7521C86.7451 48.6079 87.0574 48.5359 87.4177 48.5359C87.9462 48.5359 88.3907 48.698 88.751 49.0223C89.1114 49.3466 89.2916 49.7911 89.2916 50.3556C89.2916 50.9322 89.1054 51.3946 88.733 51.743C88.3606 52.0793 87.8682 52.2475 87.2556 52.2475C86.4508 52.2475 85.8082 52.0072 85.3277 51.5268C84.8592 51.0463 84.625 50.3196 84.625 49.3466C84.625 48.2776 84.9313 47.4788 85.5439 46.9503C86.1565 46.4098 86.9853 46.1395 88.0303 46.1395H91.0032V45.8152C91.0032 45.1065 90.811 44.566 90.4267 44.1936C90.0543 43.8213 89.4537 43.6351 88.6249 43.6351C88.2405 43.6351 87.8922 43.6831 87.5799 43.7792C87.2796 43.8753 87.0033 44.0014 86.7511 44.1576C86.5108 44.3138 86.2946 44.4999 86.1025 44.7161C85.9223 44.9203 85.7601 45.1305 85.616 45.3468L84.1385 44.0675C84.3548 43.7432 84.601 43.4489 84.8773 43.1847C85.1655 42.9084 85.4959 42.6742 85.8682 42.482C86.2526 42.2898 86.685 42.1396 87.1655 42.0315C87.658 41.9234 88.2105 41.8694 88.8231 41.8694C89.6639 41.8694 90.4086 41.9895 91.0573 42.2297V40.8424H93.3635V41.6532C93.3635 42.3859 93.0992 42.9384 92.5707 43.3108C93.0632 43.9474 93.3095 44.7582 93.3095 45.7431V52.0312H91.0032V47.5089ZM87.2916 51.2385C87.5318 51.2385 87.724 51.1664 87.8682 51.0223C88.0123 50.8661 88.0844 50.6559 88.0844 50.3917C88.0844 50.1274 88.0123 49.9232 87.8682 49.7791C87.724 49.6229 87.5318 49.5448 87.2916 49.5448C87.0514 49.5448 86.8592 49.6229 86.715 49.7791C86.5709 49.9232 86.4988 50.1274 86.4988 50.3917C86.4988 50.6559 86.5709 50.8661 86.715 51.0223C86.8592 51.1664 87.0514 51.2385 87.2916 51.2385ZM98.0434 52.2475C97.3828 52.2475 96.8422 52.0613 96.4218 51.6889C96.0134 51.3166 95.8092 50.8061 95.8092 50.1574C95.8092 49.5088 96.0134 48.9983 96.4218 48.6259C96.8422 48.2536 97.3828 48.0674 98.0434 48.0674H98.1515C98.1155 47.9713 98.0915 47.8752 98.0794 47.7791C98.0674 47.671 98.0614 47.5509 98.0614 47.4188V45.9413C97.4248 45.9293 96.9023 45.7431 96.4939 45.3828C96.0975 45.0224 95.8993 44.53 95.8993 43.9054C95.8993 43.2687 96.1095 42.7703 96.5299 42.4099C96.9503 42.0496 97.4849 41.8694 98.1335 41.8694C98.7821 41.8694 99.3166 42.0496 99.7371 42.4099C100.157 42.7703 100.368 43.2687 100.368 43.9054V48.8061L103.287 50.2115H103.377V42.0856H105.683V52.0312H103.503L100.26 50.4457C100.2 51.0103 99.9653 51.4547 99.5569 51.779C99.1605 52.0913 98.656 52.2475 98.0434 52.2475ZM98.0434 51.1124C98.3317 51.1124 98.5539 51.0403 98.7101 50.8961C98.8782 50.74 98.9623 50.5418 98.9623 50.3016V50.0133C98.9623 49.7731 98.8782 49.5809 98.7101 49.4367C98.5539 49.2806 98.3317 49.2025 98.0434 49.2025C97.7551 49.2025 97.5269 49.2806 97.3587 49.4367C97.2026 49.5809 97.1245 49.7731 97.1245 50.0133V50.3016C97.1245 50.5418 97.2026 50.74 97.3587 50.8961C97.5269 51.0403 97.7551 51.1124 98.0434 51.1124ZM98.0794 44.8062C98.3317 44.8062 98.5359 44.7282 98.692 44.572C98.8482 44.4038 98.9263 44.1816 98.9263 43.9054C98.9263 43.6291 98.8482 43.4129 98.692 43.2567C98.5359 43.0886 98.3317 43.0045 98.0794 43.0045C97.8272 43.0045 97.623 43.0886 97.4669 43.2567C97.3107 43.4129 97.2326 43.6291 97.2326 43.9054C97.2326 44.1816 97.3107 44.4038 97.4669 44.572C97.623 44.7282 97.8272 44.8062 98.0794 44.8062ZM103.827 57.2023C103.311 57.1783 102.89 57.0161 102.566 56.7158C102.241 56.4155 102.079 56.0131 102.079 55.5086C102.079 54.9801 102.254 54.5657 102.602 54.2654C102.95 53.9651 103.395 53.815 103.935 53.815C104.476 53.815 104.92 53.9651 105.268 54.2654C105.617 54.5657 105.791 54.9801 105.791 55.5086V58.7518H103.827V57.2023ZM103.881 56.1753C104.301 56.1753 104.512 55.9531 104.512 55.5086C104.512 55.0642 104.301 54.842 103.881 54.842C103.461 54.842 103.25 55.0642 103.25 55.5086C103.25 55.9531 103.461 56.1753 103.881 56.1753ZM109.062 46.0494C109.062 45.4248 109.176 44.8543 109.405 44.3378C109.633 43.8213 109.963 43.3828 110.396 43.0225C110.828 42.6501 111.351 42.3679 111.963 42.1757C112.588 41.9715 113.284 41.8694 114.053 41.8694C114.822 41.8694 115.513 41.9715 116.125 42.1757C116.75 42.3679 117.278 42.6501 117.711 43.0225C118.143 43.3828 118.474 43.8213 118.702 44.3378C118.93 44.8543 119.044 45.4248 119.044 46.0494V52.0312H116.738V46.2296C116.738 45.4008 116.504 44.7642 116.035 44.3198C115.567 43.8633 114.906 43.6351 114.053 43.6351C113.2 43.6351 112.54 43.8633 112.071 44.3198C111.603 44.7642 111.369 45.4008 111.369 46.2296V50.6079H111.999L112.828 49.6529L113.333 49.2025C112.948 49.0824 112.642 48.8722 112.414 48.5719C112.197 48.2716 112.089 47.8992 112.089 47.4548C112.089 46.8903 112.269 46.4458 112.63 46.1215C113.002 45.7852 113.477 45.617 114.053 45.617C114.63 45.617 115.098 45.7852 115.459 46.1215C115.831 46.4458 116.017 46.8903 116.017 47.4548C116.017 47.7431 115.957 48.0494 115.837 48.3737C115.717 48.686 115.519 48.9983 115.242 49.3106L112.846 52.0312H109.062V46.0494ZM114.053 48.2836C114.293 48.2836 114.48 48.2115 114.612 48.0674C114.756 47.9112 114.828 47.707 114.828 47.4548C114.828 47.2026 114.756 47.0044 114.612 46.8602C114.48 46.7041 114.293 46.626 114.053 46.626C113.813 46.626 113.621 46.7041 113.477 46.8602C113.345 47.0044 113.278 47.2026 113.278 47.4548C113.278 47.707 113.345 47.9112 113.477 48.0674C113.621 48.2115 113.813 48.2836 114.053 48.2836ZM128.298 47.5089H125.649C125.072 47.5089 124.628 47.623 124.316 47.8512C124.015 48.0674 123.835 48.3677 123.775 48.7521C124.039 48.6079 124.352 48.5359 124.712 48.5359C125.241 48.5359 125.685 48.698 126.045 49.0223C126.406 49.3466 126.586 49.7911 126.586 50.3556C126.586 50.9322 126.4 51.3946 126.027 51.743C125.655 52.0793 125.163 52.2475 124.55 52.2475C123.745 52.2475 123.103 52.0072 122.622 51.5268C122.154 51.0463 121.919 50.3196 121.919 49.3466C121.919 48.2776 122.226 47.4788 122.838 46.9503C123.451 46.4098 124.28 46.1395 125.325 46.1395H128.298V45.8152C128.298 45.1065 128.105 44.566 127.721 44.1936C127.349 43.8213 126.748 43.6351 125.919 43.6351C125.535 43.6351 125.187 43.6831 124.874 43.7792C124.574 43.8753 124.298 44.0014 124.045 44.1576C123.805 44.3138 123.589 44.4999 123.397 44.7161C123.217 44.9203 123.055 45.1305 122.91 45.3468L121.433 44.0675C121.649 43.7432 121.895 43.4489 122.172 43.1847C122.46 42.9084 122.79 42.6742 123.163 42.482C123.547 42.2898 123.979 42.1396 124.46 42.0315C124.952 41.9234 125.505 41.8694 126.117 41.8694C126.958 41.8694 127.703 41.9895 128.352 42.2297V40.8424H130.658V41.6532C130.658 42.3859 130.394 42.9384 129.865 43.3108C130.358 43.9474 130.604 44.7582 130.604 45.7431V52.0312H128.298V47.5089ZM124.586 51.2385C124.826 51.2385 125.018 51.1664 125.163 51.0223C125.307 50.8661 125.379 50.6559 125.379 50.3917C125.379 50.1274 125.307 49.9232 125.163 49.7791C125.018 49.6229 124.826 49.5448 124.586 49.5448C124.346 49.5448 124.154 49.6229 124.009 49.7791C123.865 49.9232 123.793 50.1274 123.793 50.3917C123.793 50.6559 123.865 50.8661 124.009 51.0223C124.154 51.1664 124.346 51.2385 124.586 51.2385ZM129.534 40.2658C128.874 40.2658 128.333 40.0856 127.913 39.7253C127.493 39.3529 127.282 38.8364 127.282 38.1758C127.282 37.5151 127.493 37.0047 127.913 36.6443C128.333 36.2719 128.874 36.0858 129.534 36.0858C130.195 36.0858 130.736 36.2719 131.156 36.6443C131.576 37.0047 131.787 37.5151 131.787 38.1758C131.787 38.8364 131.576 39.3529 131.156 39.7253C130.736 40.0856 130.195 40.2658 129.534 40.2658ZM129.534 39.0767C129.799 39.0767 130.003 39.0046 130.147 38.8605C130.291 38.7163 130.363 38.5361 130.363 38.3199V38.0316C130.363 37.8154 130.291 37.6353 130.147 37.4911C130.003 37.347 129.799 37.2749 129.534 37.2749C129.27 37.2749 129.066 37.347 128.922 37.4911C128.778 37.6353 128.706 37.8154 128.706 38.0316V38.3199C128.706 38.5361 128.778 38.7163 128.922 38.8605C129.066 39.0046 129.27 39.0767 129.534 39.0767ZM137.86 52.0312V45.3468C137.86 44.8062 137.716 44.3858 137.428 44.0855C137.152 43.7852 136.713 43.6351 136.113 43.6351C135.572 43.6351 135.134 43.7552 134.797 43.9954C134.461 44.2357 134.179 44.53 133.95 44.8783L132.581 43.6891C132.929 43.1366 133.392 42.6982 133.968 42.3739C134.557 42.0375 135.338 41.8694 136.311 41.8694C137.572 41.8694 138.527 42.1637 139.176 42.7522C139.836 43.3288 140.167 44.1636 140.167 45.2567V52.0312H137.86ZM147.821 52.2475C147.16 52.2475 146.614 52.0673 146.181 51.7069C145.761 51.3466 145.551 50.8421 145.551 50.1935C145.551 49.5568 145.761 49.0584 146.181 48.698C146.602 48.3377 147.136 48.1515 147.785 48.1395V47.8692C147.785 47.6049 147.719 47.4128 147.587 47.2926C147.467 47.1605 147.232 47.0824 146.884 47.0584L142.56 46.7161V45.7251C142.56 45.1245 142.662 44.584 142.866 44.1035C143.07 43.6231 143.359 43.2207 143.731 42.8964C144.115 42.56 144.572 42.3078 145.1 42.1396C145.629 41.9595 146.217 41.8694 146.866 41.8694C147.815 41.8694 148.602 42.0075 149.226 42.2838C149.863 42.548 150.397 42.9264 150.83 43.4189L149.749 44.8963C149.437 44.4879 149.046 44.1636 148.578 43.9234C148.109 43.6711 147.581 43.545 146.992 43.545C146.271 43.545 145.719 43.6952 145.335 43.9954C144.95 44.2957 144.752 44.7282 144.74 45.2927L147.316 45.4729C147.749 45.5089 148.139 45.569 148.488 45.6531C148.836 45.7251 149.124 45.8512 149.352 46.0314C149.593 46.2116 149.773 46.4578 149.893 46.7701C150.025 47.0704 150.091 47.4608 150.091 47.9413V50.1935C150.091 50.8421 149.875 51.3466 149.443 51.7069C149.022 52.0673 148.482 52.2475 147.821 52.2475ZM147.731 49.2566C147.467 49.2566 147.25 49.3406 147.082 49.5088C146.926 49.677 146.848 49.9052 146.848 50.1935C146.848 50.4817 146.926 50.71 147.082 50.8781C147.25 51.0463 147.467 51.1304 147.731 51.1304C147.995 51.1304 148.205 51.0463 148.362 50.8781C148.53 50.71 148.614 50.4817 148.614 50.1935C148.614 49.9052 148.53 49.677 148.362 49.5088C148.205 49.3406 147.995 49.2566 147.731 49.2566ZM157.576 52.2475C156.927 52.2475 156.393 52.0673 155.972 51.7069C155.552 51.3466 155.342 50.8481 155.342 50.2115C155.342 49.5989 155.54 49.1124 155.936 48.7521C156.345 48.3917 156.867 48.1995 157.504 48.1755V45.3648C157.504 44.8122 157.36 44.3858 157.071 44.0855C156.783 43.7852 156.333 43.6351 155.72 43.6351C155.155 43.6351 154.699 43.7552 154.351 43.9954C154.014 44.2357 153.732 44.53 153.504 44.8783L152.134 43.6891C152.483 43.1366 152.951 42.6982 153.54 42.3739C154.14 42.0375 154.927 41.8694 155.9 41.8694C157.185 41.8694 158.158 42.1637 158.819 42.7522C159.48 43.3288 159.81 44.1636 159.81 45.2567V50.2115C159.81 50.8481 159.6 51.3466 159.179 51.7069C158.759 52.0673 158.224 52.2475 157.576 52.2475ZM157.522 51.1124C157.774 51.1124 157.978 51.0343 158.134 50.8781C158.29 50.71 158.369 50.4878 158.369 50.2115C158.369 49.9352 158.29 49.719 158.134 49.5629C157.978 49.3947 157.774 49.3106 157.522 49.3106C157.269 49.3106 157.065 49.3947 156.909 49.5629C156.753 49.719 156.675 49.9352 156.675 50.2115C156.675 50.4878 156.753 50.71 156.909 50.8781C157.065 51.0343 157.269 51.1124 157.522 51.1124ZM168.113 52.2475C167.237 52.2475 166.522 52.0373 165.969 51.6168C165.429 51.1844 165.159 50.6019 165.159 49.8691V49.3286H165.087C164.426 49.3286 163.879 49.1484 163.447 48.7881C163.027 48.4277 162.816 47.9293 162.816 47.2926C162.816 46.656 163.027 46.1575 163.447 45.7972C163.879 45.4368 164.426 45.2567 165.087 45.2567C165.747 45.2567 166.288 45.4368 166.708 45.7972C167.141 46.1575 167.357 46.656 167.357 47.2926V49.8151C167.357 50.0673 167.423 50.2595 167.555 50.3917C167.687 50.5238 167.855 50.5898 168.059 50.5898C168.264 50.5898 168.432 50.5238 168.564 50.3917C168.696 50.2595 168.762 50.0673 168.762 49.8151V45.8873C168.762 45.1546 168.528 44.596 168.059 44.2117C167.603 43.8273 166.972 43.6351 166.168 43.6351C165.447 43.6351 164.828 43.7792 164.312 44.0675C163.795 44.3438 163.375 44.7101 163.051 45.1666L161.627 43.8873C162.096 43.2747 162.708 42.7883 163.465 42.4279C164.222 42.0556 165.201 41.8694 166.402 41.8694C167.939 41.8694 169.098 42.2117 169.879 42.8964C170.672 43.569 171.068 44.4879 171.068 45.6531V49.8691C171.068 50.6019 170.792 51.1844 170.24 51.6168C169.699 52.0373 168.99 52.2475 168.113 52.2475ZM165.014 48.1935C165.267 48.1935 165.471 48.1154 165.627 47.9593C165.795 47.7911 165.879 47.5689 165.879 47.2926C165.879 47.0164 165.795 46.8002 165.627 46.644C165.471 46.4759 165.267 46.3918 165.014 46.3918C164.762 46.3918 164.552 46.4759 164.384 46.644C164.228 46.8002 164.15 47.0164 164.15 47.2926C164.15 47.5689 164.228 47.7911 164.384 47.9593C164.552 48.1154 164.762 48.1935 165.014 48.1935ZM174.27 44.6801C174.27 43.8153 174.565 43.1306 175.153 42.6261C175.754 42.1216 176.577 41.8694 177.622 41.8694L179.441 43.4009L181.261 41.8694C182.306 41.8694 183.123 42.1216 183.712 42.6261C184.312 43.1306 184.612 43.8153 184.612 44.6801V52.0312H182.306V45.0044C182.306 44.62 182.216 44.3258 182.036 44.1216C181.868 43.9054 181.646 43.7672 181.369 43.7072L179.441 45.2927L177.496 43.7072C177.219 43.7672 176.997 43.9054 176.829 44.1216C176.661 44.3258 176.577 44.62 176.577 45.0044V50.6079H177.55L178.216 49.8511L178.721 49.4007C178.336 49.2806 178.03 49.0704 177.802 48.7701C177.586 48.4698 177.478 48.0974 177.478 47.653C177.478 47.0884 177.658 46.644 178.018 46.3197C178.39 45.9834 178.865 45.8152 179.441 45.8152C180.018 45.8152 180.486 45.9834 180.847 46.3197C181.219 46.644 181.405 47.0884 181.405 47.653C181.405 47.9413 181.345 48.2476 181.225 48.5719C181.105 48.8842 180.907 49.1965 180.631 49.5088L178.432 52.0312H174.27V44.6801ZM179.441 48.4818C179.682 48.4818 179.868 48.4097 180 48.2656C180.144 48.1094 180.216 47.9052 180.216 47.653C180.216 47.4008 180.144 47.2026 180 47.0584C179.868 46.9023 179.682 46.8242 179.441 46.8242C179.201 46.8242 179.009 46.9023 178.865 47.0584C178.733 47.2026 178.667 47.4008 178.667 47.653C178.667 47.9052 178.733 48.1094 178.865 48.2656C179.009 48.4097 179.201 48.4818 179.441 48.4818ZM182.93 40.464C181.693 40.464 180.75 40.2538 180.101 39.8334C179.452 39.413 179.128 38.7824 179.128 37.9416C179.128 37.2809 179.32 36.7704 179.705 36.4101C180.089 36.0497 180.588 35.8695 181.2 35.8695C181.801 35.8695 182.275 36.0377 182.623 36.374C182.972 36.6984 183.146 37.1128 183.146 37.6172C183.146 37.9536 183.074 38.2358 182.93 38.4641C182.774 38.6803 182.593 38.8184 182.389 38.8785V38.9145H183.308C184.653 38.9145 185.326 38.1277 185.326 36.5542V36.284H187.596V36.5542C187.596 37.9476 187.194 38.9505 186.389 39.5631C185.584 40.1637 184.431 40.464 182.93 40.464ZM181.182 38.6803C181.699 38.6803 181.957 38.404 181.957 37.8515C181.957 37.2989 181.699 37.0227 181.182 37.0227C180.666 37.0227 180.407 37.2989 180.407 37.8515C180.407 38.404 180.666 38.6803 181.182 38.6803ZM192.037 52.2475C191.389 52.2475 190.854 52.0673 190.434 51.7069C190.013 51.3466 189.803 50.8481 189.803 50.2115C189.803 49.5989 190.001 49.1124 190.398 48.7521C190.806 48.3917 191.329 48.1995 191.965 48.1755V45.3648C191.965 44.8122 191.821 44.3858 191.533 44.0855C191.245 43.7852 190.794 43.6351 190.182 43.6351C189.617 43.6351 189.161 43.7552 188.812 43.9954C188.476 44.2357 188.194 44.53 187.965 44.8783L186.596 43.6891C186.944 43.1366 187.413 42.6982 188.001 42.3739C188.602 42.0375 189.389 41.8694 190.362 41.8694C191.647 41.8694 192.62 42.1637 193.281 42.7522C193.941 43.3288 194.272 44.1636 194.272 45.2567V50.2115C194.272 50.8481 194.061 51.3466 193.641 51.7069C193.22 52.0673 192.686 52.2475 192.037 52.2475ZM191.983 51.1124C192.236 51.1124 192.44 51.0343 192.596 50.8781C192.752 50.71 192.83 50.4878 192.83 50.2115C192.83 49.9352 192.752 49.719 192.596 49.5629C192.44 49.3947 192.236 49.3106 191.983 49.3106C191.731 49.3106 191.527 49.3947 191.371 49.5629C191.215 49.719 191.136 49.9352 191.136 50.2115C191.136 50.4878 191.215 50.71 191.371 50.8781C191.527 51.0343 191.731 51.1124 191.983 51.1124ZM199.72 52.2475C199.072 52.2475 198.537 52.0673 198.117 51.7069C197.696 51.3466 197.486 50.8481 197.486 50.2115V42.0856H199.792V48.1755C200.429 48.1995 200.945 48.3917 201.342 48.7521C201.75 49.1124 201.954 49.5989 201.954 50.2115C201.954 50.8481 201.744 51.3466 201.324 51.7069C200.903 52.0673 200.369 52.2475 199.72 52.2475ZM199.774 51.1124C200.027 51.1124 200.231 51.0343 200.387 50.8781C200.543 50.71 200.621 50.4878 200.621 50.2115C200.621 49.9352 200.543 49.719 200.387 49.5629C200.231 49.3947 200.027 49.3106 199.774 49.3106C199.522 49.3106 199.318 49.3947 199.162 49.5629C199.006 49.719 198.927 49.9352 198.927 50.2115C198.927 50.4878 199.006 50.71 199.162 50.8781C199.318 51.0343 199.522 51.1124 199.774 51.1124ZM208.378 52.2475C206.997 52.2475 205.94 51.9892 205.207 51.4727C204.487 50.9562 204.126 50.1694 204.126 49.1124V47.617C204.126 46.8602 204.336 46.2717 204.757 45.8512C205.189 45.4188 205.736 45.2026 206.396 45.2026C207.057 45.2026 207.598 45.3828 208.018 45.7431C208.45 46.1035 208.667 46.608 208.667 47.2566C208.667 47.9052 208.456 48.4097 208.036 48.7701C207.616 49.1184 207.081 49.2986 206.432 49.3106C206.445 49.695 206.565 49.9893 206.793 50.1935C207.021 50.3977 207.363 50.4998 207.82 50.4998H208.937C209.393 50.4998 209.736 50.3917 209.964 50.1754C210.204 49.9592 210.324 49.6589 210.324 49.2746V46.0134C210.324 45.2687 210.09 44.6861 209.622 44.2657C209.153 43.8453 208.505 43.6351 207.676 43.6351C207.255 43.6351 206.883 43.6831 206.559 43.7792C206.246 43.8633 205.964 43.9774 205.712 44.1216C205.46 44.2657 205.243 44.4339 205.063 44.6261C204.883 44.8062 204.721 44.9924 204.577 45.1846L203.189 43.9234C203.382 43.6471 203.616 43.3828 203.892 43.1306C204.18 42.8784 204.517 42.6621 204.901 42.482C205.297 42.2898 205.748 42.1396 206.252 42.0315C206.757 41.9234 207.321 41.8694 207.946 41.8694C209.459 41.8694 210.619 42.2297 211.423 42.9504C212.228 43.6711 212.631 44.6681 212.631 45.9413V49.1124C212.631 50.1694 212.264 50.9562 211.531 51.4727C210.811 51.9892 209.76 52.2475 208.378 52.2475ZM206.487 48.1755C206.751 48.1755 206.961 48.0974 207.117 47.9413C207.285 47.7731 207.369 47.5449 207.369 47.2566C207.369 46.9683 207.285 46.7461 207.117 46.59C206.961 46.4218 206.751 46.3377 206.487 46.3377C206.222 46.3377 206.006 46.4218 205.838 46.59C205.682 46.7461 205.604 46.9683 205.604 47.2566C205.604 47.5449 205.682 47.7731 205.838 47.9413C206.006 48.0974 206.222 48.1755 206.487 48.1755ZM217.777 52.0312L214.588 44.9143H216.876L219.344 50.4097H220.461V45.9413C219.825 45.9293 219.302 45.7431 218.894 45.3828C218.497 45.0224 218.299 44.53 218.299 43.9054C218.299 43.2687 218.509 42.7703 218.93 42.4099C219.35 42.0496 219.885 41.8694 220.533 41.8694C221.182 41.8694 221.717 42.0496 222.137 42.4099C222.557 42.7703 222.768 43.2687 222.768 43.9054V52.0312H217.777ZM220.479 44.8062C220.732 44.8062 220.936 44.7282 221.092 44.572C221.248 44.4038 221.326 44.1816 221.326 43.9054C221.326 43.6291 221.248 43.4129 221.092 43.2567C220.936 43.0886 220.732 43.0045 220.479 43.0045C220.227 43.0045 220.023 43.0886 219.867 43.2567C219.711 43.4129 219.633 43.6291 219.633 43.9054C219.633 44.1816 219.711 44.4038 219.867 44.572C220.023 44.7282 220.227 44.8062 220.479 44.8062Z" fill="black"/>
<g clip-path="url(#clip1_292_358)">
<path d="M35.451 91.3549V90.3749H42.521V91.3549H35.451ZM43.367 91.3549V90.3749H50.437V91.3549H43.367ZM51.283 91.3549V90.3749H58.353V91.3549H51.283ZM59.1991 91.3549V90.3749H66.2691V91.3549H59.1991ZM67.1151 91.3549V90.3749H74.1851V91.3549H67.1151ZM75.0311 91.3549V90.3749H82.1011V91.3549H75.0311ZM82.9471 91.3549V90.3749H90.0171V91.3549H82.9471ZM90.8631 91.3549V90.3749H97.9331V91.3549H90.8631ZM98.7791 91.3549V90.3749H105.849V91.3549H98.7791ZM106.695 91.3549V90.3749H113.765V91.3549H106.695ZM114.611 91.3549V90.3749H121.681V91.3549H114.611ZM122.527 91.3549V90.3749H129.597V91.3549H122.527ZM130.443 91.3549V90.3749H137.513V91.3549H130.443ZM138.359 91.3549V90.3749H145.429V91.3549H138.359ZM146.275 91.3549V90.3749H153.345V91.3549H146.275ZM154.191 91.3549V90.3749H161.261V91.3549H154.191ZM162.107 91.3549V90.3749H169.177V91.3549H162.107ZM170.023 91.3549V90.3749H177.093V91.3549H170.023ZM177.939 91.3549V90.3749H185.009V91.3549H177.939ZM185.855 91.3549V90.3749H192.925V91.3549H185.855ZM193.771 91.3549V90.3749H200.841V91.3549H193.771ZM201.687 91.3549V90.3749H208.757V91.3549H201.687ZM209.603 91.3549V90.3749H216.673V91.3549H209.603ZM217.519 91.3549V90.3749H224.589V91.3549H217.519ZM225.435 91.3549V90.3749H232.505V91.3549H225.435ZM233.351 91.3549V90.3749H240.421V91.3549H233.351ZM241.267 91.3549V90.3749H248.337V91.3549H241.267ZM249.183 91.3549V90.3749H256.253V91.3549H249.183ZM257.099 91.3549V90.3749H264.169V91.3549H257.099ZM265.015 91.3549V90.3749H272.085V91.3549H265.015ZM35.451 114.355V113.375H42.521V114.355H35.451ZM43.367 114.355V113.375H50.437V114.355H43.367ZM51.283 114.355V113.375H58.353V114.355H51.283ZM59.1991 114.355V113.375H66.2691V114.355H59.1991ZM67.1151 114.355V113.375H74.1851V114.355H67.1151ZM75.0311 114.355V113.375H82.1011V114.355H75.0311ZM82.9471 114.355V113.375H90.0171V114.355H82.9471ZM90.8631 114.355V113.375H97.9331V114.355H90.8631ZM98.7791 114.355V113.375H105.849V114.355H98.7791ZM106.695 114.355V113.375H113.765V114.355H106.695ZM114.611 114.355V113.375H121.681V114.355H114.611ZM122.527 114.355V113.375H129.597V114.355H122.527ZM130.443 114.355V113.375H137.513V114.355H130.443ZM138.359 114.355V113.375H145.429V114.355H138.359ZM146.275 114.355V113.375H153.345V114.355H146.275ZM154.191 114.355V113.375H161.261V114.355H154.191ZM162.107 114.355V113.375H169.177V114.355H162.107ZM170.023 114.355V113.375H177.093V114.355H170.023ZM177.939 114.355V113.375H185.009V114.355H177.939ZM185.855 114.355V113.375H192.925V114.355H185.855ZM193.771 114.355V113.375H200.841V114.355H193.771ZM201.687 114.355V113.375H208.757V114.355H201.687ZM209.603 114.355V113.375H216.673V114.355H209.603ZM217.519 114.355V113.375H224.589V114.355H217.519ZM225.435 114.355V113.375H232.505V114.355H225.435ZM233.351 114.355V113.375H240.421V114.355H233.351ZM241.267 114.355V113.375H248.337V114.355H241.267ZM249.183 114.355V113.375H256.253V114.355H249.183ZM257.099 114.355V113.375H264.169V114.355H257.099ZM265.015 114.355V113.375H272.085V114.355H265.015ZM35.451 137.355V136.375H42.521V137.355H35.451ZM43.367 137.355V136.375H50.437V137.355H43.367ZM51.283 137.355V136.375H58.353V137.355H51.283ZM59.1991 137.355V136.375H66.2691V137.355H59.1991ZM67.1151 137.355V136.375H74.1851V137.355H67.1151ZM75.0311 137.355V136.375H82.1011V137.355H75.0311ZM82.9471 137.355V136.375H90.0171V137.355H82.9471ZM90.8631 137.355V136.375H97.9331V137.355H90.8631ZM98.7791 137.355V136.375H105.849V137.355H98.7791ZM106.695 137.355V136.375H113.765V137.355H106.695ZM114.611 137.355V136.375H121.681V137.355H114.611ZM122.527 137.355V136.375H129.597V137.355H122.527ZM130.443 137.355V136.375H137.513V137.355H130.443ZM138.359 137.355V136.375H145.429V137.355H138.359ZM146.275 137.355V136.375H153.345V137.355H146.275ZM154.191 137.355V136.375H161.261V137.355H154.191ZM162.107 137.355V136.375H169.177V137.355H162.107ZM170.023 137.355V136.375H177.093V137.355H170.023ZM177.939 137.355V136.375H185.009V137.355H177.939ZM185.855 137.355V136.375H192.925V137.355H185.855ZM193.771 137.355V136.375H200.841V137.355H193.771ZM201.687 137.355V136.375H208.757V137.355H201.687ZM209.603 137.355V136.375H216.673V137.355H209.603ZM217.519 137.355V136.375H224.589V137.355H217.519ZM225.435 137.355V136.375H232.505V137.355H225.435ZM233.351 137.355V136.375H240.421V137.355H233.351ZM241.267 137.355V136.375H248.337V137.355H241.267ZM249.183 137.355V136.375H256.253V137.355H249.183ZM257.099 137.355V136.375H264.169V137.355H257.099ZM265.015 137.355V136.375H272.085V137.355H265.015ZM35.451 155.355V154.375H42.521V155.355H35.451ZM43.367 155.355V154.375H50.437V155.355H43.367ZM51.283 155.355V154.375H58.353V155.355H51.283ZM59.1991 155.355V154.375H66.2691V155.355H59.1991ZM67.1151 155.355V154.375H74.1851V155.355H67.1151ZM75.0311 155.355V154.375H82.1011V155.355H75.0311ZM82.9471 155.355V154.375H90.0171V155.355H82.9471ZM90.8631 155.355V154.375H97.9331V155.355H90.8631ZM98.7791 155.355V154.375H105.849V155.355H98.7791ZM106.695 155.355V154.375H113.765V155.355H106.695ZM114.611 155.355V154.375H121.681V155.355H114.611ZM122.527 155.355V154.375H129.597V155.355H122.527ZM130.443 155.355V154.375H137.513V155.355H130.443ZM138.359 155.355V154.375H145.429V155.355H138.359ZM146.275 155.355V154.375H153.345V155.355H146.275ZM154.191 155.355V154.375H161.261V155.355H154.191ZM162.107 155.355V154.375H169.177V155.355H162.107ZM170.023 155.355V154.375H177.093V155.355H170.023ZM177.939 155.355V154.375H185.009V155.355H177.939ZM185.855 155.355V154.375H192.925V155.355H185.855ZM193.771 155.355V154.375H200.841V155.355H193.771ZM201.687 155.355V154.375H208.757V155.355H201.687ZM209.603 155.355V154.375H216.673V155.355H209.603ZM217.519 155.355V154.375H224.589V155.355H217.519ZM225.435 155.355V154.375H232.505V155.355H225.435ZM233.351 155.355V154.375H240.421V155.355H233.351ZM241.267 155.355V154.375H248.337V155.355H241.267ZM249.183 155.355V154.375H256.253V155.355H249.183ZM257.099 155.355V154.375H264.169V155.355H257.099ZM265.015 155.355V154.375H272.085V155.355H265.015ZM35.451 178.355V177.375H42.521V178.355H35.451ZM43.367 178.355V177.375H50.437V178.355H43.367ZM51.283 178.355V177.375H58.353V178.355H51.283ZM59.1991 178.355V177.375H66.2691V178.355H59.1991ZM67.1151 178.355V177.375H74.1851V178.355H67.1151ZM75.0311 178.355V177.375H82.1011V178.355H75.0311ZM82.9471 178.355V177.375H90.0171V178.355H82.9471ZM90.8631 178.355V177.375H97.9331V178.355H90.8631ZM98.7791 178.355V177.375H105.849V178.355H98.7791ZM106.695 178.355V177.375H113.765V178.355H106.695ZM114.611 178.355V177.375H121.681V178.355H114.611ZM122.527 178.355V177.375H129.597V178.355H122.527ZM130.443 178.355V177.375H137.513V178.355H130.443ZM138.359 178.355V177.375H145.429V178.355H138.359ZM146.275 178.355V177.375H153.345V178.355H146.275ZM154.191 178.355V177.375H161.261V178.355H154.191ZM162.107 178.355V177.375H169.177V178.355H162.107ZM170.023 178.355V177.375H177.093V178.355H170.023ZM177.939 178.355V177.375H185.009V178.355H177.939ZM185.855 178.355V177.375H192.925V178.355H185.855ZM193.771 178.355V177.375H200.841V178.355H193.771ZM201.687 178.355V177.375H208.757V178.355H201.687ZM209.603 178.355V177.375H216.673V178.355H209.603ZM217.519 178.355V177.375H224.589V178.355H217.519ZM225.435 178.355V177.375H232.505V178.355H225.435ZM233.351 178.355V177.375H240.421V178.355H233.351ZM241.267 178.355V177.375H248.337V178.355H241.267ZM249.183 178.355V177.375H256.253V178.355H249.183ZM257.099 178.355V177.375H264.169V178.355H257.099ZM265.015 178.355V177.375H272.085V178.355H265.015ZM35.451 196.355V195.375H42.521V196.355H35.451ZM43.367 196.355V195.375H50.437V196.355H43.367ZM51.283 196.355V195.375H58.353V196.355H51.283ZM59.1991 196.355V195.375H66.2691V196.355H59.1991ZM67.1151 196.355V195.375H74.1851V196.355H67.1151ZM75.0311 196.355V195.375H82.1011V196.355H75.0311ZM82.9471 196.355V195.375H90.0171V196.355H82.9471ZM90.8631 196.355V195.375H97.9331V196.355H90.8631ZM98.7791 196.355V195.375H105.849V196.355H98.7791ZM106.695 196.355V195.375H113.765V196.355H106.695ZM114.611 196.355V195.375H121.681V196.355H114.611ZM122.527 196.355V195.375H129.597V196.355H122.527ZM130.443 196.355V195.375H137.513V196.355H130.443ZM138.359 196.355V195.375H145.429V196.355H138.359ZM146.275 196.355V195.375H153.345V196.355H146.275ZM154.191 196.355V195.375H161.261V196.355H154.191ZM162.107 196.355V195.375H169.177V196.355H162.107ZM170.023 196.355V195.375H177.093V196.355H170.023ZM177.939 196.355V195.375H185.009V196.355H177.939ZM185.855 196.355V195.375H192.925V196.355H185.855ZM193.771 196.355V195.375H200.841V196.355H193.771ZM201.687 196.355V195.375H208.757V196.355H201.687ZM209.603 196.355V195.375H216.673V196.355H209.603ZM217.519 196.355V195.375H224.589V196.355H217.519ZM225.435 196.355V195.375H232.505V196.355H225.435ZM233.351 196.355V195.375H240.421V196.355H233.351ZM241.267 196.355V195.375H248.337V196.355H241.267ZM249.183 196.355V195.375H256.253V196.355H249.183ZM257.099 196.355V195.375H264.169V196.355H257.099ZM265.015 196.355V195.375H272.085V196.355H265.015ZM35.451 219.355V218.375H42.521V219.355H35.451ZM43.367 219.355V218.375H50.437V219.355H43.367ZM51.283 219.355V218.375H58.353V219.355H51.283ZM59.1991 219.355V218.375H66.2691V219.355H59.1991ZM67.1151 219.355V218.375H74.1851V219.355H67.1151ZM75.0311 219.355V218.375H82.1011V219.355H75.0311ZM82.9471 219.355V218.375H90.0171V219.355H82.9471ZM90.8631 219.355V218.375H97.9331V219.355H90.8631ZM98.7791 219.355V218.375H105.849V219.355H98.7791ZM106.695 219.355V218.375H113.765V219.355H106.695ZM114.611 219.355V218.375H121.681V219.355H114.611ZM122.527 219.355V218.375H129.597V219.355H122.527ZM130.443 219.355V218.375H137.513V219.355H130.443ZM138.359 219.355V218.375H145.429V219.355H138.359ZM146.275 219.355V218.375H153.345V219.355H146.275ZM154.191 219.355V218.375H161.261V219.355H154.191ZM162.107 219.355V218.375H169.177V219.355H162.107ZM170.023 219.355V218.375H177.093V219.355H170.023ZM177.939 219.355V218.375H185.009V219.355H177.939ZM185.855 219.355V218.375H192.925V219.355H185.855ZM193.771 219.355V218.375H200.841V219.355H193.771ZM201.687 219.355V218.375H208.757V219.355H201.687ZM209.603 219.355V218.375H216.673V219.355H209.603ZM217.519 219.355V218.375H224.589V219.355H217.519ZM225.435 219.355V218.375H232.505V219.355H225.435ZM233.351 219.355V218.375H240.421V219.355H233.351ZM241.267 219.355V218.375H248.337V219.355H241.267ZM249.183 219.355V218.375H256.253V219.355H249.183ZM257.099 219.355V218.375H264.169V219.355H257.099ZM265.015 219.355V218.375H272.085V219.355H265.015ZM35.451 237.355V236.375H42.521V237.355H35.451ZM43.367 237.355V236.375H50.437V237.355H43.367ZM51.283 237.355V236.375H58.353V237.355H51.283ZM59.1991 237.355V236.375H66.2691V237.355H59.1991ZM67.1151 237.355V236.375H74.1851V237.355H67.1151ZM75.0311 237.355V236.375H82.1011V237.355H75.0311ZM82.9471 237.355V236.375H90.0171V237.355H82.9471ZM90.8631 237.355V236.375H97.9331V237.355H90.8631ZM98.7791 237.355V236.375H105.849V237.355H98.7791ZM106.695 237.355V236.375H113.765V237.355H106.695ZM114.611 237.355V236.375H121.681V237.355H114.611ZM122.527 237.355V236.375H129.597V237.355H122.527ZM130.443 237.355V236.375H137.513V237.355H130.443ZM138.359 237.355V236.375H145.429V237.355H138.359ZM146.275 237.355V236.375H153.345V237.355H146.275ZM154.191 237.355V236.375H161.261V237.355H154.191ZM162.107 237.355V236.375H169.177V237.355H162.107ZM170.023 237.355V236.375H177.093V237.355H170.023ZM177.939 237.355V236.375H185.009V237.355H177.939ZM185.855 237.355V236.375H192.925V237.355H185.855ZM193.771 237.355V236.375H200.841V237.355H193.771ZM201.687 237.355V236.375H208.757V237.355H201.687ZM209.603 237.355V236.375H216.673V237.355H209.603ZM217.519 237.355V236.375H224.589V237.355H217.519ZM225.435 237.355V236.375H232.505V237.355H225.435ZM233.351 237.355V236.375H240.421V237.355H233.351ZM241.267 237.355V236.375H248.337V237.355H241.267ZM249.183 237.355V236.375H256.253V237.355H249.183ZM257.099 237.355V236.375H264.169V237.355H257.099ZM265.015 237.355V236.375H272.085V237.355H265.015Z" fill="#212121"/>
</g>
<rect x="3.75073" y="0.750729" width="300.292" height="291.499" stroke="black" stroke-width="1.50146"/>
</g>
</g>
<defs>
<filter id="filter0_d_292_358" x="-0.00291705" y="0" width="304.796" height="296.003" filterUnits="userSpaceOnUse" color-interpolation-filters="sRGB">
<feFlood flood-opacity="0" result="BackgroundImageFix"/>
<feColorMatrix in="SourceAlpha" type="matrix" values="0 0 0 0 0 0 0 0 0 0 0 0 0 0 0 0 0 0 127 0" result="hardAlpha"/>
<feOffset dx="-3.00292" dy="3.00292"/>
<feColorMatrix type="matrix" values="0 0 0 0 0 0 0 0 0 0 0 0 0 0 0 0 0 0 1 0"/>
<feBlend mode="normal" in2="BackgroundImageFix" result="effect1_dropShadow_292_358"/>
<feBlend mode="normal" in="SourceGraphic" in2="effect1_dropShadow_292_358" result="shape"/>
</filter>
<clipPath id="clip0_292_358">
<rect width="305" height="293" fill="white"/>
</clipPath>
<clipPath id="clip1_292_358">
<rect width="237.731" height="165" fill="white" transform="translate(35.031 76.0449)"/>
</clipPath>
</defs>
</svg>
