<svg width="204" height="207" viewBox="0 0 204 207" fill="none" xmlns="http://www.w3.org/2000/svg">
<g clip-path="url(#clip0_240_1027)">
<path d="M96.8207 3.20816C93.2117 6.17557 92.8909 6.33597 91.5275 5.05276C89.5225 3.20816 87.8383 3.44876 86.3947 5.69437C84.9511 7.85977 79.0163 10.9875 76.3697 10.9875C74.2845 10.9875 73.0013 13.6341 73.0013 17.6441C73.0013 19.9699 72.6003 20.3709 68.5903 22.1353C66.1843 23.1779 64.0189 24.6216 63.7783 25.4236C63.5377 26.2256 63.6981 28.4711 64.1793 30.5563C64.8209 33.4435 64.7407 34.9673 63.7783 37.614C60.3297 47.4785 65.5427 55.5787 75.1667 55.3381L79.4173 55.258V59.0273C79.4173 62.476 79.8985 63.5185 83.5075 68.1701C87.1967 72.9821 87.9987 73.6237 92.6503 75.0673C95.4573 76.0297 98.4247 76.7516 99.1465 76.7516C100.35 76.7516 100.43 77.5535 100.029 84.5309C99.7881 88.8617 98.8257 97.2827 97.8633 103.218C95.2969 119.899 94.7355 124.39 93.4523 143.959C92.7305 153.904 92.0087 162.245 91.8483 162.485C91.3671 162.886 91.6077 163.367 88.3997 156.871C84.9511 149.974 79.0965 143.478 71.7983 138.666C68.5903 136.42 65.4625 134.496 64.9813 134.335C64.2595 134.095 64.3397 132.892 65.3021 129.684C66.0239 127.358 66.5853 123.669 66.5853 121.503C66.5853 117.974 66.4249 117.654 64.7407 117.654C61.6129 117.654 56.5603 121.984 54.4751 126.395C52.5503 130.405 51.3473 131.528 51.3473 129.283C51.3473 128.641 50.4651 125.513 49.5027 122.225L47.5779 116.37L50.9463 112.681C55.1167 108.03 56.3999 103.859 55.9989 95.5985L55.7583 89.0221L58.7257 85.7339C64.9011 78.9169 64.8209 69.7741 58.6455 64.4809C55.1167 61.5135 53.9137 61.7541 52.1493 65.6839C50.8661 68.5711 50.5453 68.8117 50.1443 67.5285C47.8987 60.7115 46.3749 59.1075 40.5203 57.1827C38.3549 56.4609 34.6657 55.0975 32.3399 54.1351C28.5705 52.6113 27.7685 52.5311 24.7209 53.4133C19.5079 55.0173 16.0593 58.8669 16.0593 63.2779C16.0593 64.7215 15.4177 65.3632 13.4929 65.9246C12.0493 66.4058 10.3651 67.6087 9.80374 68.7315C8.19974 71.8593 9.16214 79.4783 12.4503 88.4607C16.6207 99.8491 16.6207 99.6085 14.7761 98.8065C12.7711 97.8441 4.43034 97.3629 1.94414 97.9243C-0.943056 98.6461 -0.542056 101.373 2.66594 102.656C4.02934 103.298 5.71354 104.421 6.35514 105.142C7.95914 107.067 11.0869 108.511 15.0969 109.233C16.9415 109.553 20.3099 110.997 22.5555 112.601C32.3399 119.338 37.5529 120.701 43.8085 118.055C45.9739 117.172 46.6957 117.172 46.9363 117.894C47.3373 119.017 52.4701 137.784 53.2721 141.312C53.8335 143.638 53.8335 143.638 50.1443 139.949C47.4977 137.222 45.3323 135.859 42.2045 134.977C37.8737 133.694 32.9013 133.292 32.9013 134.175C32.9013 134.415 33.6231 136.34 34.5855 138.505C35.8687 141.473 37.3123 143.157 40.6807 145.483C44.6907 148.21 45.5729 148.53 50.0641 148.45H55.0365L57.7633 156.871C61.6129 169.062 66.2645 184.219 66.9061 186.866C67.3873 189.031 67.3071 188.951 64.2595 185.904C62.4951 184.139 59.5277 181.894 57.6831 180.931C53.2721 178.686 45.8937 178.044 43.7283 179.648C42.2045 180.851 42.2045 180.851 44.1293 184.941C48.2195 193.763 57.6029 199.858 66.1843 199.297L70.1943 199.056L72.3597 207.317C73.8835 213.252 74.2043 215.658 73.5627 215.898C68.6705 217.422 65.2219 217.583 63.0565 216.219C57.2821 212.69 50.7057 213.653 46.4551 218.545C45.0115 220.149 42.2045 222.395 40.1995 223.517C37.1519 225.202 36.4301 226.004 36.2697 228.089C35.7885 233.302 40.8411 238.755 46.2145 238.755C48.4601 238.755 49.3423 239.638 54.7157 246.936L60.7307 255.196L59.7683 263.216C59.2069 267.627 58.2445 274.043 57.6831 277.572L56.6405 283.908L59.1267 286.073C60.4901 287.276 62.0941 288.479 62.6555 288.64C63.3773 288.88 63.8585 291.286 64.2595 296.179C64.5803 301.151 65.3823 304.92 66.9061 308.529C68.9913 313.502 69.0715 314.143 68.5101 323.366C68.0289 332.429 68.1091 333.071 69.7933 335.156C71.2369 337 72.1191 337.401 75.0865 337.401C81.6629 337.401 85.8333 333.632 85.8333 327.537C85.8333 324.65 88.0789 317.351 88.8809 317.351C89.2017 317.351 91.9285 322.885 94.9761 329.622C98.0237 336.279 102.435 345.341 104.761 349.592C109.653 358.494 110.695 360.82 114.064 370.283C121.041 389.852 126.414 396.589 158.895 426.504C168.92 435.727 178.063 444.388 179.266 445.832C184.72 452.248 193.381 461.15 193.782 460.669C194.665 459.787 175.096 439.656 157.612 423.616C127.216 395.627 122.164 389.291 115.828 371.246C114.304 366.995 108.289 354.003 102.595 342.374C96.8207 330.745 92.2493 321.121 92.4097 320.96C92.5701 320.8 94.9761 323.767 97.7831 327.457C103.397 334.995 110.695 341.492 117.994 345.421C124.249 348.79 124.089 347.426 117.673 343.817C107.808 338.203 95.9385 324.89 89.6027 312.138C88.5601 309.893 85.2719 302.113 82.3045 294.735C73.7231 273.001 68.7507 263.938 54.2345 243.968C46.0541 232.74 43.8887 226.725 46.0541 221.593C48.1393 216.62 54.7959 214.134 60.4099 216.219C63.9387 217.583 68.1091 221.994 74.8459 231.297C98.0237 263.858 112.38 277.251 124.169 277.251C128.339 277.251 133.151 275.567 133.151 274.043C133.151 273.642 131.868 274.043 130.344 275.006C128.179 276.209 126.575 276.53 123.688 276.289C116.791 275.647 111.177 272.279 102.836 264.018C98.6653 259.768 95.3771 256.159 95.6177 255.918C96.4197 255.196 103.718 259.367 106.926 262.414C109.412 264.82 109.813 265.542 109.091 266.825C107.728 269.392 109.332 268.67 111.738 265.622C113.743 263.056 113.823 261.612 111.738 263.698C111.177 264.259 110.134 263.778 108.209 261.773C106.685 260.329 103.638 258.084 101.312 256.8C95.5375 253.753 93.4523 251.427 94.5751 249.342C96.0187 246.695 95.5375 245.332 94.0939 247.738C92.0087 251.026 91.0463 251.026 88.5601 247.497C86.7155 244.851 86.4749 243.968 87.2769 242.926C87.7581 242.204 89.1215 239.878 90.1641 237.873C91.8483 234.745 92.6503 234.024 95.1365 233.542C97.7029 233.061 98.4247 233.302 100.59 235.387C101.954 236.75 106.685 240.039 111.096 242.765C115.507 245.492 120.801 249.021 122.886 250.545C126.655 253.272 126.655 253.352 125.372 255.277C123.207 258.725 124.73 258.084 127.858 254.394C129.462 252.389 130.505 250.785 130.104 250.785C129.783 250.785 129.061 251.186 128.58 251.668C127.938 252.309 126.254 251.427 122.645 248.78C119.838 246.695 114.786 243.407 111.417 241.482C108.129 239.557 103.959 236.75 102.274 235.307L99.0663 232.58L101.713 230.334C103.157 229.131 104.841 227.126 105.482 225.843C106.926 223.197 106.926 222.715 105.883 222.715C105.482 222.715 105.081 223.277 105.081 223.918C105.081 226.966 95.8583 233.783 94.0939 232.019C93.8533 231.778 95.9385 227.367 98.7455 222.314L103.878 212.931L108.289 213.332C116.791 214.054 124.891 218.946 145.261 235.547C165.392 251.988 168.76 255.517 170.284 262.013C170.524 263.136 171.166 268.911 171.647 274.845C174.695 312.7 176.058 324.409 178.464 333.712C182.554 349.351 187.687 359.697 197.151 371.486C199.717 374.534 210.785 386.323 221.772 397.551C232.84 408.779 243.025 419.446 244.469 421.13C245.832 422.895 247.196 424.098 247.436 423.857C248.318 423.055 238.293 412.068 220.569 394.343C192.259 366.113 184.96 355.045 179.427 332.188C178.304 327.777 177.021 320.158 176.539 315.346C176.058 310.454 175.497 304.92 175.256 302.915C175.016 300.91 174.133 290.966 173.251 280.86C172.449 270.675 171.326 261.211 170.925 259.768C169.642 255.357 165.632 250.946 154.565 241.562C131.708 222.154 118.876 213.733 109.893 212.129C107.247 211.728 105.242 211.086 105.402 210.766C108.129 205.633 115.026 194.645 115.507 194.645C115.828 194.645 116.55 195.127 117.031 195.768C117.593 196.41 119.838 197.292 122.004 197.773C130.264 199.538 139.808 198.495 147.427 195.046C151.838 193.041 158.013 188.63 158.013 187.427C158.013 187.107 157.051 186.465 155.848 185.984C147.667 182.776 130.745 182.615 124.009 185.663C121.843 186.625 119.918 187.347 119.758 187.187C119.517 186.946 131.467 169.062 136.119 162.726C137.322 161.042 138.364 159.678 138.364 159.598C138.444 159.438 139.888 160.159 141.652 161.042C147.667 164.169 162.504 161.764 168.84 156.631C171.006 154.866 171.086 154.546 170.043 153.423C168.68 152.059 161.943 150.535 157.291 150.535C154.565 150.535 147.587 152.059 144.058 153.423C143.096 153.824 144.62 150.936 148.389 145.242C151.597 140.43 154.484 136.18 154.805 135.859C155.126 135.458 156.73 136.1 158.414 137.222C162.264 139.869 168.439 140.029 176.058 137.623C179.026 136.741 181.993 136.019 182.715 136.019C183.517 136.019 186.244 136.1 188.97 136.18C191.777 136.26 194.584 135.859 195.787 135.298C196.83 134.656 198.995 134.014 200.519 133.694C207.176 132.651 201.401 127.358 192.74 126.636C190.414 126.395 188.489 125.994 188.489 125.674C188.489 125.353 189.211 124.471 190.173 123.588C193.221 120.862 201.321 108.992 202.524 105.543C204.369 100.41 204.048 97.9243 201.401 95.9193C199.477 94.5559 199.236 93.8341 199.717 92.0697C200.439 89.3429 199.236 84.8517 197.071 82.5259C193.622 78.7565 191.697 78.2753 181.512 78.8367L172.048 79.3981L168.519 82.9269C166.595 84.7715 164.91 86.3755 164.75 86.3755C164.59 86.3755 164.429 84.9319 164.429 83.1675C164.429 78.9971 163.066 78.4357 158.174 80.4407C153.041 82.6061 150.795 86.5359 150.795 93.5935C150.795 97.4431 151.196 99.5283 152.399 101.453L154.083 104.18L151.918 109.473C150.795 112.36 149.592 116.852 149.352 119.418C149.031 123.508 149.271 124.711 151.517 129.283L154.164 134.576L149.191 141.954C146.464 146.044 140.53 154.465 136.119 160.721L127.938 172.029L127.457 165.132C126.976 158.395 126.014 154.866 121.683 144.681C119.357 139.147 118.635 138.265 116.871 138.987C114.545 139.869 113.502 144.841 113.502 154.947C113.502 163.768 113.663 164.971 115.588 168.581C116.71 170.746 119.116 173.713 120.881 175.077L124.169 177.643L122.084 180.691C120.961 182.455 116.149 190.154 111.497 197.773L103.076 211.808L95.8583 212.851C91.8483 213.412 88.0789 213.813 87.3571 213.733C86.2343 213.492 86.4749 211.087 89.1215 192.641C91.9285 173.713 93.6929 157.192 95.0563 138.425L95.6177 131.448L99.1465 130.887C104.761 130.085 113.583 125.192 118.715 120.06C125.212 113.563 128.5 106.506 128.66 98.8867C128.74 93.5133 128.66 93.1925 126.896 92.9519C120.159 91.9895 108.851 102.496 99.7881 118.135L96.0989 124.471L96.6603 119.659C96.9811 117.012 97.9435 110.516 98.8257 105.223C99.7079 99.9293 100.67 91.2677 100.991 85.9745L101.472 76.4307L106.124 75.3079C110.134 74.3455 111.177 73.6237 113.502 70.4959L116.309 66.8869L123.608 66.7265C132.029 66.4859 133.873 65.4434 134.675 60.1501C135.156 57.1827 135.236 57.1025 139.006 56.8619L142.775 56.6213V53.2529C142.775 51.4083 143.176 48.4409 143.577 46.7567C144.379 42.9873 144.139 42.3457 140.048 39.1377C136.921 36.6515 136.84 36.4911 136.6 30.797C136.439 27.188 136.76 23.4987 137.482 21.0927C138.845 16.6817 138.445 15.3184 134.996 12.5916C133.151 11.1479 131.868 10.9074 127.297 11.0678C122.084 11.2282 121.522 11.0678 116.71 7.93997C113.903 6.09537 111.096 4.57153 110.455 4.57153C109.813 4.57153 107.327 3.52893 104.921 2.32593L100.59 0.000152588L96.8207 3.20816ZM102.675 2.56656C103.237 3.20816 105.723 4.41116 108.209 5.21317L112.7 6.57657L107.086 6.81714C102.274 7.05774 101.152 7.37854 99.2267 9.22314C97.3821 10.9875 96.1791 11.3885 93.0513 11.3885C90.8859 11.3885 89.4423 11.0677 89.7631 10.7469C91.5275 8.98254 100.751 1.44376 101.152 1.36356C101.472 1.36356 102.114 1.92496 102.675 2.56656ZM89.1215 9.94495C84.7907 15.158 84.0689 15.7995 81.3421 16.2807C78.6955 16.7619 77.8935 18.0452 76.7707 23.4185C76.5301 24.8622 76.3697 24.7018 75.5677 22.777C74.2845 19.8096 74.3647 13.955 75.5677 12.752C76.1291 12.1906 77.1717 11.7896 77.9737 11.7896C80.2193 11.7896 85.1917 8.98257 87.2769 6.57657C89.0413 4.57156 89.2819 4.49133 90.4849 5.61414C91.6077 6.73694 91.4473 7.13794 89.1215 9.94495ZM117.833 10.1856C121.201 11.8698 122.645 14.4362 123.287 19.8096C123.768 23.98 121.923 28.6315 119.838 28.6315C118.796 28.6315 115.828 27.4286 114.866 26.6266C114.705 26.4662 115.187 25.2631 115.908 23.8195C117.512 20.7719 116.951 18.9274 113.262 14.8372C109.813 11.0677 106.846 9.38354 103.477 9.38354C101.793 9.38354 101.152 9.06277 101.553 8.50137C102.355 7.05777 114.224 8.34097 117.833 10.1856ZM107.086 11.4688C108.53 12.1104 110.455 13.4738 111.337 14.4362L113.021 16.2807H109.653C107.808 16.2807 105.723 16.5214 105.001 16.8422C104.119 17.2432 103.157 17.0025 102.355 16.1203C101.553 15.3985 99.7881 14.5163 98.4247 14.1955L95.8583 13.7144L98.6653 11.95C102.034 9.86475 103.558 9.78455 107.086 11.4688ZM94.6553 13.2332C94.6553 13.6342 93.8533 14.2758 92.8909 14.757C90.0839 16.0402 87.8383 26.0652 88.9611 32.3207C90.0839 38.3357 90.0839 39.0576 88.6403 39.5388C86.6353 40.3408 82.7857 36.812 80.5401 32.0801C77.1717 24.8622 77.8133 17.4036 81.8233 17.4036C82.5451 17.4036 84.7907 16.361 86.7155 14.9976C90.0037 12.752 94.6553 11.7896 94.6553 13.2332ZM135.076 14.2758C137.402 16.1204 137.482 16.5213 136.279 20.9323L135.397 24.1404L133.793 22.1353C132.991 21.0927 131.708 19.0076 131.066 17.564C129.863 14.8372 128.5 14.4362 125.773 15.8798C123.928 16.8422 123.928 16.8421 123.206 14.3559C122.645 12.6717 122.806 12.5916 127.778 12.5916C131.788 12.5916 133.392 12.9926 135.076 14.2758ZM100.911 17.1629C101.071 17.7243 100.67 18.2055 100.029 18.2055C98.1841 18.2055 94.6553 22.8571 94.6553 25.2632C94.6553 26.4662 95.1365 29.0325 95.7781 31.0375C97.3019 36.0099 98.1841 43.0675 97.3019 43.0675C96.9009 43.0675 95.2969 41.8646 93.6929 40.421C91.1265 38.0952 90.7255 37.213 90.2443 32.3207C89.6027 26.7869 90.8057 19.0076 92.4899 16.762C93.5325 15.4788 100.43 15.7995 100.911 17.1629ZM131.788 21.0126C133.392 23.8196 134.755 26.8672 134.755 27.7494C134.755 28.6316 135.076 30.2356 135.557 31.3584C136.199 33.1228 135.798 33.9247 132.67 37.7743C130.665 40.1803 127.858 42.6666 126.415 43.3884C123.688 44.6716 118.234 45.0725 114.946 44.1903L113.101 43.7091L114.946 41.4636C115.908 40.2606 117.673 37.614 118.876 35.5287C120.8 32.3207 121.362 31.8395 123.046 32.3207C124.49 32.6415 124.971 32.4009 125.372 31.1177C125.613 30.1553 125.372 28.9524 124.811 28.391C124.169 27.7494 123.928 25.7444 124.169 22.4561C124.41 18.4461 124.811 17.4036 126.254 16.762C127.136 16.2808 128.099 15.8798 128.339 15.8798C128.58 15.8798 130.104 18.2056 131.788 21.0126ZM112.38 18.1254C114.144 19.4888 114.144 19.8095 113.101 21.8145L111.979 23.98L111.096 21.4135C110.615 19.9699 109.573 18.366 108.69 17.7244C107.247 16.6016 107.247 16.6015 108.851 16.6015C109.733 16.6015 111.337 17.3234 112.38 18.1254ZM103.076 21.0126C100.67 23.0176 97.0613 23.7393 97.0613 22.2957C97.0613 20.9323 100.59 19.0075 103.076 19.0075L105.482 19.0877L103.076 21.0126ZM109.091 23.8195C111.818 25.2631 109.974 25.7444 105.964 24.6216C102.274 23.6591 102.034 23.2582 104.119 21.7344C105.242 20.8522 105.643 20.8522 106.284 21.7344C106.766 22.2958 107.969 23.2581 109.091 23.8195ZM109.733 22.0552C109.893 22.6166 109.573 22.8571 108.771 22.5363C108.049 22.2957 107.487 21.6541 107.487 21.2531C107.487 20.2105 109.332 20.8522 109.733 22.0552ZM74.3647 23.5789C74.9261 24.8622 76.7707 28.3107 78.5351 31.2781L81.8233 36.7317L80.1391 41.3032C77.5727 48.2003 77.4123 49.7242 79.3371 51.4084C81.9035 53.7342 81.4223 54.2955 76.6103 54.2955C69.5527 54.2955 65.9437 51.8093 64.0991 45.7141C63.2971 42.7467 63.2971 41.8646 64.5001 39.218C65.5427 36.9724 65.8635 34.5663 65.6229 30.5563L65.3823 25.0225L68.9913 23.2581C73.5627 21.0125 73.2419 21.0125 74.3647 23.5789ZM115.026 23.3383C114.786 24.0602 114.224 24.6216 113.823 24.6216C113.342 24.6216 113.422 23.8998 113.903 22.9374C114.946 21.0126 115.828 21.3333 115.026 23.3383ZM104.841 25.5038C117.512 28.5514 118.074 29.1127 111.497 31.2781C109.492 31.9197 105.803 33.4435 103.237 34.5663C99.9485 36.0099 98.5049 36.3307 98.2643 35.6089C97.2217 32.4009 95.4573 25.4236 95.4573 24.7018C95.4573 23.4987 96.8207 23.5789 104.841 25.5038ZM124.329 30.2355C124.329 30.6365 123.367 31.0375 122.244 31.0375C120.961 31.0375 119.437 31.9197 118.074 33.5237C114.144 38.2556 107.006 40.2606 102.675 37.8546L100.67 36.812L102.675 36.0099C106.766 34.4059 117.593 30.396 118.715 29.995C120.801 29.2732 124.329 29.4335 124.329 30.2355ZM137.242 38.4962C137.883 39.0576 139.487 40.2605 140.69 41.2229L142.936 42.9873L141.973 49.0023C141.091 54.1352 140.69 55.0174 139.246 55.258C137.883 55.4986 130.665 53.8946 126.334 52.451C125.933 52.2906 126.816 51.4885 128.339 50.6865L131.066 49.243L128.901 47.3983L126.735 45.5537L130.505 41.5437C134.675 37.2931 135.317 36.9724 137.242 38.4962ZM89.0413 40.6615C90.5651 40.6615 92.6503 41.3031 93.6929 42.1051C95.2969 43.3883 95.3771 43.7091 94.4949 46.1151C93.3721 49.0826 93.9335 50.4459 97.2217 52.9321C99.1465 54.3757 99.3871 54.3757 103.798 53.0925C109.332 51.4885 110.695 51.8895 110.695 55.0975C110.695 59.3481 109.573 60.6313 106.124 60.1501C104.44 59.9897 101.553 60.1501 99.6277 60.5511C94.3345 61.7542 88.9611 59.5085 83.1867 53.5737L78.6153 48.8419L80.0589 44.9121C80.8609 42.8269 81.8233 40.421 82.0639 39.619C82.5451 38.2556 82.7857 38.2556 84.3897 39.3784C85.3521 40.1002 87.4373 40.6615 89.0413 40.6615ZM107.487 39.4585C109.893 39.4585 112.781 39.1377 113.903 38.8169C115.668 38.2555 115.588 38.4962 112.941 40.9824C109.733 44.03 105.883 45.1527 101.472 44.3507C98.9059 43.8695 98.6653 43.5487 98.6653 40.9021C98.6653 38.1753 98.7455 38.0952 100.911 38.7368C102.114 39.1378 105.081 39.4585 107.487 39.4585ZM119.918 45.7943C124.41 45.9547 128.339 47.1577 128.339 48.5211C128.339 48.8419 126.334 50.3658 123.928 51.8094C120.319 53.9748 118.956 54.456 116.55 54.055C114.946 53.7342 112.941 52.852 111.979 51.9698C110.535 50.6064 109.813 50.5261 106.685 51.1677C98.1039 52.9321 98.3445 52.9321 96.4197 50.8469C94.8959 49.1627 94.7355 48.6013 95.4573 46.9171C96.3395 44.9923 96.6603 44.9121 102.114 45.2329C105.322 45.4735 108.771 45.2329 109.893 44.8319C111.257 44.3507 112.46 44.3507 113.502 44.9121C114.385 45.3933 117.272 45.7943 119.918 45.7943ZM131.708 55.1777C134.515 55.8995 134.595 55.9797 133.793 58.5461C131.788 64.8017 131.467 65.1225 125.933 65.6037C120.079 66.0849 116.791 64.9622 115.908 62.3156C115.588 61.4333 114.545 60.0699 113.422 59.4283C112.299 58.6263 111.497 57.3431 111.497 56.2203C111.497 54.0549 111.578 53.9747 115.748 55.1777C118.074 55.8193 119.197 55.7391 120.961 54.8569C123.126 53.6539 126.013 53.7341 131.708 55.1777ZM35.0667 56.3807C45.0917 60.2303 45.6531 60.5511 47.1769 63.679C48.0591 65.3632 49.3423 69.0523 50.0641 71.9395C51.5077 77.6337 52.7107 88.7816 51.8285 88.7816C51.5077 88.7816 49.9037 85.8943 48.2195 82.3655C45.4125 76.6714 45.1719 75.6288 45.8937 72.9019C46.3749 70.9771 46.3749 69.1325 45.8135 67.8493C45.1719 66.0047 44.3699 65.6038 39.1569 64.882C29.9339 63.5186 25.3625 65.3631 20.8713 72.5009L18.6257 75.9495L18.2247 73.3831C16.2999 62.4759 17.1019 59.1075 21.9139 55.9797C25.3625 53.7341 28.5705 53.8945 35.0667 56.3807ZM85.1917 57.5035C89.8433 61.3531 93.7731 62.3957 101.793 61.8343C105.563 61.5937 109.573 60.9521 110.535 60.4709C112.219 59.6689 112.62 59.8293 113.984 61.5135C115.989 64.2403 115.908 65.1225 112.941 69.2127C110.776 72.1801 109.653 72.9821 105.964 74.0247C103.477 74.6663 100.991 75.3881 100.43 75.6287C99.8683 75.7891 97.0613 75.1475 94.1741 74.2653C89.6027 72.8217 88.4799 72.0197 84.6303 67.4483C80.2995 62.3155 79.4173 59.7491 80.7005 56.3807C81.3421 54.6163 81.8233 54.7767 85.1917 57.5035ZM58.9663 66.3255C60.7307 68.1701 61.2921 69.6137 61.6129 73.0623C62.0941 78.7565 60.7307 82.5259 57.1217 85.6537L54.2345 88.2201L52.8711 80.0397C51.5077 71.9395 51.6681 69.4533 53.6731 65.6037C54.9563 63.2779 56.2395 63.4383 58.9663 66.3255ZM43.6481 66.8067C45.3323 67.4483 45.3323 72.0197 43.6481 75.2277L42.3649 77.7139L38.9163 74.1049C34.4251 69.3731 30.1745 67.9295 26.4051 69.8543C23.3575 71.3781 22.6357 71.1375 24.6407 69.2929C28.1695 66.1651 30.7359 65.4433 36.5905 65.8443C39.7183 66.0849 42.8461 66.4859 43.6481 66.8067ZM16.3801 69.6939C16.6207 71.1375 17.0217 75.2277 17.3425 78.7565L17.9039 85.1725L15.7385 83.2477C13.0117 80.7615 10.4453 75.3079 10.4453 72.1801C10.4453 67.1275 15.4979 65.0423 16.3801 69.6939ZM34.4251 71.4583C36.5103 72.5811 40.9213 77.5535 40.9213 78.7565C40.9213 79.0773 39.4777 78.0347 37.7935 76.5109C34.7459 73.7841 34.4251 73.7039 29.9339 74.0247C27.3675 74.2653 24.6407 74.5861 23.9189 74.7465C21.6733 75.1475 22.2347 73.8643 25.1219 72.0197C28.1695 70.0949 31.2973 69.8543 34.4251 71.4583ZM35.4677 76.1901C35.7885 76.7515 36.1093 77.6337 36.1093 78.1951C36.1093 78.9971 35.7083 78.9169 34.3449 78.0347C31.6181 76.1099 30.0141 76.4307 26.5655 79.5585C23.9991 81.8843 23.3575 82.1249 22.9565 81.0823C22.2347 79.2377 22.3951 77.1525 23.2773 76.2703C24.4803 75.0673 34.7459 75.0673 35.4677 76.1901ZM21.0317 81.5635C20.7109 86.937 19.2673 88.2202 19.2673 83.0873C19.2673 80.4407 20.3099 76.7516 21.1119 76.7516C21.1921 76.7516 21.1119 78.9169 21.0317 81.5635ZM47.0967 83.1675C49.9037 89.4231 50.1443 89.0221 43.0867 90.0647L39.2371 90.5459L39.7985 87.0973C40.3599 83.4081 42.9263 77.5535 43.9689 77.5535C44.2897 77.6337 45.6531 80.1199 47.0967 83.1675ZM33.5429 78.9971C34.2647 79.5585 34.1845 80.0397 32.9013 81.1625C31.3775 82.5259 31.1369 82.5259 30.0141 81.4031C27.7685 79.1575 30.7359 77.2327 33.5429 78.9971ZM39.3173 79.5585C39.7985 80.2001 40.0391 81.4031 39.7183 82.2853C39.3173 83.6487 38.7559 83.8091 36.6707 83.4081C33.2221 82.7665 33.1419 82.6863 35.3875 80.4407C37.7133 78.1149 38.0341 78.0347 39.3173 79.5585ZM21.5931 88.9419C24.8011 91.0271 28.1695 92.7915 28.9715 92.7915C32.0993 92.7915 30.3349 94.0747 25.9239 94.9569C23.3575 95.5183 20.3901 96.1599 19.1871 96.4807C16.8613 96.9619 16.3801 96.1599 13.1721 86.8568C10.7661 79.7992 10.7661 79.2377 13.4127 82.4457C14.6157 83.8893 18.3049 86.7765 21.5931 88.9419ZM194.424 81.6437C197.472 84.0497 199.156 87.7389 198.675 90.9469C198.193 93.9143 194.023 103.218 193.221 103.218C192.9 103.218 192.499 101.694 192.178 99.8491C191.537 95.7589 189.131 91.7489 186.163 89.6637C184.96 88.7815 181.111 87.4181 177.582 86.7765C171.326 85.4131 171.326 85.4131 169.883 87.1775C169.081 88.2201 168.439 90.3053 168.439 91.9895C168.439 94.6361 167.717 95.7589 163.226 100.491C159.136 104.902 158.093 105.704 158.013 104.34C157.933 100.411 166.354 85.8141 171.006 81.9645C173.251 80.0397 173.893 79.9595 182.795 79.9595C191.216 79.9595 192.499 80.1199 194.424 81.6437ZM163.146 82.0447C164.269 84.9319 163.467 88.7013 160.58 94.4757C158.895 97.7639 157.211 101.373 156.89 102.496L156.409 104.421L154.404 102.015C150.314 97.0421 151.036 88.3806 156.008 83.4081C158.895 80.5209 162.344 79.8793 163.146 82.0447ZM29.2923 83.0071C29.2923 84.4507 27.6883 84.2101 27.4477 82.6863C27.2071 81.8843 27.5279 81.4833 28.2497 81.7239C28.8111 81.9645 29.2923 82.5259 29.2923 83.0071ZM26.4853 84.4507C26.4853 85.5735 25.5229 85.9745 24.6407 85.0923C23.9189 84.3705 24.9615 82.2853 25.7635 82.8467C26.1645 83.0873 26.4853 83.8091 26.4853 84.4507ZM23.2773 84.6913C23.2773 85.0923 23.5179 85.9745 23.7585 86.6964C24.0793 87.5786 23.8387 87.9795 22.9565 87.9795C22.1545 87.9795 21.6733 87.2577 21.6733 85.9745C21.6733 84.8517 22.0743 83.9695 22.4753 83.9695C22.9565 83.9695 23.2773 84.2903 23.2773 84.6913ZM38.5153 87.5786C38.5153 89.9846 38.1143 90.6261 35.8687 91.6687C33.4627 92.7915 32.9815 92.7915 28.6507 91.1875C26.0843 90.2251 24.0793 89.2627 24.2397 89.1023C26.9665 86.4557 30.5755 84.9319 34.3449 84.8517L38.5153 84.7715V87.5786ZM178.224 88.0597C180.549 88.5409 183.517 89.5835 184.72 90.3053C187.126 91.6687 190.574 96.5609 189.772 97.3629C189.532 97.6035 189.131 97.2025 188.81 96.4807C188.168 94.7965 184.399 92.7915 181.833 92.7915C180.79 92.7915 177.742 93.8341 175.176 95.1975L175.175 95.1982C172.609 96.4811 170.364 97.6035 170.284 97.6035C169.482 97.6837 169.321 92.1499 170.043 89.9845C171.086 86.8567 171.728 86.6963 178.224 88.0597ZM50.6255 90.7063C50.1443 91.3479 48.0591 92.2301 45.9739 92.7113C43.8887 93.2727 40.7609 95.0371 38.5955 96.8817C34.8349 100.002 34.6665 100.009 27.2589 100.328C27.2417 100.329 27.2244 100.33 27.2071 100.33C15.4177 100.892 14.0543 98.6461 24.7209 96.3203C28.0893 95.5985 32.1795 94.4757 33.7835 93.8341C35.3875 93.1925 39.8787 92.0697 43.8085 91.1875C47.7383 90.3855 51.1067 89.6637 51.2671 89.6637C51.4275 89.5835 51.1067 90.0647 50.6255 90.7063ZM54.9563 93.5133C55.5979 97.4431 54.8761 103.538 53.1919 107.388C51.6681 110.917 50.2245 111.478 51.1067 108.19C51.9087 105.303 51.5879 101.694 50.5453 100.411C49.1017 98.7263 46.5353 98.6461 41.0015 100.17C38.1143 100.972 35.7083 101.453 35.5479 101.373C34.8261 100.651 43.1669 94.9569 46.3749 93.9945C48.4601 93.3529 50.8661 92.3103 51.7483 91.6687C54.0741 89.9043 54.3949 90.0647 54.9563 93.5133ZM127.377 99.3679C126.976 106.907 124.811 111.478 118.074 118.616C114.625 122.305 111.257 124.872 107.888 126.556C102.435 129.202 96.2593 130.486 96.2593 128.962C96.2593 127.438 101.553 117.253 105.001 112.2C110.054 104.661 116.791 97.9243 121.282 95.6787C127.618 92.5509 127.778 92.6311 127.377 99.3679ZM187.607 97.2025C190.254 100.33 191.056 102.736 188.65 100.571C187.848 99.7689 186.564 99.2075 185.843 99.2075C185.121 99.2075 183.276 98.5659 181.672 97.8441C179.186 96.6411 178.464 96.6411 176.219 97.5233C171.166 99.5284 170.524 99.2877 174.454 96.8817C180.229 93.3529 184.319 93.4331 187.607 97.2025ZM201.802 98.0045C204.048 101.453 201.241 106.666 194.745 110.837C193.542 111.558 192.178 112.04 191.777 111.879C190.735 111.478 198.113 95.9995 199.396 95.9995C200.038 95.9995 201.081 96.8817 201.802 98.0045ZM169.642 104.02C169.642 107.067 169.321 109.794 169.001 110.115C168.68 110.436 166.354 109.794 163.948 108.511L159.457 106.345L163.707 101.774C166.354 98.9669 168.359 97.3629 168.84 97.7639C169.321 98.1649 169.642 100.972 169.642 104.02ZM183.116 99.5283C185.682 100.571 188.088 101.774 188.489 102.095C188.89 102.496 188.65 104.1 188.008 105.624L186.805 108.431L185.522 106.025C183.116 101.293 181.271 99.9293 178.143 100.491L175.256 101.052L176.78 99.2877C177.662 98.4055 178.384 97.6035 178.384 97.6035C178.464 97.6035 180.549 98.4857 183.116 99.5283ZM15.3375 100.491C19.2673 102.576 35.0667 103.057 41.0015 101.373L45.3323 100.09L41.7233 103.538L38.1143 106.987L26.4051 107.468C13.4929 108.11 10.9265 107.629 6.67594 103.939C5.31254 102.736 3.30754 101.533 2.34514 101.213C0.580744 100.651 0.580743 100.571 2.10454 99.4481C4.10954 97.9243 11.5681 98.4857 15.3375 100.491ZM50.5453 103.618C50.5453 108.11 48.6205 113.804 46.6155 115.248C43.1669 117.654 38.1945 118.616 34.4251 117.654C31.2973 116.771 20.9515 110.596 20.8713 109.553C20.8713 108.511 26.0843 108.03 30.8963 108.511C36.5905 109.072 40.5203 107.709 43.5679 104.02C47.2571 99.6085 50.5453 99.4481 50.5453 103.618ZM174.855 100.972C174.855 101.453 175.417 102.576 176.219 103.378C177.903 105.223 177.341 105.784 174.214 105.142C170.444 104.34 170.123 100.09 173.893 100.01C174.374 100.01 174.855 100.411 174.855 100.972ZM181.672 103.618C181.672 104.661 181.031 105.303 179.908 105.463C178.865 105.624 178.063 105.383 178.063 104.982C178.063 104.501 177.823 103.538 177.582 102.817C177.101 101.774 177.502 101.533 179.346 101.774C181.031 101.934 181.672 102.415 181.672 103.618ZM191.136 107.468C190.574 110.516 189.291 113.162 188.73 112.521C188.088 111.879 190.334 104.02 190.975 104.501C191.376 104.741 191.457 106.025 191.136 107.468ZM182.234 107.709C181.672 108.671 181.351 108.751 180.87 108.03C180.549 107.468 180.71 106.746 181.351 106.345C182.795 105.463 183.196 106.025 182.234 107.709ZM162.825 112.842C163.707 112.842 169.562 121.583 169.081 122.065C168.92 122.305 166.595 120.942 164.028 119.258C161.382 117.493 158.494 116.05 157.532 116.05C155.126 116.05 153.121 118.616 152.64 122.385C151.998 127.278 150.795 126.395 150.795 121.022C150.795 116.13 152.399 109.634 154.003 107.548C154.885 106.586 155.527 106.907 158.494 109.634C160.419 111.398 162.344 112.842 162.825 112.842ZM177.422 107.308C178.464 107.789 180.229 109.553 181.432 111.238L183.517 114.285L181.833 114.766C178.143 115.729 174.454 115.247 172.128 113.403C170.204 111.799 169.963 111.157 170.444 108.992C170.845 106.827 171.326 106.426 173.251 106.426C174.534 106.426 176.379 106.827 177.422 107.308ZM163.467 109.553C165.953 110.837 169.482 113.002 171.166 114.365C172.93 115.809 176.539 118.215 179.186 119.819C184.64 123.107 186.885 124.791 186.885 125.834C186.885 126.957 184.559 126.556 178.224 124.31C171.166 121.904 169.642 120.781 167.557 116.691C166.755 115.087 165.151 113.082 163.948 112.28C160.58 109.874 157.612 107.308 158.254 107.228C158.575 107.228 160.9 108.27 163.467 109.553ZM184.239 110.195C182.875 111.639 182.474 110.837 183.356 108.431C183.757 107.468 184.158 107.388 184.72 107.949C185.361 108.591 185.201 109.233 184.239 110.195ZM187.206 111.398C186.484 113.804 186.404 113.884 185.281 113.242C184.64 112.841 184.8 112.2 185.762 111.157C187.527 109.152 187.928 109.233 187.206 111.398ZM193.702 117.253C190.735 121.022 188.088 124.07 187.848 123.909C187.527 123.749 184.8 122.065 181.672 120.06L176.058 116.451L180.469 115.969C186.083 115.328 192.98 113.323 196.108 111.398C197.472 110.516 198.675 109.954 198.835 110.115C198.995 110.275 196.67 113.483 193.702 117.253ZM158.815 118.776C159.296 119.418 160.5 121.503 161.462 123.428C163.547 127.438 167.076 130.085 171.567 130.806C175.016 131.288 180.469 133.613 180.469 134.496C180.469 135.057 173.813 137.222 169.402 138.105C164.83 139.067 160.82 137.784 156.73 134.255L153.041 130.967L153.362 126.075C154.003 118.696 156.249 115.729 158.815 118.776ZM65.2219 123.909C64.5803 129.844 62.9763 133.774 61.3723 133.212C60.4901 132.811 60.1693 133.292 60.1693 135.217C60.1693 137.543 59.9287 137.704 57.4425 137.704C53.4325 137.704 52.5503 136.18 53.7533 131.288C54.3147 129.122 55.6781 125.914 56.9613 124.23C59.0465 121.343 63.8585 118.135 65.0615 118.937C65.3823 119.097 65.4625 121.343 65.2219 123.909ZM167.637 122.786C172.85 125.513 183.998 128.08 190.093 127.919C193.462 127.839 196.509 128.32 198.755 129.202C202.444 130.806 203.326 132.892 200.198 132.892C199.156 132.892 196.99 133.453 195.467 134.095C190.815 136.019 186.083 135.618 180.79 132.811C178.224 131.528 174.294 130.004 172.128 129.523C166.595 128.32 164.67 126.957 162.264 122.145L160.259 118.135L162.103 119.498C163.146 120.22 165.632 121.744 167.637 122.786ZM43.7283 136.821C46.8561 138.185 53.7533 144.841 53.7533 146.526C53.7533 147.809 46.6957 147.488 43.8887 146.044C39.2371 143.718 34.5053 138.265 34.5053 135.217C34.5053 134.094 39.3173 134.896 43.7283 136.821ZM75.6479 143.157C83.8283 149.814 89.4423 158.395 90.4047 165.453L90.8859 169.222L86.1541 168.821C77.1717 168.18 69.0715 162.646 65.6229 154.786C64.0189 151.097 61.7733 140.751 61.7733 136.821V134.415L66.4249 136.902C68.9913 138.265 73.1617 141.072 75.6479 143.157ZM61.2921 143.318C61.6129 145.724 62.7357 150.215 63.7783 153.342C65.6229 158.475 65.7031 159.197 64.6605 161.363C64.0189 162.646 63.2169 164.49 62.9763 165.372C62.4951 166.736 62.2545 166.495 61.2119 163.768C59.3673 158.555 53.9137 139.709 54.1543 139.308C54.3147 139.067 55.8385 138.906 57.6029 138.906L60.8109 138.826L61.2921 143.318ZM121.843 148.29C125.693 157.433 127.217 164.651 126.415 169.864C125.613 175.237 124.891 175.959 122.244 174.595C117.833 172.189 113.903 163.528 113.903 156.15C113.903 149.252 116.149 140.109 117.753 140.109C118.154 140.109 119.918 143.799 121.843 148.29ZM166.755 153.022C168.118 153.503 169.241 154.225 169.241 154.706C169.241 155.107 166.835 156.551 163.868 157.994C159.457 159.999 157.211 160.56 151.597 160.801C141.572 161.282 137.402 158.957 142.374 155.668C147.266 152.46 160.82 150.936 166.755 153.022ZM75.8885 167.057C77.4123 167.698 78.6153 168.5 78.6153 168.901C78.6153 170.987 68.0289 172.189 64.8209 170.505C63.4575 169.783 63.2971 169.142 63.7783 166.736C64.0189 165.052 64.8209 162.966 65.4625 161.924L66.6655 160.079L69.9537 162.966C71.7181 164.57 74.3647 166.415 75.8885 167.057ZM87.6779 170.185C89.7631 170.185 90.6453 170.505 90.6453 171.387C90.6453 172.51 84.8709 214.134 84.6303 214.455C84.6303 214.535 82.5451 214.856 80.1391 215.177L75.7281 215.658L74.6855 211.006C74.1241 208.36 71.4775 198.816 68.9111 189.593C66.2645 180.45 64.1793 172.671 64.1793 172.35C64.1793 172.029 66.5853 171.869 69.5527 172.029C73.7231 172.19 75.6479 171.869 77.8133 170.746C79.5777 169.783 81.4223 169.383 82.6253 169.703C83.7481 169.944 85.9937 170.185 87.6779 170.185ZM55.7583 181.332C61.2119 183.658 70.8359 194.645 69.3923 197.051C68.6705 198.254 60.5703 198.014 57.5227 196.811C56.0791 196.169 53.7533 194.645 52.2295 193.362C49.1819 190.796 43.1669 181.894 43.8085 180.851C44.4501 179.809 52.7909 180.129 55.7583 181.332ZM151.677 185.904C153.843 186.385 155.768 187.107 156.008 187.508C156.81 188.711 147.106 194.405 141.652 195.848C137.803 196.891 134.434 197.132 128.018 196.891C120.56 196.65 119.277 196.41 117.753 194.886C116.069 193.122 116.069 193.042 117.512 191.438C119.838 188.791 124.249 186.465 128.66 185.262C133.151 184.139 144.941 184.46 151.677 185.904ZM101.472 214.455C101.232 215.257 98.7455 219.748 96.0989 224.48L91.2067 233.141H87.5175H83.7481L84.7907 224.64C85.3521 219.908 85.9135 215.979 85.9937 215.898C86.2343 215.658 99.2267 213.252 100.991 213.172C101.633 213.091 101.873 213.573 101.472 214.455ZM83.4273 225.121C82.0639 236.75 80.7807 236.831 78.0539 225.603C77.0113 221.272 76.3697 217.502 76.6103 217.262C77.0915 216.781 83.6679 215.658 84.1491 216.059C84.3095 216.139 83.9887 220.229 83.4273 225.121ZM76.6905 224.72C77.7331 228.65 78.4549 231.938 78.3747 232.019C77.9737 232.42 75.5677 230.014 73.4825 227.126C72.1993 225.362 70.0339 222.796 68.7507 221.352L66.3447 218.786L68.6705 218.304C69.9537 217.984 71.3973 217.663 71.7983 217.502C74.2043 216.7 75.0063 217.823 76.6905 224.72ZM44.1293 226.084C44.1293 227.527 45.0115 230.655 46.1343 232.981C47.2571 235.387 48.1393 237.472 48.1393 237.713C48.1393 238.515 43.4075 237.232 41.4025 235.948C38.9163 234.344 36.6707 229.613 37.3123 227.527C37.7935 225.923 41.2421 223.598 43.1669 223.517C43.7283 223.517 44.1293 224.56 44.1293 226.084ZM90.4047 235.066C89.5225 237.392 85.8333 242.765 85.1115 242.765C83.0263 242.765 82.7857 235.066 84.8709 234.505C88.0789 233.623 90.8057 233.943 90.4047 235.066ZM82.6253 236.75C82.6253 237.392 82.3045 237.953 81.8233 237.953C81.4223 237.953 81.0213 237.392 81.0213 236.75C81.0213 236.109 81.4223 235.547 81.8233 235.547C82.3045 235.547 82.6253 236.109 82.6253 236.75ZM66.4249 263.778C75.6479 279.176 76.4499 281.903 72.7607 285.833C70.8359 287.998 64.6605 288.399 62.1743 286.635C60.8911 285.672 60.8911 285.191 61.6129 282.865C62.8961 279.256 62.8159 271.557 61.4525 269.632C60.6505 268.349 60.5703 266.906 61.2119 262.575C61.6931 259.607 62.1743 257.201 62.2545 257.201C62.3347 257.201 64.2595 260.169 66.4249 263.778ZM61.4525 273.642C61.9337 276.53 60.4901 284.469 59.3673 284.469C58.1643 284.469 57.8435 282.304 58.6455 279.176C58.9663 277.412 59.3673 274.845 59.3673 273.402C59.3673 269.953 60.7307 270.114 61.4525 273.642ZM81.1015 295.778C84.7907 306.685 85.1115 311.417 82.3847 313.983C78.2143 317.913 70.8359 317.833 71.8785 313.823C72.3597 311.737 69.0715 304.279 67.1467 303.156C66.4249 302.755 65.8635 300.189 65.5427 295.858L65.0615 289.281H67.4675C70.4349 289.281 74.2043 287.437 74.9261 285.592C75.8885 283.026 77.8133 286.154 81.1015 295.778ZM69.7933 309.331C71.6379 312.86 71.7181 313.341 70.6755 313.341C70.2745 313.341 69.5527 312.379 69.1517 311.096C68.7507 309.893 68.1091 308.289 67.7883 307.487C66.6655 304.84 68.1893 306.123 69.7933 309.331ZM87.4373 313.742C87.4373 315.747 86.9561 318.715 86.3145 320.319C85.6729 322.003 84.9511 325.131 84.7105 327.296C84.4699 329.462 83.6679 332.108 83.0263 333.071C81.5025 335.477 76.0489 337.161 73.1617 336.118C71.2369 335.477 71.0765 335.076 71.3171 331.306C71.3973 328.98 71.0765 325.692 70.5953 323.848C69.6329 320.158 70.2745 315.908 71.6379 317.271C73.0013 318.635 77.0113 318.314 80.7807 316.63C83.1867 315.507 84.3095 314.384 85.1115 312.219C86.3947 308.61 87.4373 309.251 87.4373 313.742ZM70.5953 329.863C70.5953 330.905 70.2745 331.787 69.7933 331.787C69.3923 331.787 68.9913 330.665 68.9913 329.301C68.9913 327.938 69.3121 327.056 69.7933 327.376C70.2745 327.617 70.5953 328.74 70.5953 329.863Z" fill="black"/>
<path d="M127.377 99.3679C126.976 106.907 124.811 111.478 118.074 118.616C114.625 122.305 111.257 124.872 107.888 126.556C102.435 129.202 96.2593 130.486 96.2593 128.962C96.2593 127.438 101.553 117.253 105.001 112.2C110.054 104.661 116.791 97.9243 121.282 95.6787C127.618 92.5509 127.778 92.6311 127.377 99.3679Z" fill="#699472"/>
<path d="M75.6479 143.157C83.8283 149.814 89.4423 158.395 90.4047 165.453L90.8859 169.222L86.1541 168.821C77.1717 168.18 69.0715 162.646 65.6229 154.786C64.0189 151.097 61.7733 140.751 61.7733 136.821V134.415L66.4249 136.902C68.9913 138.265 73.1617 141.072 75.6479 143.157Z" fill="#699472"/>
<path d="M121.843 148.29C125.693 157.433 127.217 164.651 126.415 169.864C125.613 175.237 124.891 175.959 122.244 174.595C117.833 172.189 113.903 163.528 113.903 156.15C113.903 149.252 116.149 140.109 117.753 140.109C118.154 140.109 119.918 143.799 121.843 148.29Z" fill="#699472"/>
<path d="M151.677 185.904C153.843 186.385 155.768 187.107 156.008 187.508C156.81 188.711 147.106 194.405 141.652 195.848C137.803 196.891 134.434 197.132 128.018 196.891C120.56 196.65 119.277 196.41 117.753 194.886C116.069 193.122 116.069 193.042 117.512 191.438C119.838 188.791 124.249 186.465 128.66 185.262C133.151 184.139 144.941 184.46 151.677 185.904Z" fill="#699472"/>
<path d="M166.755 153.022C168.118 153.503 169.241 154.225 169.241 154.706C169.241 155.107 166.835 156.551 163.868 157.994C159.457 159.999 157.211 160.56 151.597 160.801C141.572 161.282 137.402 158.957 142.374 155.668C147.266 152.46 160.82 150.936 166.755 153.022Z" fill="#699472"/>
<path d="M85.1917 57.5035C89.8433 61.3531 93.7731 62.3957 101.793 61.8343C105.563 61.5937 109.573 60.9521 110.535 60.4709C112.219 59.6689 112.62 59.8293 113.984 61.5135C115.989 64.2403 115.908 65.1225 112.941 69.2127C110.776 72.1801 109.653 72.9821 105.964 74.0247C103.477 74.6663 100.991 75.3881 100.43 75.6287C99.8683 75.7891 97.0613 75.1475 94.1741 74.2653C89.6027 72.8217 88.4799 72.0197 84.6303 67.4483C80.2995 62.3155 79.4173 59.7491 80.7005 56.3807C81.3421 54.6163 81.8233 54.7767 85.1917 57.5035Z" fill="#C93636"/>
<path d="M74.3647 23.5789C74.9261 24.8622 76.7707 28.3107 78.5351 31.2781L81.8233 36.7317L80.1391 41.3032C77.5727 48.2003 77.4123 49.7242 79.3371 51.4084C81.9035 53.7342 81.4223 54.2955 76.6103 54.2955C69.5527 54.2955 65.9437 51.8093 64.0991 45.7141C63.2971 42.7467 63.2971 41.8646 64.5001 39.218C65.5427 36.9724 65.8635 34.5663 65.6229 30.5563L65.3823 25.0225L68.9913 23.2581C73.5627 21.0125 73.2419 21.0125 74.3647 23.5789Z" fill="#DB6868"/>
<path d="M89.0413 40.6615C90.5651 40.6615 92.6503 41.3031 93.6929 42.1051C95.2969 43.3883 95.3771 43.7091 94.4949 46.1151C93.3721 49.0826 93.9335 50.4459 97.2217 52.9321C99.1465 54.3757 99.3871 54.3757 103.798 53.0925C109.332 51.4885 110.695 51.8895 110.695 55.0975C110.695 59.3481 109.573 60.6313 106.124 60.1501C104.44 59.9897 101.553 60.1501 99.6277 60.5511C94.3345 61.7542 88.9611 59.5085 83.1867 53.5737L78.6153 48.8419L80.0589 44.9121C80.8609 42.8269 81.8233 40.421 82.0639 39.619C82.5451 38.2556 82.7857 38.2556 84.3897 39.3784C85.3521 40.1002 87.4373 40.6615 89.0413 40.6615Z" fill="#AF3A3A"/>
<path d="M131.708 55.1777C134.515 55.8995 134.595 55.9797 133.793 58.5461C131.788 64.8017 131.467 65.1225 125.933 65.6037C120.079 66.0849 116.791 64.9622 115.908 62.3156C115.588 61.4333 114.545 60.0699 113.422 59.4283C112.299 58.6263 111.497 57.3431 111.497 56.2203C111.497 54.0549 111.578 53.9747 115.748 55.1777C118.074 55.8193 119.197 55.7391 120.961 54.8569C123.126 53.6539 126.013 53.7341 131.708 55.1777Z" fill="#9D1313"/>
<path d="M119.918 45.7943C124.41 45.9547 128.339 47.1577 128.339 48.5211C128.339 48.8419 126.334 50.3658 123.928 51.8094C120.319 53.9748 118.956 54.456 116.55 54.055C114.946 53.7342 112.941 52.852 111.979 51.9698C110.535 50.6064 109.813 50.5261 106.685 51.1677C98.1039 52.9321 98.3445 52.9321 96.4197 50.8469C94.8959 49.1627 94.7355 48.6013 95.4573 46.9171C96.3395 44.9923 96.6603 44.9121 102.114 45.2329C105.322 45.4735 108.771 45.2329 109.893 44.8319C111.257 44.3507 112.46 44.3507 113.502 44.9121C114.385 45.3933 117.272 45.7943 119.918 45.7943Z" fill="#BD4545"/>
<path d="M137.242 38.4962C137.883 39.0576 139.487 40.2605 140.69 41.2229L142.936 42.9873L141.973 49.0023C141.091 54.1352 140.69 55.0174 139.246 55.258C137.883 55.4986 130.665 53.8946 126.334 52.451C125.933 52.2906 126.816 51.4885 128.339 50.6865L131.066 49.243L128.901 47.3983L126.735 45.5537L130.505 41.5437C134.675 37.2931 135.317 36.9724 137.242 38.4962Z" fill="#B74242"/>
<path d="M131.788 21.0126C133.392 23.8196 134.755 26.8672 134.755 27.7494C134.755 28.6316 135.076 30.2356 135.557 31.3584C136.199 33.1228 135.798 33.9247 132.67 37.7743C130.665 40.1803 127.858 42.6666 126.415 43.3884C123.688 44.6716 118.234 45.0725 114.946 44.1903L113.101 43.7091L114.946 41.4636C115.908 40.2606 117.673 37.614 118.876 35.5287C120.8 32.3207 121.362 31.8395 123.046 32.3207C124.49 32.6415 124.971 32.4009 125.372 31.1177C125.613 30.1553 125.372 28.9524 124.811 28.391C124.169 27.7494 123.928 25.7444 124.169 22.4561C124.41 18.4461 124.811 17.4036 126.254 16.762C127.136 16.2808 128.099 15.8798 128.339 15.8798C128.58 15.8798 130.104 18.2056 131.788 21.0126Z" fill="#DF5E5E"/>
<path d="M107.487 39.4585C109.893 39.4585 112.781 39.1377 113.903 38.8169C115.668 38.2555 115.588 38.4962 112.941 40.9824C109.733 44.03 105.883 45.1527 101.472 44.3507C98.9059 43.8695 98.6653 43.5487 98.6653 40.9021C98.6653 38.1753 98.7455 38.0952 100.911 38.7368C102.114 39.1378 105.081 39.4585 107.487 39.4585Z" fill="#A43D3D"/>
<path d="M94.6553 13.2332C94.6553 13.6342 93.8533 14.2758 92.8909 14.757C90.0839 16.0402 87.8383 26.0652 88.9611 32.3207C90.0839 38.3357 90.0839 39.0576 88.6403 39.5388C86.6353 40.3408 82.7857 36.812 80.5401 32.0801C77.1717 24.8622 77.8133 17.4036 81.8233 17.4036C82.5451 17.4036 84.7907 16.361 86.7155 14.9976C90.0037 12.752 94.6553 11.7896 94.6553 13.2332Z" fill="#B32D2D"/>
<path d="M89.1215 9.94495C84.7907 15.158 84.0689 15.7995 81.3421 16.2807C78.6955 16.7619 77.8935 18.0452 76.7707 23.4185C76.5301 24.8622 76.3697 24.7018 75.5677 22.777C74.2845 19.8096 74.3647 13.955 75.5677 12.752C76.1291 12.1906 77.1717 11.7896 77.9737 11.7896C80.2193 11.7896 85.1917 8.98257 87.2769 6.57657C89.0413 4.57156 89.2819 4.49133 90.4849 5.61414C91.6077 6.73694 91.4473 7.13794 89.1215 9.94495Z" fill="#C64040"/>
<path d="M100.911 17.1629C101.071 17.7243 100.67 18.2055 100.029 18.2055C98.1841 18.2055 94.6553 22.8571 94.6553 25.2632C94.6553 26.4662 95.1365 29.0325 95.7781 31.0375C97.3019 36.0099 98.1841 43.0675 97.3019 43.0675C96.9009 43.0675 95.2969 41.8646 93.6929 40.421C91.1265 38.0952 90.7255 37.213 90.2443 32.3207C89.6027 26.7869 90.8057 19.0076 92.4899 16.762C93.5325 15.4788 100.43 15.7995 100.911 17.1629Z" fill="#955050"/>
<path d="M124.329 30.2355C124.329 30.6365 123.367 31.0375 122.244 31.0375C120.961 31.0375 119.437 31.9197 118.074 33.5237C114.144 38.2556 107.006 40.2606 102.675 37.8546L100.67 36.812L102.675 36.0099C106.766 34.4059 117.593 30.396 118.715 29.995C120.801 29.2732 124.329 29.4335 124.329 30.2355Z" fill="#AE4E4E"/>
<path d="M104.841 25.5038C117.512 28.5514 118.074 29.1127 111.497 31.2781C109.492 31.9197 105.803 33.4435 103.237 34.5663C99.9485 36.0099 98.5049 36.3307 98.2643 35.6089C97.2217 32.4009 95.4573 25.4236 95.4573 24.7018C95.4573 23.4987 96.8207 23.5789 104.841 25.5038Z" fill="#D85F5F"/>
<path d="M117.833 10.1856C121.201 11.8698 122.645 14.4362 123.287 19.8096C123.768 23.98 121.923 28.6315 119.838 28.6315C118.796 28.6315 115.828 27.4286 114.866 26.6266C114.705 26.4662 115.187 25.2631 115.908 23.8195C117.512 20.7719 116.951 18.9274 113.262 14.8372C109.813 11.0677 106.846 9.38354 103.477 9.38354C101.793 9.38354 101.152 9.06277 101.553 8.50137C102.355 7.05777 114.224 8.34097 117.833 10.1856Z" fill="#9F3E3E"/>
<path d="M107.086 11.4688C108.53 12.1104 110.455 13.4738 111.337 14.4362L113.021 16.2807H109.653C107.808 16.2807 105.723 16.5214 105.001 16.8422C104.119 17.2432 103.157 17.0025 102.355 16.1203C101.553 15.3985 99.7881 14.5163 98.4247 14.1955L95.8583 13.7144L98.6653 11.95C102.034 9.86475 103.558 9.78455 107.086 11.4688Z" fill="#DD6464"/>
<path d="M102.675 2.56656C103.237 3.20816 105.723 4.41116 108.209 5.21317L112.7 6.57657L107.086 6.81714C102.274 7.05774 101.152 7.37854 99.2267 9.22314C97.3821 10.9875 96.1791 11.3885 93.0513 11.3885C90.8859 11.3885 89.4423 11.0677 89.7631 10.7469C91.5275 8.98254 100.751 1.44376 101.152 1.36356C101.472 1.36356 102.114 1.92496 102.675 2.56656Z" fill="#BF1818"/>
<path d="M135.076 14.2758C137.402 16.1204 137.482 16.5213 136.279 20.9323L135.397 24.1404L133.793 22.1353C132.991 21.0927 131.708 19.0076 131.066 17.564C129.863 14.8372 128.5 14.4362 125.773 15.8798C123.928 16.8422 123.928 16.8421 123.206 14.3559C122.645 12.6717 122.806 12.5916 127.778 12.5916C131.788 12.5916 133.392 12.9926 135.076 14.2758Z" fill="#9F1717"/>
<path d="M103.076 21.0126C100.67 23.0176 97.0613 23.7393 97.0613 22.2957C97.0613 20.9323 100.59 19.0075 103.076 19.0075L105.482 19.0877L103.076 21.0126Z" fill="#B96666"/>
<path d="M109.091 23.8195C111.818 25.2631 109.974 25.7444 105.964 24.6216C102.274 23.6591 102.034 23.2582 104.119 21.7344C105.242 20.8522 105.643 20.8522 106.284 21.7344C106.766 22.2958 107.969 23.2581 109.091 23.8195Z" fill="#BF3939"/>
<path d="M112.38 18.1254C114.144 19.4888 114.144 19.8095 113.101 21.8145L111.979 23.98L111.096 21.4135C110.615 19.9699 109.573 18.366 108.69 17.7244C107.247 16.6016 107.247 16.6015 108.851 16.6015C109.733 16.6015 111.337 17.3234 112.38 18.1254Z" fill="#B42222"/>
<path d="M115.026 23.3383C114.786 24.0602 114.224 24.6216 113.823 24.6216C113.342 24.6216 113.422 23.8998 113.903 22.9374C114.946 21.0126 115.828 21.3333 115.026 23.3383Z" fill="#B12B2B"/>
<path d="M109.733 22.0552C109.893 22.6166 109.573 22.8571 108.771 22.5363C108.049 22.2957 107.487 21.6541 107.487 21.2531C107.487 20.2105 109.332 20.8522 109.733 22.0552Z" fill="#C57070"/>
<path d="M50.5453 103.618C50.5453 108.11 48.6205 113.804 46.6155 115.248C43.1669 117.654 38.1945 118.616 34.4251 117.654C31.2973 116.771 20.9515 110.596 20.8713 109.553C20.8713 108.511 26.0843 108.03 30.8963 108.511C36.5905 109.072 40.5203 107.709 43.5679 104.02C47.2571 99.6085 50.5453 99.4481 50.5453 103.618Z" fill="#C93636"/>
<path d="M15.3375 100.491C19.2673 102.576 35.0667 103.057 41.0015 101.373L45.3323 100.09L41.7233 103.538L38.1143 106.987L26.4051 107.468C13.4929 108.11 10.9265 107.629 6.67594 103.939C5.31254 102.736 3.30754 101.533 2.34514 101.213C0.580744 100.651 0.580743 100.571 2.10454 99.4481C4.10954 97.9243 11.5681 98.4857 15.3375 100.491Z" fill="#913333"/>
<path d="M54.9563 93.5133C55.5979 97.4431 54.8761 103.538 53.1919 107.388C51.6681 110.917 50.2245 111.478 51.1067 108.19C51.9087 105.303 51.5879 101.694 50.5453 100.411C49.1017 98.7263 46.5353 98.6461 41.0015 100.17C38.1143 100.972 35.7083 101.453 35.5479 101.373C34.8261 100.651 43.1669 94.9569 46.3749 93.9945C48.4601 93.3529 50.8661 92.3103 51.7483 91.6687C54.0741 89.9043 54.3949 90.0647 54.9563 93.5133Z" fill="#A84848"/>
<path d="M50.6255 90.7063C50.1443 91.3479 48.0591 92.2301 45.9739 92.7113C43.8887 93.2727 40.7609 95.0371 38.5955 96.8817C34.8349 100.002 34.6665 100.009 27.2589 100.328L27.2071 100.33C15.4177 100.892 14.0543 98.6461 24.7209 96.3203C28.0893 95.5985 32.1795 94.4757 33.7835 93.8341C35.3875 93.1925 39.8787 92.0697 43.8085 91.1875C47.7383 90.3855 51.1067 89.6637 51.2671 89.6637C51.4275 89.5835 51.1067 90.0647 50.6255 90.7063Z" fill="#A95757"/>
<path d="M21.5931 88.9419C24.8011 91.0271 28.1695 92.7915 28.9715 92.7915C32.0993 92.7915 30.3349 94.0747 25.9239 94.9569C23.3575 95.5183 20.3901 96.1599 19.1871 96.4807C16.8613 96.9619 16.3801 96.1599 13.1721 86.8568C10.7661 79.7992 10.7661 79.2377 13.4127 82.4457C14.6157 83.8893 18.3049 86.7765 21.5931 88.9419Z" fill="#D16060"/>
<path d="M47.0967 83.1675C49.9037 89.4231 50.1443 89.0221 43.0867 90.0647L39.2371 90.5459L39.7985 87.0973C40.3599 83.4081 42.9263 77.5535 43.9689 77.5535C44.2897 77.6337 45.6531 80.1199 47.0967 83.1675Z" fill="#BF5454"/>
<path d="M58.9663 66.3255C60.7307 68.1701 61.2921 69.6137 61.6129 73.0623C62.0941 78.7565 60.7307 82.5259 57.1217 85.6537L54.2345 88.2201L52.8711 80.0397C51.5077 71.9395 51.6681 69.4533 53.6731 65.6037C54.9563 63.2779 56.2395 63.4383 58.9663 66.3255Z" fill="#BF5C5C"/>
<path d="M35.0667 56.3807C45.0917 60.2303 45.6531 60.5511 47.1769 63.679C48.0591 65.3632 49.3423 69.0523 50.0641 71.9395C51.5077 77.6337 52.7107 88.7816 51.8285 88.7816C51.5077 88.7816 49.9037 85.8943 48.2195 82.3655C45.4125 76.6714 45.1719 75.6288 45.8937 72.9019C46.3749 70.9771 46.3749 69.1325 45.8135 67.8493C45.1719 66.0047 44.3699 65.6038 39.1569 64.882C29.9339 63.5186 25.3625 65.3631 20.8713 72.5009L18.6257 75.9495L18.2247 73.3831C16.2999 62.4759 17.1019 59.1075 21.9139 55.9797C25.3625 53.7341 28.5705 53.8945 35.0667 56.3807Z" fill="#BC6161"/>
<path d="M16.3801 69.6939C16.6207 71.1375 17.0217 75.2277 17.3425 78.7565L17.9039 85.1725L15.7385 83.2477C13.0117 80.7615 10.4453 75.3079 10.4453 72.1801C10.4453 67.1275 15.4979 65.0423 16.3801 69.6939Z" fill="#D16E6E"/>
<path d="M43.6481 66.8067C45.3323 67.4483 45.3323 72.0197 43.6481 75.2277L42.3649 77.7139L38.9163 74.1049C34.4251 69.3731 30.1745 67.9295 26.4051 69.8543C23.3575 71.3781 22.6357 71.1375 24.6407 69.2929C28.1695 66.1651 30.7359 65.4433 36.5905 65.8443C39.7183 66.0849 42.8461 66.4859 43.6481 66.8067Z" fill="#CA5E5E"/>
<path d="M38.5153 87.5786C38.5153 89.9846 38.1143 90.6261 35.8687 91.6687C33.4627 92.7915 32.9815 92.7915 28.6507 91.1875C26.0843 90.2251 24.0793 89.2627 24.2397 89.1023C26.9665 86.4557 30.5755 84.9319 34.3449 84.8517L38.5153 84.7715V87.5786Z" fill="#9F3D3D"/>
<path d="M39.3173 79.5585C39.7985 80.2001 40.0391 81.4031 39.7183 82.2853C39.3173 83.6487 38.7559 83.8091 36.6707 83.4081C33.2221 82.7665 33.1419 82.6863 35.3875 80.4407C37.7133 78.1149 38.0341 78.0347 39.3173 79.5585Z" fill="#8F3030"/>
<path d="M35.4677 76.1901C35.7885 76.7515 36.1093 77.6337 36.1093 78.1951C36.1093 78.9971 35.7083 78.9169 34.3449 78.0347C31.6181 76.1099 30.0141 76.4307 26.5655 79.5585C23.9991 81.8843 23.3575 82.1249 22.9565 81.0823C22.2347 79.2377 22.3951 77.1525 23.2773 76.2703C24.4803 75.0673 34.7459 75.0673 35.4677 76.1901Z" fill="#BE3939"/>
<path d="M34.4251 71.4583C36.5103 72.5811 40.9213 77.5535 40.9213 78.7565C40.9213 79.0773 39.4777 78.0347 37.7935 76.5109C34.7459 73.7841 34.4251 73.7039 29.9339 74.0247C27.3675 74.2653 24.6407 74.5861 23.9189 74.7465C21.6733 75.1475 22.2347 73.8643 25.1219 72.0197C28.1695 70.0949 31.2973 69.8543 34.4251 71.4583Z" fill="#BF4545"/>
<path d="M21.0317 81.5635C20.7109 86.937 19.2673 88.2202 19.2673 83.0873C19.2673 80.4407 20.3099 76.7516 21.1119 76.7516C21.1921 76.7516 21.1119 78.9169 21.0317 81.5635Z" fill="#BC5656"/>
<path d="M23.2773 84.6913C23.2773 85.0923 23.5179 85.9745 23.7585 86.6964C24.0793 87.5786 23.8387 87.9795 22.9565 87.9795C22.1545 87.9795 21.6733 87.2577 21.6733 85.9745C21.6733 84.8517 22.0743 83.9695 22.4753 83.9695C22.9565 83.9695 23.2773 84.2903 23.2773 84.6913Z" fill="#9B5454"/>
<path d="M33.5429 78.9971C34.2647 79.5585 34.1845 80.0397 32.9013 81.1625C31.3775 82.5259 31.1369 82.5259 30.0141 81.4031C27.7685 79.1575 30.7359 77.2327 33.5429 78.9971Z" fill="#C23636"/>
<path d="M29.2923 83.0071C29.2923 84.4507 27.6883 84.2101 27.4477 82.6863C27.2071 81.8843 27.5279 81.4833 28.2497 81.7239C28.8111 81.9645 29.2923 82.5259 29.2923 83.0071Z" fill="#A63737"/>
<path d="M26.4853 84.4507C26.4853 85.5735 25.5229 85.9745 24.6407 85.0923C23.9189 84.3705 24.9615 82.2853 25.7635 82.8467C26.1645 83.0873 26.4853 83.8091 26.4853 84.4507Z" fill="#AF5353"/>
<path d="M158.815 118.776C159.296 119.418 160.5 121.503 161.462 123.428C163.547 127.438 167.076 130.085 171.567 130.806C175.016 131.288 180.469 133.613 180.469 134.496C180.469 135.057 173.813 137.222 169.402 138.105C164.83 139.067 160.82 137.784 156.73 134.255L153.041 130.967L153.362 126.075C154.003 118.696 156.249 115.729 158.815 118.776Z" fill="#A43333"/>
<path d="M167.637 122.786C172.85 125.513 183.998 128.08 190.093 127.919C193.462 127.839 196.509 128.32 198.755 129.202C202.444 130.806 203.326 132.892 200.198 132.892C199.156 132.892 196.99 133.453 195.467 134.095C190.815 136.019 186.083 135.618 180.79 132.811C178.224 131.528 174.294 130.004 172.128 129.523C166.595 128.32 164.67 126.957 162.264 122.145L160.259 118.135L162.103 119.498C163.146 120.22 165.632 121.744 167.637 122.786Z" fill="#A83737"/>
<path d="M162.825 112.842C163.707 112.842 169.562 121.583 169.081 122.065C168.92 122.305 166.595 120.942 164.028 119.258C161.382 117.493 158.494 116.05 157.532 116.05C155.126 116.05 153.121 118.616 152.64 122.385C151.998 127.278 150.795 126.395 150.795 121.022C150.795 116.13 152.399 109.634 154.003 107.548C154.885 106.586 155.527 106.907 158.494 109.634C160.419 111.398 162.344 112.842 162.825 112.842Z" fill="#AF4646"/>
<path d="M163.146 82.0447C164.269 84.9319 163.467 88.7013 160.58 94.4757C158.895 97.7639 157.211 101.373 156.89 102.496L156.409 104.421L154.404 102.015C150.314 97.0421 151.036 88.3806 156.008 83.4081C158.895 80.5209 162.344 79.8793 163.146 82.0447Z" fill="#C15151"/>
<path d="M163.467 109.553C165.953 110.837 169.482 113.002 171.166 114.365C172.93 115.809 176.539 118.215 179.186 119.819C184.64 123.107 186.885 124.791 186.885 125.834C186.885 126.957 184.559 126.556 178.224 124.31C171.166 121.904 169.642 120.781 167.557 116.691C166.755 115.087 165.151 113.082 163.948 112.28C160.58 109.874 157.612 107.308 158.254 107.228C158.575 107.228 160.9 108.27 163.467 109.553Z" fill="#8D2626"/>
<path d="M193.702 117.253C190.735 121.022 188.088 124.07 187.848 123.909C187.527 123.749 184.8 122.065 181.672 120.06L176.058 116.451L180.469 115.969C186.083 115.328 192.98 113.323 196.108 111.398C197.472 110.516 198.675 109.954 198.835 110.115C198.995 110.275 196.67 113.483 193.702 117.253Z" fill="#B63131"/>
<path d="M201.802 98.0045C204.048 101.453 201.241 106.666 194.745 110.837C193.542 111.558 192.178 112.04 191.777 111.879C190.735 111.478 198.113 95.9995 199.396 95.9995C200.038 95.9995 201.081 96.8817 201.802 98.0045Z" fill="#B43131"/>
<path d="M194.424 81.6437C197.472 84.0497 199.156 87.7389 198.675 90.9469C198.193 93.9143 194.023 103.218 193.221 103.218C192.9 103.218 192.499 101.694 192.178 99.8491C191.537 95.7589 189.131 91.7489 186.163 89.6637C184.96 88.7815 181.111 87.4181 177.582 86.7765C171.326 85.4131 171.326 85.4131 169.883 87.1775C169.081 88.2201 168.439 90.3053 168.439 91.9895C168.439 94.6361 167.717 95.7589 163.226 100.491C159.136 104.902 158.093 105.704 158.013 104.34C157.933 100.411 166.354 85.8141 171.006 81.9645C173.251 80.0397 173.893 79.9595 182.795 79.9595C191.216 79.9595 192.499 80.1199 194.424 81.6437Z" fill="#AF4545"/>
<path d="M178.224 88.0597C180.549 88.5409 183.517 89.5835 184.72 90.3053C187.126 91.6687 190.574 96.5609 189.772 97.3629C189.532 97.6035 189.131 97.2025 188.81 96.4807C188.168 94.7965 184.399 92.7915 181.833 92.7915C180.79 92.7915 177.742 93.8341 175.176 95.1975L175.175 95.1982C172.609 96.4811 170.364 97.6035 170.284 97.6035C169.482 97.6837 169.321 92.1499 170.043 89.9845C171.086 86.8567 171.728 86.6963 178.224 88.0597Z" fill="#8C3F3F"/>
<path d="M169.642 104.02C169.642 107.067 169.321 109.794 169.001 110.115C168.68 110.436 166.354 109.794 163.948 108.511L159.457 106.345L163.707 101.774C166.354 98.9669 168.359 97.3629 168.84 97.7639C169.321 98.1649 169.642 100.972 169.642 104.02Z" fill="#B02B2B"/>
<path d="M177.422 107.308C178.464 107.789 180.229 109.553 181.432 111.238L183.517 114.285L181.833 114.766C178.143 115.729 174.454 115.247 172.128 113.403C170.204 111.799 169.963 111.157 170.444 108.992C170.845 106.827 171.326 106.426 173.251 106.426C174.534 106.426 176.379 106.827 177.422 107.308Z" fill="#B64646"/>
<path d="M187.607 97.2025C190.254 100.33 191.056 102.736 188.65 100.571C187.848 99.7689 186.564 99.2075 185.843 99.2075C185.121 99.2075 183.276 98.5659 181.672 97.8441C179.186 96.6411 178.464 96.6411 176.219 97.5233C171.166 99.5284 170.524 99.2877 174.454 96.8817C180.229 93.3529 184.319 93.4331 187.607 97.2025Z" fill="#A02E2E"/>
<path d="M183.116 99.5283C185.682 100.571 188.088 101.774 188.489 102.095C188.89 102.496 188.65 104.1 188.008 105.624L186.805 108.431L185.522 106.025C183.116 101.293 181.271 99.9293 178.143 100.491L175.256 101.052L176.78 99.2877C177.662 98.4055 178.384 97.6035 178.384 97.6035C178.464 97.6035 180.549 98.4857 183.116 99.5283Z" fill="#692A2A"/>
<path d="M174.855 100.972C174.855 101.453 175.417 102.576 176.219 103.378C177.903 105.223 177.341 105.784 174.214 105.142C170.444 104.34 170.123 100.09 173.893 100.01C174.374 100.01 174.855 100.411 174.855 100.972Z" fill="#9D4343"/>
<path d="M191.136 107.468C190.574 110.516 189.291 113.162 188.73 112.521C188.088 111.879 190.334 104.02 190.975 104.501C191.376 104.741 191.457 106.025 191.136 107.468Z" fill="#882B2B"/>
<path d="M187.206 111.398C186.484 113.804 186.404 113.884 185.281 113.242C184.64 112.841 184.8 112.2 185.762 111.157C187.527 109.152 187.928 109.233 187.206 111.398Z" fill="#9D3030"/>
<path d="M184.239 110.195C182.875 111.639 182.474 110.837 183.356 108.431C183.757 107.468 184.158 107.388 184.72 107.949C185.361 108.591 185.201 109.233 184.239 110.195Z" fill="#9D3535"/>
<path d="M182.234 107.709C181.672 108.671 181.351 108.751 180.87 108.03C180.549 107.468 180.71 106.746 181.351 106.345C182.795 105.463 183.196 106.025 182.234 107.709Z" fill="#AF5252"/>
<path d="M181.672 103.618C181.672 104.661 181.031 105.303 179.908 105.463C178.865 105.624 178.063 105.383 178.063 104.982C178.063 104.501 177.823 103.538 177.582 102.817C177.101 101.774 177.502 101.533 179.346 101.774C181.031 101.934 181.672 102.415 181.672 103.618Z" fill="#952323"/>
<path d="M55.7583 181.332C61.2119 183.658 70.8359 194.645 69.3923 197.051C68.6705 198.254 60.5703 198.014 57.5227 196.811C56.0791 196.169 53.7533 194.645 52.2295 193.362C49.1819 190.796 43.1669 181.894 43.8085 180.851C44.4501 179.809 52.7909 180.129 55.7583 181.332Z" fill="#699472"/>
<path d="M43.7283 136.821C46.8561 138.185 53.7533 144.841 53.7533 146.526C53.7533 147.809 46.6957 147.488 43.8887 146.044C39.2371 143.718 34.5053 138.265 34.5053 135.217C34.5053 134.094 39.3173 134.896 43.7283 136.821Z" fill="#699472"/>
<path d="M65.2219 123.909C64.5803 129.844 62.9763 133.774 61.3723 133.212C60.4901 132.811 60.1693 133.292 60.1693 135.217C60.1693 137.543 59.9287 137.704 57.4425 137.704C53.4325 137.704 52.5503 136.18 53.7533 131.288C54.3147 129.122 55.6781 125.914 56.9613 124.23C59.0465 121.343 63.8585 118.135 65.0615 118.937C65.3823 119.097 65.4625 121.343 65.2219 123.909Z" fill="#699472"/>
<path d="M75.8885 167.057C77.4123 167.698 78.6153 168.5 78.6153 168.901C78.6153 170.987 68.0289 172.189 64.8209 170.505C63.4575 169.783 63.2971 169.142 63.7783 166.736C64.0189 165.052 64.8209 162.966 65.4625 161.924L66.6655 160.079L69.9537 162.966C71.7181 164.57 74.3647 166.415 75.8885 167.057Z" fill="#699472"/>
</g>
<defs>
<clipPath id="clip0_240_1027">
<rect width="204" height="207" fill="white"/>
</clipPath>
</defs>
</svg>
