<svg width="85" height="32" viewBox="0 0 85 32" fill="none" xmlns="http://www.w3.org/2000/svg">
<g filter="url(#filter0_d_720_223)">
<rect x="4" y="3" width="77" height="24" rx="2" fill="white"/>
<path d="M13.25 6.25C12.7859 6.25 12.3408 6.43437 12.0126 6.76256C11.6844 7.09075 11.5 7.53587 11.5 8V22C11.5 22.4641 11.6844 22.9092 12.0126 23.2374C12.3408 23.5656 12.7859 23.75 13.25 23.75H23.75C24.2141 23.75 24.6592 23.5656 24.9874 23.2374C25.3156 22.9092 25.5 22.4641 25.5 22V13.0995C25.4999 12.6354 25.3155 12.1904 24.9872 11.8622L19.8878 6.76275C19.5596 6.43454 19.1146 6.2501 18.6505 6.25H13.25ZM12.8125 8C12.8125 7.88397 12.8586 7.77269 12.9406 7.69064C13.0227 7.60859 13.134 7.5625 13.25 7.5625H18.5V11.5C18.5 11.9641 18.6844 12.4092 19.0126 12.7374C19.3408 13.0656 19.7859 13.25 20.25 13.25H24.1875V22C24.1875 22.116 24.1414 22.2273 24.0594 22.3094C23.9773 22.3914 23.866 22.4375 23.75 22.4375H13.25C13.134 22.4375 13.0227 22.3914 12.9406 22.3094C12.8586 22.2273 12.8125 22.116 12.8125 22V8ZM23.2075 11.9375H20.25C20.134 11.9375 20.0227 11.8914 19.9406 11.8094C19.8586 11.7273 19.8125 11.616 19.8125 11.5V8.5425L23.2075 11.9375Z" fill="#DB6F4F"/>
<path d="M35.2926 22V20.0966L40.3423 15.1463C40.8253 14.6586 41.2277 14.2254 41.5497 13.8466C41.8717 13.4678 42.1132 13.1009 42.2741 12.7457C42.4351 12.3906 42.5156 12.0118 42.5156 11.6094C42.5156 11.1501 42.4115 10.7571 42.2031 10.4304C41.9948 10.099 41.7083 9.84328 41.3438 9.66335C40.9792 9.48343 40.5649 9.39347 40.1009 9.39347C39.6226 9.39347 39.2036 9.4929 38.8438 9.69176C38.4839 9.88589 38.2045 10.1629 38.0057 10.5227C37.8116 10.8826 37.7145 11.3111 37.7145 11.8082H35.2074C35.2074 10.8849 35.4181 10.0824 35.8395 9.40057C36.2609 8.71875 36.8409 8.19081 37.5795 7.81676C38.3229 7.44271 39.1752 7.25568 40.1364 7.25568C41.1117 7.25568 41.9688 7.43797 42.7074 7.80256C43.446 8.16714 44.0189 8.66667 44.4261 9.30114C44.8381 9.93561 45.044 10.66 45.044 11.4744C45.044 12.0189 44.9399 12.554 44.7315 13.0795C44.5232 13.6051 44.1563 14.1875 43.6307 14.8267C43.1098 15.4659 42.3783 16.2401 41.4361 17.1491L38.929 19.6989V19.7983H45.2642V22H35.2926ZM53.0909 22.277C51.9214 22.277 50.9176 21.9811 50.0795 21.3892C49.2462 20.7926 48.6046 19.9332 48.1548 18.8111C47.7098 17.6842 47.4872 16.3277 47.4872 14.7415C47.492 13.1553 47.7169 11.8059 48.1619 10.6932C48.6117 9.57576 49.2533 8.72348 50.0866 8.13636C50.9247 7.54924 51.9261 7.25568 53.0909 7.25568C54.2557 7.25568 55.2571 7.54924 56.0952 8.13636C56.9332 8.72348 57.5748 9.57576 58.0199 10.6932C58.4697 11.8106 58.6946 13.16 58.6946 14.7415C58.6946 16.3324 58.4697 17.6913 58.0199 18.8182C57.5748 19.9403 56.9332 20.7973 56.0952 21.3892C55.2618 21.9811 54.2604 22.277 53.0909 22.277ZM53.0909 20.054C54 20.054 54.7173 19.6065 55.2429 18.7116C55.7732 17.812 56.0384 16.4886 56.0384 14.7415C56.0384 13.5862 55.9176 12.6155 55.6761 11.8295C55.4347 11.0436 55.0938 10.4517 54.6534 10.054C54.2131 9.65152 53.6922 9.45028 53.0909 9.45028C52.1866 9.45028 51.4716 9.90009 50.946 10.7997C50.4205 11.6946 50.1553 13.0085 50.1506 14.7415C50.1458 15.9015 50.2618 16.8769 50.4986 17.6676C50.7401 18.4583 51.081 19.0549 51.5213 19.4574C51.9616 19.8551 52.4848 20.054 53.0909 20.054ZM68.8313 19.2727V18.5057C68.8313 17.9422 68.9497 17.4238 69.1864 16.9503C69.4279 16.4768 69.7783 16.0956 70.2376 15.8068C70.6969 15.518 71.2532 15.3736 71.9066 15.3736C72.579 15.3736 73.1424 15.518 73.5969 15.8068C74.0515 16.0909 74.3948 16.4697 74.6268 16.9432C74.8635 17.4167 74.9819 17.9375 74.9819 18.5057V19.2727C74.9819 19.8362 74.8635 20.3546 74.6268 20.8281C74.39 21.3016 74.042 21.6828 73.5827 21.9716C73.1282 22.2604 72.5695 22.4048 71.9066 22.4048C71.2437 22.4048 70.6826 22.2604 70.2234 21.9716C69.7641 21.6828 69.4161 21.3016 69.1793 20.8281C68.9473 20.3546 68.8313 19.8362 68.8313 19.2727ZM70.685 18.5057V19.2727C70.685 19.6468 70.775 19.9901 70.9549 20.3026C71.1348 20.6151 71.4521 20.7713 71.9066 20.7713C72.3659 20.7713 72.6808 20.6174 72.8512 20.3097C73.0264 19.9972 73.114 19.6515 73.114 19.2727V18.5057C73.114 18.1269 73.0311 17.7812 72.8654 17.4688C72.6997 17.1515 72.3801 16.9929 71.9066 16.9929C71.4615 16.9929 71.1467 17.1515 70.962 17.4688C70.7773 17.7812 70.685 18.1269 70.685 18.5057ZM61.4379 10.9489V10.1818C61.4379 9.61364 61.5586 9.0928 61.8001 8.61932C62.0415 8.14583 62.3919 7.76704 62.8512 7.48295C63.3105 7.19413 63.8668 7.04972 64.5202 7.04972C65.1879 7.04972 65.7489 7.19413 66.2035 7.48295C66.6628 7.76704 67.0084 8.14583 67.2404 8.61932C67.4724 9.0928 67.5884 9.61364 67.5884 10.1818V10.9489C67.5884 11.517 67.4701 12.0379 67.2333 12.5114C67.0013 12.9801 66.6557 13.3565 66.1964 13.6406C65.7371 13.9247 65.1784 14.0668 64.5202 14.0668C63.8526 14.0668 63.2892 13.9247 62.8299 13.6406C62.3754 13.3565 62.0297 12.9777 61.793 12.5043C61.5562 12.0308 61.4379 11.5123 61.4379 10.9489ZM63.3058 10.1818V10.9489C63.3058 11.3277 63.3933 11.6733 63.5685 11.9858C63.7485 12.2936 64.0657 12.4474 64.5202 12.4474C64.9748 12.4474 65.2873 12.2936 65.4577 11.9858C65.6329 11.6733 65.7205 11.3277 65.7205 10.9489V10.1818C65.7205 9.80303 65.6377 9.45739 65.4719 9.14489C65.3062 8.82765 64.989 8.66903 64.5202 8.66903C64.0704 8.66903 63.7556 8.82765 63.5756 9.14489C63.3957 9.46212 63.3058 9.80777 63.3058 10.1818ZM62.2475 22L72.2475 7.45455H74.0231L64.0231 22H62.2475Z" fill="#DB6F4F"/>
<rect x="4.5" y="3.5" width="76" height="23" rx="1.5" stroke="#DB6F4F"/>
</g>
<defs>
<filter id="filter0_d_720_223" x="0" y="0" width="85" height="32" filterUnits="userSpaceOnUse" color-interpolation-filters="sRGB">
<feFlood flood-opacity="0" result="BackgroundImageFix"/>
<feColorMatrix in="SourceAlpha" type="matrix" values="0 0 0 0 0 0 0 0 0 0 0 0 0 0 0 0 0 0 127 0" result="hardAlpha"/>
<feOffset dy="1"/>
<feGaussianBlur stdDeviation="2"/>
<feComposite in2="hardAlpha" operator="out"/>
<feColorMatrix type="matrix" values="0 0 0 0 0 0 0 0 0 0 0 0 0 0 0 0 0 0 0.1 0"/>
<feBlend mode="normal" in2="BackgroundImageFix" result="effect1_dropShadow_720_223"/>
<feBlend mode="normal" in="SourceGraphic" in2="effect1_dropShadow_720_223" result="shape"/>
</filter>
</defs>
</svg>
