<svg width="77" height="32" viewBox="0 0 77 32" fill="none" xmlns="http://www.w3.org/2000/svg">
<g filter="url(#filter0_d_720_200)">
<g clip-path="url(#clip0_720_200)">
<rect x="4" y="3" width="69" height="24" rx="4" fill="white"/>
<path fill-rule="evenodd" clip-rule="evenodd" d="M10.7441 15.5731C10.8009 15.5792 10.8832 15.5841 11 15.5841C11.3806 15.5841 11.7446 15.6667 12.0588 15.8663C12.3417 16.0474 12.5633 16.3096 12.6949 16.6188C12.8362 16.9416 12.8786 17.2951 12.8909 17.5694C13.24 17.6219 13.7624 17.625 14.5 17.625C15.2372 17.625 15.76 17.6224 16.1091 17.5694C16.1214 17.2947 16.1638 16.9416 16.3051 16.6183C16.4365 16.3093 16.6581 16.047 16.9408 15.8658C17.2558 15.6667 17.6189 15.5841 17.9996 15.5841C18.1164 15.5841 18.1991 15.5797 18.2559 15.5736L18.2612 15.5386C18.2822 15.3903 18.2918 15.1772 18.2918 14.8561C18.2918 14.0506 18.6156 13.5667 18.819 13.2614C18.8588 13.2023 18.8938 13.1494 18.9214 13.1026C19.0789 12.8331 19.3125 12.3404 19.3125 10.9194C19.3125 9.66775 18.756 8.75294 17.8941 8.12425C17.0073 7.47675 15.7766 7.125 14.5 7.125C13.2234 7.125 11.9931 7.47675 11.1054 8.12425C10.244 8.75294 9.6875 9.66775 9.6875 10.9199C9.6875 12.3404 9.92113 12.8331 10.0786 13.103C10.1062 13.1494 10.1412 13.2023 10.181 13.2614C10.3849 13.5667 10.7082 14.0506 10.7082 14.8556C10.7082 15.1772 10.7178 15.3903 10.7388 15.5381L10.7441 15.5731ZM9.83319 14.8556C9.83319 16.1677 9.97931 16.4591 11 16.4591C12.0207 16.4591 12.0207 17.3341 12.0207 17.9168C12.0207 18.5 13.0418 18.5 14.5 18.5C15.9582 18.5 16.9793 18.5 16.9793 17.9168C16.9793 17.3336 16.9793 16.4591 18 16.4591C19.0207 16.4591 19.1664 16.1677 19.1668 14.8556C19.1668 14.3368 19.3265 14.0913 19.5194 13.7951C19.8147 13.3419 20.1875 12.7701 20.1875 10.9199C20.1875 4.69337 8.8125 4.69337 8.8125 10.9199C8.8125 12.7701 9.18525 13.3423 9.48056 13.7951C9.6735 14.0913 9.83319 14.3368 9.83319 14.8556Z" fill="#DBB550"/>
<path d="M13.6255 12.8117C13.6255 13.1598 13.4872 13.4937 13.2411 13.7398C12.9949 13.986 12.6611 14.1242 12.313 14.1242C11.9649 14.1242 11.6311 13.986 11.3849 13.7398C11.1388 13.4937 11.0005 13.1598 11.0005 12.8117C11.0005 12.4636 11.1388 12.1298 11.3849 11.8837C11.6311 11.6375 11.9649 11.4992 12.313 11.4992C12.6611 11.4992 12.9949 11.6375 13.2411 11.8837C13.4872 12.1298 13.6255 12.4636 13.6255 12.8117ZM18.0009 12.8104C18.0012 13.1585 17.8632 13.4925 17.6173 13.7388C17.3713 13.9852 17.0376 14.1237 16.6895 14.124C16.3414 14.1243 16.0075 13.9863 15.7611 13.7404C15.5148 13.4944 15.3762 13.1607 15.3759 12.8126C15.3758 12.6403 15.4096 12.4696 15.4754 12.3103C15.5412 12.151 15.6378 12.0062 15.7596 11.8842C16.0055 11.6379 16.3392 11.4993 16.6873 11.499C17.0354 11.4987 17.3694 11.6367 17.6157 11.8827C17.7377 12.0044 17.8345 12.1491 17.9006 12.3082C17.9667 12.4674 18.0008 12.6381 18.0009 12.8104Z" fill="#DBB550"/>
<path fill-rule="evenodd" clip-rule="evenodd" d="M13.0674 21.3455L8.24438 22.8965L8.51212 23.7295L14.5006 21.8036L20.4917 23.7199L20.7586 22.8864L15.933 21.3429L20.756 19.792L20.4878 18.959L14.5002 20.8849L8.50906 18.9686L8.24219 19.802L13.0674 21.3455Z" fill="#DBB550"/>
<path d="M35.4631 22.1989C34.4072 22.1989 33.4697 22.0213 32.6506 21.6662C31.8362 21.3111 31.197 20.8258 30.733 20.2102C30.2737 19.59 30.0464 18.8868 30.0511 18.1009C30.0464 17.4901 30.179 16.929 30.4489 16.4176C30.7188 15.9062 31.0833 15.4801 31.5426 15.1392C32.0066 14.7936 32.5227 14.5734 33.0909 14.4787V14.3793C32.3428 14.2135 31.7367 13.8324 31.2727 13.2358C30.8134 12.6345 30.5862 11.9408 30.5909 11.1548C30.5862 10.4067 30.7945 9.73911 31.2159 9.15199C31.6373 8.56487 32.215 8.10322 32.9489 7.76705C33.6828 7.42614 34.5208 7.25568 35.4631 7.25568C36.3958 7.25568 37.2268 7.42614 37.956 7.76705C38.6899 8.10322 39.2675 8.56487 39.6889 9.15199C40.1151 9.73911 40.3281 10.4067 40.3281 11.1548C40.3281 11.9408 40.0938 12.6345 39.625 13.2358C39.161 13.8324 38.562 14.2135 37.8281 14.3793V14.4787C38.3963 14.5734 38.9077 14.7936 39.3622 15.1392C39.8215 15.4801 40.1861 15.9062 40.456 16.4176C40.7306 16.929 40.8679 17.4901 40.8679 18.1009C40.8679 18.8868 40.6359 19.59 40.1719 20.2102C39.7079 20.8258 39.0687 21.3111 38.2543 21.6662C37.4446 22.0213 36.5142 22.1989 35.4631 22.1989ZM35.4631 20.1676C36.0076 20.1676 36.4811 20.0753 36.8835 19.8906C37.286 19.7012 37.5985 19.4361 37.821 19.0952C38.0436 18.7543 38.1572 18.3613 38.1619 17.9162C38.1572 17.4522 38.0365 17.0426 37.7997 16.6875C37.5677 16.3277 37.2481 16.0459 36.8409 15.8423C36.4384 15.6387 35.9792 15.5369 35.4631 15.5369C34.9422 15.5369 34.4782 15.6387 34.071 15.8423C33.6638 16.0459 33.3419 16.3277 33.1051 16.6875C32.8731 17.0426 32.7595 17.4522 32.7642 17.9162C32.7595 18.3613 32.8684 18.7543 33.0909 19.0952C33.3134 19.4313 33.6259 19.6941 34.0284 19.8835C34.4356 20.0729 34.9138 20.1676 35.4631 20.1676ZM35.4631 13.5412C35.9081 13.5412 36.3011 13.4512 36.642 13.2713C36.9877 13.0914 37.2599 12.8404 37.4588 12.5185C37.6577 12.1965 37.7595 11.8248 37.7642 11.4034C37.7595 10.9867 37.66 10.6222 37.4659 10.3097C37.2718 9.99242 37.0019 9.74858 36.6562 9.57812C36.3106 9.40294 35.9129 9.31534 35.4631 9.31534C35.0038 9.31534 34.599 9.40294 34.2486 9.57812C33.9029 9.74858 33.633 9.99242 33.4389 10.3097C33.2495 10.6222 33.1572 10.9867 33.1619 11.4034C33.1572 11.8248 33.2519 12.1965 33.446 12.5185C33.6449 12.8357 33.9171 13.0866 34.2628 13.2713C34.6132 13.4512 35.0133 13.5412 35.4631 13.5412ZM48.5792 22.277C47.4097 22.277 46.4059 21.9811 45.5678 21.3892C44.7345 20.7926 44.0929 19.9332 43.6431 18.8111C43.198 17.6842 42.9755 16.3277 42.9755 14.7415C42.9802 13.1553 43.2051 11.8059 43.6502 10.6932C44.1 9.57576 44.7416 8.72348 45.5749 8.13636C46.413 7.54924 47.4144 7.25568 48.5792 7.25568C49.744 7.25568 50.7454 7.54924 51.5835 8.13636C52.4215 8.72348 53.0631 9.57576 53.5082 10.6932C53.958 11.8106 54.1829 13.16 54.1829 14.7415C54.1829 16.3324 53.958 17.6913 53.5082 18.8182C53.0631 19.9403 52.4215 20.7973 51.5835 21.3892C50.7501 21.9811 49.7487 22.277 48.5792 22.277ZM48.5792 20.054C49.4883 20.054 50.2056 19.6065 50.7312 18.7116C51.2615 17.812 51.5266 16.4886 51.5266 14.7415C51.5266 13.5862 51.4059 12.6155 51.1644 11.8295C50.9229 11.0436 50.582 10.4517 50.1417 10.054C49.7013 9.65152 49.1805 9.45028 48.5792 9.45028C47.6748 9.45028 46.9599 9.90009 46.4343 10.7997C45.9087 11.6946 45.6436 13.0085 45.6388 14.7415C45.6341 15.9015 45.7501 16.8769 45.9869 17.6676C46.2283 18.4583 46.5692 19.0549 47.0096 19.4574C47.4499 19.8551 47.9731 20.054 48.5792 20.054ZM64.3196 19.2727V18.5057C64.3196 17.9422 64.438 17.4238 64.6747 16.9503C64.9162 16.4768 65.2666 16.0956 65.7259 15.8068C66.1851 15.518 66.7415 15.3736 67.3949 15.3736C68.0672 15.3736 68.6307 15.518 69.0852 15.8068C69.5398 16.0909 69.883 16.4697 70.1151 16.9432C70.3518 17.4167 70.4702 17.9375 70.4702 18.5057V19.2727C70.4702 19.8362 70.3518 20.3546 70.1151 20.8281C69.8783 21.3016 69.5303 21.6828 69.071 21.9716C68.6165 22.2604 68.0578 22.4048 67.3949 22.4048C66.732 22.4048 66.1709 22.2604 65.7116 21.9716C65.2524 21.6828 64.9044 21.3016 64.6676 20.8281C64.4356 20.3546 64.3196 19.8362 64.3196 19.2727ZM66.1733 18.5057V19.2727C66.1733 19.6468 66.2633 19.9901 66.4432 20.3026C66.6231 20.6151 66.9403 20.7713 67.3949 20.7713C67.8542 20.7713 68.169 20.6174 68.3395 20.3097C68.5147 19.9972 68.6023 19.6515 68.6023 19.2727V18.5057C68.6023 18.1269 68.5194 17.7812 68.3537 17.4688C68.188 17.1515 67.8684 16.9929 67.3949 16.9929C66.9498 16.9929 66.6349 17.1515 66.4503 17.4688C66.2656 17.7812 66.1733 18.1269 66.1733 18.5057ZM56.9261 10.9489V10.1818C56.9261 9.61364 57.0469 9.0928 57.2884 8.61932C57.5298 8.14583 57.8802 7.76704 58.3395 7.48295C58.7988 7.19413 59.3551 7.04972 60.0085 7.04972C60.6761 7.04972 61.2372 7.19413 61.6918 7.48295C62.151 7.76704 62.4967 8.14583 62.7287 8.61932C62.9607 9.0928 63.0767 9.61364 63.0767 10.1818V10.9489C63.0767 11.517 62.9583 12.0379 62.7216 12.5114C62.4896 12.9801 62.1439 13.3565 61.6847 13.6406C61.2254 13.9247 60.6667 14.0668 60.0085 14.0668C59.3409 14.0668 58.7775 13.9247 58.3182 13.6406C57.8636 13.3565 57.518 12.9777 57.2812 12.5043C57.0445 12.0308 56.9261 11.5123 56.9261 10.9489ZM58.794 10.1818V10.9489C58.794 11.3277 58.8816 11.6733 59.0568 11.9858C59.2367 12.2936 59.554 12.4474 60.0085 12.4474C60.4631 12.4474 60.7756 12.2936 60.946 11.9858C61.1212 11.6733 61.2088 11.3277 61.2088 10.9489V10.1818C61.2088 9.80303 61.1259 9.45739 60.9602 9.14489C60.7945 8.82765 60.4773 8.66903 60.0085 8.66903C59.5587 8.66903 59.2438 8.82765 59.0639 9.14489C58.884 9.46212 58.794 9.80777 58.794 10.1818ZM57.7358 22L67.7358 7.45455H69.5114L59.5114 22H57.7358Z" fill="#DBB550"/>
</g>
<rect x="4.5" y="3.5" width="68" height="23" rx="3.5" stroke="#DBB550"/>
</g>
<defs>
<filter id="filter0_d_720_200" x="0" y="0" width="77" height="32" filterUnits="userSpaceOnUse" color-interpolation-filters="sRGB">
<feFlood flood-opacity="0" result="BackgroundImageFix"/>
<feColorMatrix in="SourceAlpha" type="matrix" values="0 0 0 0 0 0 0 0 0 0 0 0 0 0 0 0 0 0 127 0" result="hardAlpha"/>
<feOffset dy="1"/>
<feGaussianBlur stdDeviation="2"/>
<feComposite in2="hardAlpha" operator="out"/>
<feColorMatrix type="matrix" values="0 0 0 0 0 0 0 0 0 0 0 0 0 0 0 0 0 0 0.1 0"/>
<feBlend mode="normal" in2="BackgroundImageFix" result="effect1_dropShadow_720_200"/>
<feBlend mode="normal" in="SourceGraphic" in2="effect1_dropShadow_720_200" result="shape"/>
</filter>
<clipPath id="clip0_720_200">
<rect x="4" y="3" width="69" height="24" rx="4" fill="white"/>
</clipPath>
</defs>
</svg>
