<svg width="176" height="176" viewBox="0 0 176 176" fill="none" xmlns="http://www.w3.org/2000/svg">
<g clip-path="url(#clip0_240_639)">
<path d="M20.7959 33.0737C30.3328 21.5346 42.7028 12.6698 56.6947 7.34728L87.4309 88.1465L20.7959 33.0737Z" fill="#DB6F4F"/>
<path d="M55.7008 7.73234C75.2856 0.00459297 97.0174 -0.310203 116.818 6.84704C136.618 14.0043 153.126 28.1415 163.243 46.6056C173.361 65.0697 176.392 86.5914 171.768 107.132C167.144 127.672 155.183 145.819 138.13 158.167C121.077 170.514 100.103 176.214 79.146 174.196C58.1886 172.179 38.688 162.582 24.3037 147.208C9.91941 131.833 1.64037 111.738 1.02027 90.6927C0.400169 69.6475 7.48165 49.0995 20.9357 32.9047L87.4306 88.1466L55.7008 7.73234Z" fill="#DBB550"/>
<path d="M72.5038 137.414C71.2952 137.414 70.222 137.211 69.2843 136.804C68.3521 136.398 67.6204 135.842 67.0892 135.138C66.5635 134.428 66.3033 133.623 66.3087 132.723C66.3033 132.024 66.4551 131.382 66.764 130.796C67.0729 130.211 67.4903 129.723 68.016 129.333C68.5472 128.937 69.138 128.685 69.7884 128.577V128.463C68.932 128.273 68.2383 127.837 67.7071 127.154C67.1813 126.466 66.9212 125.672 66.9266 124.772C66.9212 123.916 67.1597 123.151 67.6421 122.479C68.1244 121.807 68.7857 121.279 69.6258 120.894C70.4659 120.504 71.4253 120.308 72.5038 120.308C73.5716 120.308 74.5228 120.504 75.3575 120.894C76.1976 121.279 76.8589 121.807 77.3412 122.479C77.829 123.151 78.0729 123.916 78.0729 124.772C78.0729 125.672 77.8047 126.466 77.2681 127.154C76.7369 127.837 76.0513 128.273 75.2112 128.463V128.577C75.8616 128.685 76.4469 128.937 76.9673 129.333C77.493 129.723 77.9103 130.211 78.2193 130.796C78.5337 131.382 78.6908 132.024 78.6908 132.723C78.6908 133.623 78.4253 134.428 77.8941 135.138C77.3629 135.842 76.6312 136.398 75.699 136.804C74.7721 137.211 73.7071 137.414 72.5038 137.414ZM72.5038 135.089C73.1271 135.089 73.6692 134.983 74.1299 134.772C74.5906 134.555 74.9483 134.252 75.203 133.861C75.4578 133.471 75.5879 133.021 75.5933 132.512C75.5879 131.981 75.4496 131.512 75.1786 131.105C74.9131 130.693 74.5472 130.371 74.0811 130.138C73.6204 129.905 73.0946 129.788 72.5038 129.788C71.9076 129.788 71.3765 129.905 70.9103 130.138C70.4442 130.371 70.0757 130.693 69.8047 131.105C69.5391 131.512 69.409 131.981 69.4144 132.512C69.409 133.021 69.5337 133.471 69.7884 133.861C70.0431 134.246 70.4009 134.547 70.8616 134.764C71.3277 134.981 71.8751 135.089 72.5038 135.089ZM72.5038 127.504C73.0133 127.504 73.4632 127.401 73.8534 127.195C74.2491 126.989 74.5608 126.701 74.7884 126.333C75.016 125.964 75.1326 125.539 75.138 125.056C75.1326 124.579 75.0187 124.162 74.7965 123.804C74.5743 123.441 74.2654 123.162 73.8697 122.967C73.474 122.766 73.0187 122.666 72.5038 122.666C71.9781 122.666 71.5147 122.766 71.1136 122.967C70.7179 123.162 70.409 123.441 70.1868 123.804C69.97 124.162 69.8643 124.579 69.8697 125.056C69.8643 125.539 69.9727 125.964 70.1949 126.333C70.4225 126.696 70.7342 126.983 71.1299 127.195C71.5309 127.401 71.9889 127.504 72.5038 127.504ZM87.5181 137.504C86.1793 137.504 85.0303 137.165 84.0709 136.487C83.117 135.804 82.3826 134.821 81.8677 133.536C81.3582 132.246 81.1034 130.693 81.1034 128.878C81.1089 127.062 81.3663 125.517 81.8758 124.243C82.3907 122.964 83.1251 121.989 84.079 121.317C85.0384 120.645 86.1847 120.308 87.5181 120.308C88.8514 120.308 89.9977 120.645 90.9571 121.317C91.9164 121.989 92.6509 122.964 93.1603 124.243C93.6753 125.523 93.9327 127.067 93.9327 128.878C93.9327 130.699 93.6753 132.254 93.1603 133.544C92.6509 134.829 91.9164 135.81 90.9571 136.487C90.0032 137.165 88.8568 137.504 87.5181 137.504ZM87.5181 134.959C88.5587 134.959 89.3799 134.447 89.9815 133.422C90.5885 132.392 90.8921 130.878 90.8921 128.878C90.8921 127.555 90.7538 126.444 90.4774 125.544C90.201 124.645 89.8108 123.967 89.3067 123.512C88.8026 123.051 88.2064 122.821 87.5181 122.821C86.4828 122.821 85.6644 123.336 85.0628 124.365C84.4612 125.39 84.1576 126.894 84.1522 128.878C84.1468 130.205 84.2796 131.322 84.5506 132.227C84.827 133.132 85.2173 133.815 85.7213 134.276C86.2254 134.731 86.8243 134.959 87.5181 134.959ZM105.536 134.065V133.187C105.536 132.542 105.672 131.948 105.943 131.406C106.219 130.864 106.62 130.428 107.146 130.097C107.672 129.766 108.309 129.601 109.057 129.601C109.826 129.601 110.471 129.766 110.992 130.097C111.512 130.422 111.905 130.856 112.171 131.398C112.442 131.94 112.577 132.536 112.577 133.187V134.065C112.577 134.71 112.442 135.303 112.171 135.845C111.9 136.387 111.501 136.823 110.975 137.154C110.455 137.485 109.815 137.65 109.057 137.65C108.298 137.65 107.656 137.485 107.13 137.154C106.604 136.823 106.206 136.387 105.935 135.845C105.669 135.303 105.536 134.71 105.536 134.065ZM107.658 133.187V134.065C107.658 134.493 107.761 134.886 107.967 135.243C108.173 135.601 108.536 135.78 109.057 135.78C109.582 135.78 109.943 135.604 110.138 135.252C110.339 134.894 110.439 134.498 110.439 134.065V133.187C110.439 132.753 110.344 132.357 110.154 132C109.965 131.636 109.599 131.455 109.057 131.455C108.547 131.455 108.187 131.636 107.975 132C107.764 132.357 107.658 132.753 107.658 133.187ZM97.0729 124.536V123.658C97.0729 123.008 97.2112 122.411 97.4876 121.869C97.764 121.327 98.1651 120.894 98.6908 120.569C99.2166 120.238 99.8534 120.073 100.601 120.073C101.366 120.073 102.008 120.238 102.528 120.569C103.054 120.894 103.45 121.327 103.715 121.869C103.981 122.411 104.114 123.008 104.114 123.658V124.536C104.114 125.187 103.978 125.783 103.707 126.325C103.442 126.861 103.046 127.292 102.52 127.617C101.994 127.943 101.355 128.105 100.601 128.105C99.8372 128.105 99.1922 127.943 98.6664 127.617C98.1461 127.292 97.7505 126.859 97.4795 126.317C97.2084 125.775 97.0729 125.181 97.0729 124.536ZM99.2112 123.658V124.536C99.2112 124.97 99.3114 125.365 99.512 125.723C99.7179 126.075 100.081 126.252 100.601 126.252C101.122 126.252 101.479 126.075 101.675 125.723C101.875 125.365 101.975 124.97 101.975 124.536V123.658C101.975 123.224 101.881 122.829 101.691 122.471C101.501 122.108 101.138 121.926 100.601 121.926C100.086 121.926 99.7261 122.108 99.5201 122.471C99.3141 122.834 99.2112 123.23 99.2112 123.658ZM97.9998 137.187L109.447 120.536H111.479L100.032 137.187H97.9998Z" fill="white"/>
<path d="M36.5121 39.6177V38.5282L39.4023 35.6949C39.6787 35.4158 39.9091 35.1678 40.0934 34.951C40.2776 34.7342 40.4158 34.5242 40.508 34.3209C40.6001 34.1177 40.6462 33.9009 40.6462 33.6705C40.6462 33.4076 40.5866 33.1827 40.4673 32.9957C40.3481 32.806 40.1841 32.6597 39.9755 32.5567C39.7668 32.4537 39.5297 32.4022 39.2641 32.4022C38.9904 32.4022 38.7505 32.4591 38.5446 32.573C38.3386 32.6841 38.1787 32.8426 38.0649 33.0486C37.9538 33.2545 37.8982 33.4998 37.8982 33.7843H36.4633C36.4633 33.2559 36.5839 32.7965 36.8251 32.4063C37.0663 32.016 37.3982 31.7139 37.821 31.4998C38.2465 31.2857 38.7343 31.1787 39.2844 31.1787C39.8427 31.1787 40.3332 31.283 40.756 31.4917C41.1787 31.7003 41.5066 31.9862 41.7397 32.3494C41.9755 32.7125 42.0934 33.1272 42.0934 33.5933C42.0934 33.9049 42.0337 34.2112 41.9145 34.512C41.7953 34.8128 41.5852 35.1461 41.2844 35.512C40.9863 35.8778 40.5676 36.3209 40.0283 36.8413L38.5934 38.3006V38.3575H42.2194V39.6177H36.5121ZM46.699 39.7762C46.0297 39.7762 45.4551 39.6068 44.9755 39.2681C44.4985 38.9266 44.1313 38.4347 43.8738 37.7925C43.6191 37.1475 43.4917 36.3711 43.4917 35.4632C43.4944 34.5553 43.6232 33.783 43.8779 33.1461C44.1354 32.5066 44.5026 32.0188 44.9795 31.6827C45.4592 31.3467 46.0324 31.1787 46.699 31.1787C47.3657 31.1787 47.9389 31.3467 48.4186 31.6827C48.8982 32.0188 49.2654 32.5066 49.5202 33.1461C49.7776 33.7857 49.9064 34.5581 49.9064 35.4632C49.9064 36.3738 49.7776 37.1516 49.5202 37.7965C49.2654 38.4388 48.8982 38.9293 48.4186 39.2681C47.9416 39.6068 47.3684 39.7762 46.699 39.7762ZM46.699 38.5039C47.2194 38.5039 47.6299 38.2478 47.9308 37.7356C48.2343 37.2207 48.386 36.4632 48.386 35.4632C48.386 34.802 48.3169 34.2464 48.1787 33.7965C48.0405 33.3467 47.8454 33.0079 47.5934 32.7803C47.3413 32.5499 47.0432 32.4347 46.699 32.4347C46.1814 32.4347 45.7722 32.6922 45.4714 33.2071C45.1706 33.7193 45.0188 34.4713 45.0161 35.4632C45.0134 36.1272 45.0798 36.6854 45.2153 37.138C45.3535 37.5906 45.5486 37.932 45.8007 38.1624C46.0527 38.39 46.3522 38.5039 46.699 38.5039ZM55.7082 38.0567V37.6177C55.7082 37.2952 55.7759 36.9984 55.9114 36.7274C56.0497 36.4564 56.2502 36.2383 56.5131 36.073C56.7759 35.9076 57.0944 35.825 57.4684 35.825C57.8532 35.825 58.1757 35.9076 58.4358 36.073C58.696 36.2356 58.8925 36.4524 59.0253 36.7234C59.1608 36.9944 59.2285 37.2925 59.2285 37.6177V38.0567C59.2285 38.3792 59.1608 38.6759 59.0253 38.9469C58.8898 39.2179 58.6906 39.4361 58.4277 39.6014C58.1675 39.7667 57.8478 39.8494 57.4684 39.8494C57.089 39.8494 56.7678 39.7667 56.5049 39.6014C56.2421 39.4361 56.0429 39.2179 55.9074 38.9469C55.7746 38.6759 55.7082 38.3792 55.7082 38.0567ZM56.7692 37.6177V38.0567C56.7692 38.2708 56.8207 38.4673 56.9236 38.6461C57.0266 38.825 57.2082 38.9144 57.4684 38.9144C57.7312 38.9144 57.9114 38.8263 58.009 38.6502C58.1093 38.4713 58.1594 38.2735 58.1594 38.0567V37.6177C58.1594 37.4009 58.112 37.203 58.0171 37.0242C57.9223 36.8426 57.7394 36.7518 57.4684 36.7518C57.2136 36.7518 57.0334 36.8426 56.9277 37.0242C56.822 37.203 56.7692 37.4009 56.7692 37.6177ZM51.4765 33.2925V32.8534C51.4765 32.5282 51.5456 32.2301 51.6838 31.9591C51.822 31.6881 52.0226 31.4713 52.2854 31.3087C52.5483 31.1434 52.8667 31.0608 53.2407 31.0608C53.6228 31.0608 53.944 31.1434 54.2041 31.3087C54.467 31.4713 54.6648 31.6881 54.7976 31.9591C54.9304 32.2301 54.9968 32.5282 54.9968 32.8534V33.2925C54.9968 33.6177 54.9291 33.9158 54.7936 34.1868C54.6608 34.4551 54.4629 34.6705 54.2001 34.8331C53.9372 34.9957 53.6174 35.077 53.2407 35.077C52.8586 35.077 52.5361 34.9957 52.2732 34.8331C52.0131 34.6705 51.8152 34.4537 51.6797 34.1827C51.5442 33.9117 51.4765 33.615 51.4765 33.2925ZM52.5456 32.8534V33.2925C52.5456 33.5093 52.5957 33.7071 52.696 33.886C52.799 34.0621 52.9806 34.1502 53.2407 34.1502C53.5009 34.1502 53.6797 34.0621 53.7773 33.886C53.8776 33.7071 53.9277 33.5093 53.9277 33.2925V32.8534C53.9277 32.6366 53.8803 32.4388 53.7854 32.26C53.6906 32.0784 53.509 31.9876 53.2407 31.9876C52.9833 31.9876 52.803 32.0784 52.7001 32.26C52.5971 32.4415 52.5456 32.6394 52.5456 32.8534ZM51.9399 39.6177L57.6635 31.2925H58.6797L52.9562 39.6177H51.9399Z" fill="white"/>
</g>
<defs>
<clipPath id="clip0_240_639">
<rect width="175.285" height="176" fill="white"/>
</clipPath>
</defs>
</svg>
