<svg width="190" height="198" viewBox="0 0 190 198" fill="none" xmlns="http://www.w3.org/2000/svg">
<g clip-path="url(#clip0_219_311)">
<rect width="188.8" height="197.513" transform="translate(0.600037)" fill="white"/>
<path d="M188.366 30.1989C188.661 37.8779 189.326 47.329 189.4 56.7062C189.474 64.8282 188.809 72.8764 188.588 80.9984C188.514 84.3211 189.031 87.5699 189.031 90.8925C189.104 96.5041 188.957 102.116 188.957 107.727C188.957 111.641 189.031 115.554 189.031 119.393C189.031 132.536 189.326 145.679 188.957 158.822C188.661 169.012 187.554 179.127 186.742 189.243C186.299 195.15 184.305 196.922 177.217 197.439C174.706 197.586 172.122 197.069 169.538 196.7C168.061 196.479 166.658 195.814 165.255 195.74C156.469 195.371 147.682 194.854 138.896 194.928C131.438 195.002 123.907 196.183 116.449 196.11C103.676 195.962 90.9019 194.854 78.202 194.781C66.0928 194.707 53.9098 195.74 41.7268 195.888C34.0478 195.962 26.2949 195.445 18.6159 195.224C14.8503 195.076 11.0108 194.854 7.2451 194.633C3.25793 194.411 2.07655 192.861 2.37189 188.947C3.55328 172.777 4.07013 156.607 1.48585 140.584C-0.360059 129.435 1.04284 118.36 1.55969 107.21C1.92887 99.6791 1.63353 92.0739 1.19051 84.5426C0.599816 74.5008 0.00912392 64.5329 1.92887 54.565C3.03642 48.5842 3.03642 42.3081 3.03642 36.2535C3.03642 26.7286 2.66724 17.2037 2.37189 7.67878C2.29806 4.50381 3.4056 2.87941 6.50674 2.6579C12.8567 2.21488 19.2805 1.32884 25.6304 1.40268C38.8471 1.47652 52.1377 2.14104 65.3544 2.43639C69.4893 2.51023 73.698 2.58406 77.8328 2.28872C97.9163 0.811987 118 0.295132 138.157 1.77186C148.79 2.58406 159.57 0.664314 170.276 0.0736221C173.673 -0.0740509 177.143 -0.0740509 180.539 0.147459C184.748 0.442805 186.446 3.24859 186.668 7.08809C187.259 14.2502 187.775 21.3385 188.366 30.1989ZM183.198 45.9999H183.271C183.271 44.7447 183.345 43.5633 183.271 42.3081C182.533 31.8972 181.647 21.56 180.982 11.1491C180.687 5.83287 179.063 4.35614 173.894 5.0945C172.787 5.24218 171.753 5.6852 170.645 5.83287C166.067 6.27589 161.416 6.71891 156.838 7.08809C154.18 7.23576 151.522 7.08809 148.864 7.23576C144.803 7.45727 140.815 7.97413 136.754 7.90029C130.404 7.82646 123.981 7.01425 117.631 7.16193C103.602 7.45727 89.6467 8.56482 75.6916 8.63866C61.958 8.63866 48.2244 7.53111 34.4169 7.38344C26.4426 7.23576 18.6159 8.1218 10.7893 8.41715C8.50032 8.49098 8.57416 9.59853 8.57416 11.5183C8.648 23.7751 8.79567 36.032 8.27881 48.2889C7.83579 58.5521 5.54686 68.7416 6.87592 79.0787C7.31894 82.4752 7.90963 85.8717 8.0573 89.2681C8.27881 95.2489 8.50032 101.156 8.27881 107.137C7.98347 114.668 6.80208 122.199 6.72825 129.731C6.65441 135.342 8.0573 140.954 8.20498 146.565C8.57416 158.453 8.72183 170.341 8.86951 182.228C8.94334 188.061 8.8695 188.061 14.8503 188.431C15.3671 188.431 15.8101 188.652 16.327 188.652C24.892 188.947 33.6047 190.055 42.0959 189.317C58.7092 187.914 75.2485 188.283 91.7879 189.095C103.085 189.612 114.382 189.612 125.679 189.686C138.526 189.76 151.374 189.686 164.222 189.686C165.329 189.686 166.363 190.055 167.47 190.276C169.981 190.793 172.491 191.606 175.002 191.753C179.875 192.122 180.761 190.941 180.982 186.142C181.499 177.724 182.385 169.307 182.755 160.816C183.198 149.888 183.419 139.034 183.493 128.106C183.567 120.649 183.345 113.191 183.345 105.734C183.345 101.673 183.862 97.6855 183.862 93.6245C183.788 88.6036 183.345 83.6566 183.271 78.7095C183.124 67.8555 183.198 56.9277 183.198 45.9999Z" fill="#A39685"/>
<path d="M94.7416 157.641C89.3515 156.607 85.8074 158.97 82.1155 161.185C80.6388 162.071 77.6853 162.588 76.5778 161.776C75.1749 160.668 74.7319 158.084 74.4365 156.09C74.2889 155.278 75.4702 153.875 76.4301 153.432C83.8138 150.036 91.6404 149.002 99.6148 150.405C101.018 150.626 102.199 152.103 103.528 153.063C102.494 154.244 101.682 156.017 100.427 156.533C98.4334 157.346 96.1445 157.419 94.7416 157.641Z" fill="#A39685"/>
<path d="M129.002 66.0098C128.633 65.7145 127.599 64.9023 126.491 64.0162C127.599 63.1302 128.706 61.6535 129.888 61.5796C137.419 60.8412 145.024 60.2506 152.556 59.8814C153.663 59.8075 154.771 61.1366 155.878 61.8011C154.845 62.6133 153.959 64.1639 152.851 64.2377C145.32 65.0499 137.714 65.4929 129.002 66.0098Z" fill="#A39685"/>
<path d="M62.6227 66.0838C57.528 66.6007 52.4333 67.339 47.3386 67.5606C46.0095 67.6344 43.4252 66.5268 43.3514 65.7146C42.9822 63.1304 45.345 63.278 47.1909 63.0565C52.4333 62.5397 57.6019 61.8751 62.8443 61.3583C64.3948 61.2106 66.0931 60.9891 67.5698 61.3583C68.6035 61.6536 69.3419 62.9827 70.2279 63.8687C69.268 64.6809 68.4558 65.8623 67.4221 66.1577C65.9454 66.5268 64.2471 66.2315 62.6966 66.2315C62.6227 66.2315 62.6227 66.1577 62.6227 66.0838Z" fill="#A39685"/>
<path d="M141.406 81.8846C142.661 79.7433 143.621 78.0451 144.729 76.4945C145.467 75.5346 146.427 74.2794 147.461 74.1317C148.199 73.9841 149.676 75.1654 150.119 76.1253C151.596 79.3003 148.421 84.1735 143.843 86.0194C140.077 87.57 136.459 86.2409 135.278 82.4014C134.835 80.9985 135.056 78.3404 136.016 77.6759C138.084 76.1991 139.191 78.1927 139.856 80.0386C140.077 80.334 140.373 80.5555 141.406 81.8846Z" fill="#A39685"/>
<path d="M92.2311 98.1289C93.2649 99.5318 94.2986 100.344 94.5201 101.304C95.0369 103.667 95.1108 106.177 95.48 108.614C95.7753 110.533 95.6276 112.749 96.6613 114.225C98.4334 116.81 96.6613 117.622 95.1108 118.434C93.191 119.468 91.0498 118.877 90.8283 116.662C90.2376 111.567 90.0161 106.472 89.9422 101.304C89.8684 100.492 91.1974 99.5318 92.2311 98.1289Z" fill="#A39685"/>
<path d="M65.9454 78.8574C65.8715 83.1399 61.8105 87.2009 58.1925 87.5701C54.7961 87.8654 50.8827 84.7643 50.4397 81.1463C50.3659 80.1864 51.2519 79.0789 51.6211 78.0452C52.581 78.562 53.91 78.7835 54.5746 79.5219C57.528 83.2137 58.2664 83.066 60.5553 78.9312C61.146 77.8237 62.7704 76.8638 64.0256 76.7161C64.6902 76.6423 65.5762 78.4143 65.9454 78.8574Z" fill="#A39685"/>
</g>
<defs>
<clipPath id="clip0_219_311">
<rect width="188.8" height="197.513" fill="white" transform="translate(0.600037)"/>
</clipPath>
</defs>
</svg>
