<svg width="800" viewBox="0 0 301 65" fill="none" xmlns="http://www.w3.org/2000/svg">
<path fill-rule="evenodd" clip-rule="evenodd" d="M87.5163 62.2926C39.8862 65.2425 39.588 65.0374 38.0828 63.4813C37.2708 62.642 30.2943 61.8283 22.5794 61.6732C13.3391 61.4873 7.74478 60.7243 6.18589 59.4374C4.88436 58.3629 3.21474 57.5111 2.47565 57.5446C1.73656 57.5781 1.07463 56.3421 1.00464 54.7979C0.903214 52.56 1.81354 51.9479 5.49122 51.7812C8.02877 51.6662 10.0763 50.9404 10.0413 50.1683C10.0064 49.3962 8.75125 48.8201 7.25223 48.8881C3.31233 49.0666 2.04872 46.3422 5.89856 45.9695C7.67771 45.7973 9.61063 45.7097 10.194 45.7748C10.7774 45.84 11.2261 45.2616 11.1911 44.4895C11.1561 43.7174 9.54773 43.1573 7.61696 43.2448C5.6862 43.3323 4.07783 42.7722 4.04284 42.0001C4.00785 41.228 4.64579 40.5661 5.46045 40.5292C6.24225 40.4937 9.56322 39.0943 12.9682 37.3743C11.2048 37.183 10.1352 36.8743 10.1176 36.4853C10.0826 35.7132 12.4231 34.9654 15.3188 34.8236C16.905 34.746 18.8013 34.5222 20.5053 34.2328C22.4375 33.6029 24.5629 33.0202 26.9476 32.4747L27.5158 32.288L23.2606 31.5383C20.8261 31.1094 22.8299 30.6094 28.9576 30.1C30.416 29.9012 30.9816 29.1171 30.4781 27.9643C30.39 27.7624 30.3406 27.563 30.3286 27.3683C22.4441 27.914 14.7853 28.6395 11.2003 29.3287C3.68574 30.7733 1.52042 30.6704 3.0979 28.9436C4.44601 27.4679 14.3115 24.8234 18.6248 24.7816C20.8859 24.7596 23.1644 23.9728 23.6881 23.0331C24.2118 22.0934 26.7382 21.2891 29.3023 21.2458C29.9346 21.2351 30.5766 21.1912 31.1966 21.1209C30.2409 20.2421 30.9557 19.8292 33.682 18.435C34.2054 18.1673 34.7022 17.857 35.1517 17.5257C32.6685 17.613 29.321 17.8015 25.4649 18.0836C3.4458 19.6943 10.6115 17.3011 34.8263 14.9571C35.6729 14.8751 36.5196 14.7916 37.362 14.7072C37.3646 14.6682 37.365 14.6299 37.3633 14.5926C37.3156 13.5391 39.2822 12.1807 41.7337 11.5739C45.5438 10.6309 45.7856 10.3331 43.3995 9.52243C41.8643 9.00087 59.8831 7.75115 83.4412 6.74528C106.999 5.73939 123.451 5.48725 120 6.18492C114.64 7.26863 114.342 7.48893 117.958 7.69719C119.323 7.77582 128.043 7.56011 140.399 7.16329C152.739 6.44086 161.443 5.86686 162.796 5.66506C166.378 5.13059 166.062 4.93809 160.625 4.34371C157.125 3.96106 173.532 2.72402 197.085 1.59477C220.637 0.465512 238.695 0.0801824 237.214 0.738482C234.911 1.76166 235.178 2.03635 239.058 2.63087C241.554 3.01339 243.636 4.1883 243.684 5.24181C243.685 5.27919 243.689 5.31721 243.695 5.35584C244.542 5.36375 245.393 5.37029 246.243 5.37532C270.571 5.51932 277.924 7.25453 255.849 7.64221C251.983 7.71009 248.632 7.82514 246.152 7.96289C246.629 8.25218 247.152 8.51626 247.697 8.73544C250.539 9.87733 251.288 10.2239 250.416 11.1856C251.039 11.1995 251.683 11.1852 252.313 11.1386C254.871 10.9498 257.46 11.5222 258.066 12.4107C258.673 13.2992 261.013 13.8767 263.267 13.694C266.216 13.455 271.878 14.1992 275.62 15.1252C276.108 15.2152 276.485 15.3164 276.753 15.4289C277.901 15.7638 278.752 16.1105 279.107 16.4345C279.193 16.5133 279.27 16.5889 279.336 16.6614C280.444 16.953 281.758 17.1094 282.964 17.0547C286.369 16.9004 286.957 17.3487 286.452 19.71C285.989 21.8762 286.537 22.5195 288.756 22.4189C290.357 22.3464 291.27 22.7216 290.785 23.2526C290.646 23.4054 290.577 23.6205 290.573 23.8742C296.125 24.0015 299.757 24.3452 299.441 24.9336C299.087 25.5919 296.011 26.6791 292.464 27.4207C292.508 27.6764 292.37 27.7991 292.035 27.731C290.809 27.4815 287.26 29.1709 285.059 30.7287C284.998 31.2984 284.294 32.0525 283.235 32.7633C283.336 33.3294 284.417 33.4215 285.702 32.9573C287.517 32.3014 287.44 32.5492 285.395 33.9456C284.944 34.2535 284.475 34.6228 284.025 35.0177C285.499 34.8998 287.322 34.7326 289.525 34.5176C296.839 33.8035 301.387 33.639 299.63 34.1521C297.262 34.8437 296.84 35.5155 297.998 36.7501C299.198 38.0293 297.718 38.8807 291.614 40.4221C283.026 42.5909 277.617 44.7562 276.933 46.1878C278.518 46.6359 279.668 47.3096 279.699 47.9895C279.705 48.1157 279.233 48.2509 278.375 48.3877C278.361 50.0904 273.886 52.2497 267.073 53.5464C262.68 54.3824 260.04 55.1109 261.205 55.1652C262.939 55.2462 262.904 55.5438 261.01 56.807C259.738 57.6555 254.863 58.2637 250.178 58.1586C245.092 58.0443 241.693 58.519 241.743 59.3368C241.846 61.0356 219.326 62.4214 201.056 61.8407C174.397 60.9934 167.755 61.0343 172.198 62.0187C175.721 62.799 175.03 63.027 168.297 63.3053C163.797 63.4912 159.809 63.2107 159.436 62.682C159.112 62.2234 157.826 61.8853 155.477 61.6666C152.22 62.2885 150.087 62.8286 149.79 63.1535C149.407 63.5726 147.514 63.9876 145.583 64.0751C141.163 64.2754 142.266 62.9267 147.5 61.7308C147.994 61.6181 148.476 61.5003 148.929 61.3826C141.911 61.2897 131.204 61.5834 116.222 62.258C99.5059 63.0107 90.3381 63.0265 87.5163 62.2926ZM272.331 24.0376C276.554 23.8998 280.748 23.8248 284.531 23.8178C284.696 22.7583 284.055 21.9925 283.1 22.1127C282.138 22.2336 277.723 22.6113 273.288 22.9516C271.353 23.1002 269.902 23.2382 268.874 23.3883C270.412 23.4382 271.682 23.6808 272.331 24.0376ZM26.431 23.8721C26.4156 23.5316 27.0172 22.834 27.7679 22.3218C28.5186 21.8096 29.1631 22.0596 29.2001 22.8772C29.2372 23.6949 28.6356 24.3925 27.8633 24.4275C27.091 24.4625 26.4464 24.2126 26.431 23.8721ZM231.601 2.53367C231.089 1.78321 231.339 1.13888 232.157 1.1018C232.974 1.06474 233.672 1.66612 233.707 2.43821C233.742 3.2103 233.492 3.85464 233.152 3.87007C232.811 3.88551 232.113 3.28413 231.601 2.53367ZM191.183 3.3174C198.315 2.73884 210.005 2.20904 217.161 2.14006C224.316 2.07108 218.48 2.54442 204.193 3.19196C189.905 3.8395 184.051 3.89594 191.183 3.3174ZM255.411 13.4944C255.395 13.1539 254.733 12.5136 253.939 12.0714C253.145 11.6292 252.526 11.9364 252.563 12.7541C252.6 13.5717 253.262 14.2121 254.034 14.1771C254.807 14.1421 255.426 13.8349 255.411 13.4944ZM49.1515 10.8026C49.5939 10.0088 49.2867 9.38975 48.4687 9.42682C47.6508 9.46389 47.0102 10.1259 47.0452 10.898C47.0802 11.6701 47.3875 12.2892 47.7281 12.2738C48.0686 12.2583 48.7092 11.5963 49.1515 10.8026ZM89.4747 7.92698C82.3193 7.99596 70.6294 8.52576 63.4971 9.10432C56.3648 9.68288 62.2192 9.62642 76.5069 8.97888C90.7946 8.33134 96.6301 7.85798 89.4747 7.92698ZM50.3011 61.4177C48.5483 61.1618 45.7048 61.2907 43.9822 61.7041C42.2598 62.1174 43.6939 62.3268 47.1693 62.1693C50.6446 62.0117 52.054 61.6735 50.3011 61.4177Z" fill="#DBB550"/>
</svg>
